<svg id="_010---Idea" data-name="010---Idea" xmlns="http://www.w3.org/2000/svg" width="33.965" height="33.965" viewBox="0 0 33.965 33.965">
  <path id="Shape" d="M1.832,22.164a4.04,4.04,0,0,0,.588.34c.245.125.654.335.683.481a.983.983,0,0,1-.067.573c-.084.181-.173.337-.249.471-.207.366-.554.98-.031,1.407.122.113.333.277.526.425a1.426,1.426,0,0,0-.184.817.815.815,0,0,0,.336.556c.126.089.26.166.392.241.335.191.465.28.509.457a1.559,1.559,0,0,1-.057.679c-.033.151-.066.3-.085.453a3.369,3.369,0,0,0,.186,1.525,2.12,2.12,0,0,0,2,1.543,2.276,2.276,0,0,0,.464-.049,42.954,42.954,0,0,0,4.772-1.428c1.275.748,2.081,3.024,2.291,3.878a.566.566,0,0,0,.55.43l14.208-.04a.566.566,0,0,0,.539-.736,4.368,4.368,0,0,0-.573-1.076,5.284,5.284,0,0,1-.366-.612,10.693,10.693,0,0,1-.639-1.61,19.1,19.1,0,0,1-.665-3.311.566.566,0,1,0-1.123.138,20.193,20.193,0,0,0,.706,3.51,11.864,11.864,0,0,0,.7,1.772,6.28,6.28,0,0,0,.439.74l.038.057-12.838.037A9.017,9.017,0,0,0,12.9,30.215l.509-.178c.379-.132.665-.232.812-.279,2.425-.767,3.637-1.871,3.6-3.283a.551.551,0,0,0-.576-.552.566.566,0,0,0-.552.579c.014.582-.464,1.432-2.817,2.176-.153.049-.449.152-.841.289-.421.147-.956.334-1.545.534h0a44.044,44.044,0,0,1-4.868,1.472,1,1,0,0,1-1.165-.755,2.251,2.251,0,0,1-.133-1.01c.015-.119.042-.237.068-.355a2.48,2.48,0,0,0,.049-1.205,1.881,1.881,0,0,0-1.048-1.157l-.118-.067a2.122,2.122,0,0,1,.218-.35.566.566,0,0,0-.108-.806c-.136-.1-.456-.34-.691-.529.027-.049.057-.1.085-.153.089-.156.19-.337.289-.546a2.122,2.122,0,0,0,.151-1.267c-.136-.691-.8-1.029-1.28-1.276a3.217,3.217,0,0,1-.465-.27,2.4,2.4,0,0,1-.34-.276c0-.085.092-.293.523-.819a22.77,22.77,0,0,0,2.591-4.208,1.672,1.672,0,0,0,.219-.766,1.981,1.981,0,0,0-.827-1.415c-.229-.21-.445-.408-.47-.591a1.028,1.028,0,0,1,.088-.389c.092-.243.2-.481.306-.719a8.27,8.27,0,0,0,.554-1.493l.057-.241A14.153,14.153,0,0,1,5.634,8.64,9.708,9.708,0,0,1,7.665,5.323a9.336,9.336,0,0,1,5.074-2.411,36.793,36.793,0,0,1,5.311-.765,12.073,12.073,0,0,1,2.664.151.566.566,0,0,0,.194-1.115,13.147,13.147,0,0,0-2.917-.166,37.782,37.782,0,0,0-5.475.786A10.3,10.3,0,0,0,6.842,4.544a10.846,10.846,0,0,0-2.27,3.7,15.354,15.354,0,0,0-.5,1.807l-.057.239a7.386,7.386,0,0,1-.484,1.289c-.113.258-.231.516-.332.783a1.9,1.9,0,0,0-.15.947,2.161,2.161,0,0,0,.825,1.264c.277.254.459.433.461.589a.94.94,0,0,1-.1.246,21.838,21.838,0,0,1-2.479,4.029A2.342,2.342,0,0,0,1.011,21.1,1.728,1.728,0,0,0,1.832,22.164Z" transform="translate(-0.998 -0.997)"/>
  <path id="Shape-2" data-name="Shape" d="M28,15.478a7.758,7.758,0,0,0,1.913,5.259,9.725,9.725,0,0,0,1.3,1.132,4.348,4.348,0,0,1,1.821,2.1,1.7,1.7,0,0,0-1.073,1.576V26.68a1.7,1.7,0,0,0,1.132,1.594v.1a2.264,2.264,0,1,0,4.528,0v-.1a1.7,1.7,0,0,0,1.132-1.594V25.548a1.7,1.7,0,0,0-1.076-1.576,4.355,4.355,0,0,1,1.821-2.1,9.767,9.767,0,0,0,1.3-1.132,7.762,7.762,0,0,0,1.915-5.259,7.36,7.36,0,1,0-14.718,0Zm5.661,1.013h-.566a.566.566,0,1,1,.566-.566Zm2.264,7.359H34.791V17.623h1.132Zm-.566,5.661a1.132,1.132,0,0,1-1.132-1.132H36.49A1.132,1.132,0,0,1,35.358,29.51Zm2.264-2.83a.566.566,0,0,1-.566.566h-3.4a.566.566,0,0,1-.566-.566V25.548a.566.566,0,0,1,.566-.566h3.4a.566.566,0,0,1,.566.566ZM41.584,15.5a6.619,6.619,0,0,1-1.621,4.483,8.846,8.846,0,0,1-1.153.995,7.925,7.925,0,0,0-1.755,1.675V17.623h.566a1.7,1.7,0,1,0-1.7-1.7v.566H34.791v-.566a1.7,1.7,0,1,0-1.7,1.7h.566v5.024a7.915,7.915,0,0,0-1.752-1.674,8.863,8.863,0,0,1-1.154-1A6.616,6.616,0,0,1,29.131,15.5a6.455,6.455,0,0,1,6.227-6.363A6.453,6.453,0,0,1,41.584,15.5Zm-4.528,1v-.566a.566.566,0,1,1,.566.566Z" transform="translate(-12.714 -4.036)"/>
  <path id="Shape-3" data-name="Shape" d="M56.566,21.132h1.7a.566.566,0,1,0,0-1.132h-1.7a.566.566,0,1,0,0,1.132Z" transform="translate(-24.866 -9.243)"/>
  <path id="Shape-4" data-name="Shape" d="M51.879,8.893a.566.566,0,0,0,.4-.166l1.2-1.2a.566.566,0,1,0-.8-.8l-1.2,1.2a.566.566,0,0,0,.4.967Z" transform="translate(-22.832 -3.408)"/>
  <path id="Shape-5" data-name="Shape" d="M40.566,3.83a.566.566,0,0,0,.566-.566v-1.7a.566.566,0,0,0-1.132,0v1.7A.566.566,0,0,0,40.566,3.83Z" transform="translate(-17.923 -0.998)"/>
  <path id="Shape-6" data-name="Shape" d="M28.727,8.727a.566.566,0,0,0,0-.8l-1.2-1.2a.566.566,0,1,0-.8.8l1.2,1.2a.566.566,0,0,0,.8,0Z" transform="translate(-12.087 -3.408)"/>
  <path id="Shape-7" data-name="Shape" d="M21.566,20a.566.566,0,1,0,0,1.132h1.7a.566.566,0,1,0,0-1.132Z" transform="translate(-9.678 -9.243)"/>
</svg>
