<svg xmlns="http://www.w3.org/2000/svg" xmlns:xlink="http://www.w3.org/1999/xlink" width="108" height="108" viewBox="0 0 108 108">
  <defs>
    <filter id="Path_982547" x="0" y="0" width="108" height="108" filterUnits="userSpaceOnUse">
      <feOffset dy="3" input="SourceAlpha"/>
      <feGaussianBlur stdDeviation="3" result="blur"/>
      <feFlood flood-opacity="0.161"/>
      <feComposite operator="in" in2="blur"/>
      <feComposite in="SourceGraphic"/>
    </filter>
  </defs>
  <g id="Group_1152453" data-name="Group 1152453" transform="translate(-201 -2079)">
    <g id="Group_1146977" data-name="Group 1146977" transform="translate(210 2085)">
      <g id="Group_1146954" data-name="Group 1146954">
        <g transform="matrix(1, 0, 0, 1, -9, -6)" filter="url(#Path_982547)">
          <g id="Path_982547-2" data-name="Path 982547" transform="translate(9 6)" fill="#dceef1">
            <path d="M 45 88.5 C 39.12687683105469 88.5 33.43022537231445 87.35007476806641 28.06830024719238 85.08217620849609 C 22.88852500915527 82.89131164550781 18.23629951477051 79.75458526611328 14.2408504486084 75.75914764404297 C 10.24541282653809 71.76370239257812 7.108687400817871 67.11147308349609 4.917825222015381 61.93170166015625 C 2.649924993515015 56.56977462768555 1.5 50.87312316894531 1.5 45 C 1.5 39.12687683105469 2.649924993515015 33.43022537231445 4.917825222015381 28.06830024719238 C 7.108687400817871 22.88852500915527 10.24541282653809 18.23629951477051 14.2408504486084 14.2408504486084 C 18.23629951477051 10.24541282653809 22.88852500915527 7.108687400817871 28.06830024719238 4.917825222015381 C 33.43022537231445 2.649924993515015 39.12687683105469 1.5 45 1.5 C 50.87312316894531 1.5 56.56977462768555 2.649924993515015 61.93170166015625 4.917825222015381 C 67.11147308349609 7.108687400817871 71.76370239257812 10.24541282653809 75.75914764404297 14.2408504486084 C 79.75458526611328 18.23629951477051 82.89131164550781 22.88852500915527 85.08217620849609 28.06830024719238 C 87.35007476806641 33.43022537231445 88.5 39.12687683105469 88.5 45 C 88.5 50.87312316894531 87.35007476806641 56.56977462768555 85.08217620849609 61.93170166015625 C 82.89131164550781 67.11147308349609 79.75458526611328 71.76370239257812 75.75914764404297 75.75914764404297 C 71.76370239257812 79.75458526611328 67.11147308349609 82.89131164550781 61.93170166015625 85.08217620849609 C 56.56977462768555 87.35007476806641 50.87312316894531 88.5 45 88.5 Z" stroke="none"/>
            <path d="M 45 3 C 39.32871246337891 3 33.82865524291992 4.110054016113281 28.65262985229492 6.299339294433594 C 23.65165710449219 8.414573669433594 19.15968322753906 11.44334411621094 15.301513671875 15.301513671875 C 11.44334411621094 19.15968322753906 8.414573669433594 23.65165710449219 6.299339294433594 28.65262985229492 C 4.110054016113281 33.82865524291992 3 39.32871246337891 3 45 C 3 50.67128753662109 4.110054016113281 56.17134475708008 6.299339294433594 61.34737396240234 C 8.414573669433594 66.34834289550781 11.44334411621094 70.84031677246094 15.301513671875 74.698486328125 C 19.15968322753906 78.55665588378906 23.65165710449219 81.58542633056641 28.65262985229492 83.70066070556641 C 33.82865524291992 85.88994598388672 39.32871246337891 87 45 87 C 50.67128753662109 87 56.17134475708008 85.88994598388672 61.34737396240234 83.70066070556641 C 66.34834289550781 81.58542633056641 70.84031677246094 78.55665588378906 74.698486328125 74.698486328125 C 78.55665588378906 70.84031677246094 81.58542633056641 66.34834289550781 83.70066070556641 61.34737396240234 C 85.88994598388672 56.17134475708008 87 50.67128753662109 87 45 C 87 39.32871246337891 85.88994598388672 33.82865524291992 83.70066070556641 28.65262985229492 C 81.58542633056641 23.65165710449219 78.55665588378906 19.15968322753906 74.698486328125 15.301513671875 C 70.84031677246094 11.44334411621094 66.34834289550781 8.414573669433594 61.34737396240234 6.299339294433594 C 56.17134475708008 4.110054016113281 50.67128753662109 3 45 3 M 45 0 C 69.85281372070312 0 90 20.14718627929688 90 45 C 90 69.85281372070312 69.85281372070312 90 45 90 C 20.14718627929688 90 0 69.85281372070312 0 45 C 0 20.14718627929688 20.14718627929688 0 45 0 Z" stroke="none" fill="#6a7b7e"/>
          </g>
        </g>
      </g>
    </g>
    <g id="workflow_11031471" transform="translate(161.696 2075.223)">
      <g id="Group_1152452" data-name="Group 1152452" transform="translate(68.676 19.171)">
        <path id="Path_984001" data-name="Path 984001" d="M122.735,188.1h-4.509a2.33,2.33,0,0,0-2.326,2.326v2.041a2.33,2.33,0,0,0,2.326,2.326h4.509a2.33,2.33,0,0,0,2.326-2.326v-2.041A2.33,2.33,0,0,0,122.735,188.1Z" transform="translate(-115.9 -162.294)" fill="#cb3727" fill-rule="evenodd"/>
        <path id="Path_984002" data-name="Path 984002" d="M232.353,258.2H234.9a1.344,1.344,0,0,1,1.345,1.345v.981a1.339,1.339,0,0,0,1,1.3,14.013,14.013,0,0,1,3.37,1.392,1.322,1.322,0,0,0,1.63-.222l.7-.7a1.366,1.366,0,0,1,1.914,0l1.8,1.8a1.366,1.366,0,0,1,0,1.914l-.7.7a1.34,1.34,0,0,0-.206,1.63,13.754,13.754,0,0,1,1.392,3.37,1.322,1.322,0,0,0,1.3,1h1a1.354,1.354,0,0,1,1.345,1.345V276.6a1.344,1.344,0,0,1-1.345,1.345h-1a1.321,1.321,0,0,0-1.3,1,14.014,14.014,0,0,1-1.392,3.37,1.34,1.34,0,0,0,.206,1.63l.7.7a1.366,1.366,0,0,1,0,1.914l-1.8,1.8a1.366,1.366,0,0,1-1.914,0l-.7-.7a1.343,1.343,0,0,0-1.63-.221,13.755,13.755,0,0,1-3.37,1.392,1.322,1.322,0,0,0-1,1.3v.981a1.357,1.357,0,0,1-1.345,1.361h-2.547a1.357,1.357,0,0,1-1.345-1.361v-.981a1.339,1.339,0,0,0-1-1.3,14.015,14.015,0,0,1-3.37-1.392,1.322,1.322,0,0,0-1.63.221l-.7.7a1.346,1.346,0,0,1-1.9,0l-1.8-1.8a1.366,1.366,0,0,1,0-1.914l.7-.7a1.319,1.319,0,0,0,.206-1.63,13.753,13.753,0,0,1-1.392-3.37,1.322,1.322,0,0,0-1.3-1h-.981A1.354,1.354,0,0,1,216.5,276.6v-2.547a1.357,1.357,0,0,1,1.345-1.361h.981a1.308,1.308,0,0,0,1.3-1,14.013,14.013,0,0,1,1.392-3.37,1.34,1.34,0,0,0-.206-1.63l-.7-.7a1.366,1.366,0,0,1,0-1.914l1.8-1.8a1.346,1.346,0,0,1,1.9,0l.7.7a1.343,1.343,0,0,0,1.63.221,13.754,13.754,0,0,1,3.37-1.392,1.322,1.322,0,0,0,1-1.3v-.981A1.34,1.34,0,0,1,232.353,258.2Z" transform="translate(-200.584 -221.303)" fill="gray" fill-rule="evenodd"/>
        <path id="Path_984003" data-name="Path 984003" d="M274.109,306.5a9.509,9.509,0,1,1-9.509,9.509A9.507,9.507,0,0,1,274.109,306.5Z" transform="translate(-241.074 -261.961)" fill="#b3b4b4" fill-rule="evenodd"/>
        <path id="Path_984004" data-name="Path 984004" d="M290.487,324.4a9.522,9.522,0,0,1-8.718,13.322,9.431,9.431,0,0,1-7.278-3.4,9.507,9.507,0,0,1,16-9.92Z" transform="translate(-248.734 -274.167)" fill="#e6e6e6" fill-rule="evenodd"/>
        <path id="Path_984005" data-name="Path 984005" d="M343.72,338.2a2.429,2.429,0,1,1-2.421,2.421A2.421,2.421,0,0,1,343.72,338.2Z" transform="translate(-305.638 -288.646)" fill="#fff" fill-rule="evenodd"/>
        <path id="Path_984006" data-name="Path 984006" d="M374.323,302a1.123,1.123,0,1,1-1.123,1.123A1.118,1.118,0,0,1,374.323,302Z" transform="translate(-332.491 -258.173)" fill="#b3b4b4" fill-rule="evenodd"/>
        <path id="Path_984007" data-name="Path 984007" d="M195.4,27.54a1.913,1.913,0,0,1,.285.079,5.649,5.649,0,0,1,6.423-2.4,6.059,6.059,0,0,1,3.955,3.417,5.815,5.815,0,0,1,5.269-1.06,5.875,5.875,0,0,1,4.4,5.411l.38.095a5.762,5.762,0,0,1,4.24,6.835,5.158,5.158,0,0,1-2.816,3.37,6.927,6.927,0,0,1-.142.791,5.536,5.536,0,0,1-6.977,3.718,6.571,6.571,0,0,1-2.057-1.013,8.036,8.036,0,0,1-7.816,2.848c-1.424,4.066,1.772,5.284.459,6.091-3.322,2.088-5.537-3.022-5.933-5.791a5.917,5.917,0,0,1-4.319.427,5.74,5.74,0,0,1-4.24-6.819,4.816,4.816,0,0,1,.585-1.376,5.585,5.585,0,0,1-2.262-5.87,5.223,5.223,0,0,1,3.4-3.623,5.228,5.228,0,0,1,.158-1.392A5.568,5.568,0,0,1,195.4,27.54Z" transform="translate(-173.79 -24.991)" fill="#f06597" fill-rule="evenodd"/>
        <path id="Path_984008" data-name="Path 984008" d="M196.269,27.54a1.912,1.912,0,0,1,.285.079,5.649,5.649,0,0,1,6.424-2.4,6.059,6.059,0,0,1,3.955,3.417,5.805,5.805,0,0,1,5.269-1.06,5.875,5.875,0,0,1,4.4,5.411l.38.095a5.941,5.941,0,0,1,4.335,4.715c-3.671,3.354-9.952,5.569-17.1,5.569-8.164,0-15.22-2.9-18.511-7.072a5.223,5.223,0,0,1,3.4-3.623,5.228,5.228,0,0,1,.158-1.392,5.568,5.568,0,0,1,7.009-3.734Z" transform="translate(-174.657 -24.991)" fill="#f499c1" fill-rule="evenodd"/>
        <path id="Path_984009" data-name="Path 984009" d="M349.291,59.5a1.392,1.392,0,1,1-1.392,1.392A1.384,1.384,0,0,1,349.291,59.5Z" transform="translate(-311.193 -54.04)" fill="#f9c9de" fill-rule="evenodd"/>
        <path id="Path_984010" data-name="Path 984010" d="M350.744,79.9a.744.744,0,1,1-.744.744A.764.764,0,0,1,350.744,79.9Z" transform="translate(-312.962 -71.213)" fill="#f9c9de" fill-rule="evenodd"/>
        <path id="Path_984011" data-name="Path 984011" d="M233.891,49.8a1.392,1.392,0,1,1-1.392,1.392A1.384,1.384,0,0,1,233.891,49.8Z" transform="translate(-214.051 -45.875)" fill="#f9c9de" fill-rule="evenodd"/>
        <path id="Path_984012" data-name="Path 984012" d="M235.444,70.2a.744.744,0,1,1-.744.744A.743.743,0,0,1,235.444,70.2Z" transform="translate(-215.904 -63.047)" fill="#f9c9de" fill-rule="evenodd"/>
        <path id="Path_984013" data-name="Path 984013" d="M265.744,41.9a.744.744,0,1,1-.744.744A.743.743,0,0,1,265.744,41.9Z" transform="translate(-241.41 -39.225)" fill="#f9c9de" fill-rule="evenodd"/>
        <path id="Path_984014" data-name="Path 984014" d="M122.735,285.5h-4.509a2.33,2.33,0,0,0-2.326,2.326v2.041a2.33,2.33,0,0,0,2.326,2.326h4.509a2.33,2.33,0,0,0,2.326-2.326v-2.041A2.33,2.33,0,0,0,122.735,285.5Z" transform="translate(-115.9 -244.284)" fill="#cb3727" fill-rule="evenodd"/>
      </g>
      <path id="Path_984015" data-name="Path 984015" d="M75.511,61.5H71a1.229,1.229,0,0,0-1.218,1.218v2.041A1.219,1.219,0,0,0,71,65.972h4.509a1.229,1.229,0,0,0,1.218-1.218V62.713A1.219,1.219,0,0,0,75.511,61.5ZM71.017,59.28h4.509a3.444,3.444,0,0,1,3.433,3.4,6.67,6.67,0,0,0-.016-13.068,3.451,3.451,0,0,1-3.433,3.2H71a3.451,3.451,0,0,1-3.433-3.386,8.871,8.871,0,0,1,1.107-17.673h6.439a1.107,1.107,0,1,1,0,2.215H68.676a6.66,6.66,0,0,0-1.107,13.227A3.433,3.433,0,0,1,71,43.9h4.509a3.434,3.434,0,0,1,3.433,3.5,8.862,8.862,0,0,1-.016,17.53A3.442,3.442,0,0,1,75.495,68.2H70.986a3.454,3.454,0,0,1-3.37-2.737,6.669,6.669,0,0,0,2.4,12.879h5.822a1.1,1.1,0,0,1,1.424-1.63L80.352,78.5a1.106,1.106,0,0,1,.016,1.914l-3.1,1.788a1.111,1.111,0,0,1-1.424-1.645H70.021a8.868,8.868,0,0,1-2.468-17.388v-.443a3.471,3.471,0,0,1,3.465-3.449Zm30.709-20.6a1.1,1.1,0,0,1,.554-2.136,3.34,3.34,0,0,1,2.342,3.971,4.57,4.57,0,0,0,6.424-2.057,4.857,4.857,0,0,1-3.433-2.911,1.1,1.1,0,1,1,2.041-.839,2.714,2.714,0,0,0,1.092,1.282,2.614,2.614,0,0,0,1.376.38,4.3,4.3,0,0,0,1.25-1.013c2.073-2.484.506-6.376-2.974-7.12a1.1,1.1,0,0,1-.87-1.06,4.919,4.919,0,0,0-7.42-3.845,6.748,6.748,0,0,1-1.44,4.493,1.1,1.1,0,0,1-1.74-1.361,4.476,4.476,0,0,0,.823-1.645,4.729,4.729,0,0,0,.127-1.709A4.837,4.837,0,0,0,98.642,21.5c-2.2-1.883-5.712-1.566-7.135.854a1.106,1.106,0,0,1-1.3.49c-2.769-.886-5.617.664-5.949,3.4-.016.095-.016.19-.032.285a3.964,3.964,0,0,0,1.2,1.25,3.1,3.1,0,0,0,1.709.522,1.1,1.1,0,1,1-.047,2.2,5.7,5.7,0,0,1-4.383-2.294,4.163,4.163,0,0,0-.87,6.518,6.46,6.46,0,0,1,5.4-1.93,1.108,1.108,0,1,1-.269,2.2,4.141,4.141,0,0,0-4.509,2.974c-.791,3.085,2.136,6.044,5.411,5.632a4.7,4.7,0,0,1,4.24-7.309,4.522,4.522,0,0,1,2.31.918,1.106,1.106,0,1,1-1.345,1.756,2.375,2.375,0,0,0-3.781,1.914,2.5,2.5,0,0,0,1.234,2.278,1.135,1.135,0,0,1,.506.775c.221,1.424,1.076,4.066,2.484,5.031a1.472,1.472,0,0,0,1.772-.016c.348-.221-.38.174-.427.111a6.085,6.085,0,0,1-.506-5.617,1.105,1.105,0,0,1,1.234-.728,7.275,7.275,0,0,0,3.8-.316A6.568,6.568,0,0,0,102.3,40.31,1.07,1.07,0,0,0,101.727,38.681Zm1.867-11.249a1.111,1.111,0,0,1,1.756,1.361,2.024,2.024,0,0,0,.4,2.848,1.111,1.111,0,0,1-1.3,1.8A4.26,4.26,0,0,1,103.594,27.431Zm-2.342,6.423a1.1,1.1,0,1,1-1.962.981,5.144,5.144,0,0,0-6.977-2.057A1.1,1.1,0,1,1,91.3,30.817a7.333,7.333,0,0,1,9.936,2.99ZM90.1,20.533c2.848-3.576,8.623-3.164,11.249.7a7.16,7.16,0,0,1,10.316,5.079c4.557,1.519,6.376,6.914,3.417,10.474a6.243,6.243,0,0,1-1.63,1.392c-.918,4.493-6.012,6.408-9.983,4.24a9.177,9.177,0,0,1-7.215,2.626,4.186,4.186,0,0,0,.585,2.99c.649,1.187,1.06,1.946-.348,2.832-2.389,1.5-4.541.269-5.917-1.93a12.85,12.85,0,0,1-1.408-3.307c-5.063,1.408-10.11-3.148-8.813-8.18a6.031,6.031,0,0,1,.269-.807A6.388,6.388,0,0,1,82.061,26.1,6.573,6.573,0,0,1,90.1,20.533ZM101.711,62.6A10.616,10.616,0,1,1,91.095,73.219,10.618,10.618,0,0,1,101.711,62.6Zm5.949,4.667a8.4,8.4,0,1,0,0,11.882A8.413,8.413,0,0,0,107.66,67.27Zm-7.215-12.309h2.547a2.444,2.444,0,0,1,2.452,2.452,4.319,4.319,0,0,0,.047,1.139.213.213,0,0,0,.142.079,15.616,15.616,0,0,1,3.639,1.5.224.224,0,0,0,.3-.047c.744-.744,1.266-1.424,2.437-1.424a2.4,2.4,0,0,1,1.74.728l1.8,1.8a2.454,2.454,0,0,1,0,3.481,5.216,5.216,0,0,0-.775.839.2.2,0,0,0,.032.158,14.363,14.363,0,0,1,1.5,3.639.212.212,0,0,0,.237.174c1.06,0,1.9-.111,2.721.728a2.464,2.464,0,0,1,.728,1.74V74.5a2.454,2.454,0,0,1-2.452,2.452h-1a.226.226,0,0,0-.237.174,15.9,15.9,0,0,1-1.5,3.639.2.2,0,0,0,.047.285c.744.744,1.424,1.266,1.424,2.437a2.454,2.454,0,0,1-.712,1.74l-1.8,1.8a2.454,2.454,0,0,1-3.481,0,5.216,5.216,0,0,0-.839-.775.562.562,0,0,0-.158.032,14.363,14.363,0,0,1-3.639,1.5.226.226,0,0,0-.174.237c0,1.06.111,1.9-.728,2.721a2.464,2.464,0,0,1-1.74.728h-2.547a2.458,2.458,0,0,1-2.452-2.468,4.319,4.319,0,0,0-.047-1.139.217.217,0,0,0-.127-.079,14.963,14.963,0,0,1-3.639-1.5.224.224,0,0,0-.3.047c-.744.744-1.266,1.424-2.436,1.424a2.432,2.432,0,0,1-1.74-.728l-1.8-1.8a2.454,2.454,0,0,1,0-3.481,5.216,5.216,0,0,0,.775-.839.285.285,0,0,0-.032-.158,14.363,14.363,0,0,1-1.5-3.639.212.212,0,0,0-.237-.174c-1.06,0-1.9.111-2.721-.728a2.464,2.464,0,0,1-.728-1.74V71.921a2.468,2.468,0,0,1,2.452-2.468,4.319,4.319,0,0,0,1.139-.047.306.306,0,0,0,.079-.142,15.616,15.616,0,0,1,1.5-3.639.2.2,0,0,0-.047-.285c-.744-.744-1.424-1.266-1.424-2.436a2.481,2.481,0,0,1,.712-1.74l1.8-1.8a2.454,2.454,0,0,1,3.481,0,5.217,5.217,0,0,0,.839.775.562.562,0,0,0,.158-.032,13.152,13.152,0,0,1,1.772-.87A15.242,15.242,0,0,1,97.8,58.6a.226.226,0,0,0,.174-.237v-.981a2.462,2.462,0,0,1,2.468-2.421Zm2.547,2.2h-2.547a.237.237,0,0,0-.237.253v.981a2.441,2.441,0,0,1-1.819,2.373,12.392,12.392,0,0,0-1.582.538,14.956,14.956,0,0,0-1.519.744,2.461,2.461,0,0,1-2.959-.38l-.7-.7a.248.248,0,0,0-.348,0l-1.8,1.8c-.427.443,1.187.886,1.392,2.468a2.467,2.467,0,0,1-.316,1.55,12.7,12.7,0,0,0-1.282,3.1A2.441,2.441,0,0,1,86.9,71.716h-.981a.247.247,0,0,0-.237.253v2.547c0,.617,1.471-.222,2.721.744a2.476,2.476,0,0,1,.886,1.313,12.7,12.7,0,0,0,1.282,3.1,2.467,2.467,0,0,1-.4,2.974l-.7.7a.248.248,0,0,0,0,.348l1.8,1.8c.443.427.87-1.187,2.468-1.408a2.467,2.467,0,0,1,1.55.316,12.7,12.7,0,0,0,3.1,1.282,2.441,2.441,0,0,1,1.819,2.373v.981a.247.247,0,0,0,.237.253h2.547c.617,0-.222-1.471.744-2.721a2.476,2.476,0,0,1,1.313-.886,12.7,12.7,0,0,0,3.1-1.282,2.484,2.484,0,0,1,2.974.38l.7.7a.248.248,0,0,0,.348,0l1.8-1.8c.427-.427-1.187-.87-1.392-2.468a2.467,2.467,0,0,1,.316-1.55,12.342,12.342,0,0,0,1.282-3.1,2.441,2.441,0,0,1,2.373-1.819h1a.243.243,0,0,0,.237-.237V71.953c0-.617-1.471.221-2.721-.744a2.476,2.476,0,0,1-.886-1.313,12.7,12.7,0,0,0-1.282-3.1,2.468,2.468,0,0,1,.4-2.974l.7-.7a.248.248,0,0,0,0-.348l-1.8-1.8c-.427-.427-.886,1.187-2.468,1.392a2.467,2.467,0,0,1-1.55-.316,12.7,12.7,0,0,0-3.1-1.282,2.441,2.441,0,0,1-1.819-2.373v-.981a.3.3,0,0,0-.269-.253ZM75.511,46.085H71A1.229,1.229,0,0,0,69.783,47.3v2.041A1.219,1.219,0,0,0,71,50.562h4.509a1.229,1.229,0,0,0,1.218-1.218V47.3A1.229,1.229,0,0,0,75.511,46.085Z"/>
    </g>
  </g>
</svg>
