<svg xmlns="http://www.w3.org/2000/svg" xmlns:xlink="http://www.w3.org/1999/xlink" width="99.504" height="99.504" viewBox="0 0 99.504 99.504">
  <defs>
    <filter id="Path_982547" x="0" y="0" width="99.504" height="99.504" filterUnits="userSpaceOnUse">
      <feOffset dy="3" input="SourceAlpha"/>
      <feGaussianBlur stdDeviation="3" result="blur"/>
      <feFlood flood-opacity="0.161"/>
      <feComposite operator="in" in2="blur"/>
      <feComposite in="SourceGraphic"/>
    </filter>
  </defs>
  <g id="Group_1152436" data-name="Group 1152436" transform="translate(-1034.496 -1778)">
    <g id="Group_1146973" data-name="Group 1146973" transform="translate(1043.496 1784)">
      <g id="Group_1146954" data-name="Group 1146954">
        <g transform="matrix(1, 0, 0, 1, -9, -6)" filter="url(#Path_982547)">
          <g id="Path_982547-2" data-name="Path 982547" transform="translate(9 6)" fill="#fff6f9">
            <path d="M 40.7520751953125 80.00415802001953 C 35.45241546630859 80.00415802001953 30.31208610534668 78.96654510498047 25.47385215759277 76.92014312744141 C 20.79992294311523 74.9432373046875 16.60199356079102 72.11281585693359 12.99666309356689 68.50748443603516 C 9.391345977783203 64.90216064453125 6.560910701751709 60.70422744750977 4.584004402160645 56.03028869628906 C 2.53761625289917 51.19206237792969 1.500004649162292 46.05173492431641 1.500004649162292 40.7520751953125 C 1.500004649162292 35.45241546630859 2.53761625289917 30.31208610534668 4.584004402160645 25.47385215759277 C 6.560910701751709 20.79992294311523 9.391345977783203 16.60199356079102 12.99666309356689 12.99666309356689 C 16.60199356079102 9.391345977783203 20.79992294311523 6.560910701751709 25.47385215759277 4.584004402160645 C 30.31208610534668 2.53761625289917 35.45241546630859 1.500004649162292 40.7520751953125 1.500004649162292 C 46.05173492431641 1.500004649162292 51.19206237792969 2.53761625289917 56.03028869628906 4.584004402160645 C 60.70422744750977 6.560910701751709 64.90216064453125 9.391345977783203 68.50748443603516 12.99666309356689 C 72.11281585693359 16.60199356079102 74.9432373046875 20.79992294311523 76.92014312744141 25.47385215759277 C 78.96654510498047 30.31208610534668 80.00415802001953 35.45241546630859 80.00415802001953 40.7520751953125 C 80.00415802001953 46.05173492431641 78.96654510498047 51.19206237792969 76.92014312744141 56.03028869628906 C 74.9432373046875 60.70421600341797 72.11281585693359 64.90216064453125 68.50748443603516 68.50748443603516 C 64.90216064453125 72.11281585693359 60.70421600341797 74.9432373046875 56.03028869628906 76.92014312744141 C 51.19206237792969 78.96654510498047 46.05173492431641 80.00415802001953 40.7520751953125 80.00415802001953 Z" stroke="none"/>
            <path d="M 40.7520751953125 2.999992370605469 C 35.65426254272461 2.999992370605469 30.71051406860352 3.99774169921875 26.05818176269531 5.96551513671875 C 21.56304931640625 7.866798400878906 17.52538299560547 10.58927154541016 14.05732727050781 14.05732727050781 C 10.58927154541016 17.52538299560547 7.866798400878906 21.56304931640625 5.96551513671875 26.05818176269531 C 3.99774169921875 30.71051406860352 2.999992370605469 35.65426254272461 2.999992370605469 40.7520751953125 C 2.999992370605469 45.84988784790039 3.99774169921875 50.79363250732422 5.96551513671875 55.44596862792969 C 7.866798400878906 59.94110107421875 10.58927154541016 63.97876739501953 14.05732727050781 67.44682312011719 C 17.52538299560547 70.91487121582031 21.56304931640625 73.63735198974609 26.05818176269531 75.53863525390625 C 30.71051406860352 77.50640869140625 35.65426254272461 78.50415802001953 40.7520751953125 78.50415802001953 C 45.84988784790039 78.50415802001953 50.79363250732422 77.50640869140625 55.44596862792969 75.53863525390625 C 59.94110107421875 73.63735198974609 63.97876739501953 70.91487121582031 67.44682312011719 67.44682312011719 C 70.91487121582031 63.97876739501953 73.63735198974609 59.94110107421875 75.53863525390625 55.44596862792969 C 77.50640869140625 50.79363250732422 78.50415802001953 45.84988784790039 78.50415802001953 40.7520751953125 C 78.50415802001953 35.65426254272461 77.50640869140625 30.71051406860352 75.53863525390625 26.05818176269531 C 73.63735198974609 21.56304931640625 70.91487121582031 17.52538299560547 67.44682312011719 14.05732727050781 C 63.97876739501953 10.58927154541016 59.94110107421875 7.866798400878906 55.44596862792969 5.96551513671875 C 50.79363250732422 3.99774169921875 45.84988784790039 2.999992370605469 40.7520751953125 2.999992370605469 M 40.7520751953125 -7.62939453125e-06 C 63.25881958007812 -7.62939453125e-06 81.50415802001953 18.24532699584961 81.50415802001953 40.7520751953125 C 81.50415802001953 63.25881958007812 63.25881958007812 81.50415802001953 40.7520751953125 81.50415802001953 C 18.24532699584961 81.50415802001953 -7.62939453125e-06 63.25881958007812 -7.62939453125e-06 40.7520751953125 C -7.62939453125e-06 18.24532699584961 18.24532699584961 -7.62939453125e-06 40.7520751953125 -7.62939453125e-06 Z" stroke="none" fill="#ffaece"/>
          </g>
        </g>
      </g>
    </g>
    <g id="emotional" transform="translate(1027.223 1757.815)">
      <g id="Group_1152435" data-name="Group 1152435" transform="translate(25.51 38.09)">
        <path id="Path_983941" data-name="Path 983941" d="M113.516,151.09a17.629,17.629,0,0,1,17.628,17.632c0,11.653-8.877,12.419-8.877,19.022v5.1a2.458,2.458,0,0,1-2.454,2.454H107.221a2.458,2.458,0,0,1-2.454-2.454v-4.066H102.4a3.6,3.6,0,0,1-3.593-3.593v-6.217H93.114a1.026,1.026,0,0,1-1.024-1.024c0-2.136.115-2.978,2.207-3.947a3.042,3.042,0,0,0,1.759-3.216A17.329,17.329,0,0,1,113.516,151.09Z" transform="translate(-83.608 -136.106)" fill="#fcc69b" fill-rule="evenodd"/>
        <path id="Path_983942" data-name="Path 983942" d="M389.555,303.05a6.925,6.925,0,1,1-6.925,6.925A6.925,6.925,0,0,1,389.555,303.05Z" transform="translate(-333.455 -266.783)" fill="#fdda21" fill-rule="evenodd"/>
        <path id="Path_983943" data-name="Path 983943" d="M404.413,316.027a6.923,6.923,0,1,1-4.3-1.5A6.89,6.89,0,0,1,404.413,316.027Z" transform="translate(-342.536 -276.655)" fill="#fde14e" fill-rule="evenodd"/>
        <path id="Path_983944" data-name="Path 983944" d="M38.455,87.11a6.926,6.926,0,1,1-6.925,6.925A6.925,6.925,0,0,1,38.455,87.11Z" transform="translate(-31.53 -81.087)" fill="#71bf44" fill-rule="evenodd"/>
        <path id="Path_983945" data-name="Path 983945" d="M53.3,100.1a6.926,6.926,0,0,1-10.077,9.25A6.927,6.927,0,0,1,53.3,100.1Z" transform="translate(-40.602 -90.977)" fill="#8cc63f" fill-rule="evenodd"/>
        <path id="Path_983946" data-name="Path 983946" d="M223.49,151.09a17.629,17.629,0,0,1,17.628,17.632c0,11.653-8.877,12.419-8.877,19.022v5.1a2.459,2.459,0,0,1-2.458,2.454h-6.471a2.458,2.458,0,0,0,2.454-2.454v-5.1c0-6.6,8.877-7.369,8.877-19.022a17.63,17.63,0,0,0-14.423-17.338A18.383,18.383,0,0,1,223.49,151.09Z" transform="translate(-193.792 -136.106)" fill="#fbb883" fill-rule="evenodd"/>
        <path id="Path_983947" data-name="Path 983947" d="M271.146,44.11h2.541a.991.991,0,0,1,.989.989v1.188a9.924,9.924,0,0,1,3.086,1.279l.842-.838a.99.99,0,0,1,1.4,0l1.794,1.794a.99.99,0,0,1,0,1.4l-.838.842a10.029,10.029,0,0,1,1.279,3.086h1.188a.991.991,0,0,1,.989.989v2.541a.991.991,0,0,1-.989.989h-1.188a9.968,9.968,0,0,1-1.279,3.088l.838.838a.99.99,0,0,1,0,1.4L280,65.487a.99.99,0,0,1-1.4,0l-.842-.842a10.055,10.055,0,0,1-3.086,1.283v1.184a.991.991,0,0,1-.989.989h-2.541a.991.991,0,0,1-.989-.989V65.929a9.961,9.961,0,0,1-3.086-1.283l-.842.842a.99.99,0,0,1-1.4,0l-1.794-1.8a.99.99,0,0,1,0-1.4l.838-.838a10.016,10.016,0,0,1-1.279-3.088h-1.188a.991.991,0,0,1-.989-.989V54.836a.991.991,0,0,1,.989-.989H262.6a10,10,0,0,1,1.279-3.086l-.838-.842a.99.99,0,0,1,0-1.4l1.794-1.794a.99.99,0,0,1,1.4,0l.842.838a9.944,9.944,0,0,1,3.086-1.279V45.1a.991.991,0,0,1,.989-.989Z" transform="translate(-228.361 -44.11)" fill="#5387c6" fill-rule="evenodd"/>
        <path id="Path_983948" data-name="Path 983948" d="M303.075,44.11h2.541a.991.991,0,0,1,.989.989v1.188a9.925,9.925,0,0,1,3.086,1.279l.842-.838a.99.99,0,0,1,1.4,0l1.794,1.794a.99.99,0,0,1,0,1.4l-.838.842a10.029,10.029,0,0,1,1.279,3.086h1.188a.991.991,0,0,1,.989.989v2.541a.991.991,0,0,1-.989.989h-1.188a9.968,9.968,0,0,1-1.279,3.088l.619.619h-.21A15.746,15.746,0,0,1,297.55,46.442a.976.976,0,0,1,.612.286l.842.838a9.945,9.945,0,0,1,3.086-1.279V45.1a.987.987,0,0,1,.986-.989Z" transform="translate(-260.291 -44.11)" fill="#6d9fd5" fill-rule="evenodd"/>
        <path id="Path_983949" data-name="Path 983949" d="M310.623,88.53A5.775,5.775,0,1,1,304.85,94.3,5.773,5.773,0,0,1,310.623,88.53Z" transform="translate(-266.569 -82.309)" fill="#4d4d4e" fill-rule="evenodd"/>
        <path id="Path_983950" data-name="Path 983950" d="M318.165,88.53a5.775,5.775,0,0,1,3.558,10.322,14.9,14.9,0,0,1-8.1-8.111,5.761,5.761,0,0,1,4.545-2.212Z" transform="translate(-274.11 -82.308)" fill="#6f6f70" fill-rule="evenodd"/>
        <path id="Path_983951" data-name="Path 983951" d="M187.291,245.022l1.283-1.541a4.49,4.49,0,0,1,6.308-.584c4.058,3.374-1.4,9.834-5.118,13.61a3.734,3.734,0,0,1-4.943,0c-3.724-3.776-9.175-10.236-5.118-13.61a4.49,4.49,0,0,1,6.308.584Z" transform="translate(-157.716 -214.169)" fill="#b92025" fill-rule="evenodd"/>
        <path id="Path_983952" data-name="Path 983952" d="M204.345,245.022l1.283-1.541a4.49,4.49,0,0,1,6.308-.584c3.478,2.894-.036,8.052-3.454,11.848A20.284,20.284,0,0,1,198.1,242.131a4.5,4.5,0,0,1,4.967,1.35Z" transform="translate(-174.77 -214.169)" fill="#c83031" fill-rule="evenodd"/>
      </g>
      <path id="Path_983953" data-name="Path 983953" d="M55.09,67.415l.528-.639a5.469,5.469,0,0,1,7.754-.647l.008,0c2.4,2.064,2.036,4.919.52,7.8a33.516,33.516,0,0,1-5.65,7.191l0,0a4.714,4.714,0,0,1-6.3.028h0a33.84,33.84,0,0,1-5.674-7.222c-1.517-2.878-1.885-5.737.528-7.8a1.09,1.09,0,0,1,.147-.123,5.476,5.476,0,0,1,7.607.77Zm2.028.611-1.4,1.668a.98.98,0,0,1-1.378-.127l-1.279-1.541a3.52,3.52,0,0,0-4.934-.457c-3.625,3.013,3.045,10.024,5.213,12.2a2.778,2.778,0,0,0,3.534-.028,31.43,31.43,0,0,0,5.3-6.722c1.1-2.084,1.445-4.09-.056-5.4a.68.68,0,0,1-.119-.1,3.524,3.524,0,0,0-4.876.5ZM69.565,43.331a6.754,6.754,0,1,1-6.754,6.754A6.757,6.757,0,0,1,69.565,43.331Zm3.391,3.363a4.8,4.8,0,1,0,0,6.782,4.8,4.8,0,0,0,0-6.782ZM68.3,37.11h2.536A1.974,1.974,0,0,1,72.8,39.079v.437a10.767,10.767,0,0,1,1.945.805,2.182,2.182,0,0,1,1.7-.885,1.962,1.962,0,0,1,1.394.576l1.794,1.794a1.97,1.97,0,0,1,0,2.787l-.31.31a10.62,10.62,0,0,1,.81,1.941,2.172,2.172,0,0,1,1.822.58h0a1.961,1.961,0,0,1,.576,1.389v2.541a1.971,1.971,0,0,1-1.969,1.969h-.433a10.784,10.784,0,0,1-.81,1.945,2.17,2.17,0,0,1,.885,1.7,1.962,1.962,0,0,1-.576,1.394l-1.794,1.794a1.97,1.97,0,0,1-2.787,0l-.305-.31a10.767,10.767,0,0,1-1.945.805,2.177,2.177,0,0,1-.651,1.9A18.616,18.616,0,0,1,74.027,70.7c0,11.991-8.877,13.073-8.877,19.022v5.1a3.438,3.438,0,0,1-3.434,3.434H49.123a3.438,3.438,0,0,1-3.434-3.434V91.739H44.3a4.581,4.581,0,0,1-4.574-4.574V81.928h-4.7a2.009,2.009,0,0,1-2.008-2c0-2.473.277-3.681,2.779-4.836a2.06,2.06,0,0,0,1.2-2.2,18.314,18.314,0,0,1,18.429-20.8c.444,0,.894.02,1.338.052a1.948,1.948,0,0,1-.167-.79V48.812a1.974,1.974,0,0,1,1.969-1.969H59A10.906,10.906,0,0,1,59.8,44.9a2.19,2.19,0,0,1-.885-1.7,1.962,1.962,0,0,1,.576-1.394l1.794-1.794a1.977,1.977,0,0,1,2.787,0l.31.31a10.6,10.6,0,0,1,1.941-.805,2.186,2.186,0,0,1,.58-1.831A1.989,1.989,0,0,1,68.3,37.11Zm1.917,25.949H68.3a1.972,1.972,0,0,1-1.973-1.969v-.433a10.922,10.922,0,0,1-1.941-.81,2.19,2.19,0,0,1-1.7.885,1.962,1.962,0,0,1-1.394-.576l-1.794-1.794a1.977,1.977,0,0,1,0-2.787l.31-.305c-.127-.238-.242-.48-.353-.727a16.919,16.919,0,0,0-16.627,5.09,16.115,16.115,0,0,0-3.9,12.995,4.026,4.026,0,0,1-2.318,4.24c-1.636.755-1.636,1.184-1.636,3.058l.048.043h5.685a.983.983,0,0,1,.98.98v6.217A2.619,2.619,0,0,0,44.3,89.778h2.37a.983.983,0,0,1,.98.98v4.066A1.478,1.478,0,0,0,49.123,96.3H61.716a1.478,1.478,0,0,0,1.473-1.473v-5.1c0-7.226,8.877-7.743,8.877-19.022A16.5,16.5,0,0,0,70.216,63.059Zm.619-23.988-2.549.008v1.188a.981.981,0,0,1-.762.952A9.249,9.249,0,0,0,64.8,42.336a.984.984,0,0,1-1.275-.1l-.853-.842L60.879,43.21l.842.838,0,0a.977.977,0,0,1,.139,1.212,9.133,9.133,0,0,0-1.14,2.724.982.982,0,0,1-.969.822l-1.195.008v2.541l1.195.008v0a.973.973,0,0,1,.952.758,9.157,9.157,0,0,0,1.116,2.724.984.984,0,0,1-.1,1.275l-.842.853,1.811,1.794.838-.838h0a.97.97,0,0,1,1.212-.134,9.206,9.206,0,0,0,2.724,1.14.982.982,0,0,1,.822.969l.011,1.195,2.545-.011V59.912h0a.982.982,0,0,1,.758-.957,9.048,9.048,0,0,0,2.724-1.116.98.98,0,0,1,1.275.1l.853.838,1.794-1.807-.838-.842a.975.975,0,0,1-.134-1.214,9.16,9.16,0,0,0,1.14-2.724.982.982,0,0,1,.969-.822l1.195-.008,0-2.545-1.191,0a.986.986,0,0,1-.957-.762,9.137,9.137,0,0,0-1.116-2.724.98.98,0,0,1,.1-1.275l.838-.853L76.446,41.4l-.842.842v-.008a.975.975,0,0,1-1.214.134,9.294,9.294,0,0,0-2.72-1.14.976.976,0,0,1-.826-.965ZM29.526,50.124a.978.978,0,1,1-1.255-1.5,2.369,2.369,0,0,1,2.993,0A.98.98,0,0,1,30,50.124.422.422,0,0,0,29.526,50.124Zm-.441,3.235a.977.977,0,1,1,1.79-.786,1.711,1.711,0,0,0,3.121,0,.977.977,0,1,1,1.79.786,3.661,3.661,0,0,1-6.7,0Zm5.78-3.235a.979.979,0,1,1-1.258-1.5,2.369,2.369,0,0,1,2.993,0,.978.978,0,1,1-1.255,1.5.424.424,0,0,0-.48,0Zm-2.43-6.992a7.905,7.905,0,1,1-7.905,7.905,7.909,7.909,0,0,1,7.905-7.905Zm4.2,3.7a5.945,5.945,0,1,0,0,8.405A5.946,5.946,0,0,0,36.64,46.837Zm6.626,1.2a.979.979,0,0,1-.734-1.815A29.147,29.147,0,0,1,56.813,44.26a.979.979,0,1,1-.218,1.945A27.089,27.089,0,0,0,43.266,48.04ZM78.34,62.2a.978.978,0,1,1,1.79-.79,29.008,29.008,0,0,1,2.454,10.4.977.977,0,1,1-1.952.091A27.163,27.163,0,0,0,78.34,62.2Zm4.446,17.862a.978.978,0,0,1,1.255-1.5.424.424,0,0,0,.48,0,.979.979,0,1,1,1.258,1.5A2.358,2.358,0,0,1,82.785,80.064Zm-2.794,5.252A.975.975,0,1,1,78.325,84.3c1.322-2.179,5.256-2.179,6.579,0a.975.975,0,1,1-1.667,1.013A2.265,2.265,0,0,0,79.991,85.316Zm-2.545-5.252a.979.979,0,1,1,1.258-1.5.424.424,0,0,0,.48,0,.978.978,0,1,1,1.255,1.5A2.358,2.358,0,0,1,77.446,80.064Zm4.168-6.686a7.905,7.905,0,1,1-7.909,7.905A7.906,7.906,0,0,1,81.615,73.377Zm4.2,3.7a5.945,5.945,0,1,0,0,8.409A5.949,5.949,0,0,0,85.815,77.078Z" transform="translate(0 0)"/>
    </g>
  </g>
</svg>
