<svg xmlns="http://www.w3.org/2000/svg" xmlns:xlink="http://www.w3.org/1999/xlink" width="108" height="108" viewBox="0 0 108 108">
  <defs>
    <filter id="Path_982547" x="0" y="0" width="108" height="108" filterUnits="userSpaceOnUse">
      <feOffset dy="3" input="SourceAlpha"/>
      <feGaussianBlur stdDeviation="3" result="blur"/>
      <feFlood flood-opacity="0.161"/>
      <feComposite operator="in" in2="blur"/>
      <feComposite in="SourceGraphic"/>
    </filter>
  </defs>
  <g id="Group_1151823" data-name="Group 1151823" transform="translate(-201 -433)">
    <g id="Group_1146955" data-name="Group 1146955" transform="translate(210 439)">
      <g id="Group_1146954" data-name="Group 1146954">
        <g transform="matrix(1, 0, 0, 1, -9, -6)" filter="url(#Path_982547)">
          <g id="Path_982547-2" data-name="Path 982547" transform="translate(9 6)" fill="#fff6f9">
            <path d="M 45 88.5 C 39.12687683105469 88.5 33.43022537231445 87.35007476806641 28.06830024719238 85.08217620849609 C 22.88852500915527 82.89131164550781 18.23629951477051 79.75458526611328 14.2408504486084 75.75914764404297 C 10.24541282653809 71.76370239257812 7.108687400817871 67.11147308349609 4.917825222015381 61.93170166015625 C 2.649924993515015 56.56977462768555 1.5 50.87312316894531 1.5 45 C 1.5 39.12687683105469 2.649924993515015 33.43022537231445 4.917825222015381 28.06830024719238 C 7.108687400817871 22.88852500915527 10.24541282653809 18.23629951477051 14.2408504486084 14.2408504486084 C 18.23629951477051 10.24541282653809 22.88852500915527 7.108687400817871 28.06830024719238 4.917825222015381 C 33.43022537231445 2.649924993515015 39.12687683105469 1.5 45 1.5 C 50.87312316894531 1.5 56.56977462768555 2.649924993515015 61.93170166015625 4.917825222015381 C 67.11147308349609 7.108687400817871 71.76370239257812 10.24541282653809 75.75914764404297 14.2408504486084 C 79.75458526611328 18.23629951477051 82.89131164550781 22.88852500915527 85.08217620849609 28.06830024719238 C 87.35007476806641 33.43022537231445 88.5 39.12687683105469 88.5 45 C 88.5 50.87312316894531 87.35007476806641 56.56977462768555 85.08217620849609 61.93170166015625 C 82.89131164550781 67.11147308349609 79.75458526611328 71.76370239257812 75.75914764404297 75.75914764404297 C 71.76370239257812 79.75458526611328 67.11147308349609 82.89131164550781 61.93170166015625 85.08217620849609 C 56.56977462768555 87.35007476806641 50.87312316894531 88.5 45 88.5 Z" stroke="none"/>
            <path d="M 45 3 C 39.32871246337891 3 33.82865524291992 4.110054016113281 28.65262985229492 6.299339294433594 C 23.65165710449219 8.414573669433594 19.15968322753906 11.44334411621094 15.301513671875 15.301513671875 C 11.44334411621094 19.15968322753906 8.414573669433594 23.65165710449219 6.299339294433594 28.65262985229492 C 4.110054016113281 33.82865524291992 3 39.32871246337891 3 45 C 3 50.67128753662109 4.110054016113281 56.17134475708008 6.299339294433594 61.34737396240234 C 8.414573669433594 66.34834289550781 11.44334411621094 70.84031677246094 15.301513671875 74.698486328125 C 19.15968322753906 78.55665588378906 23.65165710449219 81.58542633056641 28.65262985229492 83.70066070556641 C 33.82865524291992 85.88994598388672 39.32871246337891 87 45 87 C 50.67128753662109 87 56.17134475708008 85.88994598388672 61.34737396240234 83.70066070556641 C 66.34834289550781 81.58542633056641 70.84031677246094 78.55665588378906 74.698486328125 74.698486328125 C 78.55665588378906 70.84031677246094 81.58542633056641 66.34834289550781 83.70066070556641 61.34737396240234 C 85.88994598388672 56.17134475708008 87 50.67128753662109 87 45 C 87 39.32871246337891 85.88994598388672 33.82865524291992 83.70066070556641 28.65262985229492 C 81.58542633056641 23.65165710449219 78.55665588378906 19.15968322753906 74.698486328125 15.301513671875 C 70.84031677246094 11.44334411621094 66.34834289550781 8.414573669433594 61.34737396240234 6.299339294433594 C 56.17134475708008 4.110054016113281 50.67128753662109 3 45 3 M 45 0 C 69.85281372070312 0 90 20.14718627929688 90 45 C 90 69.85281372070312 69.85281372070312 90 45 90 C 20.14718627929688 90 0 69.85281372070312 0 45 C 0 20.14718627929688 20.14718627929688 0 45 0 Z" stroke="none" fill="#ffaece"/>
          </g>
        </g>
      </g>
    </g>
    <g id="people_16456580" transform="translate(218.727 447.727)">
      <g id="Group_1151822" data-name="Group 1151822" transform="translate(0)">
        <path id="Path_983737" data-name="Path 983737" d="M52.19,8.446a1.133,1.133,0,0,0,2.232-.4l-.4-2.233a1.133,1.133,0,1,0-2.232.4Z" transform="translate(-22.43 -2.114)" fill="#2d4356"/>
        <path id="Path_983738" data-name="Path 983738" d="M33.861,15.44a1.149,1.149,0,0,0,1.551.405,1.134,1.134,0,0,0,.406-1.551l-1.15-1.963a1.133,1.133,0,1,0-1.955,1.146Z" transform="translate(-14.104 -5.099)" fill="#2d4356"/>
        <path id="Path_983739" data-name="Path 983739" d="M19.059,28.182A1.133,1.133,0,1,0,20.5,26.434l-1.765-1.458a1.133,1.133,0,1,0-1.444,1.748Z" transform="translate(-7.314 -10.708)" fill="#2d4356"/>
        <path id="Path_983740" data-name="Path 983740" d="M7.41,44.36l2.164.777A1.134,1.134,0,0,0,10.34,43l-2.164-.777A1.134,1.134,0,1,0,7.41,44.36Z" transform="translate(-2.885 -18.265)" fill="#2d4356"/>
        <path id="Path_983741" data-name="Path 983741" d="M4.24,62a1.134,1.134,0,1,0,0,2.267h2.3a1.134,1.134,0,1,0,0-2.267Z" transform="translate(-1.346 -26.859)" fill="#2d4356"/>
        <path id="Path_983742" data-name="Path 983742" d="M8.173,83.441l2.165-.775a1.133,1.133,0,1,0-.763-2.134l-2.166.775a1.134,1.134,0,0,0-.686,1.449,1.147,1.147,0,0,0,1.45.685Z" transform="translate(-2.884 -34.86)" fill="#2d4356"/>
        <path id="Path_983743" data-name="Path 983743" d="M20.654,97.119a1.134,1.134,0,0,0-1.6-.153l-1.766,1.457a1.132,1.132,0,0,0-.153,1.6,1.145,1.145,0,0,0,1.6.153L20.5,98.714A1.133,1.133,0,0,0,20.654,97.119Z" transform="translate(-7.313 -41.896)" fill="#2d4356"/>
        <path id="Path_983744" data-name="Path 983744" d="M35.412,108.915a1.134,1.134,0,0,0-1.551.4l-1.151,1.964a1.133,1.133,0,1,0,1.955,1.147l1.152-1.964a1.134,1.134,0,0,0-.405-1.551Z" transform="translate(-14.103 -47.118)" fill="#2d4356"/>
        <path id="Path_983745" data-name="Path 983745" d="M53.5,115.191a1.129,1.129,0,0,0-1.315.917l-.4,2.233a1.133,1.133,0,1,0,2.232.4l.4-2.233A1.133,1.133,0,0,0,53.5,115.191Z" transform="translate(-22.43 -49.896)" fill="#2d4356"/>
        <path id="Path_983746" data-name="Path 983746" d="M63.134,6.8a1.134,1.134,0,0,0,1.134-1.133V1.134a1.134,1.134,0,1,0-2.267,0V5.668A1.134,1.134,0,0,0,63.133,6.8Z" transform="translate(-26.86)" fill="#2d4356"/>
        <path id="Path_983747" data-name="Path 983747" d="M42.111,9.526a1.148,1.148,0,0,0,1.457.67,1.134,1.134,0,0,0,.67-1.456L42.663,4.48a1.134,1.134,0,1,0-2.127.786l1.574,4.261Z" transform="translate(-17.531 -1.62)" fill="#2d4356"/>
        <path id="Path_983748" data-name="Path 983748" d="M24.762,19.847a1.147,1.147,0,0,0,1.6.128,1.134,1.134,0,0,0,.127-1.6L23.528,14.9a1.134,1.134,0,1,0-1.726,1.47Z" transform="translate(-9.328 -6.284)" fill="#2d4356"/>
        <path id="Path_983749" data-name="Path 983749" d="M8.052,33.119l3.986,2.267a1.133,1.133,0,1,0,1.12-1.97L9.172,31.148a1.133,1.133,0,0,0-1.12,1.97Z" transform="translate(-3.24 -13.43)" fill="#2d4356"/>
        <path id="Path_983750" data-name="Path 983750" d="M.939,53.484l4.534.788a1.134,1.134,0,0,0,.389-2.234L1.328,51.25a1.134,1.134,0,0,0-.389,2.234Z" transform="translate(0 -22.196)" fill="#2d4356"/>
        <path id="Path_983751" data-name="Path 983751" d="M6.785,72.317a1.138,1.138,0,0,0-1.311-.923L.94,72.181a1.134,1.134,0,0,0,.193,2.25c.065,0,4.729-.8,4.729-.8a1.134,1.134,0,0,0,.923-1.311Z" transform="translate(0 -30.923)" fill="#2d4356"/>
        <path id="Path_983752" data-name="Path 983752" d="M13.583,89.573a1.132,1.132,0,0,0-1.545-.425L8.052,91.415a1.132,1.132,0,0,0-.425,1.545,1.147,1.147,0,0,0,1.545.425l3.986-2.267a1.132,1.132,0,0,0,.425-1.545Z" transform="translate(-3.24 -38.557)" fill="#2d4356"/>
        <path id="Path_983753" data-name="Path 983753" d="M24.762,103.764l-2.96,3.473a1.134,1.134,0,1,0,1.726,1.47l2.959-3.473a1.134,1.134,0,1,0-1.726-1.47Z" transform="translate(-9.328 -44.781)" fill="#2d4356"/>
        <path id="Path_983754" data-name="Path 983754" d="M43.568,112.813a1.133,1.133,0,0,0-1.457.67l-1.574,4.261a1.134,1.134,0,1,0,2.127.786l1.574-4.261A1.134,1.134,0,0,0,43.568,112.813Z" transform="translate(-17.531 -48.843)" fill="#2d4356"/>
        <path id="Path_983755" data-name="Path 983755" d="M63.133,116A1.134,1.134,0,0,0,62,117.133v4.534a1.134,1.134,0,1,0,2.267,0v-4.534A1.134,1.134,0,0,0,63.133,116Z" transform="translate(-26.86 -50.255)" fill="#2d4356"/>
        <path id="Path_983756" data-name="Path 983756" d="M72.658,9.381a1.133,1.133,0,0,0,1.115-.934l.4-2.233a1.133,1.133,0,0,0-2.232-.4l-.4,2.233a1.143,1.143,0,0,0,1.117,1.333Z" transform="translate(-30.987 -2.114)" fill="#2d4356"/>
        <path id="Path_983757" data-name="Path 983757" d="M89.976,15.845a1.149,1.149,0,0,0,1.551-.405l1.149-1.963a1.133,1.133,0,0,0-1.955-1.146l-1.15,1.963A1.134,1.134,0,0,0,89.976,15.845Z" transform="translate(-38.737 -5.1)" fill="#2d4356"/>
        <path id="Path_983758" data-name="Path 983758" d="M104.265,28.03a1.144,1.144,0,0,0,1.6.152l1.765-1.458a1.133,1.133,0,1,0-1.443-1.748l-1.765,1.458A1.134,1.134,0,0,0,104.265,28.03Z" transform="translate(-45.058 -10.708)" fill="#2d4356"/>
        <path id="Path_983759" data-name="Path 983759" d="M116.436,42.226,114.272,43a1.134,1.134,0,0,0,.765,2.134l2.164-.777a1.134,1.134,0,1,0-.766-2.134Z" transform="translate(-49.181 -18.265)" fill="#2d4356"/>
        <path id="Path_983760" data-name="Path 983760" d="M117.967,62a1.134,1.134,0,0,0,0,2.267h2.3a1.134,1.134,0,1,0,0-2.267Z" transform="translate(-50.616 -26.859)" fill="#2d4356"/>
        <path id="Path_983761" data-name="Path 983761" d="M117.2,81.307l-2.166-.775a1.133,1.133,0,1,0-.763,2.134l2.165.775a1.147,1.147,0,0,0,1.45-.685A1.134,1.134,0,0,0,117.2,81.307Z" transform="translate(-49.181 -34.86)" fill="#2d4356"/>
        <path id="Path_983762" data-name="Path 983762" d="M105.858,96.965a1.133,1.133,0,0,0-1.442,1.749l1.766,1.457a1.145,1.145,0,0,0,1.6-.153,1.132,1.132,0,0,0-.153-1.6Z" transform="translate(-45.057 -41.896)" fill="#2d4356"/>
        <path id="Path_983763" data-name="Path 983763" d="M91.526,109.319a1.134,1.134,0,0,0-1.957,1.147l1.152,1.964a1.133,1.133,0,1,0,1.955-1.147Z" transform="translate(-38.737 -47.118)" fill="#2d4356"/>
        <path id="Path_983764" data-name="Path 983764" d="M73.773,116.108a1.133,1.133,0,0,0-2.232.4l.4,2.233a1.133,1.133,0,1,0,2.232-.4Z" transform="translate(-30.986 -49.897)" fill="#2d4356"/>
        <path id="Path_983765" data-name="Path 983765" d="M81.5,10.2a1.148,1.148,0,0,0,1.457-.67l1.574-4.261A1.134,1.134,0,1,0,82.4,4.48L80.826,8.74A1.134,1.134,0,0,0,81.5,10.2Z" transform="translate(-34.986 -1.62)" fill="#2d4356"/>
        <path id="Path_983766" data-name="Path 983766" d="M99.243,19.847l2.96-3.473a1.134,1.134,0,0,0-1.726-1.47l-2.959,3.473a1.134,1.134,0,0,0,.127,1.6A1.147,1.147,0,0,0,99.243,19.847Z" transform="translate(-42.13 -6.284)" fill="#2d4356"/>
        <path id="Path_983767" data-name="Path 983767" d="M109.636,34.961a1.143,1.143,0,0,0,1.545.425l3.986-2.267a1.133,1.133,0,0,0-1.12-1.97l-3.986,2.267a1.132,1.132,0,0,0-.425,1.545Z" transform="translate(-47.433 -13.43)" fill="#2d4356"/>
        <path id="Path_983768" data-name="Path 983768" d="M116.016,53.349a1.146,1.146,0,0,0,1.312.923l4.534-.788a1.134,1.134,0,0,0-.389-2.234l-4.534.788A1.135,1.135,0,0,0,116.016,53.349Z" transform="translate(-50.254 -22.196)" fill="#2d4356"/>
        <path id="Path_983769" data-name="Path 983769" d="M121.862,72.18l-4.534-.787a1.134,1.134,0,1,0-.388,2.234s4.664.8,4.729.8a1.134,1.134,0,0,0,.193-2.25Z" transform="translate(-50.255 -30.922)" fill="#2d4356"/>
        <path id="Path_983770" data-name="Path 983770" d="M115.168,91.415l-3.986-2.267a1.133,1.133,0,0,0-1.12,1.97l3.986,2.267a1.147,1.147,0,0,0,1.545-.425,1.132,1.132,0,0,0-.425-1.545Z" transform="translate(-47.434 -38.558)" fill="#2d4356"/>
        <path id="Path_983771" data-name="Path 983771" d="M99.243,103.764a1.134,1.134,0,1,0-1.726,1.47l2.959,3.473a1.134,1.134,0,0,0,1.726-1.47Z" transform="translate(-42.13 -44.781)" fill="#2d4356"/>
        <path id="Path_983772" data-name="Path 983772" d="M82.952,113.484a1.134,1.134,0,1,0-2.126.786L82.4,118.53a1.134,1.134,0,0,0,2.127-.786Z" transform="translate(-34.986 -48.844)" fill="#2d4356"/>
        <path id="Path_983773" data-name="Path 983773" d="M66.916,39.894a6.724,6.724,0,0,0-4.75-5.764,7.006,7.006,0,0,0-1.712-.272,6.5,6.5,0,0,0-.912-1.893A6.634,6.634,0,0,0,50.82,29.93c-.023-.028-.431-.567-.64-.793A6.622,6.622,0,0,0,45.3,27a6.729,6.729,0,0,0-3.8,1.207,6.838,6.838,0,0,0-.878.742c-.062.068-.725.822-.725.839a6.62,6.62,0,0,0-7.345.935,6.85,6.85,0,0,0-1.185,1.343c-.119-.006-.238-.011-.357-.011a6.7,6.7,0,0,0-6.677,6.7c0,.142.023.538.028.6A5.057,5.057,0,0,0,22,43.646a5.116,5.116,0,0,0,2.567,4.415,5.677,5.677,0,0,0,7.368,6.518,5.865,5.865,0,0,0,5.407,3.633,5.77,5.77,0,0,0,2.976-.827,12.227,12.227,0,0,0,1.536,1.185c.062.045,6.24,4.517,7.187,10.548a1.134,1.134,0,0,0,1.122.958h4.149a1.135,1.135,0,0,0,1.049-.708,13.719,13.719,0,0,0,.618-6.229A9.515,9.515,0,0,0,65.165,54.6a6.172,6.172,0,0,0,3.191-5.4v-.023c0-.119.289-.442.351-.555a6.764,6.764,0,0,0,.9-3.355,6.665,6.665,0,0,0-2.692-5.373ZM53.473,67.807h-2.38a19.247,19.247,0,0,0-5.254-8.762,5.808,5.808,0,0,0,1.627-.646,9.528,9.528,0,0,0,6.195,4.528A12.808,12.808,0,0,1,53.473,67.807Zm2.227-6.92a7.271,7.271,0,0,1-6.5-4.035,5.848,5.848,0,0,0,.686-1.168A6.745,6.745,0,0,0,58.914,54.4a6.083,6.083,0,0,0,3.3.969c.181,0,.363-.011.538-.028A7.258,7.258,0,0,1,55.7,60.887ZM66.945,47.109a4.209,4.209,0,0,1-2.42,1.8,1.132,1.132,0,1,0,.408,2.227,4.419,4.419,0,0,0,.754-.227A3.872,3.872,0,0,1,62.212,53.1a3.83,3.83,0,0,1-2.182-.686,9.137,9.137,0,0,0,.346-2.584,1.147,1.147,0,0,0-1.156-1.105,1.122,1.122,0,0,0-1.111,1.156,4.867,4.867,0,0,1-.442,2.329A4.473,4.473,0,0,1,50.559,53.3a10.2,10.2,0,0,1-2.528.759A3.566,3.566,0,0,1,41.5,55.219a1.13,1.13,0,0,0-.81-.521,1.149,1.149,0,0,0-.924.289,3.546,3.546,0,0,1-2.42.958,3.594,3.594,0,0,1-3.537-3.066,2.173,2.173,0,0,1,1.649-2.4,1.118,1.118,0,0,0,.8-.708,1.135,1.135,0,0,0-.142-1.066,2.043,2.043,0,0,1-.4-1.213,1.134,1.134,0,0,0-2.267,0,4.42,4.42,0,0,0,.193,1.287,4.448,4.448,0,0,0-2.08,3.508,3.384,3.384,0,0,1-1.44.323,3.42,3.42,0,0,1-3.406-3.423,3.494,3.494,0,0,1,.261-1.321,1.144,1.144,0,0,0-.72-1.525,2.823,2.823,0,0,1-2-2.692,2.781,2.781,0,0,1,.913-2.069,4.632,4.632,0,0,0,.742.941,1.147,1.147,0,0,0,1.6-.068,1.135,1.135,0,0,0-.068-1.6,3.252,3.252,0,0,1-.765-3.027,4.435,4.435,0,0,1,3.826-3.474,4.884,4.884,0,0,0-.068,1.02,1.135,1.135,0,0,0,2.261-.193,3.573,3.573,0,0,1,.748-2.125,4.348,4.348,0,0,1,5.549-1.168,5.269,5.269,0,0,0-.142,1.4,1.129,1.129,0,0,0,1.128,1.032,1.147,1.147,0,0,0,1.134-1.207A3.783,3.783,0,0,1,42.3,30.474a4.363,4.363,0,0,1,6.365.363,3.983,3.983,0,0,1,.947,2.437,1.121,1.121,0,0,1-.017.238,1.136,1.136,0,0,0,.941,1.292,1.15,1.15,0,0,0,1.3-.935,5.447,5.447,0,0,0-.108-1.836,4.356,4.356,0,0,1,5.962,1.241,4,4,0,0,1,.623,2.9,1.132,1.132,0,1,0,2.182.6,3.545,3.545,0,0,0,.113-.64,4.415,4.415,0,0,1,3.644,2.533,4.166,4.166,0,0,1,.244,2.97,1.128,1.128,0,0,0,2,1.02,4.409,4.409,0,0,1,.844,2.607,4.466,4.466,0,0,1-.4,1.842Z" transform="translate(-9.531 -11.697)" fill="#2d4356"/>
      </g>
      <path id="Path_983774" data-name="Path 983774" d="M71.694,91.808h-2.38a19.247,19.247,0,0,0-5.254-8.762,5.809,5.809,0,0,0,1.627-.646,9.528,9.528,0,0,0,6.195,4.528A12.808,12.808,0,0,1,71.694,91.808Z" transform="translate(-27.753 -35.698)" fill="#e1ebf4"/>
      <path id="Path_983775" data-name="Path 983775" d="M83.546,76.281A7.25,7.25,0,0,1,70,77.794a5.848,5.848,0,0,0,.686-1.168,6.745,6.745,0,0,0,9.023-1.287,6.083,6.083,0,0,0,3.3.969C83.189,76.309,83.37,76.3,83.546,76.281Z" transform="translate(-30.326 -32.64)" fill="#fc785e"/>
      <path id="Path_983776" data-name="Path 983776" d="M68.23,44.393a1.128,1.128,0,0,1-2-1.02,4.166,4.166,0,0,0-.244-2.97,4.415,4.415,0,0,0-3.644-2.533,3.545,3.545,0,0,1-.113.64,1.132,1.132,0,1,1-2.182-.6,4,4,0,0,0-.623-2.9,4.356,4.356,0,0,0-5.962-1.241,5.447,5.447,0,0,1,.108,1.836,1.15,1.15,0,0,1-1.3.935,1.136,1.136,0,0,1-.941-1.292,1.121,1.121,0,0,0,.017-.238,3.983,3.983,0,0,0-.947-2.437,4.363,4.363,0,0,0-6.365-.363,3.783,3.783,0,0,0-1.168,2.635,1.147,1.147,0,0,1-1.134,1.207A1.129,1.129,0,0,1,40.6,35.018a5.269,5.269,0,0,1,.142-1.4,4.348,4.348,0,0,0-5.549,1.168,3.573,3.573,0,0,0-.748,2.125,1.135,1.135,0,0,1-2.261.193,4.884,4.884,0,0,1,.068-1.02,4.435,4.435,0,0,0-3.826,3.474,3.252,3.252,0,0,0,.765,3.027,1.135,1.135,0,0,1,.068,1.6,1.147,1.147,0,0,1-1.6.068,4.632,4.632,0,0,1-.742-.941A2.781,2.781,0,0,0,26,45.379a2.823,2.823,0,0,0,2,2.692,1.144,1.144,0,0,1,.72,1.525,3.494,3.494,0,0,0-.261,1.321A3.42,3.42,0,0,0,31.86,54.34a3.384,3.384,0,0,0,1.44-.323,4.448,4.448,0,0,1,2.08-3.508,4.419,4.419,0,0,1-.193-1.287,1.134,1.134,0,1,1,2.267,0,2.043,2.043,0,0,0,.4,1.213,1.135,1.135,0,0,1,.142,1.066,1.118,1.118,0,0,1-.8.708,2.173,2.173,0,0,0-1.649,2.4,3.594,3.594,0,0,0,3.537,3.066,3.546,3.546,0,0,0,2.42-.958,1.149,1.149,0,0,1,.924-.289,1.13,1.13,0,0,1,.81.521,3.566,3.566,0,0,0,6.535-1.162,10.2,10.2,0,0,0,2.528-.759A4.473,4.473,0,0,0,59.4,53.943a4.867,4.867,0,0,0,.442-2.329,1.122,1.122,0,0,1,1.111-1.156,1.147,1.147,0,0,1,1.156,1.105,9.137,9.137,0,0,1-.346,2.584,3.83,3.83,0,0,0,2.182.686,3.871,3.871,0,0,0,3.474-2.188,4.419,4.419,0,0,1-.754.227,1.132,1.132,0,1,1-.408-2.227,4.209,4.209,0,0,0,2.42-1.8,4.466,4.466,0,0,0,.4-1.842A4.409,4.409,0,0,0,68.23,44.393ZM48.1,53.671a7.935,7.935,0,1,1,7.935-7.935A7.935,7.935,0,0,1,48.1,53.671Z" transform="translate(-11.264 -13.43)" fill="#feaca4"/>
      <path id="Path_983777" data-name="Path 983777" d="M58.935,43a7.935,7.935,0,1,0,7.935,7.935A7.935,7.935,0,0,0,58.935,43Zm0,13.6A5.668,5.668,0,1,1,64.6,50.935,5.668,5.668,0,0,1,58.935,56.6Z" transform="translate(-22.095 -18.629)" fill="#2d4356"/>
      <path id="Path_983778" data-name="Path 983778" d="M66.335,52.668A5.668,5.668,0,1,1,60.668,47,5.668,5.668,0,0,1,66.335,52.668Z" transform="translate(-23.828 -20.362)" fill="#e1ebf4"/>
      <path id="Path_983779" data-name="Path 983779" d="M64.668,53.267H63.534V52.134a1.134,1.134,0,1,0-2.267,0v1.134H60.134a1.134,1.134,0,0,0,0,2.267h1.134v1.134a1.134,1.134,0,1,0,2.267,0V55.534h1.134a1.134,1.134,0,1,0,0-2.267Z" transform="translate(-25.561 -22.095)" fill="#2d4356"/>
      <path id="Path_983780" data-name="Path 983780" d="M37.256,64.64a4.448,4.448,0,0,0-2.08,3.508,3.384,3.384,0,0,1-1.44.323,3.42,3.42,0,0,1-3.406-3.423,3.039,3.039,0,0,1,.051-.561,3.393,3.393,0,0,0,4.795,2.528,4.5,4.5,0,0,1,1.9-3.395,4.054,4.054,0,0,0,.181,1.02Z" transform="translate(-13.14 -27.562)" fill="#aa7371" opacity="0.5"/>
      <path id="Path_983781" data-name="Path 983781" d="M71.694,92.107h-2.38a19.247,19.247,0,0,0-5.254-8.762,7.068,7.068,0,0,0,.833-.255,18.387,18.387,0,0,1,4.421,7.884h2.38a12.083,12.083,0,0,0,.323-2.324A12.556,12.556,0,0,1,71.694,92.107Z" transform="translate(-27.753 -35.997)" fill="#9fa5aa" opacity="0.5"/>
      <path id="Path_983782" data-name="Path 983782" d="M83.546,77A7.25,7.25,0,0,1,70,78.513,4.551,4.551,0,0,0,70.346,78a7.248,7.248,0,0,0,12.815-.975C83.291,77.023,83.421,77.011,83.546,77Z" transform="translate(-30.326 -33.359)" fill="#a54b3f" opacity="0.5"/>
      <path id="Path_983783" data-name="Path 983783" d="M94.756,69.19a3.871,3.871,0,0,1-3.474,2.188,3.83,3.83,0,0,1-2.182-.686,8.719,8.719,0,0,0,.227-.986,3.856,3.856,0,0,0,1.955.538,3.813,3.813,0,0,0,2.369-.822A1.046,1.046,0,0,0,94,69.417a4.419,4.419,0,0,0,.754-.227Z" transform="translate(-38.601 -29.975)" fill="#aa7371" opacity="0.5"/>
      <path id="Path_983784" data-name="Path 983784" d="M99.764,57.181a3.966,3.966,0,0,1-.04.578,4.321,4.321,0,0,0-.8-2.052,1.128,1.128,0,0,1-2-1.02c.006-.017.028-.079.057-.187a1.09,1.09,0,0,0,.578.521,1.132,1.132,0,0,0,1.366-.448A4.409,4.409,0,0,1,99.764,57.181Z" transform="translate(-41.953 -23.611)" fill="#ffdedc" opacity="0.5"/>
      <path id="Path_983785" data-name="Path 983785" d="M92.347,48.079a4.6,4.6,0,0,0-.368-1.292,4.415,4.415,0,0,0-3.644-2.533,3.545,3.545,0,0,1-.113.64,1.132,1.132,0,1,1-2.182-.6A1.964,1.964,0,0,0,86.1,43.9a1.105,1.105,0,0,0,.731.64,1.135,1.135,0,0,0,1.394-.782,3.544,3.544,0,0,0,.113-.64,4.393,4.393,0,0,1,4.013,4.959Z" transform="translate(-37.257 -18.681)" fill="#ffdedc" opacity="0.5"/>
      <path id="Path_983786" data-name="Path 983786" d="M81.053,39.436a4.511,4.511,0,0,0-.64-1.706A4.4,4.4,0,0,0,76.791,35.8a4.342,4.342,0,0,0-2.2.606,5.776,5.776,0,0,0-.136-1.054A4.356,4.356,0,0,1,80.412,36.6,4.131,4.131,0,0,1,81.053,39.436Z" transform="translate(-32.254 -15.02)" fill="#ffdedc" opacity="0.5"/>
      <path id="Path_983787" data-name="Path 983787" d="M29.259,54.726a1.147,1.147,0,0,1-1.6.068,4.632,4.632,0,0,1-.742-.941,2.769,2.769,0,0,0-.85,1.491A2.289,2.289,0,0,1,26,54.789a2.781,2.781,0,0,1,.912-2.069,4.632,4.632,0,0,0,.742.941,1.147,1.147,0,0,0,1.6-.068,1.2,1.2,0,0,0,.147-.2A1.141,1.141,0,0,1,29.259,54.726Z" transform="translate(-11.264 -22.84)" fill="#ffdedc" opacity="0.5"/>
      <path id="Path_983788" data-name="Path 983788" d="M33.974,40.99a.88.88,0,0,0,.023.119,4.437,4.437,0,0,0-3.78,3.469,1.916,1.916,0,0,0-.04.261,3.962,3.962,0,0,1,.04-1.394,4.435,4.435,0,0,1,3.826-3.474A4.885,4.885,0,0,0,33.974,40.99Z" transform="translate(-13.055 -17.316)" fill="#ffdedc" opacity="0.5"/>
      <path id="Path_983789" data-name="Path 983789" d="M45.466,35.208a5.35,5.35,0,0,0-.142,1.06,4.3,4.3,0,0,0-1.955-.465,4.346,4.346,0,0,0-3.451,1.705,3.573,3.573,0,0,0-.749,2.126,1.135,1.135,0,0,1-2.261.193,5.083,5.083,0,0,1,.045-.89,1.141,1.141,0,0,0,2.216-.436,3.573,3.573,0,0,1,.748-2.125,4.348,4.348,0,0,1,5.549-1.168Z" transform="translate(-15.988 -15.02)" fill="#ffdedc" opacity="0.5"/>
      <path id="Path_983790" data-name="Path 983790" d="M64.725,36.736a1.15,1.15,0,0,1-1.3.935,1.136,1.136,0,0,1-.941-1.292,1.121,1.121,0,0,0,.017-.238,3.983,3.983,0,0,0-.947-2.437,4.363,4.363,0,0,0-6.365-.363,3.783,3.783,0,0,0-1.168,2.635,1.147,1.147,0,0,1-1.134,1.207,1.129,1.129,0,0,1-1.128-1.032,4.876,4.876,0,0,1,.051-.9,1.122,1.122,0,0,0,1.077.793,1.147,1.147,0,0,0,1.134-1.207,3.783,3.783,0,0,1,1.168-2.635,4.363,4.363,0,0,1,6.365.363,3.983,3.983,0,0,1,.947,2.437,1.121,1.121,0,0,1-.017.238,1.136,1.136,0,0,0,.941,1.292,1.15,1.15,0,0,0,1.3-.935v-.023A4.684,4.684,0,0,1,64.725,36.736Z" transform="translate(-22.422 -13.43)" fill="#ffdedc" opacity="0.5"/>
      <path id="Path_983791" data-name="Path 983791" d="M66.335,52.668c0,.187-.011.374-.028.555a5.669,5.669,0,0,0-11.279,0c-.017-.181-.028-.368-.028-.555a5.668,5.668,0,0,1,11.335,0Z" transform="translate(-23.828 -20.362)" fill="#fff" opacity="0.5"/>
      <path id="Path_983792" data-name="Path 983792" d="M66.335,56.575a5.668,5.668,0,0,1-11.335,0c0-.187.011-.374.028-.555a5.669,5.669,0,0,0,11.279,0C66.324,56.2,66.335,56.388,66.335,56.575Z" transform="translate(-23.828 -24.27)" fill="#9fa5aa" opacity="0.5"/>
      <path id="Path_983793" data-name="Path 983793" d="M69.366,65.319a1.155,1.155,0,0,0-1.122-.856,1.122,1.122,0,0,0-1.111,1.156,4.867,4.867,0,0,1-.442,2.329,4.473,4.473,0,0,1-7.107,1.088,10.2,10.2,0,0,1-2.528.759,3.566,3.566,0,0,1-6.535,1.162,1.13,1.13,0,0,0-.81-.521,1.149,1.149,0,0,0-.924.289,3.546,3.546,0,0,1-2.42.958,3.594,3.594,0,0,1-3.537-3.066,3.848,3.848,0,0,1,.079-.754,3.591,3.591,0,0,0,3.457,2.686,3.545,3.545,0,0,0,2.42-.958,1.149,1.149,0,0,1,.924-.289,1.13,1.13,0,0,1,.81.521,3.566,3.566,0,0,0,6.535-1.162,10.2,10.2,0,0,0,2.528-.759,4.473,4.473,0,0,0,7.107-1.088,4.867,4.867,0,0,0,.442-2.329,1.122,1.122,0,0,1,1.111-1.156A1.147,1.147,0,0,1,69.4,64.435c0,.1.006.425-.034.884Z" transform="translate(-18.555 -27.436)" fill="#aa7371" opacity="0.5"/>
    </g>
  </g>
</svg>
