<svg xmlns="http://www.w3.org/2000/svg" xmlns:xlink="http://www.w3.org/1999/xlink" width="113" height="113" viewBox="0 0 113 113">
  <defs>
    <filter id="Path_982547" x="0" y="0" width="113" height="113" filterUnits="userSpaceOnUse">
      <feOffset dy="3" input="SourceAlpha"/>
      <feGaussianBlur stdDeviation="3" result="blur"/>
      <feFlood flood-opacity="0.161"/>
      <feComposite operator="in" in2="blur"/>
      <feComposite in="SourceGraphic"/>
    </filter>
  </defs>
  <g id="Group_1152478" data-name="Group 1152478" transform="translate(-1163.954 -4315.379)">
    <g id="Group_1148635" data-name="Group 1148635" transform="translate(908.908 600.047)">
      <g id="Group_1148525" data-name="Group 1148525" transform="translate(264.046 3721.333)">
        <g transform="matrix(1, 0, 0, 1, -9, -6)" filter="url(#Path_982547)">
          <g id="Path_982547-2" data-name="Path 982547" transform="translate(9 6)" fill="#fff6f9">
            <path d="M 47.5 93.5 C 41.28937149047852 93.5 35.26533508300781 92.28397369384766 29.59518623352051 89.88570404052734 C 24.11771965026855 87.56893157958984 19.19813346862793 84.25196075439453 14.97309303283691 80.02691650390625 C 10.74804019927979 75.80186462402344 7.431066513061523 70.88229370117188 5.114293098449707 65.40481567382812 C 2.716026782989502 59.73468017578125 1.5 53.71062850952148 1.5 47.5 C 1.5 41.28937149047852 2.716026782989502 35.26533508300781 5.114293098449707 29.59518623352051 C 7.431066513061523 24.11771965026855 10.74804019927979 19.19813346862793 14.97309303283691 14.97309303283691 C 19.19813346862793 10.74804019927979 24.11771965026855 7.431066513061523 29.59518623352051 5.114293098449707 C 35.26533508300781 2.716026782989502 41.28937149047852 1.5 47.5 1.5 C 53.71062850952148 1.5 59.73468017578125 2.716026782989502 65.40481567382812 5.114293098449707 C 70.88229370117188 7.431066513061523 75.80186462402344 10.74804019927979 80.02691650390625 14.97309303283691 C 84.25196075439453 19.19813346862793 87.56893157958984 24.11771965026855 89.88570404052734 29.59518623352051 C 92.28397369384766 35.26533508300781 93.5 41.28937149047852 93.5 47.5 C 93.5 53.71062850952148 92.28397369384766 59.73468017578125 89.88570404052734 65.40481567382812 C 87.56893157958984 70.88229370117188 84.25196075439453 75.80186462402344 80.02691650390625 80.02691650390625 C 75.80186462402344 84.25196075439453 70.88229370117188 87.56893157958984 65.40481567382812 89.88570404052734 C 59.73468017578125 92.28397369384766 53.71062850952148 93.5 47.5 93.5 Z" stroke="none"/>
            <path d="M 47.5 3 C 41.49121475219727 3 35.66376876831055 4.176155090332031 30.17950439453125 6.495796203613281 C 24.88084411621094 8.736953735351562 20.12152099609375 11.94598388671875 16.03375244140625 16.03375244140625 C 11.94598388671875 20.12152099609375 8.736953735351562 24.88084411621094 6.495796203613281 30.17950439453125 C 4.176155090332031 35.66376876831055 3 41.49121475219727 3 47.5 C 3 53.50878524780273 4.176155090332031 59.33623123168945 6.495796203613281 64.82049560546875 C 8.736953735351562 70.11915588378906 11.94598388671875 74.87847900390625 16.03375244140625 78.96624755859375 C 20.12152099609375 83.05401611328125 24.88084411621094 86.26304626464844 30.17950439453125 88.50419616699219 C 35.66376876831055 90.82384490966797 41.49121475219727 92 47.5 92 C 53.50878524780273 92 59.33623123168945 90.82384490966797 64.82049560546875 88.50419616699219 C 70.11915588378906 86.26304626464844 74.87847900390625 83.05401611328125 78.96624755859375 78.96624755859375 C 83.05401611328125 74.87847900390625 86.26304626464844 70.11915588378906 88.50419616699219 64.82049560546875 C 90.82384490966797 59.33623123168945 92 53.50878524780273 92 47.5 C 92 41.49121475219727 90.82384490966797 35.66376876831055 88.50419616699219 30.17950439453125 C 86.26304626464844 24.88084411621094 83.05401611328125 20.12152099609375 78.96624755859375 16.03375244140625 C 74.87847900390625 11.94598388671875 70.11915588378906 8.736953735351562 64.82049560546875 6.495796203613281 C 59.33623123168945 4.176155090332031 53.50878524780273 3 47.5 3 M 47.5 0 C 73.7335205078125 0 95 21.2664794921875 95 47.5 C 95 73.7335205078125 73.7335205078125 95 47.5 95 C 21.2664794921875 95 0 73.7335205078125 0 47.5 C 0 21.2664794921875 21.2664794921875 0 47.5 0 Z" stroke="none" fill="#ffaece"/>
          </g>
        </g>
      </g>
    </g>
    <g id="clipboard_9616685" transform="translate(1171.795 4331.146)">
      <path id="Path_984061" data-name="Path 984061" d="M23.075,58.1v53.49a2.476,2.476,0,0,0,2.468,2.468h42.32a2.475,2.475,0,0,0,2.468-2.468V58.1a2.476,2.476,0,0,0-2.468-2.468H57.351v4.692H65.64v49.042H27.767V60.327h8.589V55.635H25.543A2.476,2.476,0,0,0,23.075,58.1Z" transform="translate(-3.107 -44.876)" fill="#6fabe6" fill-rule="evenodd"/>
      <path id="Path_984062" data-name="Path 984062" d="M83.972,109.369H46.1V60.327h8.589V55.635H44.168v53.2a2.476,2.476,0,0,0,2.468,2.468H83.972v-1.931Z" transform="translate(-21.439 -44.876)" fill="#82bcf4" fill-rule="evenodd"/>
      <path id="Path_984063" data-name="Path 984063" d="M58.922,91.482v49.042H96.794V91.482H58.922Z" transform="translate(-34.262 -76.031)" fill="#dad7e5" fill-rule="evenodd"/>
      <path id="Path_984064" data-name="Path 984064" d="M115.127,137.763V91.482H80.015v46.281Z" transform="translate(-52.594 -76.031)" fill="#edebf2" fill-rule="evenodd"/>
      <circle id="Ellipse_11653" data-name="Ellipse 11653" cx="8.66" cy="8.66" r="8.66" transform="matrix(0.91, -0.414, 0.414, 0.91, 32.126, 35.66)" fill="#edebf2"/>
      <g id="Group_1152477" data-name="Group 1152477" transform="translate(30.073 4.785)">
        <path id="Path_984065" data-name="Path 984065" d="M124.54,20.665h21V15.972a2.552,2.552,0,0,0-2.545-2.545h-3.717a4.331,4.331,0,0,0-8.471,0h-3.717a2.552,2.552,0,0,0-2.545,2.545Z" transform="translate(-121.363 -9.999)" fill="#fc6" fill-rule="evenodd"/>
        <path id="Path_984066" data-name="Path 984066" d="M163.223,18.319V15.972a2.552,2.552,0,0,0-2.545-2.545h-3.717a4.331,4.331,0,0,0-8.471,0h-2.434a2.522,2.522,0,0,0-1.164.284v4.607Z" transform="translate(-139.052 -9.999)" fill="#ffde76" fill-rule="evenodd"/>
        <path id="Path_984067" data-name="Path 984067" d="M117.283,178.162a11.334,11.334,0,0,1,1.726.716l1.409-.377,1.391-.373a13.608,13.608,0,0,1,2.883,2.883l-.373,1.391-.377,1.408a11.323,11.323,0,0,1,.716,1.727l1.261.728,1.249.721a13.661,13.661,0,0,1,0,4.074l-1.249.721-1.262.728a11.331,11.331,0,0,1-.716,1.726l.377,1.409.373,1.391a13.611,13.611,0,0,1-2.883,2.883l-1.391-.373-1.408-.377a11.33,11.33,0,0,1-1.727.716l-.728,1.261-.721,1.249a13.664,13.664,0,0,1-4.074,0l-.721-1.249-.728-1.262a11.338,11.338,0,0,1-1.726-.716l-1.409.377-1.391.373a13.609,13.609,0,0,1-2.883-2.883l.373-1.391.377-1.408a11.323,11.323,0,0,1-.716-1.727l-1.261-.728-1.249-.721a13.66,13.66,0,0,1,0-4.074l1.249-.721,1.261-.728a11.327,11.327,0,0,1,.716-1.727l-.377-1.408-.373-1.391a13.605,13.605,0,0,1,2.883-2.883l1.391.373,1.408.377a11.341,11.341,0,0,1,1.726-.716l.728-1.262.721-1.249a13.66,13.66,0,0,1,4.074,0l.721,1.249.728,1.262Zm-3.487,1.87a8.99,8.99,0,1,0,6.357,2.633A8.962,8.962,0,0,0,113.8,180.033Z" transform="translate(-100.272 -153.836)" fill="#919191" fill-rule="evenodd"/>
        <path id="Path_984068" data-name="Path 984068" d="M117.282,217.338l-.728,1.261-.721,1.249a13.661,13.661,0,0,1-4.074,0l-.721-1.249-.728-1.262a11.333,11.333,0,0,1-1.726-.716l-1.409.378-1.391.373a13.607,13.607,0,0,1-2.883-2.883l.373-1.391.377-1.408a11.324,11.324,0,0,1-.716-1.727l-1.261-.728-1.249-.721a13.662,13.662,0,0,1,0-4.074l1.249-.721,1.261-.728a11.325,11.325,0,0,1,.716-1.727l-.377-1.408-.373-1.391a13.605,13.605,0,0,1,2.883-2.883l1.391.373,1.408.377a11.716,11.716,0,0,0,8.7,21.006Z" transform="translate(-100.272 -171.29)" fill="#7c7d7d" fill-rule="evenodd"/>
        <path id="Path_984069" data-name="Path 984069" d="M426.213,170.3h3.777v-6.65a.9.9,0,0,0-.894-.894h-1.988a.9.9,0,0,0-.894.894v6.65Z" transform="translate(-383.549 -142.762)" fill="#425b72" fill-rule="evenodd"/>
        <path id="Path_984070" data-name="Path 984070" d="M426.213,170.3H428.1v-7.544h-.994a.9.9,0,0,0-.894.894Z" transform="translate(-383.549 -142.762)" fill="#374f68" fill-rule="evenodd"/>
      </g>
      <path id="Path_984071" data-name="Path 984071" d="M421.736,313.489h4.949v18.1h-4.949Z" transform="translate(-349.586 -268.979)" fill="#82bcf4"/>
      <path id="Path_984072" data-name="Path 984072" d="M421.736,313.489h2.474v18.1h-2.474Z" transform="translate(-349.586 -268.979)" fill="#6fabe6"/>
      <path id="Path_984073" data-name="Path 984073" d="M421.736,210.157h4.949v-14.39a1.175,1.175,0,0,0-1.172-1.172h-2.6a1.176,1.176,0,0,0-1.172,1.172Z" transform="translate(-349.586 -165.647)" fill="#82bcf4" fill-rule="evenodd"/>
      <path id="Path_984074" data-name="Path 984074" d="M421.736,210.157h2.474V194.594h-1.3a1.176,1.176,0,0,0-1.172,1.172v14.39Z" transform="translate(-349.586 -165.646)" fill="#6fabe6" fill-rule="evenodd"/>
      <path id="Path_984075" data-name="Path 984075" d="M426.685,451.787h-4.949l2.474,6.573Z" transform="translate(-349.586 -389.175)" fill="#425b72" fill-rule="evenodd"/>
      <path id="Path_984076" data-name="Path 984076" d="M424.21,451.787h-2.474l2.474,6.573Z" transform="translate(-349.586 -389.175)" fill="#374f68" fill-rule="evenodd"/>
      <path id="Path_984077" data-name="Path 984077" d="M421.736,307.489h4.949v1.571h-4.949Z" transform="translate(-349.586 -263.764)" fill="#425b72"/>
      <path id="Path_984078" data-name="Path 984078" d="M421.736,307.489h2.474v1.571h-2.474Z" transform="translate(-349.586 -263.764)" fill="#374f68"/>
      <path id="Path_984079" data-name="Path 984079" d="M43.279,8.569V8.507a.785.785,0,1,1,1.571,0v.062a.785.785,0,1,1-1.571,0ZM29.6,60.827a.785.785,0,0,1,.785-.785H57.438a.785.785,0,0,1,0,1.571H30.39a.785.785,0,0,1-.785-.785Zm0-3.666a.785.785,0,0,1,.785-.785H57.438a.785.785,0,0,1,0,1.571H30.39a.785.785,0,0,1-.785-.785Zm1.664-18.739,2.177-1.257a.789.789,0,0,0,.356-.44,10.514,10.514,0,0,1,.666-1.607.792.792,0,0,0,.06-.563l-.65-2.428a12.781,12.781,0,0,1,2.192-2.192l2.428.65a.786.786,0,0,0,.563-.06,10.527,10.527,0,0,1,1.606-.666.789.789,0,0,0,.441-.355l1.257-2.177a12.937,12.937,0,0,1,3.1,0L46.72,29.5a.782.782,0,0,0,.44.355,10.532,10.532,0,0,1,1.606.666.786.786,0,0,0,.563.06l2.428-.651a12.787,12.787,0,0,1,2.194,2.193l-.65,2.427a.778.778,0,0,0,.06.563,10.543,10.543,0,0,1,.666,1.607.782.782,0,0,0,.355.44l2.177,1.257a12.789,12.789,0,0,1,0,3.1l-2.177,1.257a.783.783,0,0,0-.355.44,10.639,10.639,0,0,1-.666,1.606.785.785,0,0,0-.062.563l.652,2.428a12.82,12.82,0,0,1-2.194,2.193l-2.427-.651a.785.785,0,0,0-.563.061,10.58,10.58,0,0,1-1.607.667.782.782,0,0,0-.44.355l-1.257,2.177a12.917,12.917,0,0,1-3.1,0L41.108,50.44a.789.789,0,0,0-.441-.355,10.649,10.649,0,0,1-1.606-.666.785.785,0,0,0-.563-.06l-2.428.651a12.82,12.82,0,0,1-2.193-2.193l.651-2.427a.793.793,0,0,0-.06-.563,10.45,10.45,0,0,1-.666-1.607.789.789,0,0,0-.356-.44l-2.177-1.257a12.968,12.968,0,0,1,0-3.1Zm-1.119,4.267,2.254,1.3a12.025,12.025,0,0,0,.53,1.279l-.673,2.511a.783.783,0,0,0,.126.669,14.365,14.365,0,0,0,3.05,3.049.783.783,0,0,0,.669.126l2.512-.673a12.211,12.211,0,0,0,1.279.53l1.3,2.253a.784.784,0,0,0,.563.384,14.439,14.439,0,0,0,4.309,0,.789.789,0,0,0,.563-.384l1.3-2.253a12.143,12.143,0,0,0,1.28-.531l2.512.673a.783.783,0,0,0,.669-.126A14.356,14.356,0,0,0,55.44,48.45a.788.788,0,0,0,.127-.669l-.674-2.513a12.044,12.044,0,0,0,.531-1.278l2.253-1.3a.784.784,0,0,0,.384-.563,14.383,14.383,0,0,0,0-4.309.784.784,0,0,0-.384-.563l-2.253-1.3a11.974,11.974,0,0,0-.532-1.279l.674-2.512a.788.788,0,0,0-.127-.669,14.359,14.359,0,0,0-3.049-3.049.785.785,0,0,0-.669-.126l-2.513.673a12.258,12.258,0,0,0-1.278-.53l-1.3-2.253a.788.788,0,0,0-.563-.384,14.514,14.514,0,0,0-4.309,0,.783.783,0,0,0-.563.384l-1.3,2.253a12.039,12.039,0,0,0-1.279.53L36.1,28.318a.784.784,0,0,0-.669.126,14.366,14.366,0,0,0-3.05,3.049.782.782,0,0,0-.126.669l.673,2.512a11.953,11.953,0,0,0-.53,1.279l-2.253,1.3a.787.787,0,0,0-.385.563,14.5,14.5,0,0,0,0,4.309.788.788,0,0,0,.384.563ZM43.914,32.1a7.875,7.875,0,1,0,7.874,7.875A7.885,7.885,0,0,0,43.914,32.1Zm0,17.321a9.446,9.446,0,1,0-9.447-9.446,9.456,9.456,0,0,0,9.447,9.446Zm22.842,17.3V13.227a1.684,1.684,0,0,0-1.682-1.683H55.348v3.121h7.5a.786.786,0,0,1,.785.785V64.493a.786.786,0,0,1-.785.785H24.978a.785.785,0,0,1-.785-.785V15.451a.785.785,0,0,1,.785-.785h7.8V11.544H22.754a1.685,1.685,0,0,0-1.683,1.683v53.49A1.685,1.685,0,0,0,22.754,68.4h42.32a1.684,1.684,0,0,0,1.682-1.683ZM36.112,9a1.762,1.762,0,0,0-1.759,1.76v3.907H53.777V10.759A1.763,1.763,0,0,0,52.017,9H48.3a.786.786,0,0,1-.768-.623,3.545,3.545,0,0,0-6.933,0A.786.786,0,0,1,39.829,9H36.112Zm25.954,7.237h-36.3V63.707h36.3V16.236Zm3.009-6.263H55.252a3.335,3.335,0,0,0-3.236-2.545H48.893a5.115,5.115,0,0,0-9.659,0H36.112a3.335,3.335,0,0,0-3.236,2.545H22.754A3.257,3.257,0,0,0,19.5,13.227V66.716a3.257,3.257,0,0,0,3.254,3.254H65.075a3.257,3.257,0,0,0,3.253-3.254V13.227a3.257,3.257,0,0,0-3.253-3.254ZM75.092,66.956,73.753,63.4h2.679ZM74.1,25.565h1.988a.112.112,0,0,1,.109.109v2.488H73.99V25.674a.112.112,0,0,1,.109-.109ZM73.4,45.3h3.378V61.827H73.4Zm2.991-15.562a.392.392,0,0,1,.387.387v13.6H73.4V30.119a.391.391,0,0,1,.386-.387h2.6Zm2.67-1.571h-1.3V25.674a1.682,1.682,0,0,0-1.679-1.68H74.1a1.681,1.681,0,0,0-1.679,1.68v3.05a1.952,1.952,0,0,0-.586,1.395V62.612a.642.642,0,0,0,.005.087c0,.007,0,.014,0,.021,0,.023.008.046.013.068s0,.016.005.024l.02.065a.041.041,0,0,1,0,.013l2.475,6.573a.785.785,0,0,0,1.47,0L78.3,62.889a.055.055,0,0,0,0-.013c.008-.021.014-.042.021-.064s0-.016.005-.024a.552.552,0,0,0,.012-.068l0-.021c0-.029.005-.058.005-.087V30.12a1.979,1.979,0,0,0-.039-.387h.751a.779.779,0,0,1,.778.778V40.8a.785.785,0,1,0,1.571,0V30.511a2.351,2.351,0,0,0-2.348-2.348Z" transform="translate(0 0)" fill-rule="evenodd"/>
    </g>
  </g>
</svg>
