<svg xmlns="http://www.w3.org/2000/svg" xmlns:xlink="http://www.w3.org/1999/xlink" width="113" height="113" viewBox="0 0 113 113">
  <defs>
    <filter id="Path_982547" x="0" y="0" width="113" height="113" filterUnits="userSpaceOnUse">
      <feOffset dy="3" input="SourceAlpha"/>
      <feGaussianBlur stdDeviation="3" result="blur"/>
      <feFlood flood-opacity="0.161"/>
      <feComposite operator="in" in2="blur"/>
      <feComposite in="SourceGraphic"/>
    </filter>
  </defs>
  <g id="Group_1152472" data-name="Group 1152472" transform="translate(-326.454 -4315.379)">
    <g id="Group_1148633" data-name="Group 1148633" transform="translate(71.408 600.047)">
      <g id="Group_1148525" data-name="Group 1148525" transform="translate(264.046 3721.333)">
        <g transform="matrix(1, 0, 0, 1, -9, -6)" filter="url(#Path_982547)">
          <g id="Path_982547-2" data-name="Path 982547" transform="translate(9 6)" fill="#fff6f9">
            <path d="M 47.5 93.5 C 41.28937149047852 93.5 35.26533508300781 92.28397369384766 29.59518623352051 89.88570404052734 C 24.11771965026855 87.56893157958984 19.19813346862793 84.25196075439453 14.97309303283691 80.02691650390625 C 10.74804019927979 75.80186462402344 7.431066513061523 70.88229370117188 5.114293098449707 65.40481567382812 C 2.716026782989502 59.73468017578125 1.5 53.71062850952148 1.5 47.5 C 1.5 41.28937149047852 2.716026782989502 35.26533508300781 5.114293098449707 29.59518623352051 C 7.431066513061523 24.11771965026855 10.74804019927979 19.19813346862793 14.97309303283691 14.97309303283691 C 19.19813346862793 10.74804019927979 24.11771965026855 7.431066513061523 29.59518623352051 5.114293098449707 C 35.26533508300781 2.716026782989502 41.28937149047852 1.5 47.5 1.5 C 53.71062850952148 1.5 59.73468017578125 2.716026782989502 65.40481567382812 5.114293098449707 C 70.88229370117188 7.431066513061523 75.80186462402344 10.74804019927979 80.02691650390625 14.97309303283691 C 84.25196075439453 19.19813346862793 87.56893157958984 24.11771965026855 89.88570404052734 29.59518623352051 C 92.28397369384766 35.26533508300781 93.5 41.28937149047852 93.5 47.5 C 93.5 53.71062850952148 92.28397369384766 59.73468017578125 89.88570404052734 65.40481567382812 C 87.56893157958984 70.88229370117188 84.25196075439453 75.80186462402344 80.02691650390625 80.02691650390625 C 75.80186462402344 84.25196075439453 70.88229370117188 87.56893157958984 65.40481567382812 89.88570404052734 C 59.73468017578125 92.28397369384766 53.71062850952148 93.5 47.5 93.5 Z" stroke="none"/>
            <path d="M 47.5 3 C 41.49121475219727 3 35.66376876831055 4.176155090332031 30.17950439453125 6.495796203613281 C 24.88084411621094 8.736953735351562 20.12152099609375 11.94598388671875 16.03375244140625 16.03375244140625 C 11.94598388671875 20.12152099609375 8.736953735351562 24.88084411621094 6.495796203613281 30.17950439453125 C 4.176155090332031 35.66376876831055 3 41.49121475219727 3 47.5 C 3 53.50878524780273 4.176155090332031 59.33623123168945 6.495796203613281 64.82049560546875 C 8.736953735351562 70.11915588378906 11.94598388671875 74.87847900390625 16.03375244140625 78.96624755859375 C 20.12152099609375 83.05401611328125 24.88084411621094 86.26304626464844 30.17950439453125 88.50419616699219 C 35.66376876831055 90.82384490966797 41.49121475219727 92 47.5 92 C 53.50878524780273 92 59.33623123168945 90.82384490966797 64.82049560546875 88.50419616699219 C 70.11915588378906 86.26304626464844 74.87847900390625 83.05401611328125 78.96624755859375 78.96624755859375 C 83.05401611328125 74.87847900390625 86.26304626464844 70.11915588378906 88.50419616699219 64.82049560546875 C 90.82384490966797 59.33623123168945 92 53.50878524780273 92 47.5 C 92 41.49121475219727 90.82384490966797 35.66376876831055 88.50419616699219 30.17950439453125 C 86.26304626464844 24.88084411621094 83.05401611328125 20.12152099609375 78.96624755859375 16.03375244140625 C 74.87847900390625 11.94598388671875 70.11915588378906 8.736953735351562 64.82049560546875 6.495796203613281 C 59.33623123168945 4.176155090332031 53.50878524780273 3 47.5 3 M 47.5 0 C 73.7335205078125 0 95 21.2664794921875 95 47.5 C 95 73.7335205078125 73.7335205078125 95 47.5 95 C 21.2664794921875 95 0 73.7335205078125 0 47.5 C 0 21.2664794921875 21.2664794921875 0 47.5 0 Z" stroke="none" fill="#ffaece"/>
          </g>
        </g>
      </g>
    </g>
    <g id="Balance" transform="translate(346.748 4332.687)">
      <g id="Group_1152471" data-name="Group 1152471" transform="translate(1 1.1)">
        <g id="Group_1152456" data-name="Group 1152456" transform="translate(1.136 27.938)">
          <path id="Path_984030" data-name="Path 984030" d="M13.243,25.7A11.243,11.243,0,1,0,24.487,36.943,10.965,10.965,0,0,0,21.08,28.88a11.373,11.373,0,0,0-7.836-3.18Z" transform="translate(-2 -25.7)" fill="#bde0fe" fill-rule="evenodd"/>
        </g>
        <g id="Group_1152457" data-name="Group 1152457" transform="translate(7.496 27.938)">
          <path id="Path_984031" data-name="Path 984031" d="M19.525,35.808A11.2,11.2,0,0,1,8.281,47.051H7.6a11.441,11.441,0,0,0,4.883,1.136A11.2,11.2,0,0,0,23.727,36.943,10.965,10.965,0,0,0,20.32,28.88a11.281,11.281,0,0,0-7.155-3.18A11.272,11.272,0,0,1,19.525,35.808Z" transform="translate(-7.6 -25.7)" fill="#a2d2ff" fill-rule="evenodd"/>
        </g>
        <g id="Group_1152458" data-name="Group 1152458" transform="translate(46.79 27.938)">
          <path id="Path_984032" data-name="Path 984032" d="M45.607,28.88A10.965,10.965,0,0,0,42.2,36.943a11.243,11.243,0,1,0,22.487,0,11.244,11.244,0,0,0-19.08-8.063Z" transform="translate(-42.2 -25.7)" fill="#ffd670" fill-rule="evenodd"/>
        </g>
        <g id="Group_1152459" data-name="Group 1152459" transform="translate(3.521 8.291)">
          <path id="Path_984033" data-name="Path 984033" d="M40.442,15.668H65.314a2.156,2.156,0,0,0,2.158-2.158,2.234,2.234,0,0,0-2.158-2.158H40.328A5.2,5.2,0,0,0,35.672,8.4a5.9,5.9,0,0,0-2.839.795,4.263,4.263,0,0,0-1.817,2.158H6.258A2.234,2.234,0,0,0,4.1,13.511a2.156,2.156,0,0,0,2.158,2.158H31.129a5.2,5.2,0,0,0,4.656,2.953,5.062,5.062,0,0,0,2.953-.909A4.37,4.37,0,0,0,40.442,15.668Z" transform="translate(-4.1 -8.4)" fill="#ffd670" fill-rule="evenodd"/>
        </g>
        <g id="Group_1152460" data-name="Group 1152460" transform="translate(32.254 1.136)">
          <path id="Path_984034" data-name="Path 984034" d="M35.306,10.391V5.053a2.953,2.953,0,1,0-5.906,0v5.111a4.878,4.878,0,0,1,2.839-.795A4.983,4.983,0,0,1,35.306,10.391Z" transform="translate(-29.4 -2.1)" fill="#c68642" fill-rule="evenodd"/>
        </g>
        <g id="Group_1152461" data-name="Group 1152461" transform="translate(32.254 17.603)">
          <path id="Path_984035" data-name="Path 984035" d="M35.306,16.6a5.253,5.253,0,0,1-5.906,0V56.576h5.906Z" transform="translate(-29.4 -16.6)" fill="#c68642" fill-rule="evenodd"/>
        </g>
        <g id="Group_1152462" data-name="Group 1152462" transform="translate(19.761 57.579)">
          <path id="Path_984036" data-name="Path 984036" d="M42.931,51.8H24.76a6.349,6.349,0,0,0-6.36,6.36H49.177A6.184,6.184,0,0,0,42.931,51.8Z" transform="translate(-18.4 -51.8)" fill="#ffd670" fill-rule="evenodd"/>
        </g>
        <g id="Group_1152463" data-name="Group 1152463" transform="translate(14.537 63.939)">
          <path id="Path_984037" data-name="Path 984037" d="M49.8,57.4H17.661A3.829,3.829,0,0,0,13.8,61.261v1.249H55.139V61.261A3.829,3.829,0,0,0,51.278,57.4Z" transform="translate(-13.8 -57.4)" fill="#827a7a" fill-rule="evenodd"/>
        </g>
        <g id="Group_1152464" data-name="Group 1152464" transform="translate(39.408 57.579)">
          <path id="Path_984038" data-name="Path 984038" d="M35.7,51.8a6.184,6.184,0,0,1,6.246,6.36H46.83a6.184,6.184,0,0,0-6.246-6.36Z" transform="translate(-35.7 -51.8)" fill="#ffc942" fill-rule="evenodd"/>
        </g>
        <g id="Group_1152465" data-name="Group 1152465" transform="translate(47.131 63.939)">
          <path id="Path_984039" data-name="Path 984039" d="M45.907,57.4H42.5a3.829,3.829,0,0,1,3.861,3.861v1.249h4.883V61.261A3.829,3.829,0,0,0,47.383,57.4Z" transform="translate(-42.5 -57.4)" fill="#6e6565" fill-rule="evenodd"/>
        </g>
        <g id="Group_1152466" data-name="Group 1152466" transform="translate(35.206 1.136)">
          <path id="Path_984040" data-name="Path 984040" d="M32,2.1V9.368a5.138,5.138,0,0,1,2.953,1.022V5.053A2.932,2.932,0,0,0,32,2.1Z" transform="translate(-32 -2.1)" fill="#bf7526" fill-rule="evenodd"/>
        </g>
        <g id="Group_1152467" data-name="Group 1152467" transform="translate(35.206 17.603)">
          <path id="Path_984041" data-name="Path 984041" d="M34.953,16.6A5.062,5.062,0,0,1,32,17.509V56.576h2.953Z" transform="translate(-32 -16.6)" fill="#bf7526" fill-rule="evenodd"/>
        </g>
        <g id="Group_1152468" data-name="Group 1152468" transform="translate(54.513 27.824)">
          <path id="Path_984042" data-name="Path 984042" d="M51.612,25.714a11.3,11.3,0,0,1,7.723,10.675A11.08,11.08,0,0,1,49,47.519a12.025,12.025,0,0,0,3.521.568A11.2,11.2,0,0,0,63.764,36.843,11.242,11.242,0,0,0,52.521,25.6,2.5,2.5,0,0,1,51.612,25.714Z" transform="translate(-49 -25.6)" fill="#ffc942" fill-rule="evenodd"/>
        </g>
        <g id="Group_1152470" data-name="Group 1152470">
          <path id="Path_984043" data-name="Path 984043" d="M13.171,35.788V32.836A1.073,1.073,0,0,0,12.036,31.7,1.073,1.073,0,0,0,10.9,32.836v3.293a1.614,1.614,0,0,0,.227.681l2.385,3.18a1.033,1.033,0,0,0,.909.454,1.614,1.614,0,0,0,.681-.227,1.221,1.221,0,0,0,.227-1.59Z" transform="translate(0.343 3.052)"/>
          <g id="Group_1152469" data-name="Group 1152469">
            <path id="Path_984044" data-name="Path 984044" d="M52.166,33.67h2.385a1.136,1.136,0,1,0,0-2.271h-.909V30.036a1.136,1.136,0,1,0-2.271,0v1.476A3.17,3.17,0,0,0,49.1,34.465v.341a3.054,3.054,0,0,0,3.066,3.066h.454a.795.795,0,1,1,0,1.59H50.236a1.136,1.136,0,1,0,0,2.271h1.136v1.136a1.136,1.136,0,0,0,2.271,0V41.506a3.2,3.2,0,0,0,2.044-2.839A3.054,3.054,0,0,0,52.621,35.6h-.454a.965.965,0,0,1-.795-.795v-.341a.853.853,0,0,1,.795-.795Z" transform="translate(5.527 2.672)"/>
            <path id="Path_984045" data-name="Path 984045" d="M67.778,31.536,60.851,17.795h4.883A3.3,3.3,0,0,0,69.028,14.5a3.453,3.453,0,0,0-3.293-3.293H41.43a12.028,12.028,0,0,0-1.136-1.363V5.188a4.088,4.088,0,0,0-8.177,0V9.731a4.624,4.624,0,0,0-1.363,1.59H6.678a3.453,3.453,0,0,0-3.293,3.293,3.3,3.3,0,0,0,3.293,3.293h4.883L4.634,31.536A12.273,12.273,0,0,0,1,40.281a12.379,12.379,0,1,0,24.758,0,12.273,12.273,0,0,0-3.634-8.745L15.2,17.795H30.869a4.841,4.841,0,0,0,1.249,1.363V57.544h-5a7.459,7.459,0,0,0-7.382,6.36H19.4a4.9,4.9,0,0,0-5,5V70.15a1.073,1.073,0,0,0,1.136,1.136H56.876a1.073,1.073,0,0,0,1.136-1.136V68.9a4.9,4.9,0,0,0-5-5H52.56a7.635,7.635,0,0,0-1.931-4.088,7.206,7.206,0,0,0-5.338-2.271h-5V19.271a7.819,7.819,0,0,0,1.249-1.476H57.217L50.289,31.536a12.273,12.273,0,0,0-3.634,8.745,12.379,12.379,0,1,0,24.758,0,12.273,12.273,0,0,0-3.634-8.745ZM34.389,5.188a1.817,1.817,0,1,1,3.634,0V8.709a5.3,5.3,0,0,0-1.931-.341,8.766,8.766,0,0,0-1.7.227ZM23.373,39.146h-1.7a1.136,1.136,0,1,0,0,2.271h1.7a10.023,10.023,0,0,1-8.858,8.858v-1.7a1.07,1.07,0,0,0-1.136-1.136c-.681.114-1.249.568-1.136,1.136v1.7a10.023,10.023,0,0,1-8.858-8.858h1.7a1.136,1.136,0,1,0,0-2.271h-1.7a10.023,10.023,0,0,1,8.858-8.858v1.7a1.136,1.136,0,0,0,2.271,0v-1.7A9.917,9.917,0,0,1,23.373,39.146ZM18.262,28.924A11.762,11.762,0,0,0,13.379,27.9,11.762,11.762,0,0,0,8.5,28.924l4.883-9.653ZM53.014,66.175A2.69,2.69,0,0,1,55.74,68.9v.114H16.672V68.9A2.764,2.764,0,0,1,19.4,66.175Zm-7.723-6.36A5.15,5.15,0,0,1,49.04,61.4,5.414,5.414,0,0,1,50.4,63.9H22.01a5.35,5.35,0,0,1,5.111-4.088Zm-10.9-2.271V20.52a5.144,5.144,0,0,0,1.817.341,8.826,8.826,0,0,0,1.817-.227V57.657H34.389Zm6.473-42.02a.993.993,0,0,0-1.022.681,3.923,3.923,0,0,1-3.634,2.271A4.178,4.178,0,0,1,32.572,16.2a1.091,1.091,0,0,0-1.022-.681H6.678A1.014,1.014,0,0,1,5.656,14.5a1.2,1.2,0,0,1,1.022-1.022H31.436a.993.993,0,0,0,1.022-.681,3.923,3.923,0,0,1,3.634-2.271A4.178,4.178,0,0,1,39.727,12.8a1.091,1.091,0,0,0,1.022.681H65.734A1.2,1.2,0,0,1,66.756,14.5a1.014,1.014,0,0,1-1.022,1.022Zm18.171,3.748,4.883,9.653a12.177,12.177,0,0,0-9.767,0Zm0,31.118A10.108,10.108,0,1,1,69.141,40.281,10.13,10.13,0,0,1,59.034,50.389Z" transform="translate(-1 -1.1)"/>
          </g>
        </g>
      </g>
    </g>
  </g>
</svg>
