<svg xmlns="http://www.w3.org/2000/svg" xmlns:xlink="http://www.w3.org/1999/xlink" width="108" height="108" viewBox="0 0 108 108">
  <defs>
    <filter id="Path_982547" x="0" y="0" width="108" height="108" filterUnits="userSpaceOnUse">
      <feOffset dy="3" input="SourceAlpha"/>
      <feGaussianBlur stdDeviation="3" result="blur"/>
      <feFlood flood-opacity="0.161"/>
      <feComposite operator="in" in2="blur"/>
      <feComposite in="SourceGraphic"/>
    </filter>
  </defs>
  <g id="Group_1154757" data-name="Group 1154757" transform="translate(-193 -351)">
    <g id="Group_1154143" data-name="Group 1154143" transform="translate(202 357)">
      <g id="Group_1152564" data-name="Group 1152564">
        <g id="Group_1146955" data-name="Group 1146955">
          <g id="Group_1146954" data-name="Group 1146954">
            <g transform="matrix(1, 0, 0, 1, -9, -6)" filter="url(#Path_982547)">
              <g id="Path_982547-2" data-name="Path 982547" transform="translate(9 6)" fill="#fffdfb">
                <path d="M 45 88.5 C 39.12687683105469 88.5 33.43022537231445 87.35007476806641 28.06830024719238 85.08217620849609 C 22.88852500915527 82.89131164550781 18.23629951477051 79.75458526611328 14.2408504486084 75.75914764404297 C 10.24541282653809 71.76370239257812 7.108687400817871 67.11147308349609 4.917825222015381 61.93170166015625 C 2.649924993515015 56.56977462768555 1.5 50.87312316894531 1.5 45 C 1.5 39.12687683105469 2.649924993515015 33.43022537231445 4.917825222015381 28.06830024719238 C 7.108687400817871 22.88852500915527 10.24541282653809 18.23629951477051 14.2408504486084 14.2408504486084 C 18.23629951477051 10.24541282653809 22.88852500915527 7.108687400817871 28.06830024719238 4.917825222015381 C 33.43022537231445 2.649924993515015 39.12687683105469 1.5 45 1.5 C 50.87312316894531 1.5 56.56977462768555 2.649924993515015 61.93170166015625 4.917825222015381 C 67.11147308349609 7.108687400817871 71.76370239257812 10.24541282653809 75.75914764404297 14.2408504486084 C 79.75458526611328 18.23629951477051 82.89131164550781 22.88852500915527 85.08217620849609 28.06830024719238 C 87.35007476806641 33.43022537231445 88.5 39.12687683105469 88.5 45 C 88.5 50.87312316894531 87.35007476806641 56.56977462768555 85.08217620849609 61.93170166015625 C 82.89131164550781 67.11147308349609 79.75458526611328 71.76370239257812 75.75914764404297 75.75914764404297 C 71.76370239257812 79.75458526611328 67.11147308349609 82.89131164550781 61.93170166015625 85.08217620849609 C 56.56977462768555 87.35007476806641 50.87312316894531 88.5 45 88.5 Z" stroke="none"/>
                <path d="M 45 3 C 39.32871246337891 3 33.82865524291992 4.110054016113281 28.65262985229492 6.299339294433594 C 23.65165710449219 8.414573669433594 19.15968322753906 11.44334411621094 15.301513671875 15.301513671875 C 11.44334411621094 19.15968322753906 8.414573669433594 23.65165710449219 6.299339294433594 28.65262985229492 C 4.110054016113281 33.82865524291992 3 39.32871246337891 3 45 C 3 50.67128753662109 4.110054016113281 56.17134475708008 6.299339294433594 61.34737396240234 C 8.414573669433594 66.34834289550781 11.44334411621094 70.84031677246094 15.301513671875 74.698486328125 C 19.15968322753906 78.55665588378906 23.65165710449219 81.58542633056641 28.65262985229492 83.70066070556641 C 33.82865524291992 85.88994598388672 39.32871246337891 87 45 87 C 50.67128753662109 87 56.17134475708008 85.88994598388672 61.34737396240234 83.70066070556641 C 66.34834289550781 81.58542633056641 70.84031677246094 78.55665588378906 74.698486328125 74.698486328125 C 78.55665588378906 70.84031677246094 81.58542633056641 66.34834289550781 83.70066070556641 61.34737396240234 C 85.88994598388672 56.17134475708008 87 50.67128753662109 87 45 C 87 39.32871246337891 85.88994598388672 33.82865524291992 83.70066070556641 28.65262985229492 C 81.58542633056641 23.65165710449219 78.55665588378906 19.15968322753906 74.698486328125 15.301513671875 C 70.84031677246094 11.44334411621094 66.34834289550781 8.414573669433594 61.34737396240234 6.299339294433594 C 56.17134475708008 4.110054016113281 50.67128753662109 3 45 3 M 45 0 C 69.85281372070312 0 90 20.14718627929688 90 45 C 90 69.85281372070312 69.85281372070312 90 45 90 C 20.14718627929688 90 0 69.85281372070312 0 45 C 0 20.14718627929688 20.14718627929688 0 45 0 Z" stroke="none" fill="#8b8379"/>
              </g>
            </g>
          </g>
        </g>
      </g>
      <g id="libro" transform="translate(14 17)">
        <g id="Group_1153118" data-name="Group 1153118" transform="translate(1.203 1.203)">
          <path id="Path_987682" data-name="Path 987682" d="M41.854,85.958H11.443c-1.433.523-1.423,2.611-1.423,4.151v37.208a3.632,3.632,0,0,0,3.92,3.643l23.2-.013a2.418,2.418,0,0,0,4.824,0Z" transform="translate(-10.02 -79.557)" fill="#d1aee4"/>
          <path id="Path_987683" data-name="Path 987683" d="M53.349,55.275a1.815,1.815,0,0,0-1.668,1.809V96.675a1.815,1.815,0,0,0,1.964,1.809l22.684-.1.4-43.114H53.349Z" transform="translate(-46.679 -52.558)" fill="#fffbdf"/>
          <path id="Path_987684" data-name="Path 987684" d="M284.3,55.557c2.919-5.428-1.71-7.7-1.71-7.7a5.349,5.349,0,0,0-3.238-5.67c0-8.173-7.3-5.916-7.3-5.916-2.085-4.265-7.22-3.322-7.22-3.322-.3-.3-1.349-.3-1.349-.3a6.658,6.658,0,0,0-6.5,6.808V76.5c0,3.76,1.045,8.71,6.5,8.71,3.851-.21,5.1-3.044,5.711-4.115,8.685,3.063,8.638-5.845,8.638-5.845,8.77-1.516,4.877-9.968,4.877-9.968C289.667,62.092,284.3,55.557,284.3,55.557Z" transform="translate(-227.329 -32.644)" fill="#ff9eb1"/>
        </g>
        <g id="Group_1153119" data-name="Group 1153119">
          <circle id="Ellipse_11670" data-name="Ellipse 11670" cx="1.208" cy="1.208" r="1.208" transform="translate(29.646 24.866)"/>
          <path id="Path_987685" data-name="Path 987685" d="M61.472,51.149a6.849,6.849,0,0,0-1.714-4.537,6.034,6.034,0,0,0-1.991-8.247c.009-.131.014-.263.014-.395a6.009,6.009,0,0,0-3.243-5.351c.008-.132.013-.265.013-.4a6.446,6.446,0,0,0-8.035-6.247,6.718,6.718,0,0,0-7.4-2.981,3.9,3.9,0,0,0-1.8-.367,7.522,7.522,0,0,0-5.755,2.717H7.846q-.049,0-.1,0a3.027,3.027,0,0,0-2.767,3V29.82H3.368A3.372,3.372,0,0,0,0,33.189v38.74a4.938,4.938,0,0,0,5.17,4.806H27.532a3.624,3.624,0,0,0,6.387.038,7.373,7.373,0,0,0,3.393.827A7.612,7.612,0,0,0,43.9,73.692a6.879,6.879,0,0,0,9.038-6.127,7.146,7.146,0,0,0,5.211-10.53,6.881,6.881,0,0,0,3.323-5.886ZM31.893,75.422a1.219,1.219,0,0,1-2.315,0,1.707,1.707,0,0,0-1.255-1.093H5.123a2.57,2.57,0,0,1-2.717-2.4V33.189a.964.964,0,0,1,.962-.962H4.982V67.953a3.209,3.209,0,0,0,3.2,3.005H29.759a8.067,8.067,0,0,0,2.18,4.346,1.231,1.231,0,0,0-.045.118Zm22.7-19.8a1.2,1.2,0,1,0,0,2.406,6.879,6.879,0,0,0,1.275-.12,4.74,4.74,0,0,1-3.212,7.267,6.893,6.893,0,0,0-6.585-4.89,1.483,1.483,0,0,0-.165.008,1.2,1.2,0,0,0,.184,2.4,4.478,4.478,0,0,1,4.418,3.9,4.41,4.41,0,0,1,.037.572,4.475,4.475,0,0,1-5.774,4.281,8.266,8.266,0,0,0,.2-1.815,1.2,1.2,0,0,0-2.406,0,5.264,5.264,0,1,1-10.511,0V54.143a1.2,1.2,0,0,0-2.406,0V68.553H8.141c-.351,0-.754-.164-.754-.6V28.348a.608.608,0,0,1,.52-.6h22.25A8.211,8.211,0,0,0,29.65,30.6V43.3a1.2,1.2,0,0,0,2.406,0V30.6a5.558,5.558,0,0,1,3.544-5.26,1.2,1.2,0,0,0,2.008,1.244,4.323,4.323,0,1,1,5.173,6.764,1.2,1.2,0,1,0,1.112,2.134,6.74,6.74,0,0,0,3.5-7.234,4.041,4.041,0,0,1,4.748,3.978A4.04,4.04,0,0,1,49.7,35.936a1.2,1.2,0,1,0,.95,2.21,6.469,6.469,0,0,0,3.25-3.1,3.614,3.614,0,0,1,1.476,2.923,3.685,3.685,0,0,1-.089.806,1.217,1.217,0,0,0,.708,1.373,3.63,3.63,0,0,1,1.857,4.942,6.836,6.836,0,0,0-3.257-.822,1.2,1.2,0,1,0,0,2.406,4.473,4.473,0,1,1,0,8.947Z" transform="translate(0 -22.626)"/>
          <path id="Path_987686" data-name="Path 987686" d="M297.59,113.367a1.2,1.2,0,1,0,1.27-2.044,3.106,3.106,0,0,1-1-4.272,1.2,1.2,0,1,0-2.044-1.269A5.514,5.514,0,0,0,297.59,113.367Z" transform="translate(-259.572 -95.297)"/>
          <path id="Path_987687" data-name="Path 987687" d="M295.31,322.531a2.244,2.244,0,0,1-3.114-.594,1.2,1.2,0,1,0-1.99,1.353,4.651,4.651,0,0,0,6.456,1.231,1.2,1.2,0,1,0-1.352-1.99Z" transform="translate(-255.18 -285.538)"/>
          <path id="Path_987688" data-name="Path 987688" d="M309.438,226.843c.789,1.468,2.82.166,2.12-1.139a2.244,2.244,0,0,1,.914-3.036,1.2,1.2,0,1,0-1.139-2.119,4.653,4.653,0,0,0-1.895,6.294Z" transform="translate(-271.8 -196.66)"/>
          <path id="Path_987689" data-name="Path 987689" d="M389.454,245.712a2.242,2.242,0,0,1-1.494-2.8,1.2,1.2,0,1,0-2.3-.7,4.647,4.647,0,0,0,3.1,5.8A1.2,1.2,0,0,0,389.454,245.712Z" transform="translate(-339.177 -215.102)"/>
          <path id="Path_987690" data-name="Path 987690" d="M376.092,159.344a1.2,1.2,0,0,0,.349-2.354,2.244,2.244,0,0,1-1.494-2.8,1.2,1.2,0,0,0-2.3-.7,4.653,4.653,0,0,0,3.1,5.8A1.2,1.2,0,0,0,376.092,159.344Z" transform="translate(-327.727 -137.031)"/>
          <path id="Path_987691" data-name="Path 987691" d="M102.012,123.336H88.184a1.2,1.2,0,1,0,0,2.406h13.828a1.2,1.2,0,1,0,0-2.406Z" transform="translate(-76.538 -111.245)"/>
          <path id="Path_987692" data-name="Path 987692" d="M102.012,169.187H88.184a1.2,1.2,0,1,0,0,2.406h13.828a1.2,1.2,0,1,0,0-2.406Z" transform="translate(-76.538 -151.591)"/>
          <path id="Path_987693" data-name="Path 987693" d="M102.012,215.038H88.184a1.2,1.2,0,1,0,0,2.406h13.828a1.2,1.2,0,1,0,0-2.406Z" transform="translate(-76.538 -191.937)"/>
          <path id="Path_987694" data-name="Path 987694" d="M102.012,260.889H88.184a1.2,1.2,0,1,0,0,2.406h13.828a1.2,1.2,0,1,0,0-2.406Z" transform="translate(-76.538 -232.283)"/>
          <path id="Path_987695" data-name="Path 987695" d="M102.012,306.741H88.184a1.2,1.2,0,1,0,0,2.406h13.828a1.2,1.2,0,1,0,0-2.406Z" transform="translate(-76.538 -272.63)"/>
        </g>
      </g>
    </g>
  </g>
</svg>
