<svg xmlns="http://www.w3.org/2000/svg" xmlns:xlink="http://www.w3.org/1999/xlink" width="110" height="110" viewBox="0 0 110 110">
  <defs>
    <filter id="Path_982547" x="0" y="0" width="110" height="110" filterUnits="userSpaceOnUse">
      <feOffset dy="3" input="SourceAlpha"/>
      <feGaussianBlur stdDeviation="3" result="blur"/>
      <feFlood flood-opacity="0.161"/>
      <feComposite operator="in" in2="blur"/>
      <feComposite in="SourceGraphic"/>
    </filter>
  </defs>
  <g id="Group_1154791" data-name="Group 1154791" transform="translate(-4380 -2304)">
    <g id="Group_1154742" data-name="Group 1154742">
      <g id="Group_1154222" data-name="Group 1154222" transform="translate(3346 -4403)">
        <g id="Group_1152583" data-name="Group 1152583" transform="translate(1043 6713)">
          <g id="Group_1146973" data-name="Group 1146973" transform="translate(0 0)">
            <g id="Group_1146954" data-name="Group 1146954">
              <g transform="matrix(1, 0, 0, 1, -9, -6)" filter="url(#Path_982547)">
                <g id="Path_982547-2" data-name="Path 982547" transform="translate(9 6)" fill="#fff6f9">
                  <path d="M 46 90.49987030029297 C 39.99187850952148 90.49987030029297 34.16426849365234 89.32350921630859 28.67905426025391 87.00345611572266 C 23.38019943237305 84.76224517822266 18.62104034423828 81.55341339111328 14.53374671936035 77.46613311767578 C 10.44646644592285 73.37885284423828 7.237639904022217 68.61969757080078 4.996413230895996 63.32085418701172 C 2.676359891891479 57.83565521240234 1.5 52.008056640625 1.5 45.99993515014648 C 1.5 39.99181365966797 2.676359891891479 34.16421508789062 4.996413230895996 28.67901420593262 C 7.237639904022217 23.38017463684082 10.44646644592285 18.62101554870605 14.53374671936035 14.53373527526855 C 18.62104034423828 10.44645500183105 23.38019943237305 7.23762845993042 28.67905426025391 4.996415138244629 C 34.16426849365234 2.676361799240112 39.99187850952148 1.500001788139343 46 1.500001788139343 C 52.00812149047852 1.500001788139343 57.83573150634766 2.676361799240112 63.32094573974609 4.996415138244629 C 68.61979675292969 7.23762845993042 73.37895965576172 10.44645500183105 77.46625518798828 14.53373527526855 C 81.55353546142578 18.62101554870605 84.76235961914062 23.38017463684082 87.00358581542969 28.67901420593262 C 89.32363891601562 34.16421508789062 90.5 39.99181365966797 90.5 45.99993515014648 C 90.5 52.008056640625 89.32363891601562 57.83565521240234 87.00358581542969 63.32085418701172 C 84.76235961914062 68.61969757080078 81.55353546142578 73.37885284423828 77.46625518798828 77.46613311767578 C 73.37895965576172 81.55341339111328 68.61979675292969 84.76224517822266 63.32094573974609 87.00345611572266 C 57.83573150634766 89.32350921630859 52.00812149047852 90.49987030029297 46 90.49987030029297 Z" stroke="none"/>
                  <path d="M 46 2.999992370605469 C 40.1937141418457 2.999992370605469 34.56269836425781 4.136489868164062 29.26337051391602 6.377906799316406 C 24.14332580566406 8.543502807617188 19.54441070556641 11.64437866210938 15.59439849853516 15.59437561035156 C 11.64440155029297 19.54439544677734 8.54351806640625 24.14329528808594 6.377914428710938 29.26333618164062 C 4.136497497558594 34.56264877319336 3 40.19366455078125 3 45.99993515014648 C 3 51.80620574951172 4.136497497558594 57.43720626831055 6.377914428710938 62.73651885986328 C 8.54351806640625 67.8565673828125 11.64440155029297 72.45545959472656 15.59439849853516 76.40547943115234 C 19.54441070556641 80.35547637939453 24.14332580566406 83.45635223388672 29.26337051391602 85.6219482421875 C 34.56269836425781 87.86336517333984 40.1937141418457 88.99986267089844 46 88.99986267089844 C 51.8062858581543 88.99986267089844 57.43730163574219 87.86336517333984 62.73661422729492 85.6219482421875 C 67.85667419433594 83.45635223388672 72.45557403564453 80.35547637939453 76.40558624267578 76.40547943115234 C 80.35559844970703 72.45545959472656 83.45647430419922 67.8565673828125 85.6220703125 62.73651885986328 C 87.86350250244141 57.43720626831055 89 51.80620574951172 89 45.99993515014648 C 89 40.19366455078125 87.86350250244141 34.56264877319336 85.6220703125 29.26333618164062 C 83.45647430419922 24.14329528808594 80.35559844970703 19.54439544677734 76.40558624267578 15.59437561035156 C 72.45557403564453 11.64437866210938 67.85667419433594 8.543502807617188 62.73661422729492 6.377906799316406 C 57.43730163574219 4.136489868164062 51.8062858581543 2.999992370605469 46 2.999992370605469 M 46 -7.62939453125e-06 C 71.40509033203125 -7.62939453125e-06 92 20.59486389160156 92 45.99993515014648 C 92 71.40499114990234 71.40509033203125 91.99986267089844 46 91.99986267089844 C 20.59490203857422 91.99986267089844 0 71.40499114990234 0 45.99993515014648 C 0 20.59486389160156 20.59490203857422 -7.62939453125e-06 46 -7.62939453125e-06 Z" stroke="none" fill="#ffaece"/>
                </g>
              </g>
            </g>
          </g>
        </g>
      </g>
      <g id="pensamiento-critico" transform="translate(4378.392 2323)">
        <circle id="Ellipse_11751" data-name="Ellipse 11751" cx="7.103" cy="7.103" r="7.103" transform="translate(49.882 9.843)" fill="#fcee56"/>
        <path id="Path_990662" data-name="Path 990662" d="M219.22,76.584a7.1,7.1,0,0,1-5.477,11.626q-.167,0-.332-.008a7.1,7.1,0,1,0,5.809-11.618Z" transform="translate(-161.903 -66.733)" fill="#fbe709"/>
        <path id="Path_990663" data-name="Path 990663" d="M136.689,167.745h-.936a3.369,3.369,0,0,1-3.369-3.369v-15.1a16.2,16.2,0,0,0-.406-3.615.146.146,0,0,0-.142-.113h-31.22a.146.146,0,0,0-.142.113,16.206,16.206,0,0,0-.406,3.616v15.1a3.369,3.369,0,0,1-3.369,3.369h-.936a.167.167,0,0,0-.139.259l1.341,2.012a10.453,10.453,0,0,0,8.7,4.655h21.129a10.453,10.453,0,0,0,8.7-4.655L136.828,168A.167.167,0,0,0,136.689,167.745Z" transform="translate(-59.241 -126.828)" fill="#fb0363"/>
        <circle id="Ellipse_11752" data-name="Ellipse 11752" cx="4.439" cy="4.439" r="4.439" transform="translate(28.573 6.292)" fill="#1dd0b0"/>
        <circle id="Ellipse_11753" data-name="Ellipse 11753" cx="2.664" cy="2.664" r="2.664" transform="translate(65.863 0.965)" fill="#62b4fd"/>
        <circle id="Ellipse_11754" data-name="Ellipse 11754" cx="5.327" cy="5.327" r="5.327" transform="translate(74.743 6.292)" fill="#4f66ce"/>
        <circle id="Ellipse_11755" data-name="Ellipse 11755" cx="1.776" cy="1.776" r="1.776" transform="translate(55.21 0.965)" fill="#fcee56"/>
        <circle id="Ellipse_11756" data-name="Ellipse 11756" cx="3.551" cy="3.551" r="3.551" transform="translate(41.002 0.965)" fill="#fb0363"/>
        <path id="Path_990664" data-name="Path 990664" d="M194.856,351.018c4.425,0,8.124-2.724,9.024-6.36a3.539,3.539,0,0,1-2.1-3.232v-4.092a12.254,12.254,0,0,1-13.851,0v4.092a3.538,3.538,0,0,1-2.1,3.233C186.732,348.294,190.431,351.018,194.856,351.018Z" transform="translate(-137.871 -293.942)" fill="#ffcbbe"/>
        <path id="Path_990665" data-name="Path 990665" d="M144.652,407.56c7.764,0,14.324-4.515,16.435-10.709a13.356,13.356,0,0,0-3.037-1.29l-3.905-1.116a3.556,3.556,0,0,1-.469-.17c-.9,3.636-4.6,6.36-9.024,6.36s-8.123-2.724-9.024-6.36a3.551,3.551,0,0,1-.467.17l-3.9,1.116a13.347,13.347,0,0,0-3.039,1.292c2.112,6.193,8.671,10.708,16.435,10.708Z" transform="translate(-87.667 -343.559)" fill="#eff3f5"/>
        <path id="Path_990666" data-name="Path 990666" d="M122.7,425.857a13.359,13.359,0,0,0-6.651-11.553c-2.111,6.194-8.67,10.709-16.435,10.709S85.287,420.5,83.175,414.306a13.36,13.36,0,0,0-6.649,11.552.046.046,0,0,0,.046.046h46.077a.046.046,0,0,0,.046-.046h0Z" transform="translate(-42.625 -361.013)" fill="#62b4fd"/>
        <path id="Path_990667" data-name="Path 990667" d="M184.077,155.256a11.172,11.172,0,0,0-4.725-5.54,13.845,13.845,0,0,1-4.13-3.67l-.372-.5h-4.8l-.373.5a13.843,13.843,0,0,1-4.13,3.67,11.172,11.172,0,0,0-4.725,5.54,9.873,9.873,0,0,0-.686,4.295l.086,1.341a12.251,12.251,0,0,0,24.452,0l.085-1.337a9.871,9.871,0,0,0-.686-4.295Z" transform="translate(-115.468 -126.828)" fill="#ffece3"/>
        <path id="Path_990668" data-name="Path 990668" d="M214.134,155.26l0,0a11.172,11.172,0,0,0-4.725-5.54,13.845,13.845,0,0,1-4.13-3.67l-.373-.5H202.05a13.845,13.845,0,0,0,2.212,1.594,11.172,11.172,0,0,1,4.725,5.54l0,0a9.871,9.871,0,0,1,.686,4.295l-.085,1.338a12.26,12.26,0,0,1-14.976,11.16,12.251,12.251,0,0,0,20.121-8.588l.085-1.338A9.867,9.867,0,0,0,214.134,155.26Z" transform="translate(-145.524 -126.828)" fill="#ffddce"/>
        <path id="Path_990669" data-name="Path 990669" d="M80.07,17.911a6.292,6.292,0,1,0-6.292-6.292q0,.231.017.458l-9.221,2.128a8.093,8.093,0,0,0-2.1-3.164l4.258-4.258a3.63,3.63,0,1,0-1.364-1.364L60.9,9.893a8.007,8.007,0,0,0-2.948-.956V5.306a2.74,2.74,0,1,0-1.929,0v3.63A8.028,8.028,0,0,0,52.005,10.6L48.355,6.953A4.519,4.519,0,1,0,46.99,8.317l3.651,3.651a8.072,8.072,0,0,0-1.147,1.983L38.41,10.995a5.406,5.406,0,0,0-7.662-5.172.965.965,0,1,0,.809,1.752,3.475,3.475,0,1,1-2.006,2.848.965.965,0,0,0-1.922-.17,5.4,5.4,0,0,0,10.344,2.622L49,15.815a8.112,8.112,0,0,0-.079,1.132q0,.407.041.811H41.374a1.105,1.105,0,0,0-1.083.863,17.214,17.214,0,0,0-.43,3.83v15.1a2.407,2.407,0,0,1-2.4,2.4H36.52a1.131,1.131,0,0,0-.941,1.759l1.341,2.012a11.4,11.4,0,0,0,9.5,5.084h2.308a2.927,2.927,0,0,1-2.072,1.314.965.965,0,1,0,.53,1.855l.15-.043a9.171,9.171,0,0,0,3.254,4.111,11.24,11.24,0,0,0,12.789,0,9.171,9.171,0,0,0,3.254-4.111l3.485,1a12.437,12.437,0,0,1,2.1.813c-2.287,5.511-8.423,9.294-15.234,9.294S44.037,59.253,41.75,53.743a12.38,12.38,0,0,1,1.269-.543.965.965,0,0,0-.659-1.813,14.348,14.348,0,0,0-9.424,13.459,1.012,1.012,0,0,0,1.011,1.011H80.024a1.012,1.012,0,0,0,1.011-1.011A14.341,14.341,0,0,0,70.647,51.074c-4.118-1.185-3.955-1.11-4.247-1.24a2.585,2.585,0,0,1-1.159-1.027h2.307a11.394,11.394,0,0,0,9.5-5.084l1.341-2.012a1.131,1.131,0,0,0-.941-1.759h-.936a2.407,2.407,0,0,1-2.4-2.4V28.59a.965.965,0,1,0-1.929,0v8.958a4.34,4.34,0,0,0,3.8,4.3l-.535.8a9.469,9.469,0,0,1-7.895,4.225H64.875v-3a13.208,13.208,0,0,0,5.3-9.749l.085-1.337a10.894,10.894,0,0,0-.75-4.707l0-.012a12.181,12.181,0,0,0-5.137-6.016A12.809,12.809,0,0,1,61.4,19.687h3.43a21.177,21.177,0,0,1,2.594,1.772.965.965,0,0,0,1.238-1.48q-.178-.149-.36-.292h3.625a15.332,15.332,0,0,1,.251,2.764v1.638a.965.965,0,1,0,1.929,0V22.45a17.212,17.212,0,0,0-.43-3.831,1.105,1.105,0,0,0-1.083-.862H65.012a8.146,8.146,0,0,0-.005-1.672l9.221-2.128a6.3,6.3,0,0,0,5.842,3.954ZM68.526,1.929a1.7,1.7,0,1,1-1.7,1.7A1.7,1.7,0,0,1,68.526,1.929Zm-33.626,62a12.446,12.446,0,0,1,5.18-9.184,16.5,16.5,0,0,0,6.035,7.032,18.9,18.9,0,0,0,4.415,2.153Zm44.171,0H63.439a18.9,18.9,0,0,0,4.415-2.153,16.5,16.5,0,0,0,6.035-7.032A12.444,12.444,0,0,1,79.071,63.927Zm-22.086-62a.811.811,0,1,1-.811.811A.812.812,0,0,1,56.985,1.929ZM41.967,4.516A2.587,2.587,0,1,1,44.554,7.1,2.59,2.59,0,0,1,41.967,4.516ZM38.525,42.653l-.535-.8a4.341,4.341,0,0,0,3.8-4.3V22.45a15.33,15.33,0,0,1,.251-2.764H52.568A12.812,12.812,0,0,1,49.6,22.054a12.181,12.181,0,0,0-5.137,6.016,10.9,10.9,0,0,0-.753,4.715l.086,1.341a13.208,13.208,0,0,0,5.3,9.749v3H46.42A9.47,9.47,0,0,1,38.525,42.653ZM64.86,51.168a8.288,8.288,0,0,1-7.876,4.943,8.289,8.289,0,0,1-7.875-4.942,4.509,4.509,0,0,0,1.916-3.686V45.074a13.169,13.169,0,0,0,11.921,0v2.409A4.507,4.507,0,0,0,64.86,51.168ZM58.983,19.8A14.734,14.734,0,0,0,63.4,23.723a10.238,10.238,0,0,1,4.31,5.056l0,.012a8.964,8.964,0,0,1,.619,3.875L68.248,34a11.286,11.286,0,0,1-22.526,0l-.086-1.341a8.965,8.965,0,0,1,.619-3.875,10.244,10.244,0,0,1,4.313-5.064A14.736,14.736,0,0,0,54.986,19.8l.083-.111H58.9ZM50.9,17.757a6.138,6.138,0,1,1,12.17,0Zm29.17-10.5a4.362,4.362,0,1,1-4.362,4.362A4.367,4.367,0,0,1,80.07,7.257Z" transform="translate(0)"/>
        <path id="Path_990670" data-name="Path 990670" d="M239.518,226.908a.965.965,0,0,0,.965.965h.311a2.966,2.966,0,0,0,2.962-2.962v-2.619a.965.965,0,1,0-1.929,0v2.619a1.034,1.034,0,0,1-1.033,1.033h-.311A.965.965,0,0,0,239.518,226.908Z" transform="translate(-184.652 -192.857)"/>
        <path id="Path_990671" data-name="Path 990671" d="M232.186,292.938a.965.965,0,0,0-1.364,1.364,4.234,4.234,0,0,0,5.981,0,.965.965,0,0,0-1.364-1.364A2.3,2.3,0,0,1,232.186,292.938Z" transform="translate(-176.828 -255.012)"/>
      </g>
    </g>
  </g>
</svg>
