<svg xmlns="http://www.w3.org/2000/svg" xmlns:xlink="http://www.w3.org/1999/xlink" width="99.504" height="99.504" viewBox="0 0 99.504 99.504">
  <defs>
    <filter id="Path_982547" x="0" y="0" width="99.504" height="99.504" filterUnits="userSpaceOnUse">
      <feOffset dy="3" input="SourceAlpha"/>
      <feGaussianBlur stdDeviation="3" result="blur"/>
      <feFlood flood-opacity="0.161"/>
      <feComposite operator="in" in2="blur"/>
      <feComposite in="SourceGraphic"/>
    </filter>
  </defs>
  <g id="Group_1152448" data-name="Group 1152448" transform="translate(-194.496 -1916)">
    <g id="Group_1146976" data-name="Group 1146976" transform="translate(203.496 1922)">
      <g id="Group_1146954" data-name="Group 1146954">
        <g transform="matrix(1, 0, 0, 1, -9, -6)" filter="url(#Path_982547)">
          <g id="Path_982547-2" data-name="Path 982547" transform="translate(9 6)" fill="#fff6f9">
            <path d="M 40.7520751953125 80.00415802001953 C 35.45241546630859 80.00415802001953 30.31208610534668 78.96654510498047 25.47385215759277 76.92014312744141 C 20.79992294311523 74.9432373046875 16.60199356079102 72.11281585693359 12.99666309356689 68.50748443603516 C 9.391345977783203 64.90216064453125 6.560910701751709 60.70422744750977 4.584004402160645 56.03028869628906 C 2.53761625289917 51.19206237792969 1.500004649162292 46.05173492431641 1.500004649162292 40.7520751953125 C 1.500004649162292 35.45241546630859 2.53761625289917 30.31208610534668 4.584004402160645 25.47385215759277 C 6.560910701751709 20.79992294311523 9.391345977783203 16.60199356079102 12.99666309356689 12.99666309356689 C 16.60199356079102 9.391345977783203 20.79992294311523 6.560910701751709 25.47385215759277 4.584004402160645 C 30.31208610534668 2.53761625289917 35.45241546630859 1.500004649162292 40.7520751953125 1.500004649162292 C 46.05173492431641 1.500004649162292 51.19206237792969 2.53761625289917 56.03028869628906 4.584004402160645 C 60.70422744750977 6.560910701751709 64.90216064453125 9.391345977783203 68.50748443603516 12.99666309356689 C 72.11281585693359 16.60199356079102 74.9432373046875 20.79992294311523 76.92014312744141 25.47385215759277 C 78.96654510498047 30.31208610534668 80.00415802001953 35.45241546630859 80.00415802001953 40.7520751953125 C 80.00415802001953 46.05173492431641 78.96654510498047 51.19206237792969 76.92014312744141 56.03028869628906 C 74.9432373046875 60.70421600341797 72.11281585693359 64.90216064453125 68.50748443603516 68.50748443603516 C 64.90216064453125 72.11281585693359 60.70421600341797 74.9432373046875 56.03028869628906 76.92014312744141 C 51.19206237792969 78.96654510498047 46.05173492431641 80.00415802001953 40.7520751953125 80.00415802001953 Z" stroke="none"/>
            <path d="M 40.7520751953125 2.999992370605469 C 35.65426254272461 2.999992370605469 30.71051406860352 3.99774169921875 26.05818176269531 5.96551513671875 C 21.56304931640625 7.866798400878906 17.52538299560547 10.58927154541016 14.05732727050781 14.05732727050781 C 10.58927154541016 17.52538299560547 7.866798400878906 21.56304931640625 5.96551513671875 26.05818176269531 C 3.99774169921875 30.71051406860352 2.999992370605469 35.65426254272461 2.999992370605469 40.7520751953125 C 2.999992370605469 45.84988784790039 3.99774169921875 50.79363250732422 5.96551513671875 55.44596862792969 C 7.866798400878906 59.94110107421875 10.58927154541016 63.97876739501953 14.05732727050781 67.44682312011719 C 17.52538299560547 70.91487121582031 21.56304931640625 73.63735198974609 26.05818176269531 75.53863525390625 C 30.71051406860352 77.50640869140625 35.65426254272461 78.50415802001953 40.7520751953125 78.50415802001953 C 45.84988784790039 78.50415802001953 50.79363250732422 77.50640869140625 55.44596862792969 75.53863525390625 C 59.94110107421875 73.63735198974609 63.97876739501953 70.91487121582031 67.44682312011719 67.44682312011719 C 70.91487121582031 63.97876739501953 73.63735198974609 59.94110107421875 75.53863525390625 55.44596862792969 C 77.50640869140625 50.79363250732422 78.50415802001953 45.84988784790039 78.50415802001953 40.7520751953125 C 78.50415802001953 35.65426254272461 77.50640869140625 30.71051406860352 75.53863525390625 26.05818176269531 C 73.63735198974609 21.56304931640625 70.91487121582031 17.52538299560547 67.44682312011719 14.05732727050781 C 63.97876739501953 10.58927154541016 59.94110107421875 7.866798400878906 55.44596862792969 5.96551513671875 C 50.79363250732422 3.99774169921875 45.84988784790039 2.999992370605469 40.7520751953125 2.999992370605469 M 40.7520751953125 -7.62939453125e-06 C 63.25881958007812 -7.62939453125e-06 81.50415802001953 18.24532699584961 81.50415802001953 40.7520751953125 C 81.50415802001953 63.25881958007812 63.25881958007812 81.50415802001953 40.7520751953125 81.50415802001953 C 18.24532699584961 81.50415802001953 -7.62939453125e-06 63.25881958007812 -7.62939453125e-06 40.7520751953125 C -7.62939453125e-06 18.24532699584961 18.24532699584961 -7.62939453125e-06 40.7520751953125 -7.62939453125e-06 Z" stroke="none" fill="#ffaece"/>
          </g>
        </g>
      </g>
    </g>
    <g id="growing-up" transform="translate(212.475 1920.768)">
      <g id="Group_1152446" data-name="Group 1152446" transform="translate(0.95 12.767)">
        <g id="Group_1152444" data-name="Group 1152444" transform="translate(0 0)">
          <g id="Group_1152441" data-name="Group 1152441" transform="translate(30.722)">
            <path id="Path_983954" data-name="Path 983954" d="M308.013,33.525c.666-8.683-5.883-13.728-11.991-13.728s-12.656,5.045-11.991,13.728Z" transform="translate(-281.931 -19.797)" fill="#c1a19d"/>
            <g id="Group_1152437" data-name="Group 1152437" transform="translate(0 26.658)">
              <path id="Path_983955" data-name="Path 983955" d="M294.877,256.075c-2.876-9.557-10.17-11.807-10.17-11.807h0a8.854,8.854,0,0,1-7.838,0h0s-7.294,2.25-10.17,11.807Z" transform="translate(-266.695 -244.268)" fill="#e5907a"/>
            </g>
            <path id="Path_983956" data-name="Path 983956" d="M267.456,325.689a22.323,22.323,0,0,0-.762,2.138h28.182a22.331,22.331,0,0,0-.762-2.138Z" transform="translate(-266.694 -289.362)" fill="#d68474"/>
            <path id="Path_983957" data-name="Path 983957" d="M319.662,61.35A8.852,8.852,0,0,0,310.81,70.2v4.934a8.852,8.852,0,0,0,17.7,0V70.2A8.852,8.852,0,0,0,319.662,61.35Z" transform="translate(-305.571 -56.415)" fill="#fdd4bb"/>
            <path id="Path_983958" data-name="Path 983958" d="M319.662,168.282a8.852,8.852,0,0,1-8.852-8.852v2.138a8.852,8.852,0,0,0,17.7,0V159.43A8.852,8.852,0,0,1,319.662,168.282Z" transform="translate(-305.571 -142.847)" fill="#f7c4a8"/>
            <path id="Path_983959" data-name="Path 983959" d="M353.828,169.809c-1.264,2.308-4.131,1.748-4.131,1.748-.734-4.126,2.168-5.105,4.131-5.105s4.865.979,4.131,5.105C357.959,171.557,355.092,172.117,353.828,169.809Z" transform="translate(-339.737 -149.035)" fill="#c1a19d"/>
            <path id="Path_983960" data-name="Path 983960" d="M279.15,130.721c0-.13,0-.26.01-.389a2.962,2.962,0,1,0-.01,5.315Z" transform="translate(-273.91 -116.934)" fill="#ebbaa1"/>
            <path id="Path_983961" data-name="Path 983961" d="M459.811,130.721c0-.13,0-.26-.01-.389a2.962,2.962,0,1,1,.01,5.315Z" transform="translate(-436.868 -116.934)" fill="#ebbaa1"/>
            <g id="Group_1152438" data-name="Group 1152438" transform="translate(0.972 14.984)">
              <path id="Path_983962" data-name="Path 983962" d="M275.082,145.969a2.963,2.963,0,0,0,4.067,3.729V147.56a2.963,2.963,0,0,1-4.067-1.591Z" transform="translate(-274.882 -145.969)" fill="#e8a990"/>
            </g>
            <g id="Group_1152439" data-name="Group 1152439" transform="translate(22.943 14.984)">
              <path id="Path_983963" data-name="Path 983963" d="M461.188,147.862a2.951,2.951,0,0,1-1.3-.3V149.7a2.962,2.962,0,0,0,4.067-3.729A2.962,2.962,0,0,1,461.188,147.862Z" transform="translate(-459.884 -145.968)" fill="#e8a990"/>
            </g>
            <path id="Path_983964" data-name="Path 983964" d="M356.249,251.047l3.919-6.78a8.854,8.854,0,0,1-7.838,0h0Z" transform="translate(-342.158 -217.609)" fill="#ebbaa1"/>
            <g id="Group_1152440" data-name="Group 1152440" transform="translate(6.414 26.658)">
              <path id="Path_983965" data-name="Path 983965" d="M388.782,253.208l4.242-6.818a13.262,13.262,0,0,0-3.756-2.121l-3.921,6.78Z" transform="translate(-377.67 -244.268)" fill="#565d76"/>
              <path id="Path_983966" data-name="Path 983966" d="M324.944,253.208l-4.242-6.818a13.262,13.262,0,0,1,3.756-2.121l3.921,6.78Z" transform="translate(-320.702 -244.268)" fill="#565d76"/>
            </g>
          </g>
          <g id="Group_1152443" data-name="Group 1152443" transform="translate(0 4.235)">
            <g id="Group_1152442" data-name="Group 1152442" transform="translate(0 23.72)">
              <path id="Path_983967" data-name="Path 983967" d="M33.084,265.714c-2.554-8.521-9.053-10.526-9.053-10.526h0a7.877,7.877,0,0,1-6.972,0h0s-6.5,2.005-9.053,10.526Z" transform="translate(-8 -255.188)" fill="#f95750"/>
            </g>
            <path id="Path_983968" data-name="Path 983968" d="M8.775,325.82A19.762,19.762,0,0,0,8,327.958H33.084a19.762,19.762,0,0,0-.775-2.138Z" transform="translate(-8 -293.712)" fill="#e84642"/>
            <path id="Path_983969" data-name="Path 983969" d="M63.05,144.584v6.074a7.875,7.875,0,0,1-15.749,0v-6.074Z" transform="translate(-42.634 -133.999)" fill="#fdd4bb"/>
            <path id="Path_983970" data-name="Path 983970" d="M55.176,185.606a7.875,7.875,0,0,1-7.875-7.875v2.138a7.875,7.875,0,0,0,15.749,0v-2.138A7.874,7.874,0,0,1,55.176,185.606Z" transform="translate(-42.634 -163.21)" fill="#f7c4a8"/>
            <path id="Path_983971" data-name="Path 983971" d="M179.915,153.828a2.635,2.635,0,1,1,0,4.733Z" transform="translate(-159.499 -141.909)" fill="#ebbaa1"/>
            <path id="Path_983972" data-name="Path 983972" d="M19.137,153.828a2.635,2.635,0,1,0,0,4.733Z" transform="translate(-14.469 -141.909)" fill="#ebbaa1"/>
            <path id="Path_983973" data-name="Path 983973" d="M181.075,168.316a2.623,2.623,0,0,1-1.16-.269v2.138a2.635,2.635,0,0,0,3.569-3.435A2.635,2.635,0,0,1,181.075,168.316Z" transform="translate(-159.499 -153.533)" fill="#e8a990"/>
            <path id="Path_983974" data-name="Path 983974" d="M15.567,166.749a2.635,2.635,0,0,0,3.569,3.435v-2.138a2.636,2.636,0,0,1-3.569-1.3Z" transform="translate(-14.468 -153.532)" fill="#e8a990"/>
            <path id="Path_983975" data-name="Path 983975" d="M87.727,259.971c3.339,0,3.488-4.783,3.488-4.783h0a7.876,7.876,0,0,1-6.972,0h0S84.388,259.971,87.727,259.971Z" transform="translate(-75.185 -231.468)" fill="#ebbaa1"/>
            <path id="Path_983976" data-name="Path 983976" d="M54.233,66.042c-.4-8.123-4.417-10.585-9.248-10.585s-8.846,2.462-9.248,10.585Z" transform="translate(-32.444 -55.457)" fill="#f95750"/>
            <path id="Path_983977" data-name="Path 983977" d="M35.944,126.584q-.148,1-.206,2.138h18.5q-.056-1.142-.206-2.138Z" transform="translate(-32.444 -118.137)" fill="#e84642"/>
            <path id="Path_983978" data-name="Path 983978" d="M93.244,92.125H86.9v-3.9a3.172,3.172,0,0,1,6.344,0Z" transform="translate(-77.53 -81.541)" fill="#5a5b77"/>
            <path id="Path_983979" data-name="Path 983979" d="M86.9,114.985h6.344V118.5H86.9Z" transform="translate(-77.53 -107.916)" fill="#cb3541"/>
            <path id="Path_983980" data-name="Path 983980" d="M86.9,126.584h6.344v2.138H86.9Z" transform="translate(-77.53 -118.137)" fill="#b53939"/>
          </g>
        </g>
        <path id="Path_983981" data-name="Path 983981" d="M77.607,388.574l1.265,3.418,6.957-10.574-11.958-2.931,1.053,2.842s-14.167,7.527-40.531-.9a1.2,1.2,0,0,0-.981,2.167C42.526,388.053,59.045,394.954,77.607,388.574Z" transform="translate(-29.873 -335.89)" fill="#f95750"/>
        <g id="Group_1152445" data-name="Group 1152445" transform="translate(2.948 44.608)">
          <path id="Path_983982" data-name="Path 983982" d="M76.832,401.614c-18.2,5.915-34.359-.826-43.358-6.2a1.2,1.2,0,0,0-.06,2.1c9.115,5.454,25.633,12.355,44.195,5.975v-1.314A.593.593,0,0,0,76.832,401.614Z" transform="translate(-32.822 -395.415)" fill="#e84642"/>
        </g>
      </g>
      <g id="Group_1152447" data-name="Group 1152447" transform="translate(0 11.82)">
        <path id="Path_983983" data-name="Path 983983" d="M412.061,133.66a.893.893,0,0,0,.892-.892v-1.436a.892.892,0,1,0-1.785,0v1.436A.892.892,0,0,0,412.061,133.66Z" transform="translate(-362.339 -116.352)"/>
        <path id="Path_983984" data-name="Path 983984" d="M345.893,133.66a.893.893,0,0,0,.892-.892v-1.436a.892.892,0,0,0-1.785,0v1.436A.892.892,0,0,0,345.893,133.66Z" transform="translate(-304.029 -116.352)"/>
        <path id="Path_983985" data-name="Path 983985" d="M343.081,165.648a5.208,5.208,0,0,0,4.31-1.162,4.794,4.794,0,0,0,3.368,1.239,5.292,5.292,0,0,0,.942-.077.892.892,0,0,0,.708-.72,5.248,5.248,0,0,0-.888-4.469,5.88,5.88,0,0,0-8.26,0,5.247,5.247,0,0,0-.888,4.469A.893.893,0,0,0,343.081,165.648Zm1.548-4.043a4.139,4.139,0,0,1,5.524,0,3.152,3.152,0,0,1,.586,2.337,2.8,2.8,0,0,1-2.565-1.351.892.892,0,0,0-1.565,0,2.8,2.8,0,0,1-2.565,1.351A3.152,3.152,0,0,1,344.629,161.6Z" transform="translate(-301.598 -141.313)"/>
        <path id="Path_983986" data-name="Path 983986" d="M368.688,110.968a.892.892,0,0,0,0,1.785h2.444a.892.892,0,1,0,0-1.785Z" transform="translate(-324.117 -99.193)"/>
        <path id="Path_983987" data-name="Path 983987" d="M363.931,87.675h3.574a.892.892,0,1,0,0-1.785h-3.574a.892.892,0,1,0,0,1.785Z" transform="translate(-319.925 -77.094)"/>
        <path id="Path_983988" data-name="Path 983988" d="M289.184,51a22.336,22.336,0,0,0-1.788-4.3.892.892,0,1,0-1.565.858,20.016,20.016,0,0,1,1.263,2.808H261.327a17.78,17.78,0,0,1,4.973-7.475l3.711,5.966a.893.893,0,0,0,1.233.284l2.967-1.865,2.967,1.865a.893.893,0,0,0,1.233-.284l3.71-5.964a16.4,16.4,0,0,1,1.808,1.859.892.892,0,0,0,1.373-1.14,18.151,18.151,0,0,0-2.847-2.759l-.01-.008a16.464,16.464,0,0,0-2.4-1.549,9.764,9.764,0,0,0,3.854-6.663,3.913,3.913,0,0,0,.485.031,3.858,3.858,0,0,0,2.756-6.561,13.39,13.39,0,0,0-3.46-10.1,12.826,12.826,0,0,0-18.943,0,13.39,13.39,0,0,0-3.46,10.1,3.858,3.858,0,0,0,2.756,6.561,3.913,3.913,0,0,0,.485-.031,9.764,9.764,0,0,0,3.855,6.664,16.506,16.506,0,0,0-2.388,1.542l-.028.021q-.125.1-.252.2A19.88,19.88,0,0,0,259.238,51a.892.892,0,0,0,.855,1.15H288.33a.892.892,0,0,0,.855-1.15Zm-18.131-3.849-3.339-5.368a13.7,13.7,0,0,1,2.181-1.244l3.113,5.383Zm3.158-2.713-1.967-3.4a9.81,9.81,0,0,0,3.935,0Zm3.158,2.713-1.955-1.229,3.113-5.382a13.821,13.821,0,0,1,2.18,1.246Zm7.018-16.274a2.081,2.081,0,0,1-.414-.044V26.763a2.076,2.076,0,1,1,.414,4.109ZM266.049,17.21a11.041,11.041,0,0,1,16.324,0,11.476,11.476,0,0,1,3.005,7.855,3.826,3.826,0,0,0-1.53-.091,9.761,9.761,0,0,0-19.274,0,3.9,3.9,0,0,0-.539-.039,3.851,3.851,0,0,0-.991.13A11.476,11.476,0,0,1,266.049,17.21ZM261.959,28.8a2.075,2.075,0,0,1,2.49-2.034v4.066a2.067,2.067,0,0,1-2.49-2.032Zm4.275,2.673V26.526a7.977,7.977,0,1,1,15.954,0v4.943a7.977,7.977,0,1,1-15.954,0Z" transform="translate(-228.418 -11.82)"/>
        <path id="Path_983989" data-name="Path 983989" d="M136.137,167.178a.892.892,0,0,0,.892-.892v-1.278a.892.892,0,0,0-1.785,0v1.278A.893.893,0,0,0,136.137,167.178Z" transform="translate(-119.183 -146.029)"/>
        <path id="Path_983990" data-name="Path 983990" d="M77.275,167.178a.892.892,0,0,0,.892-.892v-1.278a.892.892,0,0,0-1.785,0v1.278A.892.892,0,0,0,77.275,167.178Z" transform="translate(-67.312 -146.029)"/>
        <path id="Path_983991" data-name="Path 983991" d="M88.685,208.6a3.329,3.329,0,0,0,5.735,0,.892.892,0,0,0-1.651-.68c0,.005-.262.532-1.217.532s-1.215-.527-1.217-.532a.892.892,0,1,0-1.65.68Z" transform="translate(-78.093 -184.145)"/>
        <path id="Path_983992" data-name="Path 983992" d="M26.741,83.286a.892.892,0,0,0,.139-.789,16.944,16.944,0,0,0-8.046-10.428,8.786,8.786,0,0,0,3.332-5.8c.114.011.23.018.346.018a3.533,3.533,0,0,0,1.041-6.909A.892.892,0,0,0,23.616,59c-.2-4.021-1.287-7.031-3.234-8.947a9.484,9.484,0,0,0-6.923-2.507A10.091,10.091,0,0,0,7.6,49.172a.892.892,0,1,0,1.016,1.467,8.357,8.357,0,0,1,4.84-1.306c5.052,0,7.777,2.888,8.31,8.82H17.529V55.14a4.07,4.07,0,0,0-8.141,0v3.013H5.149a13.25,13.25,0,0,1,1.385-5.145.892.892,0,1,0-1.566-.856A15.941,15.941,0,0,0,3.3,59a.892.892,0,0,0,.064.376,3.533,3.533,0,0,0,1.041,6.909c.117,0,.232-.007.346-.018a8.785,8.785,0,0,0,3.332,5.8A16.944,16.944,0,0,0,.037,82.5a.892.892,0,0,0,.855,1.149H26.025A.892.892,0,0,0,26.741,83.286ZM24.259,62.754A1.75,1.75,0,0,1,22.511,64.5a1.773,1.773,0,0,1-.27-.023v-3.45a1.735,1.735,0,0,1,2.018,1.725Zm-10.8-9.9a2.288,2.288,0,0,1,2.226,1.777H11.232a2.288,2.288,0,0,1,2.226-1.777Zm-2.286,3.561h4.571v1.737H11.173Zm-6.5,8.063a1.748,1.748,0,1,1,0-3.45Zm1.785.653V59.938H20.456v5.194a7,7,0,0,1-13.995,0Zm9.384,8.452a6.235,6.235,0,0,1-.231.736c-.693,1.786-1.793,1.786-2.155,1.786S12,76.107,11.3,74.32a6.228,6.228,0,0,1-.231-.736,8.788,8.788,0,0,0,4.772,0ZM2.129,81.861A15.575,15.575,0,0,1,6.88,75.028,13.043,13.043,0,0,1,9.217,73.5c.377,1.963,1.542,4.394,4.242,4.394S17.324,75.46,17.7,73.5a14.918,14.918,0,0,1,7.086,8.364Z" transform="translate(0 -43.305)"/>
        <path id="Path_983993" data-name="Path 983993" d="M79.053,374.175l-11.981-2.937a.892.892,0,0,0-1.049,1.177l.767,2.072c-2.247.947-9.822,3.581-22.195,2.353a.892.892,0,1,0-.176,1.776c2.357.234,4.543.333,6.558.333,11.167,0,17.068-3.055,17.356-3.208a.892.892,0,0,0,.418-1.1l-.471-1.271,9.12,2.236-5.306,8.064-.655-1.77a.892.892,0,0,0-1.127-.534A46.717,46.717,0,0,1,45.1,382.792a61.166,61.166,0,0,1-18.318-7.333.275.275,0,0,1-.124-.389.278.278,0,0,1,.377-.166,88.423,88.423,0,0,0,13.8,3.265.892.892,0,1,0,.263-1.765,86.63,86.63,0,0,1-13.519-3.2,2.092,2.092,0,0,0-1.713,3.787,61.734,61.734,0,0,0,18.864,7.547,48.517,48.517,0,0,0,25.338-1.206l.968,2.614a.892.892,0,0,0,1.582.181l6.971-10.594a.892.892,0,0,0-.533-1.357Z" transform="translate(-21.882 -328.532)"/>
      </g>
    </g>
  </g>
</svg>
