<svg xmlns="http://www.w3.org/2000/svg" xmlns:xlink="http://www.w3.org/1999/xlink" width="108" height="108" viewBox="0 0 108 108">
  <defs>
    <filter id="Path_982547" x="0" y="0" width="108" height="108" filterUnits="userSpaceOnUse">
      <feOffset dy="3" input="SourceAlpha"/>
      <feGaussianBlur stdDeviation="3" result="blur"/>
      <feFlood flood-opacity="0.161"/>
      <feComposite operator="in" in2="blur"/>
      <feComposite in="SourceGraphic"/>
    </filter>
  </defs>
  <g id="Group_1152487" data-name="Group 1152487" transform="translate(-201 -5989)">
    <g id="Group_1148659" data-name="Group 1148659" transform="translate(210 5995)">
      <g id="Group_1146954" data-name="Group 1146954">
        <g transform="matrix(1, 0, 0, 1, -9, -6)" filter="url(#Path_982547)">
          <g id="Path_982547-2" data-name="Path 982547" transform="translate(9 6)" fill="#fff6f9">
            <path d="M 45 88.5 C 39.12687683105469 88.5 33.43022537231445 87.35007476806641 28.06830024719238 85.08217620849609 C 22.88852500915527 82.89131164550781 18.23629951477051 79.75458526611328 14.2408504486084 75.75914764404297 C 10.24541282653809 71.76370239257812 7.108687400817871 67.11147308349609 4.917825222015381 61.93170166015625 C 2.649924993515015 56.56977462768555 1.5 50.87312316894531 1.5 45 C 1.5 39.12687683105469 2.649924993515015 33.43022537231445 4.917825222015381 28.06830024719238 C 7.108687400817871 22.88852500915527 10.24541282653809 18.23629951477051 14.2408504486084 14.2408504486084 C 18.23629951477051 10.24541282653809 22.88852500915527 7.108687400817871 28.06830024719238 4.917825222015381 C 33.43022537231445 2.649924993515015 39.12687683105469 1.5 45 1.5 C 50.87312316894531 1.5 56.56977462768555 2.649924993515015 61.93170166015625 4.917825222015381 C 67.11147308349609 7.108687400817871 71.76370239257812 10.24541282653809 75.75914764404297 14.2408504486084 C 79.75458526611328 18.23629951477051 82.89131164550781 22.88852500915527 85.08217620849609 28.06830024719238 C 87.35007476806641 33.43022537231445 88.5 39.12687683105469 88.5 45 C 88.5 50.87312316894531 87.35007476806641 56.56977462768555 85.08217620849609 61.93170166015625 C 82.89131164550781 67.11147308349609 79.75458526611328 71.76370239257812 75.75914764404297 75.75914764404297 C 71.76370239257812 79.75458526611328 67.11147308349609 82.89131164550781 61.93170166015625 85.08217620849609 C 56.56977462768555 87.35007476806641 50.87312316894531 88.5 45 88.5 Z" stroke="none"/>
            <path d="M 45 3 C 39.32871246337891 3 33.82865524291992 4.110054016113281 28.65262985229492 6.299339294433594 C 23.65165710449219 8.414573669433594 19.15968322753906 11.44334411621094 15.301513671875 15.301513671875 C 11.44334411621094 19.15968322753906 8.414573669433594 23.65165710449219 6.299339294433594 28.65262985229492 C 4.110054016113281 33.82865524291992 3 39.32871246337891 3 45 C 3 50.67128753662109 4.110054016113281 56.17134475708008 6.299339294433594 61.34737396240234 C 8.414573669433594 66.34834289550781 11.44334411621094 70.84031677246094 15.301513671875 74.698486328125 C 19.15968322753906 78.55665588378906 23.65165710449219 81.58542633056641 28.65262985229492 83.70066070556641 C 33.82865524291992 85.88994598388672 39.32871246337891 87 45 87 C 50.67128753662109 87 56.17134475708008 85.88994598388672 61.34737396240234 83.70066070556641 C 66.34834289550781 81.58542633056641 70.84031677246094 78.55665588378906 74.698486328125 74.698486328125 C 78.55665588378906 70.84031677246094 81.58542633056641 66.34834289550781 83.70066070556641 61.34737396240234 C 85.88994598388672 56.17134475708008 87 50.67128753662109 87 45 C 87 39.32871246337891 85.88994598388672 33.82865524291992 83.70066070556641 28.65262985229492 C 81.58542633056641 23.65165710449219 78.55665588378906 19.15968322753906 74.698486328125 15.301513671875 C 70.84031677246094 11.44334411621094 66.34834289550781 8.414573669433594 61.34737396240234 6.299339294433594 C 56.17134475708008 4.110054016113281 50.67128753662109 3 45 3 M 45 0 C 69.85281372070312 0 90 20.14718627929688 90 45 C 90 69.85281372070312 69.85281372070312 90 45 90 C 20.14718627929688 90 0 69.85281372070312 0 45 C 0 20.14718627929688 20.14718627929688 0 45 0 Z" stroke="none" fill="#ffaece"/>
          </g>
        </g>
      </g>
    </g>
    <g id="learning" transform="translate(201.61 6004.253)">
      <g id="Group_1152485" data-name="Group 1152485" transform="translate(25.014 0.95)">
        <path id="Path_984080" data-name="Path 984080" d="M87.134,194.154a1.183,1.183,0,0,1,1.183,1.183v33.136a4.892,4.892,0,0,1-4.892,4.892H36.456a4.892,4.892,0,0,1-4.892-4.892V195.337a1.183,1.183,0,0,1,1.183-1.183Z" transform="translate(-31.564 -170.516)" fill="#b3e5ee"/>
        <path id="Path_984081" data-name="Path 984081" d="M59.879,194.154v33.434a4.017,4.017,0,0,0,4.012,4.013h41.684a4.017,4.017,0,0,0,4.012-4.013V194.154Z" transform="translate(-56.293 -170.516)" fill="#86d7e5"/>
        <path id="Path_984082" data-name="Path 984082" d="M123.516,175.283H80.885a1.006,1.006,0,0,0-1.006,1.007v30.25l13.738,5.018,8.583.987,20.571-3.713,1.75-2.292V176.29a1.006,1.006,0,0,0-1.005-1.007Z" transform="translate(-73.76 -154.035)" fill="#f9f7f7"/>
        <path id="Path_984083" data-name="Path 984083" d="M248.639,175.283h1.9v37.3h-1.9Z" transform="translate(-221.149 -154.035)" fill="#f8f3f2"/>
        <path id="Path_984084" data-name="Path 984084" d="M163.57,175.283l5.571,8.672v.673a3.3,3.3,0,0,0,1.4,2.7v1.058a4.019,4.019,0,0,0,4.015,4.015h1.47a4.019,4.019,0,0,0,4.015-4.015v-1.058a3.3,3.3,0,0,0,1.4-2.7v-.673l5.571-8.672Z" transform="translate(-146.853 -154.035)" fill="#f8f3f2"/>
        <g id="Group_1152483" data-name="Group 1152483" transform="translate(6.119)">
          <g id="Group_1152482" data-name="Group 1152482" transform="translate(0 21.248)">
            <g id="XMLID_248_" transform="translate(0 0)">
              <g id="Group_1152481" data-name="Group 1152481">
                <g id="Group_1152479" data-name="Group 1152479">
                  <path id="Path_984085" data-name="Path 984085" d="M85.151,207.607V175.283H80.885a1.006,1.006,0,0,0-1.006,1.007v30.25l5.443,1.988A2.586,2.586,0,0,1,85.151,207.607Z" transform="translate(-79.879 -175.283)" fill="#f8f3f2"/>
                </g>
                <g id="Group_1152480" data-name="Group 1152480" transform="translate(0 31.257)">
                  <path id="Path_984086" data-name="Path 984086" d="M102.2,428.108v.042H81.358a1.48,1.48,0,0,1-1.479-1.48V422.1H96.2a6.005,6.005,0,0,1,6.005,6.005Z" transform="translate(-79.879 -422.103)" fill="#f2eae7"/>
                  <path id="Path_984087" data-name="Path 984087" d="M278.46,422.1v4.567a1.48,1.48,0,0,1-1.479,1.48H256.139v-.042a6.005,6.005,0,0,1,6.005-6.005Z" transform="translate(-233.818 -422.103)" fill="#f2eae7"/>
                </g>
              </g>
            </g>
          </g>
          <path id="Path_984088" data-name="Path 984088" d="M239.335,248.154h-5.7v3.874a2.115,2.115,0,0,0,2.115,2.115h1.469a2.115,2.115,0,0,0,2.115-2.115Z" transform="translate(-214.164 -217.678)" fill="#a59ca6"/>
          <path id="Path_984089" data-name="Path 984089" d="M239.335,248.154h-5.7v3.874a2.115,2.115,0,0,0,2.115,2.115h1.469A2.113,2.113,0,0,0,239.1,253a2.142,2.142,0,0,1-.248.016h-1.47a2.114,2.114,0,0,1-2-1.433.483.483,0,0,1,.457-.639h3.5v-2.786Z" transform="translate(-214.164 -217.678)" fill="#8f8390"/>
          <path id="Path_984090" data-name="Path 984090" d="M181.658,20.13A12.631,12.631,0,1,0,158.7,27.4l6.078,9.462v1.23a1.4,1.4,0,0,0,1.4,1.4h5.7a1.4,1.4,0,0,0,1.4-1.4v-1.23l6.078-9.462a12.572,12.572,0,0,0,2.3-7.269Z" transform="translate(-146.705 -7.499)" fill="#fbe88c"/>
          <path id="Path_984091" data-name="Path 984091" d="M164.023,29.012a13.909,13.909,0,0,1-2.405-7.858,13.565,13.565,0,0,1,10.3-13.322A12.633,12.633,0,0,0,158.7,27.4l6.078,9.462v1.23a1.4,1.4,0,0,0,1.4,1.4h3.61Z" transform="translate(-146.706 -7.5)" fill="#fbe372"/>
        </g>
        <g id="Group_1152484" data-name="Group 1152484" transform="translate(6.119 52.505)">
          <path id="Path_984092" data-name="Path 984092" d="M256.611,451.046a5.987,5.987,0,0,0-.473,2.34v.042H276.98a1.48,1.48,0,0,0,1.479-1.48v-.9H256.611Z" transform="translate(-233.817 -447.381)" fill="#ede2dd"/>
          <path id="Path_984093" data-name="Path 984093" d="M87.749,425.768a2.6,2.6,0,0,1-2.6-2.6V422.1H79.879v4.567a1.48,1.48,0,0,0,1.479,1.48H102.2v-.042a5.986,5.986,0,0,0-.473-2.34Z" transform="translate(-79.879 -422.103)" fill="#ede2dd"/>
        </g>
      </g>
      <g id="Group_1152486" data-name="Group 1152486" transform="translate(24.064 0)">
        <path id="Path_984094" data-name="Path 984094" d="M80.584,170.175H76.725v-.433a1.958,1.958,0,0,0-1.956-1.956H67.158a.95.95,0,1,0,0,1.9h7.611a.057.057,0,0,1,.057.057v11.581a.95.95,0,1,0,1.9,0v-9.248h3.859a.233.233,0,0,1,.233.233v33.136a3.946,3.946,0,0,1-3.942,3.942H29.905a3.946,3.946,0,0,1-3.942-3.942V172.307a.233.233,0,0,1,.233-.233h3.985v32.484a2.432,2.432,0,0,0,2.429,2.429H74.3a2.432,2.432,0,0,0,2.429-2.429V185.373a.95.95,0,0,0-1.9,0v13.668H59.459a6.935,6.935,0,0,0-5.055,2.186V188.941a.95.95,0,0,0-1.9,0v12.286a6.935,6.935,0,0,0-5.055-2.186H43.132a.95.95,0,1,0,0,1.9h4.316a5.063,5.063,0,0,1,4.972,4.147H32.611a.53.53,0,0,1-.529-.529v-3.618h7a.95.95,0,1,0,0-1.9h-7v-29.3a.057.057,0,0,1,.057-.057h7.611a.95.95,0,0,0,0-1.9H32.138a1.958,1.958,0,0,0-1.956,1.956v.433H26.2a2.135,2.135,0,0,0-2.132,2.132v33.136a5.848,5.848,0,0,0,5.841,5.841h46.97a5.848,5.848,0,0,0,5.841-5.841V172.307a2.135,2.135,0,0,0-2.132-2.132ZM59.459,200.941H74.825v3.618a.53.53,0,0,1-.529.529H54.487A5.063,5.063,0,0,1,59.459,200.941Z" transform="translate(-24.064 -146.537)"/>
        <path id="Path_984095" data-name="Path 984095" d="M150.208,13.326a.951.951,0,0,0,1.035-.856A11.682,11.682,0,1,1,172.425,20.3l-.023.034L166.325,29.8a.95.95,0,0,0-.151.513v1.23a.453.453,0,0,1-.453.453h-.062l.605-10.267h1.082a2.811,2.811,0,0,0,2.808-2.808v-.115a2.808,2.808,0,0,0-5.611-.165l-.07,1.188h-3.331l-.07-1.188a2.808,2.808,0,0,0-5.611.165v.115a2.811,2.811,0,0,0,2.808,2.808h1.082l.6,10.261a.452.452,0,0,1-.388-.446v-1.23a.951.951,0,0,0-.151-.513l-6.078-9.462-.023-.034a11.572,11.572,0,0,1-1.829-4.095.95.95,0,1,0-1.851.426,13.464,13.464,0,0,0,2.116,4.747l5.917,9.211v.952a2.355,2.355,0,0,0,1.4,2.15V35.3a3.068,3.068,0,0,0,3.065,3.065h1.47a3.069,3.069,0,0,0,3.065-3.065V33.693a2.355,2.355,0,0,0,1.4-2.15v-.952l5.916-9.211a13.581,13.581,0,1,0-24.639-9.089.949.949,0,0,0,.856,1.035Zm16.232,5.426a.908.908,0,0,1,1.815.053v.115a.909.909,0,0,1-.908.908h-.97Zm-8.17,1.077a.909.909,0,0,1-.908-.908v-.115a.908.908,0,0,1,1.815-.053l.063,1.077Zm6.092,1.9L163.756,32h-1.9l-.6-10.267Zm.41,13.571a1.167,1.167,0,0,1-1.165,1.165h-1.47a1.167,1.167,0,0,1-1.165-1.165V33.9h3.8v1.4Z" transform="translate(-133.482 0)"/>
        <path id="Path_984096" data-name="Path 984096" d="M380.96,31.3a.946.946,0,0,0,.626-.236l2.072-1.82a.95.95,0,0,0-1.253-1.427l-2.072,1.82a.95.95,0,0,0,.627,1.664Z" transform="translate(-334.934 -24.09)"/>
        <path id="Path_984097" data-name="Path 984097" d="M380.334,90.711l2.072,1.82a.95.95,0,0,0,1.253-1.427l-2.072-1.82a.95.95,0,0,0-1.253,1.427Z" transform="translate(-334.934 -77.771)"/>
        <path id="Path_984098" data-name="Path 984098" d="M101.226,29.246l2.072,1.82a.95.95,0,0,0,1.253-1.427l-2.072-1.82a.95.95,0,0,0-1.253,1.427Z" transform="translate(-91.172 -24.089)"/>
        <path id="Path_984099" data-name="Path 984099" d="M101.854,92.768a.947.947,0,0,0,.626-.236l2.072-1.82a.95.95,0,0,0-1.253-1.427l-2.072,1.82a.95.95,0,0,0,.627,1.664Z" transform="translate(-91.173 -77.772)"/>
        <path id="Path_984100" data-name="Path 984100" d="M112.158,253.6a.95.95,0,0,0-.95-.95h-9.356a.95.95,0,1,0,0,1.9h9.356A.95.95,0,0,0,112.158,253.6Z" transform="translate(-91.172 -220.658)"/>
        <path id="Path_984101" data-name="Path 984101" d="M125.934,290.8H115.4a.95.95,0,1,0,0,1.9h10.534a.95.95,0,1,0,0-1.9Z" transform="translate(-103.005 -253.978)"/>
        <path id="Path_984102" data-name="Path 984102" d="M125.934,327.346H115.4a.95.95,0,0,0,0,1.9h10.534a.95.95,0,0,0,0-1.9Z" transform="translate(-103.005 -285.892)"/>
        <path id="Path_984103" data-name="Path 984103" d="M125.934,363.887H115.4a.95.95,0,1,0,0,1.9h10.534a.95.95,0,1,0,0-1.9Z" transform="translate(-103.005 -317.805)"/>
        <path id="Path_984104" data-name="Path 984104" d="M333.751,253.6a.95.95,0,0,0-.95-.95h-9.356a.95.95,0,0,0,0,1.9H332.8A.95.95,0,0,0,333.751,253.6Z" transform="translate(-284.703 -220.658)"/>
        <path id="Path_984105" data-name="Path 984105" d="M311.13,290.8H300.6a.95.95,0,1,0,0,1.9H311.13a.95.95,0,1,0,0-1.9Z" transform="translate(-264.748 -253.978)"/>
        <path id="Path_984106" data-name="Path 984106" d="M311.13,327.346H300.6a.95.95,0,0,0,0,1.9H311.13a.95.95,0,1,0,0-1.9Z" transform="translate(-264.748 -285.892)"/>
        <path id="Path_984107" data-name="Path 984107" d="M311.13,363.887H300.6a.95.95,0,1,0,0,1.9H311.13a.95.95,0,1,0,0-1.9Z" transform="translate(-264.748 -317.805)"/>
      </g>
    </g>
  </g>
</svg>
