<svg xmlns="http://www.w3.org/2000/svg" xmlns:xlink="http://www.w3.org/1999/xlink" width="108" height="108" viewBox="0 0 108 108">
  <defs>
    <filter id="Path_982547" x="0" y="0" width="108" height="108" filterUnits="userSpaceOnUse">
      <feOffset dy="3" input="SourceAlpha"/>
      <feGaussianBlur stdDeviation="3" result="blur"/>
      <feFlood flood-opacity="0.161"/>
      <feComposite operator="in" in2="blur"/>
      <feComposite in="SourceGraphic"/>
    </filter>
  </defs>
  <g id="Group_1152540" data-name="Group 1152540" transform="translate(-201 -5584)">
    <g id="Group_1151821" data-name="Group 1151821" transform="translate(210 5590)">
      <g id="Group_1146954" data-name="Group 1146954">
        <g transform="matrix(1, 0, 0, 1, -9, -6)" filter="url(#Path_982547)">
          <g id="Path_982547-2" data-name="Path 982547" transform="translate(9 6)" fill="#fff6f9">
            <path d="M 45 88.5 C 39.12687683105469 88.5 33.43022537231445 87.35007476806641 28.06830024719238 85.08217620849609 C 22.88852500915527 82.89131164550781 18.23629951477051 79.75458526611328 14.2408504486084 75.75914764404297 C 10.24541282653809 71.76370239257812 7.108687400817871 67.11147308349609 4.917825222015381 61.93170166015625 C 2.649924993515015 56.56977462768555 1.5 50.87312316894531 1.5 45 C 1.5 39.12687683105469 2.649924993515015 33.43022537231445 4.917825222015381 28.06830024719238 C 7.108687400817871 22.88852500915527 10.24541282653809 18.23629951477051 14.2408504486084 14.2408504486084 C 18.23629951477051 10.24541282653809 22.88852500915527 7.108687400817871 28.06830024719238 4.917825222015381 C 33.43022537231445 2.649924993515015 39.12687683105469 1.5 45 1.5 C 50.87312316894531 1.5 56.56977462768555 2.649924993515015 61.93170166015625 4.917825222015381 C 67.11147308349609 7.108687400817871 71.76370239257812 10.24541282653809 75.75914764404297 14.2408504486084 C 79.75458526611328 18.23629951477051 82.89131164550781 22.88852500915527 85.08217620849609 28.06830024719238 C 87.35007476806641 33.43022537231445 88.5 39.12687683105469 88.5 45 C 88.5 50.87312316894531 87.35007476806641 56.56977462768555 85.08217620849609 61.93170166015625 C 82.89131164550781 67.11147308349609 79.75458526611328 71.76370239257812 75.75914764404297 75.75914764404297 C 71.76370239257812 79.75458526611328 67.11147308349609 82.89131164550781 61.93170166015625 85.08217620849609 C 56.56977462768555 87.35007476806641 50.87312316894531 88.5 45 88.5 Z" stroke="none"/>
            <path d="M 45 3 C 39.32871246337891 3 33.82865524291992 4.110054016113281 28.65262985229492 6.299339294433594 C 23.65165710449219 8.414573669433594 19.15968322753906 11.44334411621094 15.301513671875 15.301513671875 C 11.44334411621094 19.15968322753906 8.414573669433594 23.65165710449219 6.299339294433594 28.65262985229492 C 4.110054016113281 33.82865524291992 3 39.32871246337891 3 45 C 3 50.67128753662109 4.110054016113281 56.17134475708008 6.299339294433594 61.34737396240234 C 8.414573669433594 66.34834289550781 11.44334411621094 70.84031677246094 15.301513671875 74.698486328125 C 19.15968322753906 78.55665588378906 23.65165710449219 81.58542633056641 28.65262985229492 83.70066070556641 C 33.82865524291992 85.88994598388672 39.32871246337891 87 45 87 C 50.67128753662109 87 56.17134475708008 85.88994598388672 61.34737396240234 83.70066070556641 C 66.34834289550781 81.58542633056641 70.84031677246094 78.55665588378906 74.698486328125 74.698486328125 C 78.55665588378906 70.84031677246094 81.58542633056641 66.34834289550781 83.70066070556641 61.34737396240234 C 85.88994598388672 56.17134475708008 87 50.67128753662109 87 45 C 87 39.32871246337891 85.88994598388672 33.82865524291992 83.70066070556641 28.65262985229492 C 81.58542633056641 23.65165710449219 78.55665588378906 19.15968322753906 74.698486328125 15.301513671875 C 70.84031677246094 11.44334411621094 66.34834289550781 8.414573669433594 61.34737396240234 6.299339294433594 C 56.17134475708008 4.110054016113281 50.67128753662109 3 45 3 M 45 0 C 69.85281372070312 0 90 20.14718627929688 90 45 C 90 69.85281372070312 69.85281372070312 90 45 90 C 20.14718627929688 90 0 69.85281372070312 0 45 C 0 20.14718627929688 20.14718627929688 0 45 0 Z" stroke="none" fill="#ffaece"/>
          </g>
        </g>
      </g>
    </g>
    <g id="brain" transform="translate(220.496 5600.501)">
      <g id="Group_1152505" data-name="Group 1152505" transform="translate(1.011 1.006)">
        <g id="Group_1152495" data-name="Group 1152495" transform="translate(0 0.013)">
          <path id="Path_984154" data-name="Path 984154" d="M67.127,50.5a8.185,8.185,0,0,1,2.4,5.715c0,4.434-3.841,8.087-8.774,8.586a8.042,8.042,0,0,1,.094,1.146c0,4.771-4.448,8.639-9.92,8.639a10.046,10.046,0,0,1-9.111-5.216.9.9,0,0,0-.809-.472.887.887,0,0,0-.809.472,8.619,8.619,0,0,1-1.914,2.52,10.644,10.644,0,0,1-7.2,2.7c-5.486,0-9.92-3.868-9.92-8.639a8.042,8.042,0,0,1,.094-1.146c-4.946-.5-8.774-4.151-8.774-8.586a8.185,8.185,0,0,1,2.4-5.715c-4.259-.984-7.386-4.34-7.386-8.343a8.5,8.5,0,0,1,3.154-6.469A6.017,6.017,0,0,1,8.74,31.358c0-3.518,3.208-6.362,7.211-6.469A5.858,5.858,0,0,1,14.94,21.64c0-3.585,3.329-6.483,7.44-6.483a9.807,9.807,0,0,1,1.253.094c0-.067-.013-.135-.013-.216.067-4.016,3.949-7.386,8.559-7.44a9.388,9.388,0,0,1,6.213,2.17,7.615,7.615,0,0,1,1.793,2.21.916.916,0,0,0,.809.458.89.89,0,0,0,.809-.458A8.879,8.879,0,0,1,49.808,7.6c4.609.054,8.491,3.437,8.559,7.44,0,.067-.013.135-.013.216a9.994,9.994,0,0,1,1.253-.094c4.111,0,7.44,2.9,7.44,6.483a5.858,5.858,0,0,1-1.011,3.248c4,.108,7.211,2.965,7.211,6.469a5.994,5.994,0,0,1-1.914,4.326,8.5,8.5,0,0,1,3.154,6.469C74.486,46.156,71.359,49.512,67.127,50.5Z" transform="translate(-7.5 -7.595)" fill="#ff76b4"/>
        </g>
        <g id="Group_1152496" data-name="Group 1152496" transform="translate(33.506)">
          <path id="Path_984155" data-name="Path 984155" d="M282.22,50.41a8.185,8.185,0,0,1,2.4,5.715c0,4.434-3.841,8.087-8.774,8.586a8.041,8.041,0,0,1,.094,1.146c0,4.771-4.448,8.639-9.92,8.639a10.046,10.046,0,0,1-9.111-5.216.9.9,0,0,0-.809-.472V12.334a.89.89,0,0,0,.809-.458,8.879,8.879,0,0,1,8.006-4.38c4.609.054,8.491,3.437,8.559,7.44,0,.067-.013.135-.013.216a9.994,9.994,0,0,1,1.253-.094c4.111,0,7.44,2.9,7.44,6.483a5.858,5.858,0,0,1-1.011,3.248c4,.108,7.211,2.965,7.211,6.469a5.994,5.994,0,0,1-1.914,4.326,8.5,8.5,0,0,1,3.154,6.469C289.579,46.07,286.453,49.426,282.22,50.41Z" transform="translate(-256.1 -7.495)" fill="#66f1ff"/>
        </g>
        <g id="Group_1152497" data-name="Group 1152497" transform="translate(30.239 2.171)">
          <path id="Path_984156" data-name="Path 984156" d="M234.3,25.81a7.615,7.615,0,0,0-1.793-2.21c-.054.108-.121.2-.175.31a4.039,4.039,0,0,0,1.671,5.472,3.8,3.8,0,0,0,1.092.391v-3.5A.91.91,0,0,1,234.3,25.81Z" transform="translate(-231.858 -23.6)" fill="#dd62c6"/>
        </g>
        <g id="Group_1152498" data-name="Group 1152498" transform="translate(29.45 57.255)">
          <path id="Path_984157" data-name="Path 984157" d="M226,436.343a4.05,4.05,0,0,0,1.321,2.992,8.676,8.676,0,0,0,1.914-2.52.9.9,0,0,1,.809-.472V432.3A4.047,4.047,0,0,0,226,436.343Z" transform="translate(-226 -432.3)" fill="#dd62c6"/>
        </g>
        <g id="Group_1152499" data-name="Group 1152499" transform="translate(33.493 0)">
          <path id="Path_984158" data-name="Path 984158" d="M282.134,50.41a8.185,8.185,0,0,1,2.4,5.715c0,4.434-3.841,8.087-8.774,8.586a8.045,8.045,0,0,1,.094,1.146c0,4.771-4.448,8.639-9.92,8.639a10.046,10.046,0,0,1-9.111-5.216.9.9,0,0,0-.809-.472V64.764a4.914,4.914,0,0,1,4.434,2.709,6.074,6.074,0,0,0,5.486,2.965c3.181,0,5.876-2.1,5.876-4.6a3.123,3.123,0,0,0-.054-.539,4.062,4.062,0,0,1,3.6-4.636c2.884-.283,5.135-2.291,5.135-4.556a4.086,4.086,0,0,0-1.227-2.857,4.033,4.033,0,0,1,1.941-6.779c2.493-.58,4.232-2.386,4.232-4.394a4.563,4.563,0,0,0-1.739-3.41,4.07,4.07,0,0,1-1.415-2.952,4.026,4.026,0,0,1,1.227-3.033,2.029,2.029,0,0,0,.674-1.429c0-1.267-1.5-2.386-3.275-2.426a4.047,4.047,0,0,1-3.248-6.294A1.814,1.814,0,0,0,278,21.526c0-1.321-1.55-2.44-3.4-2.44-.148,0-.445.027-.728.054a4.061,4.061,0,0,1-3.316-1.078,4.009,4.009,0,0,1-1.253-3.194c-.135-1.887-2.48-3.316-4.556-3.343h-.067a4.857,4.857,0,0,0-4.313,2.237A4.021,4.021,0,0,1,256,15.839v-3.5a.89.89,0,0,0,.809-.458,8.879,8.879,0,0,1,8.006-4.38c4.609.054,8.491,3.437,8.559,7.44,0,.067-.013.135-.013.216a9.994,9.994,0,0,1,1.253-.094c4.111,0,7.44,2.9,7.44,6.483a5.858,5.858,0,0,1-1.011,3.248c4,.108,7.211,2.965,7.211,6.469a5.994,5.994,0,0,1-1.914,4.326,8.5,8.5,0,0,1,3.154,6.469c0,4.016-3.127,7.372-7.359,8.356Z" transform="translate(-256 -7.495)" fill="#66d4ff"/>
        </g>
        <g id="Group_1152504" data-name="Group 1152504" transform="translate(40.785 11.7)">
          <g id="Group_1152500" data-name="Group 1152500" transform="translate(0 41.229)">
            <circle id="Ellipse_11655" data-name="Ellipse 11655" cx="2.022" cy="2.022" r="2.022" fill="#fff"/>
          </g>
          <g id="Group_1152501" data-name="Group 1152501" transform="translate(0)">
            <circle id="Ellipse_11656" data-name="Ellipse 11656" cx="2.022" cy="2.022" r="2.022" fill="#fff"/>
          </g>
          <g id="Group_1152502" data-name="Group 1152502" transform="translate(8.707 34.544)">
            <circle id="Ellipse_11657" data-name="Ellipse 11657" cx="2.022" cy="2.022" r="2.022" fill="#fff"/>
          </g>
          <g id="Group_1152503" data-name="Group 1152503" transform="translate(8.707 6.483)">
            <circle id="Ellipse_11658" data-name="Ellipse 11658" cx="2.022" cy="2.022" r="2.022" fill="#fff"/>
          </g>
        </g>
      </g>
      <g id="Group_1152539" data-name="Group 1152539" transform="translate(0 -0.005)">
        <g id="Group_1152513" data-name="Group 1152513" transform="translate(0 0)">
          <g id="Group_1152506" data-name="Group 1152506" transform="translate(6.445 53.147)">
            <path id="Path_984159" data-name="Path 984159" d="M85.8,410.178a11.082,11.082,0,0,1-9.92-5.593,11.113,11.113,0,0,1-9.92,5.593c-6.025,0-10.931-4.326-10.931-9.65v-.283A10.892,10.892,0,0,1,48,395.918a1.015,1.015,0,1,1,1.658-1.173,9.224,9.224,0,0,0,6.577,3.626,1.006,1.006,0,0,1,.7.391.988.988,0,0,1,.2.768,7.031,7.031,0,0,0-.081.984c0,4.205,4,7.629,8.909,7.629a9.035,9.035,0,0,0,8.208-4.65,1.9,1.9,0,0,1,1.712-1.038,1.865,1.865,0,0,1,1.712,1.038,9.035,9.035,0,0,0,8.208,4.65c4.919,0,8.909-3.423,8.909-7.629a7.209,7.209,0,0,0-.081-1,.988.988,0,0,1,.2-.768,1.028,1.028,0,0,1,.7-.391,9.947,9.947,0,0,0,3.6-1.065,1.01,1.01,0,0,1,.93,1.793,11.879,11.879,0,0,1-3.329,1.146v.283C96.74,405.852,91.834,410.178,85.8,410.178Z" transform="translate(-47.817 -394.317)"/>
          </g>
          <g id="Group_1152507" data-name="Group 1152507" transform="translate(0 8.94)">
            <path id="Path_984160" data-name="Path 984160" d="M5.971,108.023a1.018,1.018,0,0,1-1.011-1.011,9.162,9.162,0,0,1,1.658-5.189A9.693,9.693,0,0,1,0,92.968a9.361,9.361,0,0,1,2.75-6.537,6.888,6.888,0,0,1-1.51-4.273c0-3.6,2.817-6.591,6.658-7.319a6.7,6.7,0,0,1-.445-2.4,7.175,7.175,0,0,1,3.3-5.944,1.009,1.009,0,1,1,1.132,1.671,5.2,5.2,0,0,0-2.426,4.273,4.991,4.991,0,0,0,.836,2.7,1,1,0,0,1,.054,1.024,1.036,1.036,0,0,1-.876.553c-3.491.094-6.227,2.493-6.227,5.459a4.993,4.993,0,0,0,1.6,3.6,1.06,1.06,0,0,1,.31.755,1.046,1.046,0,0,1-.35.741,7.544,7.544,0,0,0-2.79,5.7c0,3.423,2.709,6.456,6.577,7.346a1,1,0,0,1,.741.7,1.018,1.018,0,0,1-.256,1,7.182,7.182,0,0,0-2.1,5,1,1,0,0,1-1.011,1.011Z" transform="translate(0 -66.326)"/>
          </g>
          <g id="Group_1152508" data-name="Group 1152508" transform="translate(14.88)">
            <path id="Path_984161" data-name="Path 984161" d="M157.3,54.838a.972.972,0,0,1-.539-.162,1.02,1.02,0,0,1-.31-1.4,6.8,6.8,0,0,0,1.092-3.653,7.182,7.182,0,0,0-2.1-5,1.034,1.034,0,0,1-.256-1,.981.981,0,0,1,.741-.7c3.882-.9,6.577-3.922,6.577-7.346a7.523,7.523,0,0,0-2.79-5.7,1.046,1.046,0,0,1-.35-.741,1.007,1.007,0,0,1,.31-.755,4.993,4.993,0,0,0,1.6-3.6c0-2.965-2.736-5.364-6.227-5.459a1.04,1.04,0,0,1-.876-.539,1,1,0,0,1,.054-1.024,4.814,4.814,0,0,0,.836-2.7c0-3.019-2.884-5.472-6.429-5.472a8.563,8.563,0,0,0-1.119.081.98.98,0,0,1-.822-.27,1.026,1.026,0,0,1-.31-.809V8.474c-.067-3.437-3.518-6.389-7.561-6.443a7.869,7.869,0,0,0-7.1,3.841,1.958,1.958,0,0,1-3.4,0,7.838,7.838,0,0,0-7.1-3.855c-4.03.054-7.494,3.006-7.561,6.443v.108a.993.993,0,0,1-.31.809.98.98,0,0,1-.822.27,8.563,8.563,0,0,0-1.119-.081,1.011,1.011,0,1,1,0-2.022h.3a8.241,8.241,0,0,1,2.857-5.081A10.44,10.44,0,0,1,121.209,0a9.941,9.941,0,0,1,8.815,4.758A9.9,9.9,0,0,1,138.7,0h.135a10.314,10.314,0,0,1,6.631,2.48,8.241,8.241,0,0,1,2.857,5.081h.3c4.663,0,8.451,3.356,8.451,7.494a6.641,6.641,0,0,1-.445,2.4c3.828.728,6.658,3.72,6.658,7.319a6.888,6.888,0,0,1-1.51,4.273,9.338,9.338,0,0,1,2.75,6.537,9.688,9.688,0,0,1-6.631,8.855,9.163,9.163,0,0,1,1.658,5.189,8.686,8.686,0,0,1-1.415,4.744.944.944,0,0,1-.836.472Z" transform="translate(-110.4 0.005)"/>
          </g>
          <g id="Group_1152509" data-name="Group 1152509" transform="translate(8.451 17.293)">
            <path id="Path_984162" data-name="Path 984162" d="M67.053,131.562a1,1,0,0,1-.674-.256,4.592,4.592,0,0,0-2.669-.984,1.011,1.011,0,1,1,0-2.022,6.534,6.534,0,0,1,4,1.5,1.006,1.006,0,0,1,.081,1.429A.939.939,0,0,1,67.053,131.562Z" transform="translate(-62.7 -128.3)"/>
          </g>
          <g id="Group_1152510" data-name="Group 1152510" transform="translate(13.75 53.817)">
            <path id="Path_984163" data-name="Path 984163" d="M103.029,404.693a.458.458,0,0,1-.135-.013,1,1,0,0,1-.863-1.132,7.41,7.41,0,0,1,1.995-3.976,1.01,1.01,0,0,1,1.4,1.456,5.439,5.439,0,0,0-1.4,2.79A1,1,0,0,1,103.029,404.693Z" transform="translate(-102.021 -399.286)"/>
          </g>
          <g id="Group_1152511" data-name="Group 1152511" transform="translate(60.702 28.099)">
            <path id="Path_984164" data-name="Path 984164" d="M451.393,211.982a1.013,1.013,0,0,1-1.011-.93,1.03,1.03,0,0,1,.93-1.092,4.358,4.358,0,0,0,2.48-1.186,1.01,1.01,0,1,1,1.442,1.415,6.507,6.507,0,0,1-3.774,1.779A.1.1,0,0,1,451.393,211.982Z" transform="translate(-450.38 -208.474)"/>
          </g>
          <g id="Group_1152512" data-name="Group 1152512" transform="translate(49.506 7.454)">
            <path id="Path_984165" data-name="Path 984165" d="M368.32,61.3a1.053,1.053,0,0,1-.647-.229,1.008,1.008,0,0,1-.121-1.429,5.974,5.974,0,0,0,1.119-3.329,1.011,1.011,0,0,1,2.022,0,7.985,7.985,0,0,1-1.59,4.636A1.034,1.034,0,0,1,368.32,61.3Z" transform="translate(-367.311 -55.3)"/>
          </g>
        </g>
        <g id="Group_1152514" data-name="Group 1152514" transform="translate(33.493 16.498)">
          <path id="Path_984166" data-name="Path 984166" d="M249.511,169.223a1.018,1.018,0,0,1-1.011-1.011v-44.8a1.011,1.011,0,1,1,2.022,0v44.8A1.009,1.009,0,0,1,249.511,169.223Z" transform="translate(-248.5 -122.4)"/>
        </g>
        <g id="Group_1152515" data-name="Group 1152515" transform="translate(33.493 4.839)">
          <path id="Path_984167" data-name="Path 984167" d="M249.511,44.917a1.018,1.018,0,0,1-1.011-1.011v-7a1.011,1.011,0,1,1,2.022,0v7A1.018,1.018,0,0,1,249.511,44.917Z" transform="translate(-248.5 -35.9)"/>
        </g>
        <g id="Group_1152522" data-name="Group 1152522" transform="translate(34.504 11.7)">
          <g id="Group_1152518" data-name="Group 1152518" transform="translate(0.013 35.034)">
            <g id="Group_1152516" data-name="Group 1152516" transform="translate(6.267 6.195)">
              <path id="Path_984168" data-name="Path 984168" d="M305.633,398.765a3.033,3.033,0,1,1,3.033-3.033A3.037,3.037,0,0,1,305.633,398.765Zm0-4.043a1.011,1.011,0,1,0,1.011,1.011A1.018,1.018,0,0,0,305.633,394.722Z" transform="translate(-302.6 -392.7)"/>
            </g>
            <g id="Group_1152517" data-name="Group 1152517">
              <path id="Path_984169" data-name="Path 984169" d="M266.411,353.942h-2.022a5.4,5.4,0,0,0-1.253-3.99c-1.375-1.321-3.828-1.227-5.8-1.159-.445.013-.849.027-1.24.027V346.8c.35,0,.755-.013,1.173-.027,2.237-.081,5.3-.189,7.278,1.725A7.378,7.378,0,0,1,266.411,353.942Z" transform="translate(-256.1 -346.736)"/>
            </g>
          </g>
          <g id="Group_1152521" data-name="Group 1152521">
            <g id="Group_1152519" data-name="Group 1152519" transform="translate(6.281)">
              <path id="Path_984170" data-name="Path 984170" d="M305.633,92.865a3.033,3.033,0,1,1,3.033-3.033A3.037,3.037,0,0,1,305.633,92.865Zm0-4.043a1.011,1.011,0,1,0,1.011,1.011A1.018,1.018,0,0,0,305.633,88.822Z" transform="translate(-302.6 -86.8)"/>
            </g>
            <g id="Group_1152520" data-name="Group 1152520" transform="translate(0 5.041)">
              <path id="Path_984171" data-name="Path 984171" d="M258.682,131.411c-.526,0-1.038-.013-1.51-.04-.418-.013-.822-.027-1.173-.027v-2.022c.391,0,.809.013,1.24.027,1.981.067,4.434.162,5.8-1.159a5.382,5.382,0,0,0,1.253-3.99h2.022a7.307,7.307,0,0,1-1.873,5.445C262.887,131.155,260.65,131.411,258.682,131.411Z" transform="translate(-256 -124.2)"/>
            </g>
          </g>
        </g>
        <g id="Group_1152525" data-name="Group 1152525" transform="translate(34.504 38.413)">
          <g id="Group_1152523" data-name="Group 1152523" transform="translate(14.988 7.831)">
            <path id="Path_984172" data-name="Path 984172" d="M370.233,349.165a3.033,3.033,0,1,1,3.033-3.033A3.037,3.037,0,0,1,370.233,349.165Zm0-4.043a1.011,1.011,0,1,0,1.011,1.011A1.018,1.018,0,0,0,370.233,345.122Z" transform="translate(-367.2 -343.1)"/>
          </g>
          <g id="Group_1152524" data-name="Group 1152524">
            <path id="Path_984173" data-name="Path 984173" d="M275.031,293.842h-2.022c0-6.537-5.526-6.82-17.009-6.82V285c5.351,0,9.974,0,13.289,1.024C273.158,287.21,275.031,289.758,275.031,293.842Z" transform="translate(-256 -285)"/>
          </g>
        </g>
        <g id="Group_1152528" data-name="Group 1152528" transform="translate(34.504 18.183)">
          <g id="Group_1152526" data-name="Group 1152526" transform="translate(14.988)">
            <path id="Path_984174" data-name="Path 984174" d="M370.233,140.965a3.033,3.033,0,1,1,3.033-3.033A3.037,3.037,0,0,1,370.233,140.965Zm0-4.043a1.011,1.011,0,1,0,1.011,1.011A1.018,1.018,0,0,0,370.233,136.922Z" transform="translate(-367.2 -134.9)"/>
          </g>
          <g id="Group_1152527" data-name="Group 1152527" transform="translate(0 5.068)">
            <path id="Path_984175" data-name="Path 984175" d="M256,181.342V179.32c11.483,0,17.009-.3,17.009-6.82h2.022c0,4.07-1.873,6.631-5.742,7.817C265.974,181.342,261.351,181.342,256,181.342Z" transform="translate(-256 -172.5)"/>
          </g>
        </g>
        <g id="Group_1152531" data-name="Group 1152531" transform="translate(47.901 34.336)">
          <g id="Group_1152529" data-name="Group 1152529" transform="translate(6.86 0)">
            <path id="Path_984176" data-name="Path 984176" d="M407.311,256.767a1.037,1.037,0,0,1-.2-.027.772.772,0,0,1-.189-.054.725.725,0,0,1-.175-.094,1.423,1.423,0,0,1-.148-.121,1.01,1.01,0,0,1-.3-.714,1.022,1.022,0,0,1,.013-.2.772.772,0,0,1,.054-.189.726.726,0,0,1,.094-.175,1.433,1.433,0,0,1,.121-.148.649.649,0,0,1,.148-.121.727.727,0,0,1,.175-.094.992.992,0,0,1,.189-.054,1.048,1.048,0,0,1,.917.27,1.17,1.17,0,0,1,.121.148,1.113,1.113,0,0,1,.094.175.772.772,0,0,1,.054.189,1.042,1.042,0,0,1,.027.2.524.524,0,0,1-.027.2.992.992,0,0,1-.054.189.725.725,0,0,1-.094.175,1.432,1.432,0,0,1-.121.148A.956.956,0,0,1,407.311,256.767Z" transform="translate(-406.3 -254.753)"/>
          </g>
          <g id="Group_1152530" data-name="Group 1152530">
            <path id="Path_984177" data-name="Path 984177" d="M356.4,256.765a1.04,1.04,0,0,1-.2-.027.774.774,0,0,1-.189-.054.727.727,0,0,1-.175-.094,1.431,1.431,0,0,1-.148-.121.649.649,0,0,1-.121-.148.727.727,0,0,1-.094-.175.994.994,0,0,1-.054-.189,1.522,1.522,0,0,1,0-.4.773.773,0,0,1,.054-.189.727.727,0,0,1,.094-.175,1.435,1.435,0,0,1,.121-.148.649.649,0,0,1,.148-.121.725.725,0,0,1,.175-.094.993.993,0,0,1,.189-.054.954.954,0,0,1,.391,0c.067.013.135.04.189.054a.726.726,0,0,1,.175.094,1.431,1.431,0,0,1,.148.121,1.177,1.177,0,0,1,.121.148,1.116,1.116,0,0,1,.094.175.772.772,0,0,1,.054.189,1.042,1.042,0,0,1,.027.2,1.01,1.01,0,0,1-.3.714.648.648,0,0,1-.148.121.727.727,0,0,1-.175.094.994.994,0,0,1-.189.054A.909.909,0,0,1,356.4,256.765Z" transform="translate(-355.4 -254.75)"/>
          </g>
        </g>
        <g id="Group_1152534" data-name="Group 1152534" transform="translate(42.806 6.517)">
          <g id="Group_1152532" data-name="Group 1152532" transform="translate(0.013)">
            <path id="Path_984178" data-name="Path 984178" d="M318.7,50.351a1.02,1.02,0,0,1-.2-.013.772.772,0,0,1-.189-.054.726.726,0,0,1-.175-.094,1.435,1.435,0,0,1-.148-.121,1.175,1.175,0,0,1-.121-.148.727.727,0,0,1-.094-.175.994.994,0,0,1-.054-.189,1.022,1.022,0,0,1-.013-.2c0-.067.013-.135.013-.2a.773.773,0,0,1,.054-.189,1.115,1.115,0,0,1,.094-.175,1.436,1.436,0,0,1,.121-.148.649.649,0,0,1,.148-.121.726.726,0,0,1,.175-.094.772.772,0,0,1,.189-.054.954.954,0,0,1,.391,0,.773.773,0,0,1,.189.054.726.726,0,0,1,.175.094,1.428,1.428,0,0,1,.148.121,1.17,1.17,0,0,1,.121.148,1.111,1.111,0,0,1,.094.175.992.992,0,0,1,.054.189,1.518,1.518,0,0,1,0,.4.772.772,0,0,1-.054.189.725.725,0,0,1-.094.175,1.424,1.424,0,0,1-.121.148,1.171,1.171,0,0,1-.148.121c-.054.027-.108.067-.175.094a.993.993,0,0,1-.189.054A.829.829,0,0,1,318.7,50.351Z" transform="translate(-317.7 -48.35)"/>
          </g>
          <g id="Group_1152533" data-name="Group 1152533" transform="translate(0 55.651)">
            <path id="Path_984179" data-name="Path 984179" d="M318.611,463.265a1.04,1.04,0,0,1-.2-.027.772.772,0,0,1-.189-.054.726.726,0,0,1-.175-.094,1.434,1.434,0,0,1-.148-.121,1.177,1.177,0,0,1-.121-.148.725.725,0,0,1-.094-.175.992.992,0,0,1-.054-.189,1.04,1.04,0,0,1-.027-.2.524.524,0,0,1,.027-.2.772.772,0,0,1,.054-.189.724.724,0,0,1,.094-.175,1.432,1.432,0,0,1,.121-.148.648.648,0,0,1,.148-.121.727.727,0,0,1,.175-.094.773.773,0,0,1,.189-.054.954.954,0,0,1,.391,0,.774.774,0,0,1,.189.054.726.726,0,0,1,.175.094,1.428,1.428,0,0,1,.148.121,1.17,1.17,0,0,1,.121.148.727.727,0,0,1,.094.175.774.774,0,0,1,.054.189,1.522,1.522,0,0,1,0,.4.994.994,0,0,1-.054.189.727.727,0,0,1-.094.175,1.431,1.431,0,0,1-.121.148,1.171,1.171,0,0,1-.148.121.725.725,0,0,1-.175.094.993.993,0,0,1-.189.054A.429.429,0,0,1,318.611,463.265Z" transform="translate(-317.6 -461.25)"/>
          </g>
        </g>
        <g id="Group_1152535" data-name="Group 1152535" transform="translate(11.413 26.374)">
          <path id="Path_984180" data-name="Path 984180" d="M85.694,204.955h-.067a1,1,0,0,1-.943-1.065,9.767,9.767,0,0,1,1.011-3.491,8.728,8.728,0,0,1,5.984-4.69,1.013,1.013,0,0,1,.485,1.968,7.135,7.135,0,0,0-5.445,6.335,1.048,1.048,0,0,1-1.024.943Z" transform="translate(-84.681 -195.679)"/>
        </g>
        <g id="Group_1152536" data-name="Group 1152536" transform="translate(21.56 11.196)">
          <path id="Path_984181" data-name="Path 984181" d="M160.981,90.388a1.012,1.012,0,0,1-.337-1.968c.148-.054,3.423-1.267,3.733-4.434a1.015,1.015,0,1,1,2.022.189c-.418,4.475-4.879,6.092-5.068,6.159A1.111,1.111,0,0,1,160.981,90.388Z" transform="translate(-159.965 -83.065)"/>
        </g>
        <g id="Group_1152537" data-name="Group 1152537" transform="translate(21.547 46.888)">
          <path id="Path_984182" data-name="Path 984182" d="M165.009,357.344a.959.959,0,0,1-.431-.094c-5.189-2.466-4.7-8.208-4.69-8.451a1.015,1.015,0,0,1,2.022.175c-.013.189-.35,4.6,3.545,6.443a1.015,1.015,0,0,1-.445,1.927Z" transform="translate(-159.869 -347.879)"/>
        </g>
        <g id="Group_1152538" data-name="Group 1152538" transform="translate(23.285 33.071)">
          <path id="Path_984183" data-name="Path 984183" d="M173.776,251.7a1.015,1.015,0,0,1-.445-1.927,3.49,3.49,0,0,0,1.82-3.316,1.019,1.019,0,0,1,.917-1.092,1,1,0,0,1,1.092.9,5.481,5.481,0,0,1-2.965,5.324A.775.775,0,0,1,173.776,251.7Z" transform="translate(-172.759 -245.364)"/>
        </g>
      </g>
    </g>
  </g>
</svg>
