<svg xmlns="http://www.w3.org/2000/svg" xmlns:xlink="http://www.w3.org/1999/xlink" width="99.504" height="99.504" viewBox="0 0 99.504 99.504">
  <defs>
    <filter id="Path_982547" x="0" y="0" width="99.504" height="99.504" filterUnits="userSpaceOnUse">
      <feOffset dy="3" input="SourceAlpha"/>
      <feGaussianBlur stdDeviation="3" result="blur"/>
      <feFlood flood-opacity="0.161"/>
      <feComposite operator="in" in2="blur"/>
      <feComposite in="SourceGraphic"/>
    </filter>
  </defs>
  <g id="Group_1151826" data-name="Group 1151826" transform="translate(-614.496 -1778)">
    <g id="Group_1146972" data-name="Group 1146972" transform="translate(623.496 1784)">
      <g id="Group_1146954" data-name="Group 1146954">
        <g transform="matrix(1, 0, 0, 1, -9, -6)" filter="url(#Path_982547)">
          <g id="Path_982547-2" data-name="Path 982547" transform="translate(9 6)" fill="#fff6f9">
            <path d="M 40.7520751953125 80.00415802001953 C 35.45241546630859 80.00415802001953 30.31208610534668 78.96654510498047 25.47385215759277 76.92014312744141 C 20.79992294311523 74.9432373046875 16.60199356079102 72.11281585693359 12.99666309356689 68.50748443603516 C 9.391345977783203 64.90216064453125 6.560910701751709 60.70422744750977 4.584004402160645 56.03028869628906 C 2.53761625289917 51.19206237792969 1.500004649162292 46.05173492431641 1.500004649162292 40.7520751953125 C 1.500004649162292 35.45241546630859 2.53761625289917 30.31208610534668 4.584004402160645 25.47385215759277 C 6.560910701751709 20.79992294311523 9.391345977783203 16.60199356079102 12.99666309356689 12.99666309356689 C 16.60199356079102 9.391345977783203 20.79992294311523 6.560910701751709 25.47385215759277 4.584004402160645 C 30.31208610534668 2.53761625289917 35.45241546630859 1.500004649162292 40.7520751953125 1.500004649162292 C 46.05173492431641 1.500004649162292 51.19206237792969 2.53761625289917 56.03028869628906 4.584004402160645 C 60.70422744750977 6.560910701751709 64.90216064453125 9.391345977783203 68.50748443603516 12.99666309356689 C 72.11281585693359 16.60199356079102 74.9432373046875 20.79992294311523 76.92014312744141 25.47385215759277 C 78.96654510498047 30.31208610534668 80.00415802001953 35.45241546630859 80.00415802001953 40.7520751953125 C 80.00415802001953 46.05173492431641 78.96654510498047 51.19206237792969 76.92014312744141 56.03028869628906 C 74.9432373046875 60.70421600341797 72.11281585693359 64.90216064453125 68.50748443603516 68.50748443603516 C 64.90216064453125 72.11281585693359 60.70421600341797 74.9432373046875 56.03028869628906 76.92014312744141 C 51.19206237792969 78.96654510498047 46.05173492431641 80.00415802001953 40.7520751953125 80.00415802001953 Z" stroke="none"/>
            <path d="M 40.7520751953125 2.999992370605469 C 35.65426254272461 2.999992370605469 30.71051406860352 3.99774169921875 26.05818176269531 5.96551513671875 C 21.56304931640625 7.866798400878906 17.52538299560547 10.58927154541016 14.05732727050781 14.05732727050781 C 10.58927154541016 17.52538299560547 7.866798400878906 21.56304931640625 5.96551513671875 26.05818176269531 C 3.99774169921875 30.71051406860352 2.999992370605469 35.65426254272461 2.999992370605469 40.7520751953125 C 2.999992370605469 45.84988784790039 3.99774169921875 50.79363250732422 5.96551513671875 55.44596862792969 C 7.866798400878906 59.94110107421875 10.58927154541016 63.97876739501953 14.05732727050781 67.44682312011719 C 17.52538299560547 70.91487121582031 21.56304931640625 73.63735198974609 26.05818176269531 75.53863525390625 C 30.71051406860352 77.50640869140625 35.65426254272461 78.50415802001953 40.7520751953125 78.50415802001953 C 45.84988784790039 78.50415802001953 50.79363250732422 77.50640869140625 55.44596862792969 75.53863525390625 C 59.94110107421875 73.63735198974609 63.97876739501953 70.91487121582031 67.44682312011719 67.44682312011719 C 70.91487121582031 63.97876739501953 73.63735198974609 59.94110107421875 75.53863525390625 55.44596862792969 C 77.50640869140625 50.79363250732422 78.50415802001953 45.84988784790039 78.50415802001953 40.7520751953125 C 78.50415802001953 35.65426254272461 77.50640869140625 30.71051406860352 75.53863525390625 26.05818176269531 C 73.63735198974609 21.56304931640625 70.91487121582031 17.52538299560547 67.44682312011719 14.05732727050781 C 63.97876739501953 10.58927154541016 59.94110107421875 7.866798400878906 55.44596862792969 5.96551513671875 C 50.79363250732422 3.99774169921875 45.84988784790039 2.999992370605469 40.7520751953125 2.999992370605469 M 40.7520751953125 -7.62939453125e-06 C 63.25881958007812 -7.62939453125e-06 81.50415802001953 18.24532699584961 81.50415802001953 40.7520751953125 C 81.50415802001953 63.25881958007812 63.25881958007812 81.50415802001953 40.7520751953125 81.50415802001953 C 18.24532699584961 81.50415802001953 -7.62939453125e-06 63.25881958007812 -7.62939453125e-06 40.7520751953125 C -7.62939453125e-06 18.24532699584961 18.24532699584961 -7.62939453125e-06 40.7520751953125 -7.62939453125e-06 Z" stroke="none" fill="#ffaece"/>
          </g>
        </g>
      </g>
    </g>
    <g id="chat_1638365" transform="translate(635.317 1799.945)">
      <path id="Path_983808" data-name="Path 983808" d="M186.717,160H152v21.216a3.858,3.858,0,0,0,3.857,3.857h17.358v5.786l4.822-5.786h8.679a3.858,3.858,0,0,0,3.857-3.857V163.857A3.858,3.858,0,0,0,186.717,160Zm0,0" transform="translate(-133.677 -140.713)" fill="#00ccb3"/>
      <path id="Path_983809" data-name="Path 983809" d="M48.5,11.857V31.144A3.858,3.858,0,0,1,44.645,35H19.572v6.75L14.75,35H11.857A3.858,3.858,0,0,1,8,31.144V11.857A3.858,3.858,0,0,1,11.857,8H44.645A3.858,3.858,0,0,1,48.5,11.857Zm0,0" transform="translate(-7.036 -7.036)" fill="#ffd422"/>
      <path id="Path_983810" data-name="Path 983810" d="M185.643,46.75V43.857l-3.857-.964V40.964L180.822,40h-2.893L176,41.929v15.43l1.929,1.929h1.929l1.929-2.893h1.929l.964-.964V52.537l2.893-.964V47.715Zm0,0" transform="translate(-154.784 -35.178)" fill="#ed539d"/>
      <path id="Path_983811" data-name="Path 983811" d="M89.643,40H86.75l-.964.964v1.929l-3.857.964V46.75L80,47.715v3.857l2.893.964V55.43l.964.964h1.929l1.929,2.893h1.929l1.929-1.929V41.929Zm0,0" transform="translate(-70.356 -35.178)" fill="#ea348b"/>
      <path id="Path_983812" data-name="Path 983812" d="M42.431,24.109V4.822A4.827,4.827,0,0,0,37.61,0H4.822A4.827,4.827,0,0,0,0,4.822V24.109A4.827,4.827,0,0,0,4.822,28.93h2.4l4.533,6.346a.964.964,0,0,0,1.75-.56V28.93H37.61a4.827,4.827,0,0,0,4.822-4.822ZM12.537,27a.964.964,0,0,0-.964.964v3.741L8.5,27.406a.965.965,0,0,0-.785-.4H4.822a2.893,2.893,0,0,1-2.893-2.893V4.822A2.893,2.893,0,0,1,4.822,1.929H37.61A2.893,2.893,0,0,1,40.5,4.822V24.109A2.893,2.893,0,0,1,37.61,27Zm0,0"/>
      <path id="Path_983813" data-name="Path 983813" d="M179.681,152H171v1.929h8.679a2.893,2.893,0,0,1,2.893,2.893V174.18a2.893,2.893,0,0,1-2.893,2.893H171a.966.966,0,0,0-.742.347l-3.116,3.74v-3.122a.964.964,0,0,0-.964-.964H148.822a2.893,2.893,0,0,1-2.893-2.893v-9.644H144v9.644A4.827,4.827,0,0,0,148.822,179h16.394v4.822a.964.964,0,0,0,.636.906.978.978,0,0,0,.329.058.966.966,0,0,0,.742-.347L171.454,179h8.227a4.827,4.827,0,0,0,4.822-4.822V156.822A4.827,4.827,0,0,0,179.681,152Zm0,0" transform="translate(-126.642 -133.677)"/>
      <path id="Path_983814" data-name="Path 983814" d="M200,256h27v1.929H200Zm0,0" transform="translate(-175.891 -225.141)"/>
      <path id="Path_983815" data-name="Path 983815" d="M200,304h27v1.929H200Zm0,0" transform="translate(-175.891 -267.355)"/>
      <path id="Path_983816" data-name="Path 983816" d="M376,208h5.786v1.929H376Zm0,0" transform="translate(-330.676 -182.927)"/>
      <path id="Path_983817" data-name="Path 983817" d="M96.539,39.816l-1.4-.7v-2.3a.965.965,0,0,0-.731-.936L91.287,35.1V33.929A.964.964,0,0,0,91,33.247l-.964-.964A.964.964,0,0,0,89.358,32H86.465a.964.964,0,0,0-.682.283l-1.247,1.247-1.247-1.247A.964.964,0,0,0,82.608,32H79.715a.964.964,0,0,0-.682.283l-.964.964a.964.964,0,0,0-.283.682V35.1l-3.128.782a.965.965,0,0,0-.73.936v2.3l-1.4.7a.964.964,0,0,0-.534.863v3.857a.965.965,0,0,0,.66.915l2.233.744v2.2a.964.964,0,0,0,.283.682l.964.964a.964.964,0,0,0,.682.283h1.413l1.64,2.464a.964.964,0,0,0,.805.429h1.929a.964.964,0,0,0,.682-.283l1.247-1.247,1.247,1.247a.964.964,0,0,0,.682.283h1.929a.965.965,0,0,0,.8-.429l1.642-2.464h1.413a.964.964,0,0,0,.682-.283l.964-.964a.964.964,0,0,0,.283-.682V46.2l2.233-.744a.965.965,0,0,0,.66-.915V40.679a.964.964,0,0,0-.534-.863ZM82.208,51.287H81.195l-1.64-2.464a.964.964,0,0,0-.805-.429H77.221l-.4-.4V45.9l1.646-1.646a.964.964,0,0,0,.283-.682v-.964H76.821v.565L75.6,44.4l-1.668-.557V41.275l1.192-.6h1.7V38.75h-.964V37.575l2.6-.65,1.261,1.261v1.529h1.929V37.786a.964.964,0,0,0-.283-.682l-1.646-1.646v-1.13l.4-.4h2.094l1.364,1.364V49.923Zm12.936-7.446-1.668.557-1.225-1.225v-.565H90.322v.964a.964.964,0,0,0,.283.682L92.251,45.9v2.094l-.4.4H90.322a.965.965,0,0,0-.8.429l-1.642,2.464H86.864L85.5,49.923V35.292l1.364-1.364h2.094l.4.4v1.13L87.712,37.1a.965.965,0,0,0-.283.682v1.929h1.929V38.185l1.261-1.261,2.6.65V38.75h-.964v1.929h1.7l1.192.6Zm0,0" transform="translate(-63.321 -28.143)"/>
      <path id="Path_983818" data-name="Path 983818" d="M195.026,130.494l-.682.682,1.364,1.364.964-.964a.965.965,0,0,0,.283-.682V128h-1.929Zm0,0" transform="translate(-170.917 -112.571)"/>
      <path id="Path_983819" data-name="Path 983819" d="M137.929,128H136v2.893a.964.964,0,0,0,.283.682l.964.964,1.364-1.364-.682-.682Zm0,0" transform="translate(-119.606 -112.57)"/>
    </g>
  </g>
</svg>
