<svg xmlns="http://www.w3.org/2000/svg" xmlns:xlink="http://www.w3.org/1999/xlink" width="108" height="108" viewBox="0 0 108 108">
  <defs>
    <filter id="Path_982547" x="0" y="0" width="108" height="108" filterUnits="userSpaceOnUse">
      <feOffset dy="3" input="SourceAlpha"/>
      <feGaussianBlur stdDeviation="3" result="blur"/>
      <feFlood flood-opacity="0.161"/>
      <feComposite operator="in" in2="blur"/>
      <feComposite in="SourceGraphic"/>
    </filter>
  </defs>
  <g id="Group_1152494" data-name="Group 1152494" transform="translate(-212 -2434)">
    <g id="Group_1151798" data-name="Group 1151798" transform="translate(221 2440)">
      <g id="Group_1146954" data-name="Group 1146954">
        <g transform="matrix(1, 0, 0, 1, -9, -6)" filter="url(#Path_982547)">
          <g id="Path_982547-2" data-name="Path 982547" transform="translate(9 6)" fill="#f4f4fd">
            <path d="M 45 88.5 C 39.12687683105469 88.5 33.43022537231445 87.35007476806641 28.06830024719238 85.08217620849609 C 22.88852500915527 82.89131164550781 18.23629951477051 79.75458526611328 14.2408504486084 75.75914764404297 C 10.24541282653809 71.76370239257812 7.108687400817871 67.11147308349609 4.917825222015381 61.93170166015625 C 2.649924993515015 56.56977462768555 1.5 50.87312316894531 1.5 45 C 1.5 39.12687683105469 2.649924993515015 33.43022537231445 4.917825222015381 28.06830024719238 C 7.108687400817871 22.88852500915527 10.24541282653809 18.23629951477051 14.2408504486084 14.2408504486084 C 18.23629951477051 10.24541282653809 22.88852500915527 7.108687400817871 28.06830024719238 4.917825222015381 C 33.43022537231445 2.649924993515015 39.12687683105469 1.5 45 1.5 C 50.87312316894531 1.5 56.56977462768555 2.649924993515015 61.93170166015625 4.917825222015381 C 67.11147308349609 7.108687400817871 71.76370239257812 10.24541282653809 75.75914764404297 14.2408504486084 C 79.75458526611328 18.23629951477051 82.89131164550781 22.88852500915527 85.08217620849609 28.06830024719238 C 87.35007476806641 33.43022537231445 88.5 39.12687683105469 88.5 45 C 88.5 50.87312316894531 87.35007476806641 56.56977462768555 85.08217620849609 61.93170166015625 C 82.89131164550781 67.11147308349609 79.75458526611328 71.76370239257812 75.75914764404297 75.75914764404297 C 71.76370239257812 79.75458526611328 67.11147308349609 82.89131164550781 61.93170166015625 85.08217620849609 C 56.56977462768555 87.35007476806641 50.87312316894531 88.5 45 88.5 Z" stroke="none"/>
            <path d="M 45 3 C 39.32871246337891 3 33.82865524291992 4.110054016113281 28.65262985229492 6.299339294433594 C 23.65165710449219 8.414573669433594 19.15968322753906 11.44334411621094 15.301513671875 15.301513671875 C 11.44334411621094 19.15968322753906 8.414573669433594 23.65165710449219 6.299339294433594 28.65262985229492 C 4.110054016113281 33.82865524291992 3 39.32871246337891 3 45 C 3 50.67128753662109 4.110054016113281 56.17134475708008 6.299339294433594 61.34737396240234 C 8.414573669433594 66.34834289550781 11.44334411621094 70.84031677246094 15.301513671875 74.698486328125 C 19.15968322753906 78.55665588378906 23.65165710449219 81.58542633056641 28.65262985229492 83.70066070556641 C 33.82865524291992 85.88994598388672 39.32871246337891 87 45 87 C 50.67128753662109 87 56.17134475708008 85.88994598388672 61.34737396240234 83.70066070556641 C 66.34834289550781 81.58542633056641 70.84031677246094 78.55665588378906 74.698486328125 74.698486328125 C 78.55665588378906 70.84031677246094 81.58542633056641 66.34834289550781 83.70066070556641 61.34737396240234 C 85.88994598388672 56.17134475708008 87 50.67128753662109 87 45 C 87 39.32871246337891 85.88994598388672 33.82865524291992 83.70066070556641 28.65262985229492 C 81.58542633056641 23.65165710449219 78.55665588378906 19.15968322753906 74.698486328125 15.301513671875 C 70.84031677246094 11.44334411621094 66.34834289550781 8.414573669433594 61.34737396240234 6.299339294433594 C 56.17134475708008 4.110054016113281 50.67128753662109 3 45 3 M 45 0 C 69.85281372070312 0 90 20.14718627929688 90 45 C 90 69.85281372070312 69.85281372070312 90 45 90 C 20.14718627929688 90 0 69.85281372070312 0 45 C 0 20.14718627929688 20.14718627929688 0 45 0 Z" stroke="none" fill="#6f6e88"/>
          </g>
        </g>
      </g>
    </g>
    <g id="amnesia" transform="translate(232 2444.232)">
      <g id="Group_1152492" data-name="Group 1152492" transform="translate(1.182 1.143)">
        <g id="Group_1152488" data-name="Group 1152488" transform="translate(0 14.277)">
          <path id="Path_984108" data-name="Path 984108" d="M62.732,121.341c-1.577-10.138-9.714-15.057-18.9-16.979,0,0,.23.553-.017-.041-.662-.14-1.519-.38-2.394-.5-4.292-.589-9.235-1.135-13.734.074q-1.082.291-2.159.682l.011,0a22.8,22.8,0,0,0-3.361,1.536,17.159,17.159,0,0,0-9.117,14.29c-.147,2.253-1.118,3.341-1.337,4.283-.267,1.144.95,2.319,1.436,3.45a1.665,1.665,0,0,1-.082,1.469,13.359,13.359,0,0,1-3.761,4.152c-.876.674-1.544,1.277-1.542,2.326,0,1.225.769,2.024,2.415,2.53,3.152.969-.659,3.44-.659,3.44a1.049,1.049,0,0,0,.335,1.448,10.866,10.866,0,0,1,1.308,1.212.247.247,0,0,1-.028.355,1.77,1.77,0,0,0-.74,1.468.974.974,0,0,0,.667.865,4.092,4.092,0,0,1,.995.481.907.907,0,0,1,.29,1.122,3.752,3.752,0,0,0-.579,3.113c.579,2.353,2.554,3.224,4.534,3.548,1.39.228,4.267-.255,7.2-.652,5.171-.7,7.547,3.568,9.071,7.241h0a2.262,2.262,0,0,0,.369.754c.581.793,2.307.895,3.324.6L53.3,159.072A2.483,2.483,0,0,0,55,155.8c-1.477-3.978-3.064-9.534-1.119-11.78.093-.1.018-.024.216-.223,5.756-5.209,7.953-8.685,8.588-14.031h0a34.281,34.281,0,0,0,.042-8.427Z" transform="translate(-7.78 -102.915)" fill="#fed2a4"/>
          <path id="Path_984109" data-name="Path 984109" d="M163.072,139.75a23.973,23.973,0,0,0,3.671-4.758c1.881-3.209,2.255-7.231,2.281-11.167a22.393,22.393,0,0,0-.85-6.529,18.945,18.945,0,0,0-6.886-9.688h0a30.348,30.348,0,0,0-12.1-5.255,0,0,0,0,1,0,0c-.661-.14-1.687-.328-2.563-.451a32.8,32.8,0,0,0-14.335.865,35.061,35.061,0,0,1,11.379-.126c.876.123,1.9.31,2.563.451a0,0,0,0,0,0,0c9.181,1.922,17.99,7.363,19.568,17.5a27.267,27.267,0,0,1,.271,3.969c0,1.616-.115,3.182-.254,4.617a16.615,16.615,0,0,1-3.136,8.28,46.741,46.741,0,0,1-3.608,3.579,5.191,5.191,0,0,0-.372.382c-2.014,2.324-1.729,6.853.867,13.848a.634.634,0,0,1-.032.521.625.625,0,0,1-.4.318l-20.58,5.484a2.707,2.707,0,0,0,2.1,1.121,2.07,2.07,0,0,0,.584-.082l18.358-4.733a2.483,2.483,0,0,0,1.706-3.271c-1.477-3.978-3.149-9.749-1.2-12l.038-.043C160.688,142.009,160.63,142.225,163.072,139.75Z" transform="translate(-113.38 -101.503)" fill="#ffbd86"/>
        </g>
        <g id="Group_1152490" data-name="Group 1152490" transform="translate(11.53 21.685)">
          <path id="Path_984110" data-name="Path 984110" d="M224.3,292.948a4.421,4.421,0,0,0-3.412.837,3.344,3.344,0,1,0-.856,6.341.15.15,0,0,1,.14.051,4.434,4.434,0,0,0,7.385-.929c.177-.368-.4-.886-.331-1.309C227.633,295.524,226.715,293.356,224.3,292.948Z" transform="translate(-196.029 -271.226)" fill="#dc4955"/>
          <path id="Path_984111" data-name="Path 984111" d="M227.933,298.056a4.384,4.384,0,0,1-.378,1.189,8.59,8.59,0,0,1-6.535-1.233,7.562,7.562,0,0,1-4.007,1.056,3.344,3.344,0,0,1,3.035-5.544,3.379,3.379,0,0,1,.84.259,4.432,4.432,0,0,1,7.046,4.273Z" transform="translate(-196.027 -271.224)" fill="#d82f3c"/>
          <path id="Path_984112" data-name="Path 984112" d="M186.429,314.5l-2.275.058a1.184,1.184,0,0,1-1.138-.854l-.677-.8-3.417-8.965,5.02-1.369,3.413,10.889A.823.823,0,0,1,186.429,314.5Z" transform="translate(-164.458 -279.437)" fill="#df646e"/>
          <path id="Path_984113" data-name="Path 984113" d="M205.811,314.338l-2.661.012a1.843,1.843,0,0,1-1.408-1.141l-.324-.819,2.752,0a.412.412,0,0,0,.463-.522l-2.836-9.481,1.558-.425,3.384,11.327A.823.823,0,0,1,205.811,314.338Z" transform="translate(-183.536 -278.927)" fill="#dc4955"/>
          <path id="Path_984114" data-name="Path 984114" d="M118.845,166.573a.412.412,0,0,1,.074-.51,5.352,5.352,0,0,0,1.632-3.086,5.528,5.528,0,0,0-3.821-6.468q-.112-.028-.227-.051a.4.4,0,0,1-.3-.28,5.6,5.6,0,0,0-8.7-2.94.41.41,0,0,1-.581-.1,6.614,6.614,0,0,0-10.443-.57.273.273,0,0,1-.327.071A5.035,5.035,0,0,0,88.988,156a.277.277,0,0,1-.216.211,5.936,5.936,0,0,0-4.152,8.453.276.276,0,0,1-.02.28,5.184,5.184,0,0,0,6.98,7.354c.2-.12.448-.52.627-.665a.272.272,0,0,1,.435.146,4.19,4.19,0,0,0,4.784,3.13.4.4,0,0,1,.375.135,3.28,3.28,0,0,0,1.987,1.045,3.125,3.125,0,0,0,2.609-.7.413.413,0,0,1,.478-.042,4.923,4.923,0,0,0,1.623.682,4.5,4.5,0,0,0,4.269-1.361,6.641,6.641,0,0,0,.955.778,6.149,6.149,0,0,0,2.765.67,6.363,6.363,0,0,0,7.15-4.847A6.28,6.28,0,0,0,118.845,166.573Z" transform="translate(-83.692 -150.277)" fill="#df646e"/>
          <g id="Group_1152489" data-name="Group 1152489" transform="translate(8.885 6.218)">
            <path id="Path_984115" data-name="Path 984115" d="M265.238,206.187a6.654,6.654,0,0,1-10.167,3.987,6.549,6.549,0,0,0,.853.176,6.652,6.652,0,0,0,6.63-9.982.406.406,0,0,1,.073-.507,5.578,5.578,0,0,0,1.684-3.144,5.656,5.656,0,0,0-2.29-5.5,5.644,5.644,0,0,1,4.225,6.38,5.578,5.578,0,0,1-1.684,3.144.406.406,0,0,0-.073.507A6.627,6.627,0,0,1,265.238,206.187Z" transform="translate(-237.926 -191.218)" fill="#dc4955"/>
            <path id="Path_984116" data-name="Path 984116" d="M142.187,284.039a4.209,4.209,0,0,0,4.8,3.117.4.4,0,0,1,.374.135,3.3,3.3,0,0,0,4.642.378.413.413,0,0,1,.477-.042,4.632,4.632,0,0,0,1.6.587,4.691,4.691,0,0,0,3.931-1.168,4.374,4.374,0,0,0,.459-.484,7.661,7.661,0,0,0,1.234-1.552l-.559-.459c-.266.492-.868.952-1.359,1.618-1.107,1.028-4.206.181-5.343-.476a.939.939,0,0,0-.957.012,3.74,3.74,0,0,1-2.413.6,3.508,3.508,0,0,1-1.812-.868.956.956,0,0,0-.9-.253,1.89,1.89,0,0,1-1.079-.072,3.6,3.6,0,0,1-2.772-2.784Z" transform="translate(-142.187 -268.486)" fill="#dc4955"/>
          </g>
        </g>
        <g id="Group_1152491" data-name="Group 1152491" transform="translate(30.638)">
          <path id="Path_984117" data-name="Path 984117" d="M253.8,94.375c0-1.112-.155-2.062-1.077-2.544A2.887,2.887,0,0,0,248.5,94.39a2.906,2.906,0,0,0,.032.431,2.611,2.611,0,0,0,2.87,2.088A2.222,2.222,0,0,0,253.8,94.375Z" transform="translate(-242.577 -78.746)" fill="#faf8f8"/>
          <circle id="Ellipse_11654" data-name="Ellipse 11654" cx="3.937" cy="3.937" r="3.937" transform="translate(13.238 25.365)" fill="#faf8f8"/>
          <path id="Path_984118" data-name="Path 984118" d="M450.307,119.536c0-1.27-.166-2.275-1.151-2.928a3.647,3.647,0,0,0-5.541,3.954c.405,1.571,2.144,2.347,3.842,2.347C449.47,122.91,450.307,121.549,450.307,119.536Z" transform="translate(-407.959 -99.525)" fill="#faf8f8"/>
          <path id="Path_984119" data-name="Path 984119" d="M321.4,107.623a2.873,2.873,0,0,0-1.248-2.713,3.116,3.116,0,0,0-4.6,3.285c.271,1.443,1.766,2.065,3.288,2.065A2.308,2.308,0,0,0,321.4,107.623Z" transform="translate(-299.4 -89.77)" fill="#faf8f8"/>
          <path id="Path_984120" data-name="Path 984120" d="M381.273,156.537c0-1.159-.179-2.089-1.119-2.625a3.116,3.116,0,0,0-4.6,3.285c.271,1.443,1.949,1.927,3.47,1.927C380.744,159.124,381.273,158.256,381.273,156.537Z" transform="translate(-350.287 -131.329)" fill="#faf8f8"/>
          <path id="Path_984121" data-name="Path 984121" d="M295.672,32.115a3.307,3.307,0,0,0-1.371-2.976,3.723,3.723,0,0,0-5.676,4.049,3.634,3.634,0,0,0,3.75,2.417A3.189,3.189,0,0,0,295.672,32.115Z" transform="translate(-276.501 -25.314)" fill="#faf8f8"/>
          <path id="Path_984122" data-name="Path 984122" d="M466.146,10.957a3.325,3.325,0,0,0-1.318-2.869,3.419,3.419,0,0,0-5.241,3.605,3.478,3.478,0,0,0,3.572,2.366A2.816,2.816,0,0,0,466.146,10.957Z" transform="translate(-421.529 -7.504)" fill="#faf8f8"/>
          <path id="Path_984123" data-name="Path 984123" d="M409.742,228.848a2.124,2.124,0,0,0-1.2-2.211,2.28,2.28,0,0,0-3.045,2.146,2.316,2.316,0,0,0,2.509,2.063C409.269,230.846,409.742,230.106,409.742,228.848Z" transform="translate(-375.732 -193.241)" fill="#faf8f8"/>
          <path id="Path_984124" data-name="Path 984124" d="M213.832,43.735a2.036,2.036,0,0,0-1.294-2.1,2.28,2.28,0,0,0-3.038,2.149c0,.007,0,.014,0,.021a2.206,2.206,0,0,0,2.445,1.974A1.783,1.783,0,0,0,213.832,43.735Z" transform="translate(-209.5 -36.34)" fill="#faf8f8"/>
          <path id="Path_984125" data-name="Path 984125" d="M384.719,65.025c-.164-.164-.23-.449-.414-.578a3.927,3.927,0,0,0-6.027,4.3c.178.618.844,1.1,1.331,1.587,1.533,1.533,3.534,1.323,5.067-.21A3.4,3.4,0,0,0,384.719,65.025Z" transform="translate(-352.514 -55.196)" fill="#faf8f8"/>
          <path id="Path_984126" data-name="Path 984126" d="M232.964,161.934a2.265,2.265,0,0,0-1.276-2.278,2.356,2.356,0,0,0-3.188,2.2c0,.025,0,.051,0,.076a2.288,2.288,0,0,0,2.5,2.018A1.778,1.778,0,0,0,232.964,161.934Z" transform="translate(-225.614 -136.418)" fill="#faf8f8"/>
        </g>
        <path id="Path_984127" data-name="Path 984127" d="M254.45,96.222a2.886,2.886,0,0,1-5.74.431,2.887,2.887,0,0,0,4.189-2.989A2.883,2.883,0,0,1,254.45,96.222Z" transform="translate(-212.117 -80.578)" fill="#f0e9e6"/>
        <path id="Path_984128" data-name="Path 984128" d="M305.238,182.1a3.936,3.936,0,0,1-7.747.986A3.934,3.934,0,0,0,303.6,179.8a3.831,3.831,0,0,0-.126-.986A3.925,3.925,0,0,1,305.238,182.1Z" transform="translate(-253.488 -152.794)" fill="#f0e9e6"/>
        <path id="Path_984129" data-name="Path 984129" d="M451.443,123.033a3.645,3.645,0,0,1-7.173.913,3.643,3.643,0,0,0,5.655-3.039,3.546,3.546,0,0,0-.117-.913A3.635,3.635,0,0,1,451.443,123.033Z" transform="translate(-377.974 -102.909)" fill="#f0e9e6"/>
        <path id="Path_984130" data-name="Path 984130" d="M322.033,109.9a3.113,3.113,0,0,1-6.173.579,3.112,3.112,0,0,0,4.654-2.705,3.028,3.028,0,0,0-.055-.579A3.108,3.108,0,0,1,322.033,109.9Z" transform="translate(-269.067 -92.053)" fill="#f0e9e6"/>
        <path id="Path_984131" data-name="Path 984131" d="M382.033,158.9a3.113,3.113,0,0,1-6.173.579,3.112,3.112,0,0,0,4.654-2.705,3.028,3.028,0,0,0-.055-.579A3.108,3.108,0,0,1,382.033,158.9Z" transform="translate(-319.954 -133.61)" fill="#f0e9e6"/>
        <path id="Path_984132" data-name="Path 984132" d="M296.646,35.753a3.722,3.722,0,0,1-7.316.963A3.723,3.723,0,0,0,295,32.664,3.722,3.722,0,0,1,296.646,35.753Z" transform="translate(-246.567 -28.843)" fill="#f0e9e6"/>
        <path id="Path_984133" data-name="Path 984133" d="M466.827,13.822a3.417,3.417,0,0,1-6.747.772,3.418,3.418,0,0,0,5.14-3.67A3.41,3.41,0,0,1,466.827,13.822Z" transform="translate(-391.383 -10.405)" fill="#f0e9e6"/>
        <path id="Path_984134" data-name="Path 984134" d="M410.057,229.512a2.278,2.278,0,0,1-4.557.021,2.254,2.254,0,0,0,.759.131,2.279,2.279,0,0,0,2.278-2.278v-.021A2.278,2.278,0,0,1,410.057,229.512Z" transform="translate(-345.093 -193.971)" fill="#f0e9e6"/>
        <path id="Path_984135" data-name="Path 984135" d="M214.057,44.512a2.278,2.278,0,0,1-4.557.021,2.254,2.254,0,0,0,.759.131,2.279,2.279,0,0,0,2.278-2.278v-.021a2.278,2.278,0,0,1,1.519,2.148Z" transform="translate(-178.862 -37.069)" fill="#f0e9e6"/>
        <path id="Path_984136" data-name="Path 984136" d="M385.688,74.414a3.925,3.925,0,0,1-6.548-1.689,3.925,3.925,0,0,0,6.025-4.3,3.819,3.819,0,0,1,.522.437A3.928,3.928,0,0,1,385.688,74.414Z" transform="translate(-322.736 -59.171)" fill="#f0e9e6"/>
        <path id="Path_984137" data-name="Path 984137" d="M233.217,162.706a2.354,2.354,0,0,1-4.707.076,2.356,2.356,0,0,0,3.188-2.2c0-.026,0-.05,0-.076A2.355,2.355,0,0,1,233.217,162.706Z" transform="translate(-194.985 -137.266)" fill="#f0e9e6"/>
      </g>
      <g id="Group_1152493" data-name="Group 1152493" transform="translate(0 0.004)">
        <path id="Path_984138" data-name="Path 984138" d="M313.3,246.234a1.139,1.139,0,0,0-1.16,1.118c-.132,7.2-1.355,10.658-8.334,16.962-1.288,1.163-1.727,3.138-1.344,6.036a1.139,1.139,0,0,0,1.128.99,1.122,1.122,0,0,0,.151-.01,1.139,1.139,0,0,0,.98-1.279c-.266-2.012-.049-3.45.612-4.047,3.745-3.383,5.9-5.99,7.2-8.718,1.258-2.634,1.8-5.5,1.884-9.893A1.139,1.139,0,0,0,313.3,246.234Z" transform="translate(-256.407 -208.835)"/>
        <path id="Path_984139" data-name="Path 984139" d="M49.536,189.6a1.139,1.139,0,1,0-2.165.71c.212.647.451,1.328.709,2.023a1.343,1.343,0,0,1-.925,1.771l-18.393,4.733a1.351,1.351,0,0,1-1.584-.794c-1.116-2.744-3.731-9.172-10.429-8.265-1.867.258-5.8.863-6.872.656-2.76-.451-3.388-1.755-3.62-2.7a2.8,2.8,0,0,1,.468-2.284,2.042,2.042,0,0,0-.636-2.617,5.131,5.131,0,0,0-1.165-.583,1.125,1.125,0,0,1,.457-.524,1.139,1.139,0,0,0,.238-1.619,10.155,10.155,0,0,0-1.608-1.556c.829-.628,2.108-1.833,1.919-3.188-.088-.632-.513-1.483-2.037-1.951-1.612-.495-1.614-1.112-1.614-1.444,0-.451.235-.757,1.1-1.421a14.59,14.59,0,0,0,4.066-4.5,2.813,2.813,0,0,0,.136-2.478,9.281,9.281,0,0,0-.712-1.27c-.327-.518-.735-1.162-.663-1.471a4.842,4.842,0,0,1,.33-.794,9.37,9.37,0,0,0,1.038-3.674,15.906,15.906,0,0,1,3.371-9.031,1.139,1.139,0,0,0-1.785-1.415,18.142,18.142,0,0,0-3.859,10.3,7.179,7.179,0,0,1-.823,2.847,6.3,6.3,0,0,0-.49,1.252,4.263,4.263,0,0,0,.956,3.206,7.541,7.541,0,0,1,.545.953.522.522,0,0,1-.029.46,12.1,12.1,0,0,1-3.469,3.807A4.038,4.038,0,0,0,0,171.977c0,1.745,1.089,2.961,3.224,3.617a2.172,2.172,0,0,1,.389.154,5,5,0,0,1-1.334,1.24,1.139,1.139,0,0,0-.316.306,2.179,2.179,0,0,0,.561,2.99c.235.187.436.36.6.515a2.68,2.68,0,0,0-.067,3.011c.332.451.733.416,1.533.781a4.67,4.67,0,0,0-.551,3.691c.6,2.425,2.437,3.9,5.465,4.4,1.5.266,4.91-.287,7.545-.647,4.349-.588,6.422,2.952,8.013,6.866a3.631,3.631,0,0,0,4.262,2.142l18.393-4.733a3.622,3.622,0,0,0,2.493-4.771c-.248-.668-.477-1.32-.68-1.939Z" transform="translate(0 -123.392)"/>
        <path id="Path_984140" data-name="Path 984140" d="M85.363,100.494a1.134,1.134,0,0,0,.647-.2,25.107,25.107,0,0,1,14.182-4.01c.684,0,1.381.019,2.072.055a1.139,1.139,0,1,0,.121-2.275c-.73-.039-1.468-.058-2.192-.058a27.394,27.394,0,0,0-15.479,4.415,1.139,1.139,0,0,0,.649,2.076Z" transform="translate(-71.431 -79.727)"/>
        <path id="Path_984141" data-name="Path 984141" d="M131.977,244.558a5.6,5.6,0,0,0,.877.069,5.677,5.677,0,0,0,3.469-1.184,5.6,5.6,0,0,0,2.164-3.936s0,0,0-.006a7.993,7.993,0,0,0,1.187-.713,7.854,7.854,0,0,0,3.161-5.159,1.139,1.139,0,0,0-2.25-.356,5.625,5.625,0,0,1-8.71,3.78,5.912,5.912,0,0,0,.407-.915,1.139,1.139,0,1,0-2.153-.744,3.6,3.6,0,0,1-5.4,1.812,1.139,1.139,0,0,0-1.452.153,2.223,2.223,0,0,1-3.372-.2,1.139,1.139,0,0,0-1.176-.42,3.122,3.122,0,0,1-1.23.049,3.154,3.154,0,0,1-2.64-3.351,1.139,1.139,0,0,0-.876-1.2,1.575,1.575,0,0,1-.694-2.7,1.766,1.766,0,0,1,1.374-.373,1.139,1.139,0,0,0,1.336-.85,2.645,2.645,0,0,1,4.024-1.589,1.139,1.139,0,0,0,1.052.106,3.89,3.89,0,0,1,3.724.452,4.2,4.2,0,0,0-.467,1.37,1.139,1.139,0,1,0,2.25.356,1.919,1.919,0,0,1,3.658-.461,1.139,1.139,0,0,0,2.09-.906,4.2,4.2,0,0,0-5.91-1.991,6.182,6.182,0,0,0-5.653-1.123,4.924,4.924,0,0,0-6.663,2.333A3.854,3.854,0,0,0,112.344,234a4.1,4.1,0,0,1-2.3.7h0a1.139,1.139,0,0,0,0,2.278h0a6.362,6.362,0,0,0,3.128-.818,5.41,5.41,0,0,0,5.389,2.91,4.466,4.466,0,0,0,1.143.793l2.466,7.72a2.557,2.557,0,0,0,2.444,1.785h2.753a2.051,2.051,0,0,0,1.967-2.629l-1.09-3.708a2.341,2.341,0,0,1,1.175.43,5.655,5.655,0,0,0,2.553,1.1Zm-7.359,2.533a.286.286,0,0,1-.274-.2l-2.113-6.614a4.517,4.517,0,0,0,1.981-.748,5.774,5.774,0,0,0,.714.28l2.14,7.281h-2.449Zm3.743-6.341a2.263,2.263,0,0,1-.883-.34l-.1-.351A5.871,5.871,0,0,0,130.4,238.8a7.864,7.864,0,0,0,3.388,1.4,8,8,0,0,0,1.254.1,7.881,7.881,0,0,0,.944-.057,3.373,3.373,0,0,1-5.176,1.413,4.611,4.611,0,0,0-2.333-.89Z" transform="translate(-92.364 -189.982)"/>
        <path id="Path_984142" data-name="Path 984142" d="M76.092,164.083a1.139,1.139,0,0,0,.965-1.743,4.133,4.133,0,0,1-.576-2.837,4.091,4.091,0,0,1,.723-1.762,1.139,1.139,0,0,0,.075-1.209,4.853,4.853,0,0,1-.534-3.1,4.905,4.905,0,0,1,3.974-4.057,1.139,1.139,0,0,0,.919-.916,3.983,3.983,0,0,1,5.815-2.785,1.139,1.139,0,0,0,1.435-.293,5.6,5.6,0,0,1,5.257-2.05,1.139,1.139,0,0,0,.356-2.25,7.885,7.885,0,0,0-6.8,2.214,6.262,6.262,0,0,0-8.119,4.011,7.187,7.187,0,0,0-5.087,5.771A7.105,7.105,0,0,0,74.977,157a6.347,6.347,0,0,0-.747,2.147,6.412,6.412,0,0,0,.894,4.4,1.138,1.138,0,0,0,.967.536Z" transform="translate(-62.889 -119.569)"/>
        <path id="Path_984143" data-name="Path 984143" d="M245.025,92.054A4.025,4.025,0,1,0,241,88.029,4.03,4.03,0,0,0,245.025,92.054Zm0-5.772a1.747,1.747,0,1,1-1.747,1.747A1.749,1.749,0,0,1,245.025,86.282Z" transform="translate(-204.396 -71.246)"/>
        <path id="Path_984144" data-name="Path 984144" d="M302.569,171.788a4.784,4.784,0,1,0-4.784,4.784A4.79,4.79,0,0,0,302.569,171.788Zm-4.784,2.506a2.506,2.506,0,1,1,2.506-2.506A2.509,2.509,0,0,1,297.784,174.294Z" transform="translate(-248.498 -141.639)"/>
        <path id="Path_984145" data-name="Path 984145" d="M440.784,108.5a4.784,4.784,0,1,0,4.784,4.784A4.79,4.79,0,0,0,440.784,108.5Zm0,7.29a2.506,2.506,0,1,1,2.506-2.506A2.509,2.509,0,0,1,440.784,115.794Z" transform="translate(-369.778 -92.025)"/>
        <path id="Path_984146" data-name="Path 984146" d="M308,101.257A4.253,4.253,0,1,0,312.253,97,4.258,4.258,0,0,0,308,101.257Zm6.227,0a1.975,1.975,0,1,1-1.975-1.975A1.977,1.977,0,0,1,314.227,101.257Z" transform="translate(-261.22 -82.271)"/>
        <path id="Path_984147" data-name="Path 984147" d="M376.506,150.257a4.253,4.253,0,1,0-4.253,4.253A4.258,4.258,0,0,0,376.506,150.257Zm-4.253,1.974a1.974,1.974,0,1,1,1.975-1.974A1.977,1.977,0,0,1,372.253,152.231Z" transform="translate(-312.107 -123.829)"/>
        <path id="Path_984148" data-name="Path 984148" d="M285.86,30.725a4.86,4.86,0,1,0-4.86-4.86A4.866,4.866,0,0,0,285.86,30.725Zm0-7.442a2.582,2.582,0,1,1-2.582,2.582A2.585,2.585,0,0,1,285.86,23.282Z" transform="translate(-238.321 -17.814)"/>
        <path id="Path_984149" data-name="Path 984149" d="M456.557,0a4.557,4.557,0,1,0,4.557,4.557A4.562,4.562,0,0,0,456.557,0Zm0,6.835a2.278,2.278,0,1,1,2.278-2.278A2.281,2.281,0,0,1,456.557,6.839Z" transform="translate(-383.348 -0.004)"/>
        <path id="Path_984150" data-name="Path 984150" d="M401.417,219a3.417,3.417,0,1,0,3.417,3.417A3.421,3.421,0,0,0,401.417,219Zm0,4.557a1.139,1.139,0,1,1,1.139-1.139A1.14,1.14,0,0,1,401.417,223.561Z" transform="translate(-337.55 -185.741)"/>
        <path id="Path_984151" data-name="Path 984151" d="M205.417,40.839A3.417,3.417,0,1,0,202,37.421,3.421,3.421,0,0,0,205.417,40.839Zm0-4.557a1.139,1.139,0,1,1-1.139,1.139A1.14,1.14,0,0,1,205.417,36.282Z" transform="translate(-171.319 -28.84)"/>
        <path id="Path_984152" data-name="Path 984152" d="M375.7,66.379a5.065,5.065,0,1,0-3.581-1.484A5.031,5.031,0,0,0,375.7,66.379Zm-1.97-7.035a2.787,2.787,0,1,1,0,3.941A2.778,2.778,0,0,1,373.734,59.344Z" transform="translate(-314.347 -47.709)"/>
        <path id="Path_984153" data-name="Path 984153" d="M227.987,155.5a3.493,3.493,0,1,0-3.493,3.493A3.5,3.5,0,0,0,227.987,155.5Zm-4.708,0a1.215,1.215,0,1,1,1.215,1.215A1.217,1.217,0,0,1,223.278,155.5Z" transform="translate(-187.434 -128.918)"/>
      </g>
    </g>
  </g>
</svg>
