<svg xmlns="http://www.w3.org/2000/svg" xmlns:xlink="http://www.w3.org/1999/xlink" width="99.504" height="99.504" viewBox="0 0 99.504 99.504">
  <defs>
    <filter id="Path_982547" x="0" y="0" width="99.504" height="99.504" filterUnits="userSpaceOnUse">
      <feOffset dy="3" input="SourceAlpha"/>
      <feGaussianBlur stdDeviation="3" result="blur"/>
      <feFlood flood-opacity="0.161"/>
      <feComposite operator="in" in2="blur"/>
      <feComposite in="SourceGraphic"/>
    </filter>
  </defs>
  <g id="Group_1152450" data-name="Group 1152450" transform="translate(-614.496 -1916)">
    <g id="Group_1146974" data-name="Group 1146974" transform="translate(623.496 1922)">
      <g id="Group_1146954" data-name="Group 1146954">
        <g transform="matrix(1, 0, 0, 1, -9, -6)" filter="url(#Path_982547)">
          <g id="Path_982547-2" data-name="Path 982547" transform="translate(9 6)" fill="#fff6f9">
            <path d="M 40.7520751953125 80.00415802001953 C 35.45241546630859 80.00415802001953 30.31208610534668 78.96654510498047 25.47385215759277 76.92014312744141 C 20.79992294311523 74.9432373046875 16.60199356079102 72.11281585693359 12.99666309356689 68.50748443603516 C 9.391345977783203 64.90216064453125 6.560910701751709 60.70422744750977 4.584004402160645 56.03028869628906 C 2.53761625289917 51.19206237792969 1.500004649162292 46.05173492431641 1.500004649162292 40.7520751953125 C 1.500004649162292 35.45241546630859 2.53761625289917 30.31208610534668 4.584004402160645 25.47385215759277 C 6.560910701751709 20.79992294311523 9.391345977783203 16.60199356079102 12.99666309356689 12.99666309356689 C 16.60199356079102 9.391345977783203 20.79992294311523 6.560910701751709 25.47385215759277 4.584004402160645 C 30.31208610534668 2.53761625289917 35.45241546630859 1.500004649162292 40.7520751953125 1.500004649162292 C 46.05173492431641 1.500004649162292 51.19206237792969 2.53761625289917 56.03028869628906 4.584004402160645 C 60.70422744750977 6.560910701751709 64.90216064453125 9.391345977783203 68.50748443603516 12.99666309356689 C 72.11281585693359 16.60199356079102 74.9432373046875 20.79992294311523 76.92014312744141 25.47385215759277 C 78.96654510498047 30.31208610534668 80.00415802001953 35.45241546630859 80.00415802001953 40.7520751953125 C 80.00415802001953 46.05173492431641 78.96654510498047 51.19206237792969 76.92014312744141 56.03028869628906 C 74.9432373046875 60.70421600341797 72.11281585693359 64.90216064453125 68.50748443603516 68.50748443603516 C 64.90216064453125 72.11281585693359 60.70421600341797 74.9432373046875 56.03028869628906 76.92014312744141 C 51.19206237792969 78.96654510498047 46.05173492431641 80.00415802001953 40.7520751953125 80.00415802001953 Z" stroke="none"/>
            <path d="M 40.7520751953125 2.999992370605469 C 35.65426254272461 2.999992370605469 30.71051406860352 3.99774169921875 26.05818176269531 5.96551513671875 C 21.56304931640625 7.866798400878906 17.52538299560547 10.58927154541016 14.05732727050781 14.05732727050781 C 10.58927154541016 17.52538299560547 7.866798400878906 21.56304931640625 5.96551513671875 26.05818176269531 C 3.99774169921875 30.71051406860352 2.999992370605469 35.65426254272461 2.999992370605469 40.7520751953125 C 2.999992370605469 45.84988784790039 3.99774169921875 50.79363250732422 5.96551513671875 55.44596862792969 C 7.866798400878906 59.94110107421875 10.58927154541016 63.97876739501953 14.05732727050781 67.44682312011719 C 17.52538299560547 70.91487121582031 21.56304931640625 73.63735198974609 26.05818176269531 75.53863525390625 C 30.71051406860352 77.50640869140625 35.65426254272461 78.50415802001953 40.7520751953125 78.50415802001953 C 45.84988784790039 78.50415802001953 50.79363250732422 77.50640869140625 55.44596862792969 75.53863525390625 C 59.94110107421875 73.63735198974609 63.97876739501953 70.91487121582031 67.44682312011719 67.44682312011719 C 70.91487121582031 63.97876739501953 73.63735198974609 59.94110107421875 75.53863525390625 55.44596862792969 C 77.50640869140625 50.79363250732422 78.50415802001953 45.84988784790039 78.50415802001953 40.7520751953125 C 78.50415802001953 35.65426254272461 77.50640869140625 30.71051406860352 75.53863525390625 26.05818176269531 C 73.63735198974609 21.56304931640625 70.91487121582031 17.52538299560547 67.44682312011719 14.05732727050781 C 63.97876739501953 10.58927154541016 59.94110107421875 7.866798400878906 55.44596862792969 5.96551513671875 C 50.79363250732422 3.99774169921875 45.84988784790039 2.999992370605469 40.7520751953125 2.999992370605469 M 40.7520751953125 -7.62939453125e-06 C 63.25881958007812 -7.62939453125e-06 81.50415802001953 18.24532699584961 81.50415802001953 40.7520751953125 C 81.50415802001953 63.25881958007812 63.25881958007812 81.50415802001953 40.7520751953125 81.50415802001953 C 18.24532699584961 81.50415802001953 -7.62939453125e-06 63.25881958007812 -7.62939453125e-06 40.7520751953125 C -7.62939453125e-06 18.24532699584961 18.24532699584961 -7.62939453125e-06 40.7520751953125 -7.62939453125e-06 Z" stroke="none" fill="#ffaece"/>
          </g>
        </g>
      </g>
    </g>
    <g id="brain_12283601" transform="translate(631.436 1927.25)">
      <g id="Color" transform="translate(4.672 5.017)">
        <path id="Path_983994" data-name="Path 983994" d="M32.139,4.266V62.7a9.122,9.122,0,0,1-4.69,1.266,9.36,9.36,0,0,1-9.075-7.035h-.3a9.377,9.377,0,0,1-9.38-9.38A9.272,9.272,0,0,1,10,42.77a7.014,7.014,0,0,1-.8-13.718,6.872,6.872,0,0,1-.516-2.6,7.069,7.069,0,0,1,3.236-5.933A7.051,7.051,0,0,1,18.07,10.035h.3A9.357,9.357,0,0,1,32.139,4.266Z" transform="translate(-4 -3)" fill="#f45151"/>
        <path id="Path_983995" data-name="Path 983995" d="M44.139,33.417a30.181,30.181,0,0,1-6.1,18.267A30.416,30.416,0,0,1,16,63.808V3.05a30.391,30.391,0,0,1,22.043,12.1,30.181,30.181,0,0,1,6.1,18.267Z" transform="translate(12.139 -2.933)" fill="#43b3ff"/>
      </g>
      <g id="Outline" transform="translate(3.5 1.5)">
        <g id="Group_1152449" data-name="Group 1152449">
          <path id="Path_983996" data-name="Path 983996" d="M12.672,20.5a1.172,1.172,0,0,0,0,2.345,3.521,3.521,0,0,1,3.517,3.517,1.172,1.172,0,1,0,2.345,0A5.869,5.869,0,0,0,12.672,20.5Z" transform="translate(7.26 24.054)"/>
          <path id="Path_983997" data-name="Path 983997" d="M16.362,15.845a1.172,1.172,0,0,0,0-2.345A5.869,5.869,0,0,0,10.5,19.362a1.172,1.172,0,0,0,2.345,0A3.521,3.521,0,0,1,16.362,15.845Z" transform="translate(5.915 14.639)"/>
          <path id="Path_983998" data-name="Path 983998" d="M12.672,12.19a1.172,1.172,0,0,0,1.172-1.172,1.173,1.173,0,0,1,1.172-1.172,1.172,1.172,0,1,0,0-2.345A3.521,3.521,0,0,0,11.5,11.017,1.172,1.172,0,0,0,12.672,12.19Z" transform="translate(7.26 6.57)"/>
          <path id="Path_983999" data-name="Path 983999" d="M55.612,54.652c.015-.013.035-.017.05-.031a1.152,1.152,0,0,0,.28-.439A31.4,31.4,0,0,0,55.7,16.446c-.018-.019-.025-.044-.044-.062l-.007,0a32.066,32.066,0,0,0-3.173-3.622,1.173,1.173,0,1,0-1.63,1.685,29.816,29.816,0,0,1,2.419,2.675A26.266,26.266,0,0,1,46.384,21.9c-1.627-6.258-4.362-11.368-7.8-14.54a28.392,28.392,0,0,1,4.913,1.9,1.173,1.173,0,1,0,1.049-2.1A31.084,31.084,0,0,0,33.984,4.1V2.673a1.172,1.172,0,1,0-2.345,0V4.479A10.4,10.4,0,0,0,18.2,10.935a8.162,8.162,0,0,0-7.038,11.287A8.168,8.168,0,0,0,8.19,28.467a8.007,8.007,0,0,0,.247,1.861,8.189,8.189,0,0,0,.548,15.245,10.5,10.5,0,0,0,9.216,14.5,10.434,10.434,0,0,0,13.439,6.465v1.8a1.172,1.172,0,1,0,2.345,0v-1.4A31.621,31.621,0,0,0,55.612,54.652ZM54.7,18.991a29.145,29.145,0,0,1-.055,32.971,28.81,28.81,0,0,0-7.71-5.182A55.706,55.706,0,0,0,48.054,35.5a55.714,55.714,0,0,0-1.123-11.278A28.784,28.784,0,0,0,54.7,18.991ZM33.984,64.006v-17.9A31.528,31.528,0,0,1,44.2,48.142C42.236,55.94,38.522,61.91,33.984,64.006Zm0-20.242V27.239a33.917,33.917,0,0,0,10.73-2.082A53.318,53.318,0,0,1,45.709,35.5a53.319,53.319,0,0,1-.994,10.345,33.915,33.915,0,0,0-10.73-2.082ZM44.2,22.861a31.531,31.531,0,0,1-10.213,2.034V7c4.538,2.1,8.252,8.066,10.213,15.864ZM28.122,64.814a8.217,8.217,0,0,1-8.207-8.207,1.172,1.172,0,0,0-2.345,0,10.333,10.333,0,0,0,.108,1.065,8.182,8.182,0,0,1-3.038-15.21,1.172,1.172,0,0,0-1.175-2.029,10.51,10.51,0,0,0-3.3,3.036,5.843,5.843,0,0,1,1.547-11.484,1.172,1.172,0,0,0,0-2.345,8.054,8.054,0,0,0-1.01.1,5.646,5.646,0,0,1-.162-1.275A5.841,5.841,0,0,1,12.4,24.226a8.16,8.16,0,0,0,6.347,3.068,1.172,1.172,0,0,0,0-2.345,5.857,5.857,0,0,1-1.065-11.617A10.335,10.335,0,0,0,17.57,14.4a1.172,1.172,0,1,0,2.345,0A8.16,8.16,0,0,1,31.639,7.01v57a8.2,8.2,0,0,1-3.517.808Zm10.453-1.163c3.442-3.172,6.18-8.285,7.809-14.547a26.288,26.288,0,0,1,6.855,4.752A29.392,29.392,0,0,1,38.575,63.651Z" transform="translate(-3.5 -1.5)"/>
          <path id="Path_984000" data-name="Path 984000" d="M22.437,5.151a1.172,1.172,0,1,0,1.649.173A1.173,1.173,0,0,0,22.437,5.151Z" transform="translate(21.385 3.059)"/>
        </g>
      </g>
    </g>
  </g>
</svg>
