<svg xmlns="http://www.w3.org/2000/svg" xmlns:xlink="http://www.w3.org/1999/xlink" width="113" height="113" viewBox="0 0 113 113">
  <defs>
    <filter id="Path_982547" x="0" y="0" width="113" height="113" filterUnits="userSpaceOnUse">
      <feOffset dy="3" input="SourceAlpha"/>
      <feGaussianBlur stdDeviation="3" result="blur"/>
      <feFlood flood-opacity="0.161"/>
      <feComposite operator="in" in2="blur"/>
      <feComposite in="SourceGraphic"/>
    </filter>
  </defs>
  <g id="Group_1152476" data-name="Group 1152476" transform="translate(-743.5 -4315.379)">
    <g id="Group_1148634" data-name="Group 1148634" transform="translate(488.454 600.047)">
      <g id="Group_1148525" data-name="Group 1148525" transform="translate(264.046 3721.333)">
        <g transform="matrix(1, 0, 0, 1, -9, -6)" filter="url(#Path_982547)">
          <g id="Path_982547-2" data-name="Path 982547" transform="translate(9 6)" fill="#fff6f9">
            <path d="M 47.5 93.5 C 41.28937149047852 93.5 35.26533508300781 92.28397369384766 29.59518623352051 89.88570404052734 C 24.11771965026855 87.56893157958984 19.19813346862793 84.25196075439453 14.97309303283691 80.02691650390625 C 10.74804019927979 75.80186462402344 7.431066513061523 70.88229370117188 5.114293098449707 65.40481567382812 C 2.716026782989502 59.73468017578125 1.5 53.71062850952148 1.5 47.5 C 1.5 41.28937149047852 2.716026782989502 35.26533508300781 5.114293098449707 29.59518623352051 C 7.431066513061523 24.11771965026855 10.74804019927979 19.19813346862793 14.97309303283691 14.97309303283691 C 19.19813346862793 10.74804019927979 24.11771965026855 7.431066513061523 29.59518623352051 5.114293098449707 C 35.26533508300781 2.716026782989502 41.28937149047852 1.5 47.5 1.5 C 53.71062850952148 1.5 59.73468017578125 2.716026782989502 65.40481567382812 5.114293098449707 C 70.88229370117188 7.431066513061523 75.80186462402344 10.74804019927979 80.02691650390625 14.97309303283691 C 84.25196075439453 19.19813346862793 87.56893157958984 24.11771965026855 89.88570404052734 29.59518623352051 C 92.28397369384766 35.26533508300781 93.5 41.28937149047852 93.5 47.5 C 93.5 53.71062850952148 92.28397369384766 59.73468017578125 89.88570404052734 65.40481567382812 C 87.56893157958984 70.88229370117188 84.25196075439453 75.80186462402344 80.02691650390625 80.02691650390625 C 75.80186462402344 84.25196075439453 70.88229370117188 87.56893157958984 65.40481567382812 89.88570404052734 C 59.73468017578125 92.28397369384766 53.71062850952148 93.5 47.5 93.5 Z" stroke="none"/>
            <path d="M 47.5 3 C 41.49121475219727 3 35.66376876831055 4.176155090332031 30.17950439453125 6.495796203613281 C 24.88084411621094 8.736953735351562 20.12152099609375 11.94598388671875 16.03375244140625 16.03375244140625 C 11.94598388671875 20.12152099609375 8.736953735351562 24.88084411621094 6.495796203613281 30.17950439453125 C 4.176155090332031 35.66376876831055 3 41.49121475219727 3 47.5 C 3 53.50878524780273 4.176155090332031 59.33623123168945 6.495796203613281 64.82049560546875 C 8.736953735351562 70.11915588378906 11.94598388671875 74.87847900390625 16.03375244140625 78.96624755859375 C 20.12152099609375 83.05401611328125 24.88084411621094 86.26304626464844 30.17950439453125 88.50419616699219 C 35.66376876831055 90.82384490966797 41.49121475219727 92 47.5 92 C 53.50878524780273 92 59.33623123168945 90.82384490966797 64.82049560546875 88.50419616699219 C 70.11915588378906 86.26304626464844 74.87847900390625 83.05401611328125 78.96624755859375 78.96624755859375 C 83.05401611328125 74.87847900390625 86.26304626464844 70.11915588378906 88.50419616699219 64.82049560546875 C 90.82384490966797 59.33623123168945 92 53.50878524780273 92 47.5 C 92 41.49121475219727 90.82384490966797 35.66376876831055 88.50419616699219 30.17950439453125 C 86.26304626464844 24.88084411621094 83.05401611328125 20.12152099609375 78.96624755859375 16.03375244140625 C 74.87847900390625 11.94598388671875 70.11915588378906 8.736953735351562 64.82049560546875 6.495796203613281 C 59.33623123168945 4.176155090332031 53.50878524780273 3 47.5 3 M 47.5 0 C 73.7335205078125 0 95 21.2664794921875 95 47.5 C 95 73.7335205078125 73.7335205078125 95 47.5 95 C 21.2664794921875 95 0 73.7335205078125 0 47.5 C 0 21.2664794921875 21.2664794921875 0 47.5 0 Z" stroke="none" fill="#ffaece"/>
          </g>
        </g>
      </g>
    </g>
    <g id="motivation_5100343" transform="translate(730.673 4335.688)">
      <path id="Path_984046" data-name="Path 984046" d="M57.728,66.779h-8.71V10.746A3.246,3.246,0,0,1,52.264,7.5h2.219a3.246,3.246,0,0,1,3.246,3.246Z" transform="translate(-6.528 -6.528)" fill="#5766cb"/>
      <path id="Path_984047" data-name="Path 984047" d="M161.382,67H116.42V9.9A2.175,2.175,0,0,1,118.6,7.72h36.8a5.984,5.984,0,0,1,5.984,5.984V67Z" transform="translate(-65.191 -6.719)" fill="#8993da"/>
      <path id="Path_984048" data-name="Path 984048" d="M395.678,7.5h-3.151a5.984,5.984,0,0,1,5.984,5.984V66.779h3.151v-53.3A5.984,5.984,0,0,0,395.678,7.5Z" transform="translate(-305.499 -6.528)" fill="#707dd3"/>
      <path id="Path_984049" data-name="Path 984049" d="M58.187,425.044a.59.59,0,0,1-.913,0l-.2-.251a2.558,2.558,0,0,0-1.986-.945H52.322a3.3,3.3,0,0,0-3.3,3.3V431a3.3,3.3,0,0,0,3.3,3.3h2.762a2.558,2.558,0,0,0,1.986-.945l.2-.251a.59.59,0,0,1,.913,0,3.3,3.3,0,0,0,2.546,1.2H99.152a3.538,3.538,0,0,0,3.538-3.538v-3.381a3.538,3.538,0,0,0-3.538-3.538H60.733A3.3,3.3,0,0,0,58.187,425.044Z" transform="translate(-6.528 -368.891)" fill="#f9f6f9"/>
      <g id="Group_1152473" data-name="Group 1152473" transform="translate(89.474 54.953)">
        <path id="Path_984050" data-name="Path 984050" d="M414.541,423.844H411.39a3.538,3.538,0,0,1,3.538,3.538v3.381a3.538,3.538,0,0,1-3.538,3.538h3.151a3.538,3.538,0,0,0,3.538-3.538v-3.381A3.538,3.538,0,0,0,414.541,423.844Z" transform="translate(-411.39 -423.844)" fill="#dddaec"/>
      </g>
      <path id="Path_984051" data-name="Path 984051" d="M223.746,64.377H207.387a.613.613,0,0,1-.613-.613V60.822a.613.613,0,0,1,.613-.613h16.359a.613.613,0,0,1,.613.613v2.942A.613.613,0,0,1,223.746,64.377Z" transform="translate(-143.83 -52.403)" fill="#756e78"/>
      <path id="Path_984052" data-name="Path 984052" d="M319.282,60.21h-2.741a.613.613,0,0,1,.613.613v2.942a.613.613,0,0,1-.613.613h2.741a.613.613,0,0,0,.613-.613V60.823A.613.613,0,0,0,319.282,60.21Z" transform="translate(-239.365 -52.404)" fill="#665e66"/>
      <g id="Group_1152474" data-name="Group 1152474" transform="translate(58.86 16.295)">
        <path id="Path_984053" data-name="Path 984053" d="M182.267,128.623a2.97,2.97,0,0,0,.033.442,3.783,3.783,0,0,0-3.354,6.549,3.046,3.046,0,1,0,0,5.962,3.783,3.783,0,0,0,3.354,6.549,2.943,2.943,0,1,0,5.853.442V128.623a2.943,2.943,0,0,0-5.886,0Z" transform="translate(-175.277 -125.68)" fill="#dd636e"/>
        <path id="Path_984054" data-name="Path 984054" d="M280.477,128.623a2.97,2.97,0,0,1-.033.442,3.783,3.783,0,0,1,3.354,6.549,3.046,3.046,0,1,1,0,5.962,3.783,3.783,0,0,1-3.354,6.549,2.943,2.943,0,1,1-5.853.442V128.623a2.943,2.943,0,0,1,5.886,0Z" transform="translate(-261.714 -125.68)" fill="#dd636e"/>
      </g>
      <g id="Group_1152475" data-name="Group 1152475" transform="translate(41.518)">
        <path id="Path_984055" data-name="Path 984055" d="M90.179,0h-36.8A3.144,3.144,0,0,0,50.9,1.2,4.2,4.2,0,0,0,47.955,0H45.737a4.223,4.223,0,0,0-4.218,4.218v3a.972.972,0,1,0,1.945,0v-3a2.276,2.276,0,0,1,2.273-2.273h2.218A2.276,2.276,0,0,1,50.228,4.2V54.4a3.523,3.523,0,0,0-1.672-.419H45.795a4.252,4.252,0,0,0-2.332.693V10.983a.972.972,0,0,0-1.945,0V62.106a4.281,4.281,0,0,0,4.277,4.277h2.762a3.516,3.516,0,0,0,2.665-1.214,4.258,4.258,0,0,0,2.984,1.214H65.567a.972.972,0,1,0,0-1.945H54.206a2.322,2.322,0,0,1-1.8-.847,1.563,1.563,0,0,0-2.418.01l-.2.251a1.579,1.579,0,0,1-1.231.586H45.795a2.334,2.334,0,0,1-2.332-2.332V58.257a2.334,2.334,0,0,1,2.332-2.332h2.762a1.58,1.58,0,0,1,1.231.586l.2.251a1.563,1.563,0,0,0,2.418.009,2.322,2.322,0,0,1,1.8-.846H92.624a2.569,2.569,0,0,1,2.566,2.566v3.381a2.569,2.569,0,0,1-2.566,2.566h-23.3a.972.972,0,0,0,0,1.945h23.3a4.516,4.516,0,0,0,4.511-4.511V6.956A6.964,6.964,0,0,0,90.179,0Zm2.446,53.981H54.206a4.267,4.267,0,0,0-2.033.513V3.148a1.2,1.2,0,0,1,1.2-1.2h36.8A5.017,5.017,0,0,1,95.19,6.956V54.784a4.485,4.485,0,0,0-2.566-.8Z" transform="translate(-41.518)"/>
        <path id="Path_984056" data-name="Path 984056" d="M142.334,446.066h36.492a.972.972,0,1,0,0-1.945H142.334a.972.972,0,1,0,0,1.945Z" transform="translate(-128.417 -386.539)"/>
        <path id="Path_984057" data-name="Path 984057" d="M142.334,471.167h36.492a.972.972,0,1,0,0-1.945H142.334a.972.972,0,1,0,0,1.945Z" transform="translate(-128.417 -408.385)"/>
        <path id="Path_984058" data-name="Path 984058" d="M225.328,358.346H210.367a.972.972,0,1,0,0,1.945h14.961a.972.972,0,1,0,0-1.945Z" transform="translate(-187.629 -311.885)"/>
        <path id="Path_984059" data-name="Path 984059" d="M200.859,58.823h7.915a.972.972,0,0,0,0-1.945h-7.555V54.655h15.641v2.223h-4.326a.972.972,0,0,0,0,1.945h4.685a1.587,1.587,0,0,0,1.586-1.586V54.3a1.587,1.587,0,0,0-1.586-1.586h-16.36a1.587,1.587,0,0,0-1.586,1.586v2.942A1.587,1.587,0,0,0,200.859,58.823Z" transform="translate(-178.819 -45.876)"/>
        <path id="Path_984060" data-name="Path 984060" d="M193.99,128.948a4.019,4.019,0,0,0-1.317-.713,4.756,4.756,0,0,0-4.242-6.778,3.914,3.914,0,0,0-6.807-1.943,3.914,3.914,0,0,0-6.807,1.943,4.756,4.756,0,0,0-4.242,6.778,4.02,4.02,0,0,0,0,7.66,4.756,4.756,0,0,0,4.242,6.778,3.914,3.914,0,0,0,6.807,1.943,3.914,3.914,0,0,0,6.807-1.943,4.756,4.756,0,0,0,4.242-6.778,4.018,4.018,0,0,0,1.317-6.947Zm-15.309,15.059a1.973,1.973,0,0,1-1.971-1.971,1.237,1.237,0,0,0-.283-1.159.973.973,0,0,0-.885-.228,2.811,2.811,0,0,1-2.492-4.866.972.972,0,0,0-.832-1.69,2.073,2.073,0,1,1,0-4.058.972.972,0,0,0,.832-1.69,2.811,2.811,0,0,1,2.492-4.866.972.972,0,0,0,1.19-1.09,2,2,0,0,1-.022-.3,1.971,1.971,0,0,1,3.941,0V127.2a2.81,2.81,0,0,1-1.251-.174q.025-.118.043-.24a.972.972,0,1,0-1.925-.281,1.107,1.107,0,0,1-.521.854.972.972,0,0,0,1.035,1.647,3.131,3.131,0,0,0,.387-.286,4.919,4.919,0,0,0,2.231.428v6.938a4.941,4.941,0,0,0-2.231.428,3.148,3.148,0,0,0-.387-.286A.972.972,0,1,0,177,137.879a1.108,1.108,0,0,1,.521.855.972.972,0,1,0,1.925-.281q-.018-.121-.043-.237a2.85,2.85,0,0,1,1.25-.175v4A1.973,1.973,0,0,1,178.682,144.007Zm14.083-10.335a2.069,2.069,0,0,1-1.735.422.972.972,0,0,0-.832,1.69,2.811,2.811,0,0,1-2.492,4.866.972.972,0,0,0-.885.228,1.235,1.235,0,0,0-.283,1.159,1.971,1.971,0,0,1-3.941,0c0-.233,0,1.519,0-8.826a2.631,2.631,0,0,1,1.866.026q-.025.118-.043.24a.972.972,0,1,0,1.925.281,1.107,1.107,0,0,1,.521-.855.972.972,0,0,0-1.035-1.647,3.137,3.137,0,0,0-.387.286,4.777,4.777,0,0,0-2.847-.35v-9.1a1.971,1.971,0,1,1,3.941,0,2,2,0,0,1-.022.3.972.972,0,0,0,1.19,1.09,2.811,2.811,0,0,1,2.492,4.866.972.972,0,0,0,.832,1.69,2.073,2.073,0,0,1,1.735,3.636Z" transform="translate(-151.406 -102.856)"/>
      </g>
    </g>
  </g>
</svg>
