<svg xmlns="http://www.w3.org/2000/svg" xmlns:xlink="http://www.w3.org/1999/xlink" width="99.504" height="99.504" viewBox="0 0 99.504 99.504">
  <defs>
    <filter id="Path_982547" x="0" y="0" width="99.504" height="99.504" filterUnits="userSpaceOnUse">
      <feOffset dy="3" input="SourceAlpha"/>
      <feGaussianBlur stdDeviation="3" result="blur"/>
      <feFlood flood-opacity="0.161"/>
      <feComposite operator="in" in2="blur"/>
      <feComposite in="SourceGraphic"/>
    </filter>
  </defs>
  <g id="Group_1152451" data-name="Group 1152451" transform="translate(-1034.496 -1916)">
    <g id="Group_1146975" data-name="Group 1146975" transform="translate(1043.496 1922)">
      <g id="Group_1146954" data-name="Group 1146954">
        <g transform="matrix(1, 0, 0, 1, -9, -6)" filter="url(#Path_982547)">
          <g id="Path_982547-2" data-name="Path 982547" transform="translate(9 6)" fill="#fff6f9">
            <path d="M 40.7520751953125 80.00415802001953 C 35.45241546630859 80.00415802001953 30.31208610534668 78.96654510498047 25.47385215759277 76.92014312744141 C 20.79992294311523 74.9432373046875 16.60199356079102 72.11281585693359 12.99666309356689 68.50748443603516 C 9.391345977783203 64.90216064453125 6.560910701751709 60.70422744750977 4.584004402160645 56.03028869628906 C 2.53761625289917 51.19206237792969 1.500004649162292 46.05173492431641 1.500004649162292 40.7520751953125 C 1.500004649162292 35.45241546630859 2.53761625289917 30.31208610534668 4.584004402160645 25.47385215759277 C 6.560910701751709 20.79992294311523 9.391345977783203 16.60199356079102 12.99666309356689 12.99666309356689 C 16.60199356079102 9.391345977783203 20.79992294311523 6.560910701751709 25.47385215759277 4.584004402160645 C 30.31208610534668 2.53761625289917 35.45241546630859 1.500004649162292 40.7520751953125 1.500004649162292 C 46.05173492431641 1.500004649162292 51.19206237792969 2.53761625289917 56.03028869628906 4.584004402160645 C 60.70422744750977 6.560910701751709 64.90216064453125 9.391345977783203 68.50748443603516 12.99666309356689 C 72.11281585693359 16.60199356079102 74.9432373046875 20.79992294311523 76.92014312744141 25.47385215759277 C 78.96654510498047 30.31208610534668 80.00415802001953 35.45241546630859 80.00415802001953 40.7520751953125 C 80.00415802001953 46.05173492431641 78.96654510498047 51.19206237792969 76.92014312744141 56.03028869628906 C 74.9432373046875 60.70421600341797 72.11281585693359 64.90216064453125 68.50748443603516 68.50748443603516 C 64.90216064453125 72.11281585693359 60.70421600341797 74.9432373046875 56.03028869628906 76.92014312744141 C 51.19206237792969 78.96654510498047 46.05173492431641 80.00415802001953 40.7520751953125 80.00415802001953 Z" stroke="none"/>
            <path d="M 40.7520751953125 2.999992370605469 C 35.65426254272461 2.999992370605469 30.71051406860352 3.99774169921875 26.05818176269531 5.96551513671875 C 21.56304931640625 7.866798400878906 17.52538299560547 10.58927154541016 14.05732727050781 14.05732727050781 C 10.58927154541016 17.52538299560547 7.866798400878906 21.56304931640625 5.96551513671875 26.05818176269531 C 3.99774169921875 30.71051406860352 2.999992370605469 35.65426254272461 2.999992370605469 40.7520751953125 C 2.999992370605469 45.84988784790039 3.99774169921875 50.79363250732422 5.96551513671875 55.44596862792969 C 7.866798400878906 59.94110107421875 10.58927154541016 63.97876739501953 14.05732727050781 67.44682312011719 C 17.52538299560547 70.91487121582031 21.56304931640625 73.63735198974609 26.05818176269531 75.53863525390625 C 30.71051406860352 77.50640869140625 35.65426254272461 78.50415802001953 40.7520751953125 78.50415802001953 C 45.84988784790039 78.50415802001953 50.79363250732422 77.50640869140625 55.44596862792969 75.53863525390625 C 59.94110107421875 73.63735198974609 63.97876739501953 70.91487121582031 67.44682312011719 67.44682312011719 C 70.91487121582031 63.97876739501953 73.63735198974609 59.94110107421875 75.53863525390625 55.44596862792969 C 77.50640869140625 50.79363250732422 78.50415802001953 45.84988784790039 78.50415802001953 40.7520751953125 C 78.50415802001953 35.65426254272461 77.50640869140625 30.71051406860352 75.53863525390625 26.05818176269531 C 73.63735198974609 21.56304931640625 70.91487121582031 17.52538299560547 67.44682312011719 14.05732727050781 C 63.97876739501953 10.58927154541016 59.94110107421875 7.866798400878906 55.44596862792969 5.96551513671875 C 50.79363250732422 3.99774169921875 45.84988784790039 2.999992370605469 40.7520751953125 2.999992370605469 M 40.7520751953125 -7.62939453125e-06 C 63.25881958007812 -7.62939453125e-06 81.50415802001953 18.24532699584961 81.50415802001953 40.7520751953125 C 81.50415802001953 63.25881958007812 63.25881958007812 81.50415802001953 40.7520751953125 81.50415802001953 C 18.24532699584961 81.50415802001953 -7.62939453125e-06 63.25881958007812 -7.62939453125e-06 40.7520751953125 C -7.62939453125e-06 18.24532699584961 18.24532699584961 -7.62939453125e-06 40.7520751953125 -7.62939453125e-06 Z" stroke="none" fill="#ffaece"/>
          </g>
        </g>
      </g>
    </g>
    <g id="layer1-0" transform="translate(1058.853 1931.884)">
      <path id="path8538" d="M4.392,10.123c-.415.04-.93.332-1.78,1.193-2.72,2.756.358,1.993-1.1,5.576s-3.137.906-3.1,4.7c-.033,3.8,1.649,1.122,3.1,4.7s-1.624,2.82,1.1,5.576,2.009-.322,5.582,1.188.855,3.139,4.735,3.172c2.364.018,2.289-.595,2.684-1.4L14.029,28.4c-.208.02-.767.031-.976.032A6.825,6.825,0,0,1,7.77,17.273c-1.885-2.618,1.274-2.465-.343-6.876-1.789.516-2.227-.352-3.035-.274Z" transform="translate(0.711 22.936)" fill="#ffca28"/>
      <path id="path8550" d="M4.392,10.123c-.415.04-.93.332-1.78,1.193-2.72,2.756.358,1.993-1.1,5.576s-3.137.906-3.1,4.7c-.033,3.8,1.649,1.122,3.1,4.7s-1.624,2.82,1.1,5.576c1.705,1.728,2.063,1.163,2.972.873a6.52,6.52,0,0,1-1.02-.873c-2.72-2.756.358-1.993-1.1-5.576S.331,25.4.364,21.6c-.033-3.8,1.649-1.122,3.1-4.7s-1.624-2.82,1.1-5.576a6.679,6.679,0,0,1,1.022-.881,3.05,3.05,0,0,0-1.193-.313Zm3.031.274,0,0s0,0,0,0ZM8.15,32.63a2.615,2.615,0,0,0-.73.162,6.622,6.622,0,0,1,.774.273c3.572,1.509.855,3.139,4.735,3.172a7.52,7.52,0,0,0,1.09-.061c-2.52-.284-.63-1.741-3.874-3.111a4.362,4.362,0,0,0-2-.435Z" transform="translate(0.711 22.935)" fill="#ecb200"/>
      <path id="path8531" d="M.529,18.21a6.832,6.832,0,1,0,6.832-6.832A6.832,6.832,0,0,0,.529,18.21Z" transform="translate(6.403 26.323)" fill="#e4eff8"/>
      <path id="circle8535" d="M11.6,11.842A6.821,6.821,0,0,1,.628,19.152,6.827,6.827,0,1,0,11.6,11.842Z" transform="translate(6.671 27.57)" fill="#c4dcf0"/>
      <path id="path8510" d="M2.91,12.76V26.2a2.922,2.922,0,0,0,2.928,2.928H27.31l.976-6.832-1.323-.5-6.485.5-3.717-4.337-.644-.242.458.688H13.568c-5.5,0-3.27-1.811-5.677-3.784L2.939,12.76H2.91Z" transform="translate(12.805 30.041)" fill="#ffd1b5"/>
      <path id="path8475" d="M23.871,44.8l5.856,6.832,13.859-1.063,3.33-13.073,5.259-1.558-5.258-10.9c0-11.184-8.4-20.251-19.61-20.26L27.1,3.64c-.424-1.048-.777-1.787-4.288-1.787-6.591,0-2.052,2.6-7.749,4.968s-4.561-2.457-8.9,1.861.57,3.124-1.749,8.737-5,1.418-4.948,7.377C-.582,30.755,2.1,26.56,4.419,32.173s-2.589,4.42,1.749,8.737,3.2-.5,8.9,1.861,1.158,4.968,7.749,4.968h3.006" transform="translate(3.557 0.711)" fill="#ffd1b5"/>
      <path id="path8497" d="M22.947,4.87c5.957,21.811-6.3,31.517-15.961,35.689l2.533,2.957,13.86-1.064,3.328-13.073,5.259-1.557-5.258-10.9A20.837,20.837,0,0,0,22.947,4.87Z" transform="translate(23.765 8.825)" fill="#ffb98d"/>
      <path id="path8483" d="M22.894,1.853c-6.591,0-2.131,2.6-7.827,4.968s-4.561-2.457-8.9,1.861.57,3.124-1.749,8.737-5,1.418-4.948,7.377C-.582,30.755,2.1,26.56,4.419,32.173s-2.589,4.42,1.749,8.737,3.2-.5,8.9,1.861,1.236,4.968,7.827,4.968Z" transform="translate(3.557 0.711)" fill="#549ad4"/>
      <path id="circle8503" d="M2.381,17.451A12.688,12.688,0,1,0,15.069,4.763,12.688,12.688,0,0,0,2.381,17.451Z" transform="translate(11.383 8.537)" fill="#e4eff8"/>
      <path id="path8491" d="M22.816,1.853c-6.591,0-2.053,2.6-7.749,4.968a9.658,9.658,0,0,1-1.862.585,6.094,6.094,0,0,0,3.814-.585c5-2.076,2.118-4.334,5.8-4.855ZM9.007,6.813c-.662.062-1.483.519-2.838,1.868C1.83,13,6.737,11.806,4.418,17.419s-5,1.418-4.947,7.377C-.582,30.756,2.1,26.56,4.418,32.174S1.83,36.593,6.168,40.91c2.23,2.219,3.019,2.025,4.028,1.632A8.215,8.215,0,0,1,8.118,40.91c-4.338-4.317.571-3.123-1.748-8.736s-5-1.418-4.949-7.377c-.053-5.959,2.63-1.764,4.949-7.377S3.78,13,8.118,8.681a8.219,8.219,0,0,1,2.076-1.63,2.528,2.528,0,0,0-1.188-.238ZM13.833,42.09a3.934,3.934,0,0,0-.623.1,9.668,9.668,0,0,1,1.857.583c5.7,2.365,1.158,4.968,7.749,4.968v-.112c-3.679-.521-.8-2.78-5.8-4.855a7.072,7.072,0,0,0-3.185-.681Z" transform="translate(3.558 0.711)" fill="#f5f9fb"/>
      <path id="circle8507" d="M15.069,4.763A12.687,12.687,0,0,0,7.158,27.369,12.683,12.683,0,0,1,24.93,9.481a12.688,12.688,0,0,0-9.861-4.718Z" transform="translate(11.383 8.537)" fill="#c4dcf0"/>
      <path id="path8529" d="M2.91,12.781v1.952a7.432,7.432,0,0,1,2.909.681c5.7,2.365,1.158,4.968,7.749,4.968H17.55l-2.272-1.952h-1.71c-5.5,0-3.27-1.811-5.677-3.784L2.939,12.781H2.91Z" transform="translate(12.805 30.095)" fill="#ffb98d"/>
      <path id="path8522" d="M6.961,14.125l.458.688h-1.1l5.008,5.843,7.612-.583.2-1.369-1.323-.5-6.485.5L7.605,14.367Z" transform="translate(21.961 33.711)" fill="#ffb98d"/>
      <path id="path14831" d="M22.768,2.129a2.857,2.857,0,0,0-1.5,1.649,4.759,4.759,0,0,1-.707,1.355,5.693,5.693,0,0,1-2.312,1.5,6.075,6.075,0,0,1-2.745.6,4.691,4.691,0,0,1-1.491-.417,3.085,3.085,0,0,0-2.169-.137A7.5,7.5,0,0,0,9.035,8.7a7.319,7.319,0,0,0-2.017,2.795A2.923,2.923,0,0,0,7.2,13.649a4.437,4.437,0,0,1,.448,1.441,5.69,5.69,0,0,1-.57,2.667,5.783,5.783,0,0,1-1.491,2.312,4.485,4.485,0,0,1-1.348.721,3,3,0,0,0-1.651,1.382,6.989,6.989,0,0,0-.532,3.336,6.975,6.975,0,0,0,.532,3.328,2.969,2.969,0,0,0,1.651,1.392,4.488,4.488,0,0,1,1.348.721,4.841,4.841,0,0,1,1.125,1.525,4.835,4.835,0,0,1-.562-.193,2.25,2.25,0,0,0-1.615-.093,4.943,4.943,0,0,0-1.9,1.376,4.945,4.945,0,0,0-1.354,1.923A2.262,2.262,0,0,0,1.4,37.1a2.551,2.551,0,0,1,.259.814,3.323,3.323,0,0,1-.332,1.548A3.335,3.335,0,0,1,.483,40.8a2.4,2.4,0,0,1-.742.4,2.2,2.2,0,0,0-1.218,1.052,4.749,4.749,0,0,0-.376,2.28,4.722,4.722,0,0,0,.376,2.28A2.259,2.259,0,0,0-.258,47.864a2.406,2.406,0,0,1,.742.4,3.335,3.335,0,0,1,.843,1.34,3.35,3.35,0,0,1,.332,1.55,2.375,2.375,0,0,1-.259.814,2.247,2.247,0,0,0-.122,1.613A4.95,4.95,0,0,0,2.629,55.5a4.937,4.937,0,0,0,1.9,1.374,2.254,2.254,0,0,0,1.615-.093,2.594,2.594,0,0,1,.827-.244,3.39,3.39,0,0,1,1.55.36,3.364,3.364,0,0,1,1.333.858,2.582,2.582,0,0,1,.4.762,2.424,2.424,0,0,0,1.05,1.218,4.977,4.977,0,0,0,2.32.41,4.133,4.133,0,0,0,2.688-.6,1.418,1.418,0,0,0,.108-.091,3.857,3.857,0,0,0,2.219.688H40.117a.976.976,0,0,0,.965-.835l.955-6.664,5.185-.4a.978.978,0,0,0,.871-.736l3.191-12.535,4.728-1.4a1,1,0,0,0,.6-1.363L51.454,25.533C51.326,14.018,42.831,4.938,31.686,4.524l-.063-.341a.8.8,0,0,0-.057-.194,3.114,3.114,0,0,0-1.42-1.78,8.067,8.067,0,0,0-3.769-.62,8.392,8.392,0,0,0-3.609.541Zm6.442,1.794c.3.165.356.332.515.707l.183,1.022a.976.976,0,0,0,.959.806c10.686.007,18.633,8.66,18.633,19.28a.992.992,0,0,0,.1.425l4.754,9.871L50.2,37.265a.979.979,0,0,0-.671.7L46.372,50.357,33.7,51.329l-5.532-6.455a.976.976,0,1,0-1.485,1.268l1.146,1.332H26.377a7.319,7.319,0,0,1-2.774-.353c-.264-.125-.366-.239-.539-.648a6.386,6.386,0,0,0-1-1.845A7.643,7.643,0,0,0,19,42.583a8.064,8.064,0,0,0-3.624-.757,6.456,6.456,0,0,0-2.053.547,1.179,1.179,0,0,1-.871.1,6.276,6.276,0,0,1-2.032-1.542,6.247,6.247,0,0,1-1.542-2,1.04,1.04,0,0,1,.114-.816,6.164,6.164,0,0,0,.6-2.017,7.659,7.659,0,0,0-.713-3.588,7.752,7.752,0,0,0-2.025-3.056,6.273,6.273,0,0,0-1.866-1.029,1.119,1.119,0,0,1-.669-.5,5.8,5.8,0,0,1-.311-2.421,5.833,5.833,0,0,1,.311-2.421c.131-.227.237-.315.669-.5a6.291,6.291,0,0,0,1.866-1.031,7.743,7.743,0,0,0,2.025-3.054,7.665,7.665,0,0,0,.713-3.589,6.16,6.16,0,0,0-.6-2.017,1.053,1.053,0,0,1-.114-.814,6.248,6.248,0,0,1,1.542-2A6.273,6.273,0,0,1,12.451,8.54a1.239,1.239,0,0,1,.871.1,6.447,6.447,0,0,0,2.053.549A8.065,8.065,0,0,0,19,8.433,7.645,7.645,0,0,0,22.063,6.38a6.365,6.365,0,0,0,1-1.838,1.057,1.057,0,0,1,.539-.656,7.386,7.386,0,0,1,2.774-.345,6.813,6.813,0,0,1,2.833.381Zm-2.756,8.4A13.664,13.664,0,1,0,40.118,25.988,13.664,13.664,0,0,0,26.453,12.324Zm0,1.952A11.712,11.712,0,1,1,14.74,25.988,11.712,11.712,0,0,1,26.453,14.276Zm-3.9,2.928a.938.938,0,0,0-.976.976v.976H20.6a.976.976,0,1,0,0,1.952h.976v.976a.976.976,0,1,0,1.952,0v-.976h8.784a.976.976,0,1,0,0-1.952H23.525V18.18a.938.938,0,0,0-.976-.976Zm7.808,5.856a.938.938,0,0,0-.976.976v.976H20.6a.976.976,0,1,0,0,1.952h8.784v.976a.976.976,0,1,0,1.952,0v-.976h.976a.976.976,0,1,0,0-1.952h-.976v-.976a.938.938,0,0,0-.976-.976Zm-7.808,5.856a.938.938,0,0,0-.976.976v.976H20.6a.976.976,0,1,0,0,1.952h.976V33.8a.976.976,0,1,0,1.952,0V32.82h8.784a.976.976,0,1,0,0-1.952H23.525v-.976a.938.938,0,0,0-.976-.976ZM5.439,34.095a4.328,4.328,0,0,0,1.4.376,3.844,3.844,0,0,0,.646-.015,4.341,4.341,0,0,1,.162,1.468A4.414,4.414,0,0,1,7.2,37.359a2.937,2.937,0,0,0-.179,2.16,3.816,3.816,0,0,0,.274.646,7.8,7.8,0,0,0,7.45,12.11v3.967a3.988,3.988,0,0,0,.408,1.738s-.022.026-.026.026a3.24,3.24,0,0,1-1.477.187,3.851,3.851,0,0,1-1.426-.187c-.107-.056-.06,0-.166-.246a4.293,4.293,0,0,0-.7-1.268A5.339,5.339,0,0,0,9.287,55.1a5.387,5.387,0,0,0-2.45-.513,4.367,4.367,0,0,0-1.4.368c-.156.061-.18.1-.3.057a3.853,3.853,0,0,1-1.123-.892,3.924,3.924,0,0,1-.881-1.132.439.439,0,0,1,.065-.288,4.336,4.336,0,0,0,.4-1.39,5.3,5.3,0,0,0-.467-2.45,5.3,5.3,0,0,0-1.369-2.083A4.292,4.292,0,0,0,.5,46.06c-.121-.054-.207-.084-.236-.143A3.749,3.749,0,0,1,.1,44.529a3.717,3.717,0,0,1,.158-1.388c.015-.022.033-.054.236-.151a4.229,4.229,0,0,0,1.27-.713,5.328,5.328,0,0,0,1.369-2.089A5.276,5.276,0,0,0,3.6,37.747a4.35,4.35,0,0,0-.4-1.392c-.039-.118-.1-.175-.065-.288a3.957,3.957,0,0,1,.881-1.13,3.958,3.958,0,0,1,1.122-.9.5.5,0,0,1,.3.058Zm3.6,8.222a7.457,7.457,0,0,0,2.81,2.009,3.064,3.064,0,0,0,2.169-.129c.268-.1.495-.2.728-.273v6.382a5.86,5.86,0,0,1-6.175-8.479c.147.156.3.321.467.49Zm7.66,1.565a8.984,8.984,0,0,1,1.556.5,5.7,5.7,0,0,1,2.312,1.491,4.762,4.762,0,0,1,.707,1.355,2.914,2.914,0,0,0,1.5,1.657,8.4,8.4,0,0,0,3.609.539h3.006a1.029,1.029,0,0,0,.114-.007l3.048,3.553a.976.976,0,0,0,.814.338l6.68-.509L39.275,58.2H18.647a1.946,1.946,0,0,1-1.952-1.952Z" fill="#333"/>
    </g>
  </g>
</svg>
