<svg xmlns="http://www.w3.org/2000/svg" xmlns:xlink="http://www.w3.org/1999/xlink" width="99.504" height="99.504" viewBox="0 0 99.504 99.504">
  <defs>
    <filter id="Path_982547" x="0" y="0" width="99.504" height="99.504" filterUnits="userSpaceOnUse">
      <feOffset dy="3" input="SourceAlpha"/>
      <feGaussianBlur stdDeviation="3" result="blur"/>
      <feFlood flood-opacity="0.161"/>
      <feComposite operator="in" in2="blur"/>
      <feComposite in="SourceGraphic"/>
    </filter>
  </defs>
  <g id="Group_1151825" data-name="Group 1151825" transform="translate(-194.496 -1778)">
    <g id="Group_1146971" data-name="Group 1146971" transform="translate(203.496 1784)">
      <g id="Group_1146954" data-name="Group 1146954">
        <g transform="matrix(1, 0, 0, 1, -9, -6)" filter="url(#Path_982547)">
          <g id="Path_982547-2" data-name="Path 982547" transform="translate(9 6)" fill="#fff6f9">
            <path d="M 40.7520751953125 80.00415802001953 C 35.45241546630859 80.00415802001953 30.31208610534668 78.96654510498047 25.47385215759277 76.92014312744141 C 20.79992294311523 74.9432373046875 16.60199356079102 72.11281585693359 12.99666309356689 68.50748443603516 C 9.391345977783203 64.90216064453125 6.560910701751709 60.70422744750977 4.584004402160645 56.03028869628906 C 2.53761625289917 51.19206237792969 1.500004649162292 46.05173492431641 1.500004649162292 40.7520751953125 C 1.500004649162292 35.45241546630859 2.53761625289917 30.31208610534668 4.584004402160645 25.47385215759277 C 6.560910701751709 20.79992294311523 9.391345977783203 16.60199356079102 12.99666309356689 12.99666309356689 C 16.60199356079102 9.391345977783203 20.79992294311523 6.560910701751709 25.47385215759277 4.584004402160645 C 30.31208610534668 2.53761625289917 35.45241546630859 1.500004649162292 40.7520751953125 1.500004649162292 C 46.05173492431641 1.500004649162292 51.19206237792969 2.53761625289917 56.03028869628906 4.584004402160645 C 60.70422744750977 6.560910701751709 64.90216064453125 9.391345977783203 68.50748443603516 12.99666309356689 C 72.11281585693359 16.60199356079102 74.9432373046875 20.79992294311523 76.92014312744141 25.47385215759277 C 78.96654510498047 30.31208610534668 80.00415802001953 35.45241546630859 80.00415802001953 40.7520751953125 C 80.00415802001953 46.05173492431641 78.96654510498047 51.19206237792969 76.92014312744141 56.03028869628906 C 74.9432373046875 60.70421600341797 72.11281585693359 64.90216064453125 68.50748443603516 68.50748443603516 C 64.90216064453125 72.11281585693359 60.70421600341797 74.9432373046875 56.03028869628906 76.92014312744141 C 51.19206237792969 78.96654510498047 46.05173492431641 80.00415802001953 40.7520751953125 80.00415802001953 Z" stroke="none"/>
            <path d="M 40.7520751953125 2.999992370605469 C 35.65426254272461 2.999992370605469 30.71051406860352 3.99774169921875 26.05818176269531 5.96551513671875 C 21.56304931640625 7.866798400878906 17.52538299560547 10.58927154541016 14.05732727050781 14.05732727050781 C 10.58927154541016 17.52538299560547 7.866798400878906 21.56304931640625 5.96551513671875 26.05818176269531 C 3.99774169921875 30.71051406860352 2.999992370605469 35.65426254272461 2.999992370605469 40.7520751953125 C 2.999992370605469 45.84988784790039 3.99774169921875 50.79363250732422 5.96551513671875 55.44596862792969 C 7.866798400878906 59.94110107421875 10.58927154541016 63.97876739501953 14.05732727050781 67.44682312011719 C 17.52538299560547 70.91487121582031 21.56304931640625 73.63735198974609 26.05818176269531 75.53863525390625 C 30.71051406860352 77.50640869140625 35.65426254272461 78.50415802001953 40.7520751953125 78.50415802001953 C 45.84988784790039 78.50415802001953 50.79363250732422 77.50640869140625 55.44596862792969 75.53863525390625 C 59.94110107421875 73.63735198974609 63.97876739501953 70.91487121582031 67.44682312011719 67.44682312011719 C 70.91487121582031 63.97876739501953 73.63735198974609 59.94110107421875 75.53863525390625 55.44596862792969 C 77.50640869140625 50.79363250732422 78.50415802001953 45.84988784790039 78.50415802001953 40.7520751953125 C 78.50415802001953 35.65426254272461 77.50640869140625 30.71051406860352 75.53863525390625 26.05818176269531 C 73.63735198974609 21.56304931640625 70.91487121582031 17.52538299560547 67.44682312011719 14.05732727050781 C 63.97876739501953 10.58927154541016 59.94110107421875 7.866798400878906 55.44596862792969 5.96551513671875 C 50.79363250732422 3.99774169921875 45.84988784790039 2.999992370605469 40.7520751953125 2.999992370605469 M 40.7520751953125 -7.62939453125e-06 C 63.25881958007812 -7.62939453125e-06 81.50415802001953 18.24532699584961 81.50415802001953 40.7520751953125 C 81.50415802001953 63.25881958007812 63.25881958007812 81.50415802001953 40.7520751953125 81.50415802001953 C 18.24532699584961 81.50415802001953 -7.62939453125e-06 63.25881958007812 -7.62939453125e-06 40.7520751953125 C -7.62939453125e-06 18.24532699584961 18.24532699584961 -7.62939453125e-06 40.7520751953125 -7.62939453125e-06 Z" stroke="none" fill="#ffaece"/>
          </g>
        </g>
      </g>
    </g>
    <g id="production_1087814" transform="translate(215 1795.842)">
      <path id="Path_983794" data-name="Path 983794" d="M35.253,3H57.371V43.832H35.253A4.253,4.253,0,0,1,31,39.579V7.253A4.253,4.253,0,0,1,35.253,3Z" transform="translate(-4.331 -0.149)" fill="#f0be59"/>
      <path id="Path_983795" data-name="Path 983795" d="M22.091,40.8A11.794,11.794,0,0,0,28.52,30.459v-7.55C28.52,16.332,22.807,11,15.76,11S3,16.332,3,22.909v7.55A11.794,11.794,0,0,0,9.429,40.8l2.077,1.108v5.671L5.3,48.2A2.552,2.552,0,0,0,3,50.739v3.645H28.52V50.739a2.552,2.552,0,0,0-2.3-2.539l-6.21-.621V41.907Z" transform="translate(-0.149 -1.344)" fill="#c9dfff"/>
      <g id="Group_1151824" data-name="Group 1151824" transform="translate(6.253 6.736)">
        <path id="Path_983796" data-name="Path 983796" d="M8.559,31.816,10.9,34.155l2.155-1.485a.779.779,0,0,1,1.205.481l.539,2.563h3.119l.539-2.563a.779.779,0,0,1,1.205-.481l2.155,1.485,2.339-2.339L22.67,29.661a.779.779,0,0,1,.481-1.205l2.563-.539V24.8l-2.563-.539a.779.779,0,0,1-.481-1.205L24.155,20.9l-2.339-2.339-2.155,1.485a.779.779,0,0,1-1.205-.481L17.917,17H14.8l-.539,2.563a.779.779,0,0,1-1.205.481L10.9,18.559,8.559,20.9l1.485,2.155a.779.779,0,0,1-.481,1.205L7,24.8v3.119l2.563.539a.779.779,0,0,1,.481,1.205Zm7.8-8.861a3.4,3.4,0,1,1-3.4,3.4A3.4,3.4,0,0,1,16.357,22.955Z" transform="translate(-7 -8.976)" fill="#10bde0"/>
        <ellipse id="Ellipse_11650" data-name="Ellipse 11650" cx="2" cy="1.5" rx="2" ry="1.5" transform="translate(24.747 14.422)" fill="#10bde0"/>
        <path id="Path_983797" data-name="Path 983797" d="M44.7,15a1.7,1.7,0,1,0,1.612,1.153A1.7,1.7,0,0,0,44.7,15Z" transform="translate(-12.376 -8.678)" fill="#10bde0"/>
        <ellipse id="Ellipse_11651" data-name="Ellipse 11651" cx="1" cy="2" rx="1" ry="2" transform="translate(38.747 10.422)" fill="#10bde0"/>
        <ellipse id="Ellipse_11652" data-name="Ellipse 11652" cx="2" cy="1.5" rx="2" ry="1.5" transform="translate(40.747 0.422)" fill="#10bde0"/>
      </g>
      <path id="Path_983798" data-name="Path 983798" d="M8.879,41.4l.8-1.5A10.974,10.974,0,0,1,3.7,30.31V22.76c0-6.1,5.342-11.059,11.909-11.059S27.52,16.662,27.52,22.76v7.55a10.974,10.974,0,0,1-5.978,9.59l-4.07,2.171a4,4,0,0,1-3.722,0l-.8,1.5a5.722,5.722,0,0,0,5.323,0l.741-.4v4.253a.851.851,0,0,0,.766.846l6.21.621a1.7,1.7,0,0,1,1.531,1.693v3.645h1.7V50.589A3.392,3.392,0,0,0,26.159,47.2l-5.444-.54v-4.4l1.627-.868a13.447,13.447,0,0,0,3.477-2.654v1.877a5.109,5.109,0,0,0,5.1,5.1h4.253v-1.7H30.923a3.4,3.4,0,0,1-3.4-3.4V36.467a12.125,12.125,0,0,0,1.7-6.157V22.76c0-7.036-6.106-12.76-13.611-12.76S2,15.724,2,22.76v7.55A12.669,12.669,0,0,0,8.879,41.4Z" transform="translate(0 -1.195)"/>
      <path id="Path_983799" data-name="Path 983799" d="M3.7,56.136a1.7,1.7,0,0,1,1.531-1.693l6.21-.617a.851.851,0,0,0,.766-.851V47.143h-1.7V52.21l-5.444.544A3.392,3.392,0,0,0,2,56.136v3.645H3.7Z" transform="translate(0 -6.741)"/>
      <path id="Path_983800" data-name="Path 983800" d="M7.809,32.268l2.339,2.339a.851.851,0,0,0,1.084.1L13.3,33.281l.517,2.459a.851.851,0,0,0,.833.675h3.119a.851.851,0,0,0,.833-.675l.517-2.459,2.067,1.425a.851.851,0,0,0,1.084-.1l2.339-2.339a.851.851,0,0,0,.1-1.085l-1.425-2.067,2.459-.516a.851.851,0,0,0,.675-.833V24.649a.851.851,0,0,0-.675-.833L23.281,23.3l1.425-2.067a.851.851,0,0,0-.1-1.085l-2.339-2.339a.851.851,0,0,0-1.084-.1l-2.067,1.425L18.6,16.675A.851.851,0,0,0,17.767,16H14.649a.851.851,0,0,0-.833.675L13.3,19.135,11.232,17.71a.851.851,0,0,0-1.084.1L7.809,20.148a.851.851,0,0,0-.1,1.085L9.135,23.3l-2.459.516A.851.851,0,0,0,6,24.649v3.119a.851.851,0,0,0,.675.833l2.459.516L7.71,31.184a.851.851,0,0,0,.1,1.085ZM7.7,27.077V25.339l1.888-.4a1.631,1.631,0,0,0,1-2.521L9.512,20.849l1.336-1.336,1.573,1.081a1.63,1.63,0,0,0,2.521-1.006l.4-1.886h1.737l.4,1.888a1.63,1.63,0,0,0,2.521,1l1.573-1.081L22.9,20.849l-1.081,1.572a1.632,1.632,0,0,0,1.006,2.521l1.886.4v1.739l-1.888.4a1.631,1.631,0,0,0-1,2.521L22.9,31.567,21.567,32.9l-1.573-1.081a1.63,1.63,0,0,0-2.521,1.006l-.4,1.886H15.339l-.4-1.888a1.63,1.63,0,0,0-2.521-1L10.849,32.9,9.512,31.567,10.594,30a1.632,1.632,0,0,0-1.006-2.521Z" transform="translate(-0.597 -2.091)"/>
      <path id="Path_983801" data-name="Path 983801" d="M17.253,31.507A4.253,4.253,0,1,0,13,27.253,4.253,4.253,0,0,0,17.253,31.507Zm0-6.805A2.552,2.552,0,1,1,14.7,27.253,2.552,2.552,0,0,1,17.253,24.7Z" transform="translate(-1.643 -3.136)"/>
      <path id="Path_983802" data-name="Path 983802" d="M43.656,12.947A2.552,2.552,0,0,0,41.1,15.5a2.521,2.521,0,0,0,.516,1.521l-2.446,3.668a2.5,2.5,0,0,0-.622-.085A2.552,2.552,0,1,0,41.1,23.155a2.525,2.525,0,0,0-.516-1.522l2.446-3.667a2.5,2.5,0,0,0,.622.085,2.535,2.535,0,0,0,1.68-.646L48.8,19.331a2.552,2.552,0,1,0,4.083-1.569l1.878-5.671a2.572,2.572,0,1,0-1.616-.542L51.282,17.2a2.53,2.53,0,0,0-1.65.642l-3.466-1.918a2.511,2.511,0,0,0-2.509-2.977Zm-5.1,11.059a.851.851,0,1,1,.851-.851A.851.851,0,0,1,38.552,24.006Zm5.1-7.656a.851.851,0,1,1,.851-.851A.851.851,0,0,1,43.656,16.35ZM54.715,8.694a.851.851,0,1,1-.851.851A.851.851,0,0,1,54.715,8.694ZM51.312,18.9a.851.851,0,1,1-.851.851A.851.851,0,0,1,51.312,18.9Z" transform="translate(-5.077 -0.739)"/>
      <path id="Path_983803" data-name="Path 983803" d="M57.416,42.565V23h-1.7V41.715h-1.7v-5.1h-1.7v5.1h-1.7V35.76h-1.7v5.955h-1.7V33.208h-1.7v8.507h-1.7V28.1H42.1V41.715H40.4v-3.4H38.7v3.4H37v1.7H57.416Z" transform="translate(-5.227 -3.136)"/>
      <path id="Path_983804" data-name="Path 983804" d="M39.357,2H35.1A5.109,5.109,0,0,0,30,7.1v4.253h1.7V7.1a3.4,3.4,0,0,1,3.4-3.4h4.253Z" transform="translate(-4.181)"/>
      <path id="Path_983805" data-name="Path 983805" d="M43,50h1.7v1.7H43Z" transform="translate(-6.123 -7.168)"/>
      <path id="Path_983806" data-name="Path 983806" d="M47,50H59.76v1.7H47Z" transform="translate(-6.72 -7.168)"/>
      <path id="Path_983807" data-name="Path 983807" d="M44,2H59.312V3.7H44Z" transform="translate(-6.272)"/>
    </g>
  </g>
</svg>
