<svg xmlns="http://www.w3.org/2000/svg" xmlns:xlink="http://www.w3.org/1999/xlink" width="108" height="108" viewBox="0 0 108 108">
  <defs>
    <filter id="Path_982547" x="0" y="0" width="108" height="108" filterUnits="userSpaceOnUse">
      <feOffset dy="3" input="SourceAlpha"/>
      <feGaussianBlur stdDeviation="3" result="blur"/>
      <feFlood flood-opacity="0.161"/>
      <feComposite operator="in" in2="blur"/>
      <feComposite in="SourceGraphic"/>
    </filter>
  </defs>
  <g id="Group_1154761" data-name="Group 1154761" transform="translate(-193 -2329)">
    <g id="Group_1154245" data-name="Group 1154245">
      <g id="Group_1154144" data-name="Group 1154144" transform="translate(202 2335)">
        <g id="Group_1152564" data-name="Group 1152564">
          <g id="Group_1146955" data-name="Group 1146955">
            <g id="Group_1146954" data-name="Group 1146954">
              <g transform="matrix(1, 0, 0, 1, -9, -6)" filter="url(#Path_982547)">
                <g id="Path_982547-2" data-name="Path 982547" transform="translate(9 6)" fill="#fffdfb">
                  <path d="M 45 88.5 C 39.12687683105469 88.5 33.43022537231445 87.35007476806641 28.06830024719238 85.08217620849609 C 22.88852500915527 82.89131164550781 18.23629951477051 79.75458526611328 14.2408504486084 75.75914764404297 C 10.24541282653809 71.76370239257812 7.108687400817871 67.11147308349609 4.917825222015381 61.93170166015625 C 2.649924993515015 56.56977462768555 1.5 50.87312316894531 1.5 45 C 1.5 39.12687683105469 2.649924993515015 33.43022537231445 4.917825222015381 28.06830024719238 C 7.108687400817871 22.88852500915527 10.24541282653809 18.23629951477051 14.2408504486084 14.2408504486084 C 18.23629951477051 10.24541282653809 22.88852500915527 7.108687400817871 28.06830024719238 4.917825222015381 C 33.43022537231445 2.649924993515015 39.12687683105469 1.5 45 1.5 C 50.87312316894531 1.5 56.56977462768555 2.649924993515015 61.93170166015625 4.917825222015381 C 67.11147308349609 7.108687400817871 71.76370239257812 10.24541282653809 75.75914764404297 14.2408504486084 C 79.75458526611328 18.23629951477051 82.89131164550781 22.88852500915527 85.08217620849609 28.06830024719238 C 87.35007476806641 33.43022537231445 88.5 39.12687683105469 88.5 45 C 88.5 50.87312316894531 87.35007476806641 56.56977462768555 85.08217620849609 61.93170166015625 C 82.89131164550781 67.11147308349609 79.75458526611328 71.76370239257812 75.75914764404297 75.75914764404297 C 71.76370239257812 79.75458526611328 67.11147308349609 82.89131164550781 61.93170166015625 85.08217620849609 C 56.56977462768555 87.35007476806641 50.87312316894531 88.5 45 88.5 Z" stroke="none"/>
                  <path d="M 45 3 C 39.32871246337891 3 33.82865524291992 4.110054016113281 28.65262985229492 6.299339294433594 C 23.65165710449219 8.414573669433594 19.15968322753906 11.44334411621094 15.301513671875 15.301513671875 C 11.44334411621094 19.15968322753906 8.414573669433594 23.65165710449219 6.299339294433594 28.65262985229492 C 4.110054016113281 33.82865524291992 3 39.32871246337891 3 45 C 3 50.67128753662109 4.110054016113281 56.17134475708008 6.299339294433594 61.34737396240234 C 8.414573669433594 66.34834289550781 11.44334411621094 70.84031677246094 15.301513671875 74.698486328125 C 19.15968322753906 78.55665588378906 23.65165710449219 81.58542633056641 28.65262985229492 83.70066070556641 C 33.82865524291992 85.88994598388672 39.32871246337891 87 45 87 C 50.67128753662109 87 56.17134475708008 85.88994598388672 61.34737396240234 83.70066070556641 C 66.34834289550781 81.58542633056641 70.84031677246094 78.55665588378906 74.698486328125 74.698486328125 C 78.55665588378906 70.84031677246094 81.58542633056641 66.34834289550781 83.70066070556641 61.34737396240234 C 85.88994598388672 56.17134475708008 87 50.67128753662109 87 45 C 87 39.32871246337891 85.88994598388672 33.82865524291992 83.70066070556641 28.65262985229492 C 81.58542633056641 23.65165710449219 78.55665588378906 19.15968322753906 74.698486328125 15.301513671875 C 70.84031677246094 11.44334411621094 66.34834289550781 8.414573669433594 61.34737396240234 6.299339294433594 C 56.17134475708008 4.110054016113281 50.67128753662109 3 45 3 M 45 0 C 69.85281372070312 0 90 20.14718627929688 90 45 C 90 69.85281372070312 69.85281372070312 90 45 90 C 20.14718627929688 90 0 69.85281372070312 0 45 C 0 20.14718627929688 20.14718627929688 0 45 0 Z" stroke="none" fill="#8b8379"/>
                </g>
              </g>
            </g>
          </g>
        </g>
      </g>
      <g id="salud-mental" transform="translate(216 2342.525)">
        <g id="Group_1154243" data-name="Group 1154243" transform="translate(0.911 7.386)">
          <path id="Path_989678" data-name="Path 989678" d="M255.988,471.453v-.03" transform="translate(-225.755 -415.767)" fill="#fd4755" stroke="#fe646f" stroke-miterlimit="10" stroke-width="1"/>
          <g id="Group_1154240" data-name="Group 1154240" transform="translate(0 0)">
            <path id="Path_989679" data-name="Path 989679" d="M208.944,13.964a4.328,4.328,0,0,1,4.328,4.328v.76h2.56a4.723,4.723,0,0,1,2.795,8.53h3.129a6.844,6.844,0,0,1,1.377,13.547,4.723,4.723,0,0,1-2.785,8.537h-3.74a6,6,0,1,1-11.992,0V18.292A4.328,4.328,0,0,1,208.944,13.964Z" transform="translate(-180.633 -13.964)" fill="#fe93bb"/>
            <path id="Path_989680" data-name="Path 989680" d="M212.3,55.42a6,6,0,0,1-7.684-5.754V18.292a4.329,4.329,0,0,1,6.017-3.986,4.329,4.329,0,0,0-2.64,3.986V49.666A6,6,0,0,0,212.3,55.42Z" transform="translate(-180.633 -13.963)" fill="#fe76a8"/>
            <path id="Path_989681" data-name="Path 989681" d="M31.471,18.293V49.667a6,6,0,0,1-11.992,0H15.739a4.723,4.723,0,0,1-2.785-8.537,6.844,6.844,0,0,1,1.377-13.547H17.46a4.723,4.723,0,0,1,2.8-8.531h2.56v-.76a4.328,4.328,0,1,1,8.657,0Z" transform="translate(-7.488 -13.964)" fill="#fe93bb"/>
            <g id="Group_1154239" data-name="Group 1154239" transform="translate(0 0)">
              <path id="Path_989682" data-name="Path 989682" d="M113.506,294.293a6,6,0,0,1-7.453-5.908V285.85h.288a2.625,2.625,0,0,1,2.625,2.625A6,6,0,0,0,113.506,294.293Z" transform="translate(-94.061 -252.772)" fill="#fe76a8"/>
              <path id="Path_989683" data-name="Path 989683" d="M14.417,135.922a3.528,3.528,0,0,0,3.527,3.527H12.953A6.844,6.844,0,0,1,14.331,125.9h3.613a3.246,3.246,0,0,0,0,6.492A3.528,3.528,0,0,0,14.417,135.922Z" transform="translate(-7.488 -112.283)" fill="#fe76a8"/>
              <path id="Path_989684" data-name="Path 989684" d="M87.628,14.7a3.2,3.2,0,0,0-3.884,2.742q0,.019,0,.037a1.741,1.741,0,0,1-1.728,1.57h-.754a4.775,4.775,0,0,0-4.8,4.644,4.7,4.7,0,0,0,.525,2.246,4.755,4.755,0,0,0,1.4,1.641H75.528a4.754,4.754,0,0,1-1.4-1.641,4.724,4.724,0,0,1,4.2-6.89h2.56v-.681a4.38,4.38,0,0,1,4.266-4.407A4.3,4.3,0,0,1,87.628,14.7Z" transform="translate(-65.557 -13.964)" fill="#fe76a8"/>
              <path id="Path_989685" data-name="Path 989685" d="M46.15,245.792H41.205a4.723,4.723,0,0,1-2.785-8.537h4.944a4.723,4.723,0,0,0,2.785,8.537Z" transform="translate(-32.955 -210.089)" fill="#fe76a8"/>
            </g>
          </g>
          <g id="Group_1154241" data-name="Group 1154241" transform="translate(21.145 22.775)">
            <path id="Path_989686" data-name="Path 989686" d="M217.407,204.362a10.928,10.928,0,0,0-15.454,0l-1.006,1.006-1.006-1.006a10.928,10.928,0,0,0-15.454,15.454l12.647,12.647a5.392,5.392,0,0,0,7.626,0l12.647-12.647A10.928,10.928,0,0,0,217.407,204.362Z" transform="translate(-181.286 -201.161)" fill="#fd4755" stroke="#fe646f" stroke-miterlimit="10" stroke-width="1"/>
            <path id="Path_989687" data-name="Path 989687" d="M201.617,234a5.379,5.379,0,0,1-4.476-1.538l-12.647-12.647A10.929,10.929,0,0,1,194.9,201.5a10.938,10.938,0,0,0-6.144,9.836,10.882,10.882,0,0,0,1.661,5.779l9.476,15.169A5.372,5.372,0,0,0,201.617,234Z" transform="translate(-181.293 -201.164)" fill="#fb2b3a"/>
          </g>
          <g id="Group_1154242" data-name="Group 1154242" transform="translate(7.211 37.389)">
            <path id="Path_989688" data-name="Path 989688" d="M76.371,342.783a2.993,2.993,0,0,1-2.419-1.231l-6.623-9.094a2.993,2.993,0,0,1,4.839-3.524l3.685,5.06,5.339-11.025a2.993,2.993,0,0,1,5.388,2.609l-7.514,15.517a2.993,2.993,0,0,1-2.427,1.677C76.549,342.779,76.459,342.783,76.371,342.783Z" transform="translate(-66.754 -321.279)" fill="#6fd7a3"/>
          </g>
        </g>
        <g id="Group_1154244" data-name="Group 1154244" transform="translate(0 6.475)">
          <path id="Path_989689" data-name="Path 989689" d="M67.564,99.42H60.175a.912.912,0,1,0,0,1.825h7.388a5.923,5.923,0,0,0,0-11.846H67.1a.912.912,0,0,0,0,1.825h.465a4.1,4.1,0,1,1,0,8.2Z" transform="translate(-52.053 -79.31)"/>
          <path id="Path_989690" data-name="Path 989690" d="M233.061,95.319a5.93,5.93,0,0,0,5.923,5.923h7.388a.912.912,0,0,0,0-1.825h-7.388a4.1,4.1,0,0,1,0-8.2h.465a.912.912,0,1,0,0-1.825h-.465A5.93,5.93,0,0,0,233.061,95.319Z" transform="translate(-204.706 -79.308)"/>
          <path id="Path_989691" data-name="Path 989691" d="M61.281,36.3a.912.912,0,0,0-1.669.737A10.018,10.018,0,0,1,57.53,48.17L44.884,60.817a4.485,4.485,0,0,1-6.335,0L28.256,50.524l.511-1.055a3.9,3.9,0,0,0-5.275-5.185,10.115,10.115,0,0,1-.523-3.2,10.015,10.015,0,0,1,17.1-7.081l1.006,1.006a.912.912,0,0,0,1.29,0l1.006-1.006a10.017,10.017,0,0,1,14-.157.912.912,0,1,0,1.262-1.319,11.783,11.783,0,0,0-8.305-3.281c-.224,0-.446.012-.668.026a7.76,7.76,0,0,0-7.624-9.183H40.945q.091-.151.172-.307a5.634,5.634,0,0,0-5.007-8.222H34.461a5.238,5.238,0,0,0-9.566-2.8,5.239,5.239,0,0,0-9.567,2.8H13.678A5.648,5.648,0,0,0,9.518,13.4a.912.912,0,1,0,1.347,1.231,3.82,3.82,0,0,1,2.813-1.241h2.56a.912.912,0,0,0,.912-.912v-.759a3.416,3.416,0,1,1,6.832,0v4.49a3.71,3.71,0,0,1-2.792-3.59.912.912,0,0,0-1.825,0,5.537,5.537,0,0,0,4.617,5.452v13.57a5.55,5.55,0,0,0-3.7-1.432h-.656a.912.912,0,0,0,0,1.825h.656a3.729,3.729,0,0,1,3.251,1.93,11.749,11.749,0,0,0-2.384,7.127,11.945,11.945,0,0,0,.879,4.483,3.9,3.9,0,0,0-.287.5l-.818,1.689a5.024,5.024,0,0,1-2.019.417A5.089,5.089,0,0,1,13.815,43.1s0,0,0-.006V40.464a.912.912,0,1,0-1.825,0v1.712H9.163A3.809,3.809,0,0,1,6.7,35.465h6.849A4.841,4.841,0,0,1,18.381,40.3v2.017a.912.912,0,0,0,1.825,0V40.3a6.668,6.668,0,0,0-6.66-6.66H6.479A5.93,5.93,0,0,1,7.756,21.918h5.982a.912.912,0,1,0,0-1.825H11.2a3.852,3.852,0,0,1-.912-1.147,3.741,3.741,0,0,1-.383-1.2A.912.912,0,1,0,8.1,18a5.557,5.557,0,0,0,.57,1.783q.081.157.172.308H7.756A7.755,7.755,0,0,0,4.673,34.965a5.652,5.652,0,0,0-1.145,3.4A5.635,5.635,0,0,0,9.163,44h2.887a6.886,6.886,0,0,0,7.817,5.924l-2.806,5.8-2.788-3.83a3.905,3.905,0,1,0-6.315,4.6l6.623,9.094a3.918,3.918,0,0,0,3.157,1.607c.122,0,.241-.005.348-.016a3.926,3.926,0,0,0,3.167-2.188l.392-.809a.912.912,0,0,0-1.643-.8l-.392.809a2.094,2.094,0,0,1-1.693,1.166c-.055.005-.116.008-.179.008a2.087,2.087,0,0,1-1.682-.856L9.433,55.415A2.081,2.081,0,0,1,12.8,52.966l3.684,5.06a.912.912,0,0,0,1.559-.139l5.338-11.024a2.081,2.081,0,0,1,3.746,1.813L21.852,59.562a.912.912,0,0,0,1.642.8l3.92-8.094,9.844,9.844a6.312,6.312,0,0,0,8.916,0L58.82,49.461A11.844,11.844,0,0,0,61.281,36.3ZM25.807,11.716a3.416,3.416,0,1,1,6.831,0v.76a.912.912,0,0,0,.912.912h2.56a3.815,3.815,0,0,1,3.812,3.81,3.758,3.758,0,0,1-.425,1.747,3.85,3.85,0,0,1-.912,1.147H36.051a.912.912,0,1,0,0,1.825h5.983a5.932,5.932,0,0,1,5.677,7.649,11.774,11.774,0,0,0-5.633,3.149l-.361.361-.361-.361a11.856,11.856,0,0,0-15.548-1.041V18.068a5.537,5.537,0,0,0,4.617-5.452.912.912,0,1,0-1.825,0,3.71,3.71,0,0,1-2.792,3.59Z" transform="translate(0 -6.475)"/>
        </g>
      </g>
    </g>
  </g>
</svg>
