<svg xmlns="http://www.w3.org/2000/svg" xmlns:xlink="http://www.w3.org/1999/xlink" width="99.504" height="99.504" viewBox="0 0 99.504 99.504">
  <defs>
    <filter id="Path_982547" x="0" y="0" width="99.504" height="99.504" filterUnits="userSpaceOnUse">
      <feOffset dy="3" input="SourceAlpha"/>
      <feGaussianBlur stdDeviation="3" result="blur"/>
      <feFlood flood-opacity="0.161"/>
      <feComposite operator="in" in2="blur"/>
      <feComposite in="SourceGraphic"/>
    </filter>
  </defs>
  <g id="Group_1154792" data-name="Group 1154792" transform="translate(-196 -1368)">
    <g id="Group_1154682" data-name="Group 1154682">
      <g id="Group_1154209" data-name="Group 1154209" transform="translate(-838 -5339)">
        <g id="Group_1152583" data-name="Group 1152583" transform="translate(-0.496 4929)">
          <g id="Group_1146973" data-name="Group 1146973" transform="translate(1043.496 1784)">
            <g id="Group_1146954" data-name="Group 1146954">
              <g transform="matrix(1, 0, 0, 1, -9, -6)" filter="url(#Path_982547)">
                <g id="Path_982547-2" data-name="Path 982547" transform="translate(9 6)" fill="#f4f4fd">
                  <path d="M 40.7520751953125 80.00415802001953 C 35.45241546630859 80.00415802001953 30.31208610534668 78.96654510498047 25.47385215759277 76.92014312744141 C 20.79992294311523 74.9432373046875 16.60199356079102 72.11281585693359 12.99666309356689 68.50748443603516 C 9.391345977783203 64.90216064453125 6.560910701751709 60.70422744750977 4.584004402160645 56.03028869628906 C 2.53761625289917 51.19206237792969 1.500004649162292 46.05173492431641 1.500004649162292 40.7520751953125 C 1.500004649162292 35.45241546630859 2.53761625289917 30.31208610534668 4.584004402160645 25.47385215759277 C 6.560910701751709 20.79992294311523 9.391345977783203 16.60199356079102 12.99666309356689 12.99666309356689 C 16.60199356079102 9.391345977783203 20.79992294311523 6.560910701751709 25.47385215759277 4.584004402160645 C 30.31208610534668 2.53761625289917 35.45241546630859 1.500004649162292 40.7520751953125 1.500004649162292 C 46.05173492431641 1.500004649162292 51.19206237792969 2.53761625289917 56.03028869628906 4.584004402160645 C 60.70422744750977 6.560910701751709 64.90216064453125 9.391345977783203 68.50748443603516 12.99666309356689 C 72.11281585693359 16.60199356079102 74.9432373046875 20.79992294311523 76.92014312744141 25.47385215759277 C 78.96654510498047 30.31208610534668 80.00415802001953 35.45241546630859 80.00415802001953 40.7520751953125 C 80.00415802001953 46.05173492431641 78.96654510498047 51.19206237792969 76.92014312744141 56.03028869628906 C 74.9432373046875 60.70421600341797 72.11281585693359 64.90216064453125 68.50748443603516 68.50748443603516 C 64.90216064453125 72.11281585693359 60.70421600341797 74.9432373046875 56.03028869628906 76.92014312744141 C 51.19206237792969 78.96654510498047 46.05173492431641 80.00415802001953 40.7520751953125 80.00415802001953 Z" stroke="none"/>
                  <path d="M 40.7520751953125 2.999992370605469 C 35.65426254272461 2.999992370605469 30.71051406860352 3.99774169921875 26.05818176269531 5.96551513671875 C 21.56304931640625 7.866798400878906 17.52538299560547 10.58927154541016 14.05732727050781 14.05732727050781 C 10.58927154541016 17.52538299560547 7.866798400878906 21.56304931640625 5.96551513671875 26.05818176269531 C 3.99774169921875 30.71051406860352 2.999992370605469 35.65426254272461 2.999992370605469 40.7520751953125 C 2.999992370605469 45.84988784790039 3.99774169921875 50.79363250732422 5.96551513671875 55.44596862792969 C 7.866798400878906 59.94110107421875 10.58927154541016 63.97876739501953 14.05732727050781 67.44682312011719 C 17.52538299560547 70.91487121582031 21.56304931640625 73.63735198974609 26.05818176269531 75.53863525390625 C 30.71051406860352 77.50640869140625 35.65426254272461 78.50415802001953 40.7520751953125 78.50415802001953 C 45.84988784790039 78.50415802001953 50.79363250732422 77.50640869140625 55.44596862792969 75.53863525390625 C 59.94110107421875 73.63735198974609 63.97876739501953 70.91487121582031 67.44682312011719 67.44682312011719 C 70.91487121582031 63.97876739501953 73.63735198974609 59.94110107421875 75.53863525390625 55.44596862792969 C 77.50640869140625 50.79363250732422 78.50415802001953 45.84988784790039 78.50415802001953 40.7520751953125 C 78.50415802001953 35.65426254272461 77.50640869140625 30.71051406860352 75.53863525390625 26.05818176269531 C 73.63735198974609 21.56304931640625 70.91487121582031 17.52538299560547 67.44682312011719 14.05732727050781 C 63.97876739501953 10.58927154541016 59.94110107421875 7.866798400878906 55.44596862792969 5.96551513671875 C 50.79363250732422 3.99774169921875 45.84988784790039 2.999992370605469 40.7520751953125 2.999992370605469 M 40.7520751953125 -7.62939453125e-06 C 63.25881958007812 -7.62939453125e-06 81.50415802001953 18.24532699584961 81.50415802001953 40.7520751953125 C 81.50415802001953 63.25881958007812 63.25881958007812 81.50415802001953 40.7520751953125 81.50415802001953 C 18.24532699584961 81.50415802001953 -7.62939453125e-06 63.25881958007812 -7.62939453125e-06 40.7520751953125 C -7.62939453125e-06 18.24532699584961 18.24532699584961 -7.62939453125e-06 40.7520751953125 -7.62939453125e-06 Z" stroke="none" fill="#8b5f70"/>
                </g>
              </g>
            </g>
          </g>
        </g>
      </g>
      <g id="interfaz-cerebro-computadora" transform="translate(220 1388)">
        <path id="Path_990488" data-name="Path 990488" d="M32.387,24.224H6.265A3.265,3.265,0,0,1,3,20.959V6.265A3.265,3.265,0,0,1,6.265,3H32.387a3.265,3.265,0,0,1,3.265,3.265V20.959A3.265,3.265,0,0,1,32.387,24.224Z" transform="translate(-0.184 -0.184)" fill="#d5dbdb"/>
        <path id="Path_990489" data-name="Path 990489" d="M32.387,27.9H6.265A3.265,3.265,0,0,1,3,24.633V23H35.652v1.633A3.265,3.265,0,0,1,32.387,27.9Z" transform="translate(-0.184 -3.858)" fill="#4bbee5"/>
        <path id="Path_990490" data-name="Path 990490" d="M50.673,49.326a4.082,4.082,0,0,0,0-8.163,4.065,4.065,0,0,0-4.956-3.983,4.892,4.892,0,0,0-9.68,0,4.065,4.065,0,0,0-4.956,3.983,4.082,4.082,0,0,0,0,8.163Z" transform="translate(-4.592 -5.695)" fill="#fda22e"/>
        <path id="Path_990491" data-name="Path 990491" d="M54.714,59.53A5.714,5.714,0,0,1,49,53.816V53h5.714Z" transform="translate(-8.634 -9.368)" fill="#f82f45"/>
        <path id="Path_990492" data-name="Path 990492" d="M24.53,29h-4.9L18,34.714h8.163Z" transform="translate(-2.939 -4.96)" fill="#3c7eb0"/>
        <circle id="Ellipse_11746" data-name="Ellipse 11746" cx="1.5" cy="1.5" r="1.5" transform="translate(8 13)" fill="#f82f45"/>
        <ellipse id="Ellipse_11747" data-name="Ellipse 11747" cx="2" cy="1.5" rx="2" ry="1.5" transform="translate(14 7)" fill="#f82f45"/>
        <circle id="Ellipse_11748" data-name="Ellipse 11748" cx="1.5" cy="1.5" r="1.5" transform="translate(21 12)" fill="#f82f45"/>
        <ellipse id="Ellipse_11749" data-name="Ellipse 11749" cx="2" cy="1.5" rx="2" ry="1.5" transform="translate(27 6)" fill="#f82f45"/>
        <g id="Group_1154681" data-name="Group 1154681" transform="translate(2 2)">
          <path id="Path_990493" data-name="Path 990493" d="M6.082,24.857h9.53l-1.167,4.082H12.612v1.633H25.673V28.938H23.839l-1.167-4.082H32.2a4.086,4.086,0,0,0,4.082-4.082V6.082A4.086,4.086,0,0,0,32.2,2H6.082A4.086,4.086,0,0,0,2,6.082V20.775A4.086,4.086,0,0,0,6.082,24.857Zm16.06,4.082h-6l1.167-4.082h3.666ZM32.2,23.224H6.082a2.452,2.452,0,0,1-2.449-2.449v-.816h31.02v.816A2.452,2.452,0,0,1,32.2,23.224ZM6.082,3.633H32.2a2.452,2.452,0,0,1,2.449,2.449V18.326H3.633V6.082A2.452,2.452,0,0,1,6.082,3.633Z" transform="translate(-2 -2)" fill="#171526"/>
          <path id="Path_990494" data-name="Path 990494" d="M51.247,40.221a4.918,4.918,0,0,0-5.081-4.133,5.706,5.706,0,0,0-10.944,0c-.02,0-.04,0-.06,0-.06,0-.12-.009-.181-.009V36.1a4.9,4.9,0,0,0-4.839,4.122,4.9,4.9,0,0,0,.758,9.738H43.959a6.538,6.538,0,0,0,6.53,6.53.816.816,0,0,0,.816-.816V49.885a4.9,4.9,0,0,0-.059-9.664ZM49.673,54.789a4.906,4.906,0,0,1-4.082-4.83h4.082Zm.816-6.463h-9.68a3.262,3.262,0,0,1,3.149-2.449V44.245a4.862,4.862,0,0,0-2.77.863,4.088,4.088,0,0,0-3.761-2.5v1.633a2.444,2.444,0,0,1,2.427,2.233,4.865,4.865,0,0,0-.721,1.849h-2.6a4.089,4.089,0,0,0-4-3.265v1.633a2.446,2.446,0,0,1,2.3,1.633H30.9a3.265,3.265,0,1,1,0-6.53.816.816,0,0,0,.816-.816,3.269,3.269,0,0,1,3.265-3.265,3.229,3.229,0,0,1,.7.081h0a3.267,3.267,0,0,1,2.562,3.184h1.633a4.9,4.9,0,0,0-3.053-4.535,4.072,4.072,0,0,1,7.9.671.816.816,0,0,0,.98.679,3.263,3.263,0,1,1,.7,6.45v1.633a4.9,4.9,0,0,0,4.81-3.993,3.262,3.262,0,0,1-.729,6.441Z" transform="translate(-6.409 -7.511)" fill="#171526"/>
          <path id="Path_990495" data-name="Path 990495" d="M46,40v1.633a2.452,2.452,0,0,1,2.449,2.449h1.633A4.086,4.086,0,0,0,46,40Z" transform="translate(-10.083 -8.98)" fill="#171526"/>
          <path id="Path_990496" data-name="Path 990496" d="M10.449,17.428A2.452,2.452,0,0,0,12.9,14.979a2.416,2.416,0,0,0-.177-.9l3.066-2.686a2.4,2.4,0,0,0,2.549-.09l2.848,2.135a2.407,2.407,0,0,0-.122.726,2.449,2.449,0,0,0,4.9,0,2.416,2.416,0,0,0-.177-.9l3.066-2.686a2.426,2.426,0,0,0,1.193.322,2.449,2.449,0,1,0-2.449-2.449,2.416,2.416,0,0,0,.177.9L24.7,12.037a2.4,2.4,0,0,0-2.549.09L19.306,9.991a2.407,2.407,0,0,0,.122-.726,2.449,2.449,0,0,0-4.9,0,2.416,2.416,0,0,0,.177.9l-3.066,2.686a2.426,2.426,0,0,0-1.193-.322,2.449,2.449,0,1,0,0,4.9Zm19.591-9.8a.816.816,0,1,1-.816.816A.817.817,0,0,1,30.04,7.633Zm-6.53,5.714a.816.816,0,1,1-.816.816A.817.817,0,0,1,23.51,13.347Zm-6.53-4.9a.816.816,0,1,1-.816.816A.817.817,0,0,1,16.979,8.449Zm-6.53,5.714a.816.816,0,1,1-.816.816A.817.817,0,0,1,10.449,14.163Z" transform="translate(-3.102 -2.735)" fill="#171526"/>
          <path id="Path_990497" data-name="Path 990497" d="M51.475,26.3l-1.154,1.154,3.265,3.265a.816.816,0,0,0,1.154,0l3.265-3.265L56.851,26.3l-1.872,1.872V17.082A4.086,4.086,0,0,0,50.9,13H46v1.633h4.9a2.452,2.452,0,0,1,2.449,2.449v11.09Z" transform="translate(-10.083 -4.021)" fill="#171526"/>
          <path id="Path_990498" data-name="Path 990498" d="M7.952,43.612V35.787l1.872,1.872L10.978,36.5,7.712,33.239a.815.815,0,0,0-1.154,0L3.293,36.5l1.154,1.154,1.872-1.872v7.825A4.086,4.086,0,0,0,10.4,47.693h9.8V46.061H10.4A2.452,2.452,0,0,1,7.952,43.612Z" transform="translate(-2.238 -7.695)" fill="#171526"/>
          <path id="Path_990499" data-name="Path 990499" d="M44,56h1.633v1.633H44Z" transform="translate(-9.715 -11.92)" fill="#171526"/>
          <path id="Path_990500" data-name="Path 990500" d="M40,56h1.633v1.633H40Z" transform="translate(-8.98 -11.92)" fill="#171526"/>
          <path id="Path_990501" data-name="Path 990501" d="M36,56h1.633v1.633H36Z" transform="translate(-8.246 -11.92)" fill="#171526"/>
        </g>
      </g>
    </g>
  </g>
</svg>
