<svg xmlns="http://www.w3.org/2000/svg" xmlns:xlink="http://www.w3.org/1999/xlink" width="110" height="110" viewBox="0 0 110 110">
  <defs>
    <filter id="Path_982547" x="0" y="0" width="110" height="110" filterUnits="userSpaceOnUse">
      <feOffset dy="3" input="SourceAlpha"/>
      <feGaussianBlur stdDeviation="3" result="blur"/>
      <feFlood flood-opacity="0.161"/>
      <feComposite operator="in" in2="blur"/>
      <feComposite in="SourceGraphic"/>
    </filter>
  </defs>
  <g id="Group_1154783" data-name="Group 1154783" transform="translate(-798 -898)">
    <g id="Group_1154686" data-name="Group 1154686">
      <g id="Group_1154212" data-name="Group 1154212" transform="translate(-236 -5809)">
        <g id="Group_1152583" data-name="Group 1152583" transform="translate(1043 6713)">
          <g id="Group_1146973" data-name="Group 1146973" transform="translate(0 0)">
            <g id="Group_1146954" data-name="Group 1146954">
              <g transform="matrix(1, 0, 0, 1, -9, -6)" filter="url(#Path_982547)">
                <g id="Path_982547-2" data-name="Path 982547" transform="translate(9 6)" fill="#fff6f9">
                  <path d="M 46 90.49987030029297 C 39.99187850952148 90.49987030029297 34.16426849365234 89.32350921630859 28.67905426025391 87.00345611572266 C 23.38019943237305 84.76224517822266 18.62104034423828 81.55341339111328 14.53374671936035 77.46613311767578 C 10.44646644592285 73.37885284423828 7.237639904022217 68.61969757080078 4.996413230895996 63.32085418701172 C 2.676359891891479 57.83565521240234 1.5 52.008056640625 1.5 45.99993515014648 C 1.5 39.99181365966797 2.676359891891479 34.16421508789062 4.996413230895996 28.67901420593262 C 7.237639904022217 23.38017463684082 10.44646644592285 18.62101554870605 14.53374671936035 14.53373527526855 C 18.62104034423828 10.44645500183105 23.38019943237305 7.23762845993042 28.67905426025391 4.996415138244629 C 34.16426849365234 2.676361799240112 39.99187850952148 1.500001788139343 46 1.500001788139343 C 52.00812149047852 1.500001788139343 57.83573150634766 2.676361799240112 63.32094573974609 4.996415138244629 C 68.61979675292969 7.23762845993042 73.37895965576172 10.44645500183105 77.46625518798828 14.53373527526855 C 81.55353546142578 18.62101554870605 84.76235961914062 23.38017463684082 87.00358581542969 28.67901420593262 C 89.32363891601562 34.16421508789062 90.5 39.99181365966797 90.5 45.99993515014648 C 90.5 52.008056640625 89.32363891601562 57.83565521240234 87.00358581542969 63.32085418701172 C 84.76235961914062 68.61969757080078 81.55353546142578 73.37885284423828 77.46625518798828 77.46613311767578 C 73.37895965576172 81.55341339111328 68.61979675292969 84.76224517822266 63.32094573974609 87.00345611572266 C 57.83573150634766 89.32350921630859 52.00812149047852 90.49987030029297 46 90.49987030029297 Z" stroke="none"/>
                  <path d="M 46 2.999992370605469 C 40.1937141418457 2.999992370605469 34.56269836425781 4.136489868164062 29.26337051391602 6.377906799316406 C 24.14332580566406 8.543502807617188 19.54441070556641 11.64437866210938 15.59439849853516 15.59437561035156 C 11.64440155029297 19.54439544677734 8.54351806640625 24.14329528808594 6.377914428710938 29.26333618164062 C 4.136497497558594 34.56264877319336 3 40.19366455078125 3 45.99993515014648 C 3 51.80620574951172 4.136497497558594 57.43720626831055 6.377914428710938 62.73651885986328 C 8.54351806640625 67.8565673828125 11.64440155029297 72.45545959472656 15.59439849853516 76.40547943115234 C 19.54441070556641 80.35547637939453 24.14332580566406 83.45635223388672 29.26337051391602 85.6219482421875 C 34.56269836425781 87.86336517333984 40.1937141418457 88.99986267089844 46 88.99986267089844 C 51.8062858581543 88.99986267089844 57.43730163574219 87.86336517333984 62.73661422729492 85.6219482421875 C 67.85667419433594 83.45635223388672 72.45557403564453 80.35547637939453 76.40558624267578 76.40547943115234 C 80.35559844970703 72.45545959472656 83.45647430419922 67.8565673828125 85.6220703125 62.73651885986328 C 87.86350250244141 57.43720626831055 89 51.80620574951172 89 45.99993515014648 C 89 40.19366455078125 87.86350250244141 34.56264877319336 85.6220703125 29.26333618164062 C 83.45647430419922 24.14329528808594 80.35559844970703 19.54439544677734 76.40558624267578 15.59437561035156 C 72.45557403564453 11.64437866210938 67.85667419433594 8.543502807617188 62.73661422729492 6.377906799316406 C 57.43730163574219 4.136489868164062 51.8062858581543 2.999992370605469 46 2.999992370605469 M 46 -7.62939453125e-06 C 71.40509033203125 -7.62939453125e-06 92 20.59486389160156 92 45.99993515014648 C 92 71.40499114990234 71.40509033203125 91.99986267089844 46 91.99986267089844 C 20.59490203857422 91.99986267089844 0 71.40499114990234 0 45.99993515014648 C 0 20.59486389160156 20.59490203857422 -7.62939453125e-06 46 -7.62939453125e-06 Z" stroke="none" fill="#ffaece"/>
                </g>
              </g>
            </g>
          </g>
        </g>
      </g>
      <g id="servicio-al-cliente" transform="translate(786.19 917)">
        <path id="Path_990502" data-name="Path 990502" d="M261.613,261.412v4.772l-5.342,4.022-5.342-4.022v-4.772Z" transform="translate(-186.295 -229.587)" fill="#fed2a4"/>
        <path id="Path_990503" data-name="Path 990503" d="M253.363,266.184v-4.772h-2.435v4.772l5.342,4.022,1.217-.917Z" transform="translate(-186.294 -229.587)" fill="#ffbd86"/>
        <path id="Path_990504" data-name="Path 990504" d="M55.829,146.255H48.136a1.826,1.826,0,0,1-1.826-1.826v-11.56a1.826,1.826,0,0,1,1.826-1.826h7.693a1.826,1.826,0,0,1,1.826,1.826v5.78l3.782,3.825H57.655v1.955A1.826,1.826,0,0,1,55.829,146.255Z" transform="translate(-6.587 -115.089)" fill="#75cc77"/>
        <path id="Path_990505" data-name="Path 990505" d="M69.606,306.526h3.782V302.5a1.891,1.891,0,0,0-3.782,0Z" transform="translate(-27.047 -264.015)" fill="#fed2a4"/>
        <path id="Path_990506" data-name="Path 990506" d="M72.411,300.847a1.891,1.891,0,0,0-2.805,1.655v4.023h1.826V302.5A1.891,1.891,0,0,1,72.411,300.847Z" transform="translate(-27.047 -264.015)" fill="#ffbd86"/>
        <path id="Path_990507" data-name="Path 990507" d="M65.687,317.87a1.826,1.826,0,0,0,1.826-1.826v-1.955L74.44,305.1a3.651,3.651,0,0,1,1.614-1.192l8.81-3.293,5.338,4.022,5.338-4.022,11.933,3.759a5.111,5.111,0,0,1,3.527,4.86v16.2H75.077v-9.45L68.6,323.807a3.652,3.652,0,0,1-3.039,1.626h-.065a3.652,3.652,0,0,1-3.652-3.652v-3.911Z" transform="translate(-20.227 -264.015)" fill="#42a5f5"/>
        <g id="Group_1154684" data-name="Group 1154684" transform="translate(41.614 36.597)">
          <path id="Path_990508" data-name="Path 990508" d="M306.026,304.634l4.621-3.481-1.717-.541-4.121,3.105Z" transform="translate(-275.23 -300.612)" fill="#0593fc"/>
          <path id="Path_990509" data-name="Path 990509" d="M170.559,411.017h2.435v11.376h-2.435Z" transform="translate(-157.324 -397.576)" fill="#0593fc"/>
          <path id="Path_990510" data-name="Path 990510" d="M64.277,321.781V317.87h3.846a1.826,1.826,0,0,0,1.826-1.826v-1.955l6.926-8.991a3.653,3.653,0,0,1,1.614-1.192l7.183-2.685-.807-.608-8.81,3.293a3.651,3.651,0,0,0-1.614,1.192l-6.926,8.991v1.955a1.826,1.826,0,0,1-1.826,1.826H61.842v3.911a3.652,3.652,0,0,0,3.652,3.652h.066a3.656,3.656,0,0,0,1.184-.2A3.656,3.656,0,0,1,64.277,321.781Z" transform="translate(-61.842 -300.612)" fill="#0593fc"/>
        </g>
        <path id="Path_990511" data-name="Path 990511" d="M170.559,411.017h28.362v7.6H170.559Z" transform="translate(-115.71 -360.979)" fill="#ffca28"/>
        <path id="Path_990512" data-name="Path 990512" d="M170.559,411.017h2.435v7.6h-2.435Z" transform="translate(-115.71 -360.979)" fill="#f9b916"/>
        <path id="Path_990513" data-name="Path 990513" d="M187.979,131.752h-1.834A2.544,2.544,0,0,0,183.6,134.3V136.2a2.544,2.544,0,0,0,2.544,2.544h1.834Z" transform="translate(-127.164 -115.712)" fill="#fed2a4"/>
        <path id="Path_990514" data-name="Path 990514" d="M370.056,131.752h1.834a2.544,2.544,0,0,1,2.544,2.544V136.2a2.544,2.544,0,0,1-2.544,2.544h-1.834Z" transform="translate(-290.919 -115.712)" fill="#fed2a4"/>
        <path id="Path_990515" data-name="Path 990515" d="M219.559,103.847v8.8a8.462,8.462,0,0,0,8.462,8.462h1.4a8.462,8.462,0,0,0,8.462-8.462v-8.711l-9.161-3.856Z" transform="translate(-158.744 -87.893)" fill="#fff3de"/>
        <path id="Path_990516" data-name="Path 990516" d="M221.994,112.644v-8.8l7.93-3.263-1.2-.507-9.161,3.77v8.8a8.462,8.462,0,0,0,8.462,8.462h1.4c.174,0,.347-.007.519-.017a8.462,8.462,0,0,1-7.944-8.445Z" transform="translate(-158.744 -87.893)" fill="#ffe5c2"/>
        <path id="Path_990517" data-name="Path 990517" d="M191.469,49.907h4.2a3.652,3.652,0,0,0,3.652-3.652V38.562h-2.375a5.478,5.478,0,0,0-5.478,5.478Z" transform="translate(-134.074 -33.867)" fill="#546e7a"/>
        <path id="Path_990518" data-name="Path 990518" d="M199.322,38.563h-2.375a5.478,5.478,0,0,0-5.478,5.478v5.867H193.9V44.04A5.478,5.478,0,0,1,199.322,38.563Z" transform="translate(-134.073 -33.867)" fill="#435860"/>
        <path id="Path_990519" data-name="Path 990519" d="M265.829,7.5a7.5,7.5,0,0,1,7.5,7.5v7.63H259.631a3.652,3.652,0,0,1-3.652-3.652V11.154A3.652,3.652,0,0,1,259.631,7.5Z" transform="translate(-190.73 -6.589)" fill="#546e7a"/>
        <path id="Path_990520" data-name="Path 990520" d="M258.414,18.975V11.153A3.652,3.652,0,0,1,262.066,7.5h-2.435a3.652,3.652,0,0,0-3.652,3.652v7.822a3.652,3.652,0,0,0,3.652,3.652h2.435A3.652,3.652,0,0,1,258.414,18.975Z" transform="translate(-190.73 -6.588)" fill="#435860"/>
        <path id="Path_990521" data-name="Path 990521" d="M48.136,360.532h3.911a1.826,1.826,0,0,0,1.826-1.826v-7.693a1.826,1.826,0,0,0-1.826-1.826H48.136a1.826,1.826,0,0,0-1.826,1.826v7.693A1.826,1.826,0,0,0,48.136,360.532Z" transform="translate(-6.587 -306.676)" fill="#fff3de"/>
        <path id="Path_990522" data-name="Path 990522" d="M48.746,358.706v-7.693a1.826,1.826,0,0,1,1.826-1.826H48.137a1.826,1.826,0,0,0-1.826,1.826v7.693a1.826,1.826,0,0,0,1.826,1.826h2.435A1.826,1.826,0,0,1,48.746,358.706Z" transform="translate(-6.588 -306.676)" fill="#ffe5c2"/>
        <g id="Group_1154685" data-name="Group 1154685" transform="translate(38.81 0)">
          <path id="Path_990523" data-name="Path 990523" d="M320.6,154.622a.913.913,0,0,0,.913-.913v-1.2a.913.913,0,0,0-1.826,0v1.2A.913.913,0,0,0,320.6,154.622Z" transform="translate(-285.496 -133.141)"/>
          <path id="Path_990524" data-name="Path 990524" d="M255.986,154.622a.913.913,0,0,0,.913-.913v-1.2a.913.913,0,0,0-1.826,0v1.2A.913.913,0,0,0,255.986,154.622Z" transform="translate(-228.745 -133.141)"/>
          <path id="Path_990525" data-name="Path 990525" d="M271.7,206.339a3.207,3.207,0,0,0,3.2-3.2.913.913,0,1,0-1.826,0,1.377,1.377,0,1,1-2.754,0,.913.913,0,1,0-1.826,0A3.207,3.207,0,0,0,271.7,206.339Z" transform="translate(-240.537 -177.604)"/>
          <path id="Path_990526" data-name="Path 990526" d="M90.774,48.961a.913.913,0,0,0,.913-.913V45.216a6.013,6.013,0,0,0-4.166-5.731L76.231,35.929V32.3a9.846,9.846,0,0,0,3.819-8.349c2.095.161,4.377-1.081,4.377-3.457V18.584a3.444,3.444,0,0,0-.937-2.363c.012-.059.018-2.6.018-2.6a.913.913,0,1,0-1.826,0v1.51H68.9a2.742,2.742,0,0,1-2.739-2.739V4.565A2.742,2.742,0,0,1,68.9,1.826h6.2A6.591,6.591,0,0,1,81.683,8.41V9.637a.913.913,0,1,0,1.826,0V8.41A8.419,8.419,0,0,0,75.1,0H68.9a4.572,4.572,0,0,0-4.5,3.782H62.873a6.4,6.4,0,0,0-6.391,6.391s.005,5.965.013,6.013a3.445,3.445,0,0,0-.971,2.4V20.49c0,2.339,2.272,3.637,4.378,3.457A9.707,9.707,0,0,0,63.721,32.3v3.669l-8.214,3.07a4.569,4.569,0,0,0-2.017,1.491L48.2,47.393V44.337a2.733,2.733,0,0,0-.946-2.068V38.488a2.8,2.8,0,1,0-5.608,0V41.6a2.52,2.52,0,0,0-2.836,2.739v7.693a2.744,2.744,0,0,0,1.891,2.6v3.133a4.611,4.611,0,0,0,8.4,2.574L53.936,54.5v6.914a.913.913,0,0,0,.913.913H90.774a.913.913,0,0,0,.913-.913V52.028a.913.913,0,0,0-1.826,0V60.5H84.124V48.386a.913.913,0,1,0-1.826,0v.739H55.763v-.942a.913.913,0,1,0-1.826,0v3.453L47.667,59.21c-1.495,1.8-5.14,1.859-5.14-1.444v-3h2.9v.978a.913.913,0,1,0,1.826,0V54.1a2.733,2.733,0,0,0,.946-2.068V50.385l6.736-8.744a2.744,2.744,0,0,1,1.211-.895l8.339-3.117,4.941,3.72a.956.956,0,0,0,1.157-.044l4.907-3.7,11.474,3.615a4.189,4.189,0,0,1,2.9,3.992v2.832a.913.913,0,0,0,.913.913ZM82.3,50.952v5.773H66.623a.913.913,0,0,0,0,1.826H82.3V60.5H55.763v-1.95h6.882a.913.913,0,0,0,0-1.826H55.763V50.952ZM43.472,38.488a.978.978,0,1,1,1.955,0V41.6H43.472Zm-2.836,5.849a.914.914,0,0,1,.913-.913H45.46a.914.914,0,0,1,.913.913V45.38H43.5a.913.913,0,0,0,0,1.826h2.868v1.956H43.5a.913.913,0,0,0,0,1.826h2.868V52.03c0,.609-.369.872-.912.913H41.549a.914.914,0,0,1-.913-.913ZM82.6,20.49a1.633,1.633,0,0,1-1.631,1.631h-.92V16.953h.92A1.633,1.633,0,0,1,82.6,18.584ZM58.308,10.173a4.57,4.57,0,0,1,4.565-4.565h1.462v6.78h0A2.742,2.742,0,0,1,61.6,15.127H58.308Zm.673,11.948A1.633,1.633,0,0,1,57.35,20.49V18.584a1.633,1.633,0,0,1,1.631-1.631h.92v5.168h-.92Zm2.747,2.629v-7.8a4.561,4.561,0,0,0,3.521-1.826A4.561,4.561,0,0,0,68.9,16.953h9.323v7.8c0,10.033-16.5,10.022-16.5,0ZM74.4,33.35v2.789l-4.429,3.337-4.429-3.337V33.35C67.724,34.656,72.066,34.575,74.4,33.35Z" transform="translate(-38.81 0)"/>
          <path id="Path_990527" data-name="Path 990527" d="M64.265,175.829a.913.913,0,0,0,1.291,0l3.782-3.782a.913.913,0,0,0-1.291-1.291l-3.136,3.136-1.245-1.245a.913.913,0,1,0-1.291,1.291Z" transform="translate(-59.271 -149.733)"/>
          <path id="Path_990528" data-name="Path 990528" d="M41.55,140.581h7.693a2.742,2.742,0,0,0,2.739-2.739V136.8h2.869c.964-.008,1.39-.743.649-1.555l-3.518-3.558v-5.4a2.742,2.742,0,0,0-2.739-2.739H41.55a2.742,2.742,0,0,0-2.739,2.739v11.56A2.742,2.742,0,0,0,41.55,140.581Zm-.913-14.3a.914.914,0,0,1,.913-.913h7.693a.914.914,0,0,1,.913.913v5.78a.913.913,0,0,0,.264.642l2.244,2.27H51.069a.913.913,0,0,0-.913.913v1.955a.914.914,0,0,1-.913.913H41.55a.914.914,0,0,1-.913-.913Z" transform="translate(-38.811 -108.502)"/>
        </g>
      </g>
    </g>
  </g>
</svg>
