<svg xmlns="http://www.w3.org/2000/svg" xmlns:xlink="http://www.w3.org/1999/xlink" width="110" height="110" viewBox="0 0 110 110">
  <defs>
    <filter id="Path_982547" x="0" y="0" width="110" height="110" filterUnits="userSpaceOnUse">
      <feOffset dy="3" input="SourceAlpha"/>
      <feGaussianBlur stdDeviation="3" result="blur"/>
      <feFlood flood-opacity="0.161"/>
      <feComposite operator="in" in2="blur"/>
      <feComposite in="SourceGraphic"/>
    </filter>
  </defs>
  <g id="Group_1154790" data-name="Group 1154790" transform="translate(-4035 -2304)">
    <g id="Group_1154741" data-name="Group 1154741">
      <g id="Group_1154221" data-name="Group 1154221" transform="translate(3001 -4403)">
        <g id="Group_1152583" data-name="Group 1152583" transform="translate(1043 6713)">
          <g id="Group_1146973" data-name="Group 1146973" transform="translate(0 0)">
            <g id="Group_1146954" data-name="Group 1146954">
              <g transform="matrix(1, 0, 0, 1, -9, -6)" filter="url(#Path_982547)">
                <g id="Path_982547-2" data-name="Path 982547" transform="translate(9 6)" fill="#fff6f9">
                  <path d="M 46 90.49987030029297 C 39.99187850952148 90.49987030029297 34.16426849365234 89.32350921630859 28.67905426025391 87.00345611572266 C 23.38019943237305 84.76224517822266 18.62104034423828 81.55341339111328 14.53374671936035 77.46613311767578 C 10.44646644592285 73.37885284423828 7.237639904022217 68.61969757080078 4.996413230895996 63.32085418701172 C 2.676359891891479 57.83565521240234 1.5 52.008056640625 1.5 45.99993515014648 C 1.5 39.99181365966797 2.676359891891479 34.16421508789062 4.996413230895996 28.67901420593262 C 7.237639904022217 23.38017463684082 10.44646644592285 18.62101554870605 14.53374671936035 14.53373527526855 C 18.62104034423828 10.44645500183105 23.38019943237305 7.23762845993042 28.67905426025391 4.996415138244629 C 34.16426849365234 2.676361799240112 39.99187850952148 1.500001788139343 46 1.500001788139343 C 52.00812149047852 1.500001788139343 57.83573150634766 2.676361799240112 63.32094573974609 4.996415138244629 C 68.61979675292969 7.23762845993042 73.37895965576172 10.44645500183105 77.46625518798828 14.53373527526855 C 81.55353546142578 18.62101554870605 84.76235961914062 23.38017463684082 87.00358581542969 28.67901420593262 C 89.32363891601562 34.16421508789062 90.5 39.99181365966797 90.5 45.99993515014648 C 90.5 52.008056640625 89.32363891601562 57.83565521240234 87.00358581542969 63.32085418701172 C 84.76235961914062 68.61969757080078 81.55353546142578 73.37885284423828 77.46625518798828 77.46613311767578 C 73.37895965576172 81.55341339111328 68.61979675292969 84.76224517822266 63.32094573974609 87.00345611572266 C 57.83573150634766 89.32350921630859 52.00812149047852 90.49987030029297 46 90.49987030029297 Z" stroke="none"/>
                  <path d="M 46 2.999992370605469 C 40.1937141418457 2.999992370605469 34.56269836425781 4.136489868164062 29.26337051391602 6.377906799316406 C 24.14332580566406 8.543502807617188 19.54441070556641 11.64437866210938 15.59439849853516 15.59437561035156 C 11.64440155029297 19.54439544677734 8.54351806640625 24.14329528808594 6.377914428710938 29.26333618164062 C 4.136497497558594 34.56264877319336 3 40.19366455078125 3 45.99993515014648 C 3 51.80620574951172 4.136497497558594 57.43720626831055 6.377914428710938 62.73651885986328 C 8.54351806640625 67.8565673828125 11.64440155029297 72.45545959472656 15.59439849853516 76.40547943115234 C 19.54441070556641 80.35547637939453 24.14332580566406 83.45635223388672 29.26337051391602 85.6219482421875 C 34.56269836425781 87.86336517333984 40.1937141418457 88.99986267089844 46 88.99986267089844 C 51.8062858581543 88.99986267089844 57.43730163574219 87.86336517333984 62.73661422729492 85.6219482421875 C 67.85667419433594 83.45635223388672 72.45557403564453 80.35547637939453 76.40558624267578 76.40547943115234 C 80.35559844970703 72.45545959472656 83.45647430419922 67.8565673828125 85.6220703125 62.73651885986328 C 87.86350250244141 57.43720626831055 89 51.80620574951172 89 45.99993515014648 C 89 40.19366455078125 87.86350250244141 34.56264877319336 85.6220703125 29.26333618164062 C 83.45647430419922 24.14329528808594 80.35559844970703 19.54439544677734 76.40558624267578 15.59437561035156 C 72.45557403564453 11.64437866210938 67.85667419433594 8.543502807617188 62.73661422729492 6.377906799316406 C 57.43730163574219 4.136489868164062 51.8062858581543 2.999992370605469 46 2.999992370605469 M 46 -7.62939453125e-06 C 71.40509033203125 -7.62939453125e-06 92 20.59486389160156 92 45.99993515014648 C 92 71.40499114990234 71.40509033203125 91.99986267089844 46 91.99986267089844 C 20.59490203857422 91.99986267089844 0 71.40499114990234 0 45.99993515014648 C 0 20.59486389160156 20.59490203857422 -7.62939453125e-06 46 -7.62939453125e-06 Z" stroke="none" fill="#ffaece"/>
                </g>
              </g>
            </g>
          </g>
        </g>
      </g>
      <g id="Page-1" transform="translate(4062.946 2326.015)">
        <g id="_021---Brain-Profile" data-name="021---Brain-Profile" transform="translate(0 -1)">
          <path id="Shape" d="M47.23,57.13A2,2,0,0,1,45.43,60H25.26a2,2,0,0,1-1.89-1.37c-.66-1.9-2.11-5.24-4.51-6.33a84.846,84.846,0,0,1-8.69,2.63,2.724,2.724,0,0,1-3.21-2c-.85-2.46.33-3.13-.05-4.6-.26-1.02-1.22-1.27-1.98-1.81-.61-.43.49-1.84.49-1.84s-1.17-.87-1.59-1.25c-.44-.37.17-.99.73-2.16a2.62,2.62,0,0,0,.18-1.61c-.2-1.08-1.82-1.48-2.62-2.08C.45,36.34.36,36.04,4.72,31.33a7.077,7.077,0,0,0,1.66-3.76c.08-.47.56-.98.55-1.55C6.91,24.59,4.84,24,4.65,22.61c-.15-1.08,1.24-3.05,1.69-4.98a29.98,29.98,0,0,1,.95-3.49,18.061,18.061,0,0,1,3.79-6.2c2.45-2.6,5.85-3.72,9.29-4.52C32.95.52,39.26,2.11,46.43,7.75a15.483,15.483,0,0,1,5.62,8.09,29.074,29.074,0,0,1,1,8.2c-.1,7.34-4.77,9.91-6.85,14.66a18.11,18.11,0,0,0-1.38,9.31,27.724,27.724,0,0,0,2.4,9.09Z" fill="#ffe0b2"/>
          <path id="Shape-2" data-name="Shape" d="M47.22,57.1a27.724,27.724,0,0,1-2.4-9.09A18.11,18.11,0,0,1,46.2,38.7c2.08-4.75,6.75-7.32,6.85-14.66a29.074,29.074,0,0,0-1-8.2,15.483,15.483,0,0,0-5.62-8.09c-5.189-4.082-9.94-6.03-16.93-5.7,5.425.3,9.518,2.23,13.931,5.7a15.483,15.483,0,0,1,5.62,8.09,29.074,29.074,0,0,1,1,8.2c-.1,7.34-4.77,9.91-6.85,14.66a18.11,18.11,0,0,0-1.38,9.31,27.724,27.724,0,0,0,2.4,9.09l.01.03A2,2,0,0,1,42.43,60h3a2,2,0,0,0,1.8-2.87Z" fill="#dfc49c"/>
          <path id="Shape-3" data-name="Shape" d="M47.06,22.88a5.287,5.287,0,0,1-1.37,3.55h-.01a7.426,7.426,0,0,1-3.78,5.2,9.067,9.067,0,0,1,1.32,2.66,2.035,2.035,0,0,1,.1.64,2.088,2.088,0,0,1-1.26,1.91,1.657,1.657,0,0,1-.38.11v.01a2.135,2.135,0,0,1-2.07-.75,5.47,5.47,0,0,0-2.48-1.64c-.17-.06-.33-.11-.49-.17-2.75-.99-3.6-2.03-3.8-3.74h-.06a8.594,8.594,0,0,1-3.14-.59,5.267,5.267,0,0,1-8.97-1.72h-.01a7.15,7.15,0,0,1-8.19-10.98,3.163,3.163,0,0,1-.17-1.02,3.115,3.115,0,0,1,2.5-3.06c-.01-.12-.02-.24-.02-.37a4.039,4.039,0,0,1,4.03-4.04,3.915,3.915,0,0,1,1.75.4,5.906,5.906,0,0,1,5.08-2.89,5.843,5.843,0,0,1,3.89,1.47,3.1,3.1,0,0,1,5.5.45,7.92,7.92,0,0,1,.85-.05,7.461,7.461,0,0,1,7.43,6.84h.02a3.121,3.121,0,0,1,2.7,4.65,5.243,5.243,0,0,1,1.03,3.13Z" fill="#ef314c"/>
          <path id="Shape-4" data-name="Shape" d="M46.03,19.75a3.121,3.121,0,0,0-2.7-4.65h-.02a7.461,7.461,0,0,0-7.43-6.84,7.92,7.92,0,0,0-.85.05,3.11,3.11,0,0,0-2.87-1.92,3.052,3.052,0,0,0-1.5.4,3.125,3.125,0,0,1,1.37,1.52,7.92,7.92,0,0,1,.85-.05,7.461,7.461,0,0,1,7.43,6.84h.02a3.121,3.121,0,0,1,2.7,4.65,5.278,5.278,0,0,1-.34,6.68h-.01a7.426,7.426,0,0,1-3.78,5.2,9.067,9.067,0,0,1,1.32,2.66,2.035,2.035,0,0,1,.1.64,2.069,2.069,0,0,1-.576,1.4,2.109,2.109,0,0,0,1.936.627v-.01a1.657,1.657,0,0,0,.38-.11,2.088,2.088,0,0,0,1.26-1.91,2.035,2.035,0,0,0-.1-.64,9.067,9.067,0,0,0-1.32-2.66,7.426,7.426,0,0,0,3.78-5.2h.01a5.278,5.278,0,0,0,.34-6.68Z" fill="#bb193b"/>
          <path id="Shape-5" data-name="Shape" d="M43.8,60H39.26c-2.1-5.69-3.99-11.8-2.87-18.09.42-2.38,1.31-4.92.25-7.51.16.06.32.11.49.17a5.47,5.47,0,0,1,2.48,1.64,2.135,2.135,0,0,0,2.07.75,26.742,26.742,0,0,1-.75,4.95C39.81,48.2,41.7,54.31,43.8,60Z" fill="#bb193b"/>
          <path id="Shape-6" data-name="Shape" d="M35.244,17.408a1,1,0,0,0-1.17.794,3.99,3.99,0,0,1-1.656,2.539,4.084,4.084,0,0,1-5.264-.595,1,1,0,0,0-1.484,1.341,6.022,6.022,0,0,0,3.2,1.847,2.974,2.974,0,0,1-2.434,1.256,1,1,0,0,0,0,2A4.96,4.96,0,0,0,31.1,23.383a6.034,6.034,0,0,0,4.938-4.8,1,1,0,0,0-.794-1.175Z" fill="#f5f5f5"/>
          <path id="Shape-7" data-name="Shape" d="M26.855,14.39a1,1,0,0,0-1-1,4.606,4.606,0,0,0-4.6,4.6,1,1,0,1,0,2,0,2.6,2.6,0,0,1,2.6-2.6,1,1,0,0,0,1-1Z" fill="#f5f5f5"/>
          <path id="Shape-8" data-name="Shape" d="M5.4,27.4a6.08,6.08,0,0,1-1.408,3.251C.85,34.04-.047,35.207.063,36.415s1.431,2.029,2.5,2.574c.43.22,1.15.589,1.2.853a1.709,1.709,0,0,1-.11,1.005c-.543,1.144-1.614,2.383-.489,3.331.215.191.585.482.922.74a2.522,2.522,0,0,0-.322,1.449c.109.753.627,1.028,1.285,1.4.883.506,1.112.655.811,1.925-.82,3.465,1.192,6.9,4.511,6.211a81.1,81.1,0,0,0,8.412-2.523c1.38.823,2.691,2.823,3.638,5.574A3.013,3.013,0,0,0,25.264,61H45.43a3,3,0,0,0,2.684-4.336,27.422,27.422,0,0,1-2.3-8.778,16.945,16.945,0,0,1,1.3-8.782c1.98-4.523,6.829-7.378,6.936-15.047.128-8.786-2.589-13.635-7.007-17.095-7.879-6.2-14.668-7.337-26.9-4.515-3.32.766-7.08,1.935-9.789,4.8a18.989,18.989,0,0,0-4,6.542,26.389,26.389,0,0,0-.9,3.271,11.681,11.681,0,0,1-.963,2.69c-1.094,2.449-1.358,3.4.632,5.225C6.614,26.351,5.63,26,5.4,27.4Zm30.9,2.578a1,1,0,0,0-1.25-.663A7.6,7.6,0,0,1,30,29.134a1.053,1.053,0,0,0-1.122.279,4.281,4.281,0,0,1-6.9-5.008,1,1,0,1,0-1.715-1.029,6.214,6.214,0,0,0-.572,1.286,1.508,1.508,0,0,1-1.425-1.5.989.989,0,0,0-1-.987c-1.9,0-1.025,4.118,2.1,4.462a6.28,6.28,0,0,0,.091,1,6.125,6.125,0,0,1-6.914-8.369,4.071,4.071,0,0,0,.745.593,1,1,0,1,0,1.031-1.714,2.115,2.115,0,0,1,1.08-3.921,2.079,2.079,0,0,1,1.681.848,1,1,0,0,0,1.6-1.194,4.039,4.039,0,0,0-2.837-1.6,3,3,0,0,1,3.33-2.36c-.075.206-.154.411-.209.624a1,1,0,0,0,1.935.5,4.884,4.884,0,0,1,7.386-2.86A4.065,4.065,0,0,0,28.056,9.5a1,1,0,1,0,2,0,2.1,2.1,0,0,1,4.207,0,1,1,0,1,0,2,0c0-.078-.019-.15-.023-.227a6.492,6.492,0,0,1,5.922,5.006,4.069,4.069,0,0,0-1.294.645,1,1,0,1,0,1.2,1.6,2.108,2.108,0,1,1,2.145,3.6,1,1,0,1,0,.85,1.811,4.115,4.115,0,0,0,.748-.467,4.275,4.275,0,0,1-6.461,4.924,3.41,3.41,0,0,0,.267-3.518,1,1,0,0,0-1.79.893,1.487,1.487,0,0,1-.482,1.886,1.507,1.507,0,0,1-2.171-.553,1,1,0,1,0-1.786.9,3.45,3.45,0,0,0,4.37,1.682A6.129,6.129,0,0,0,43.55,28.9a6.375,6.375,0,0,1-4.118,2.526,1,1,0,0,0,.317,1.975,8.226,8.226,0,0,0,1.773-.518,8.933,8.933,0,0,1,.745,1.718,1.078,1.078,0,0,1-1.894.966,6.4,6.4,0,0,0-2.928-1.945c-2.161-.723-2.995-1.37-3.349-2.074a9.49,9.49,0,0,0,1.533-.321,1,1,0,0,0,.663-1.246Zm1.788,6.186a4.166,4.166,0,0,1,.767.7,3.206,3.206,0,0,0,1.781,1.066C40.255,41.862,37.68,45.845,42.377,59H39.955c-5.61-15.424-1.325-17.349-1.875-22.834ZM5.643,22.475a6.472,6.472,0,0,1,.668-1.907A13.9,13.9,0,0,0,7.4,17.511a25.041,25.041,0,0,1,.833-3.03,17.022,17.022,0,0,1,3.58-5.858C14.149,6.149,17.413,5.13,20.6,4.4c13.042-3.009,18.723-.966,25.215,4.14a14.426,14.426,0,0,1,5.273,7.572,28,28,0,0,1,.968,7.92c-.1,7-4.6,9.311-6.769,14.278a18.938,18.938,0,0,0-1.455,9.82,29.265,29.265,0,0,0,2.5,9.44A1,1,0,0,1,45.43,59H44.5c-5-13.751-2.107-16.733-1.845-21.347a3.06,3.06,0,0,0,1.517-3.673,10.807,10.807,0,0,0-.883-2.035,8.433,8.433,0,0,0,3.322-5.081,6.191,6.191,0,0,0,.554-7.187A4.1,4.1,0,0,0,44.2,14.2a8.478,8.478,0,0,0-8.6-6.93,4.069,4.069,0,0,0-6.225-.77,6.877,6.877,0,0,0-9.191,1.579,5.007,5.007,0,0,0-6.367,4.476A4.089,4.089,0,0,0,11.4,17.2a8.133,8.133,0,0,0,8.7,12.359,6.267,6.267,0,0,0,9.819,1.657,9.607,9.607,0,0,0,2.088.407c.431,1.6,1.576,2.647,3.832,3.542a9.947,9.947,0,0,1-.171,5.226C34.283,47,35.451,52.337,37.829,59H25.264a1.014,1.014,0,0,1-.952-.692,14.739,14.739,0,0,0-3.283-5.7c1.083-.379,1.958-.691,2.323-.806,4.277-1.346,6.417-3.294,6.358-5.792a.974.974,0,0,0-1.023-.976,1,1,0,0,0-.976,1.023c.057,2.436-4.322,3.6-6.6,4.4A111.2,111.2,0,0,1,9.962,53.95a1.772,1.772,0,0,1-2.054-1.342c-.788-2.272.465-2.583-.028-4.524-.3-1.162-1.117-1.625-2.053-2.17.294-.619.666-.786.586-1.371s-.382-.616-1.615-1.6a4.7,4.7,0,0,0,.928-3.468c-.311-1.643-2.3-2.159-3.011-2.688a5.548,5.548,0,0,1-.661-.542c.017-.578,2.217-2.951,3.4-4.226a8,8,0,0,0,1.914-4.281,4.349,4.349,0,0,0,.561-1.727c-.02-1.918-2.173-2.711-2.286-3.536Z"/>
        </g>
      </g>
    </g>
  </g>
</svg>
