<svg xmlns="http://www.w3.org/2000/svg" xmlns:xlink="http://www.w3.org/1999/xlink" width="113" height="113" viewBox="0 0 113 113">
  <defs>
    <filter id="Path_982547" x="0" y="0" width="113" height="113" filterUnits="userSpaceOnUse">
      <feOffset dy="3" input="SourceAlpha"/>
      <feGaussianBlur stdDeviation="3" result="blur"/>
      <feFlood flood-opacity="0.161"/>
      <feComposite operator="in" in2="blur"/>
      <feComposite in="SourceGraphic"/>
    </filter>
  </defs>
  <g id="Group_1154778" data-name="Group 1154778" transform="translate(-586.954 -5841.646)">
    <g id="Group_1154777" data-name="Group 1154777">
      <g id="Group_1154676" data-name="Group 1154676" transform="translate(0 190)">
        <g id="Group_1154182" data-name="Group 1154182" transform="translate(260.5 1336.266)">
          <g id="Group_1148633" data-name="Group 1148633" transform="translate(71.408 600.047)">
            <g id="Group_1148525" data-name="Group 1148525" transform="translate(264.046 3721.333)">
              <g transform="matrix(1, 0, 0, 1, -9, -6)" filter="url(#Path_982547)">
                <g id="Path_982547-2" data-name="Path 982547" transform="translate(9 6)" fill="#fff6f9">
                  <path d="M 47.5 93.5 C 41.28937149047852 93.5 35.26533508300781 92.28397369384766 29.59518623352051 89.88570404052734 C 24.11771965026855 87.56893157958984 19.19813346862793 84.25196075439453 14.97309303283691 80.02691650390625 C 10.74804019927979 75.80186462402344 7.431066513061523 70.88229370117188 5.114293098449707 65.40481567382812 C 2.716026782989502 59.73468017578125 1.5 53.71062850952148 1.5 47.5 C 1.5 41.28937149047852 2.716026782989502 35.26533508300781 5.114293098449707 29.59518623352051 C 7.431066513061523 24.11771965026855 10.74804019927979 19.19813346862793 14.97309303283691 14.97309303283691 C 19.19813346862793 10.74804019927979 24.11771965026855 7.431066513061523 29.59518623352051 5.114293098449707 C 35.26533508300781 2.716026782989502 41.28937149047852 1.5 47.5 1.5 C 53.71062850952148 1.5 59.73468017578125 2.716026782989502 65.40481567382812 5.114293098449707 C 70.88229370117188 7.431066513061523 75.80186462402344 10.74804019927979 80.02691650390625 14.97309303283691 C 84.25196075439453 19.19813346862793 87.56893157958984 24.11771965026855 89.88570404052734 29.59518623352051 C 92.28397369384766 35.26533508300781 93.5 41.28937149047852 93.5 47.5 C 93.5 53.71062850952148 92.28397369384766 59.73468017578125 89.88570404052734 65.40481567382812 C 87.56893157958984 70.88229370117188 84.25196075439453 75.80186462402344 80.02691650390625 80.02691650390625 C 75.80186462402344 84.25196075439453 70.88229370117188 87.56893157958984 65.40481567382812 89.88570404052734 C 59.73468017578125 92.28397369384766 53.71062850952148 93.5 47.5 93.5 Z" stroke="none"/>
                  <path d="M 47.5 3 C 41.49121475219727 3 35.66376876831055 4.176155090332031 30.17950439453125 6.495796203613281 C 24.88084411621094 8.736953735351562 20.12152099609375 11.94598388671875 16.03375244140625 16.03375244140625 C 11.94598388671875 20.12152099609375 8.736953735351562 24.88084411621094 6.495796203613281 30.17950439453125 C 4.176155090332031 35.66376876831055 3 41.49121475219727 3 47.5 C 3 53.50878524780273 4.176155090332031 59.33623123168945 6.495796203613281 64.82049560546875 C 8.736953735351562 70.11915588378906 11.94598388671875 74.87847900390625 16.03375244140625 78.96624755859375 C 20.12152099609375 83.05401611328125 24.88084411621094 86.26304626464844 30.17950439453125 88.50419616699219 C 35.66376876831055 90.82384490966797 41.49121475219727 92 47.5 92 C 53.50878524780273 92 59.33623123168945 90.82384490966797 64.82049560546875 88.50419616699219 C 70.11915588378906 86.26304626464844 74.87847900390625 83.05401611328125 78.96624755859375 78.96624755859375 C 83.05401611328125 74.87847900390625 86.26304626464844 70.11915588378906 88.50419616699219 64.82049560546875 C 90.82384490966797 59.33623123168945 92 53.50878524780273 92 47.5 C 92 41.49121475219727 90.82384490966797 35.66376876831055 88.50419616699219 30.17950439453125 C 86.26304626464844 24.88084411621094 83.05401611328125 20.12152099609375 78.96624755859375 16.03375244140625 C 74.87847900390625 11.94598388671875 70.11915588378906 8.736953735351562 64.82049560546875 6.495796203613281 C 59.33623123168945 4.176155090332031 53.50878524780273 3 47.5 3 M 47.5 0 C 73.7335205078125 0 95 21.2664794921875 95 47.5 C 95 73.7335205078125 73.7335205078125 95 47.5 95 C 21.2664794921875 95 0 73.7335205078125 0 47.5 C 0 21.2664794921875 21.2664794921875 0 47.5 0 Z" stroke="none" fill="#ffaece"/>
                </g>
              </g>
            </g>
          </g>
        </g>
        <g id="cerebro" transform="translate(611.861 5675.5)">
          <path id="Path_990442" data-name="Path 990442" d="M13.624,24.47a.815.815,0,0,0,.393-.867,9.225,9.225,0,0,1,9.051-10.976h.021a.829.829,0,0,0,.767-.5A7.338,7.338,0,0,1,30.49,7.69a7.565,7.565,0,0,1,7.564,7.479V55.733a7.565,7.565,0,0,1-7.564,7.479,7.337,7.337,0,0,1-6.633-4.432.83.83,0,0,0-.767-.5h-.021A9.225,9.225,0,0,1,14.017,47.3a.816.816,0,0,0-.393-.867,12.647,12.647,0,0,1,0-21.962Zm0,0" transform="translate(-6.356 -6.302)" fill="#60b8ff"/>
          <path id="Path_990443" data-name="Path 990443" d="M27.577,58.784a.83.83,0,0,0-.767-.5h-.021A9.225,9.225,0,0,1,17.737,47.3a.816.816,0,0,0-.393-.867,12.647,12.647,0,0,1,0-21.962.816.816,0,0,0,.393-.867A9.225,9.225,0,0,1,26.788,12.63h.021a.83.83,0,0,0,.767-.5,7.353,7.353,0,0,1,4.861-4.189,7.171,7.171,0,0,0-1.947-.242,7.336,7.336,0,0,0-6.633,4.431.83.83,0,0,1-.767.5h-.021a9.225,9.225,0,0,0-9.051,10.976.815.815,0,0,1-.393.867,12.647,12.647,0,0,0,0,21.962.815.815,0,0,1,.393.867A9.225,9.225,0,0,0,23.068,58.28h.021a.83.83,0,0,1,.768.5,7.337,7.337,0,0,0,6.633,4.432,7.189,7.189,0,0,0,1.947-.243,7.353,7.353,0,0,1-4.861-4.189Zm0,0" transform="translate(-6.356 -6.306)" fill="#22a7ff"/>
          <path id="Path_990444" data-name="Path 990444" d="M280.163,24.47a.815.815,0,0,1-.393-.867,9.225,9.225,0,0,0-9.051-10.976H270.7a.829.829,0,0,1-.767-.5A7.338,7.338,0,0,0,263.3,7.69a7.459,7.459,0,0,0-7.44,7.479V55.733a7.459,7.459,0,0,0,7.44,7.479,7.338,7.338,0,0,0,6.633-4.432.83.83,0,0,1,.767-.5h.021A9.225,9.225,0,0,0,279.769,47.3a.817.817,0,0,1,.393-.867,12.647,12.647,0,0,0,0-21.962Zm0,0" transform="translate(-224.281 -6.302)" fill="#ff646f"/>
          <path id="Path_990445" data-name="Path 990445" d="M259.575,55.733V15.169a7.524,7.524,0,0,1,5.5-7.235A7.326,7.326,0,0,0,263.3,7.69a7.459,7.459,0,0,0-7.44,7.479V55.733a7.459,7.459,0,0,0,7.44,7.479,7.322,7.322,0,0,0,1.777-.244,7.524,7.524,0,0,1-5.5-7.235Zm0,0" transform="translate(-224.28 -6.302)" fill="#ff4755"/>
          <path id="Path_990446" data-name="Path 990446" d="M179.17,96.31A10.758,10.758,0,0,0,173.74,116.2a1.661,1.661,0,0,1,.788,1.408v1.563a1.654,1.654,0,0,0,1.655,1.654h6.5a1.654,1.654,0,0,0,1.654-1.654V117.6a1.665,1.665,0,0,1,.791-1.41A10.758,10.758,0,0,0,179.17,96.31Zm0,0" transform="translate(-147.856 -83.983)" fill="#ffe55a"/>
          <path id="Path_990447" data-name="Path 990447" d="M178.112,119.166V117.6a1.661,1.661,0,0,0-.788-1.408,10.757,10.757,0,0,1,3.9-19.738,10.759,10.759,0,0,0-7.49,19.738,1.661,1.661,0,0,1,.788,1.408v1.563a1.654,1.654,0,0,0,1.655,1.654h3.584a1.654,1.654,0,0,1-1.654-1.655Zm0,0" transform="translate(-147.856 -83.983)" fill="#ffd500"/>
          <path id="Path_990448" data-name="Path 990448" d="M233.781,350.348v1.815a1.711,1.711,0,0,0,1.706,1.706h2.037a1.711,1.711,0,0,0,1.706-1.706v-1.815Zm0,0" transform="translate(-204.93 -306.672)" fill="#4f66d1"/>
          <path id="Path_990449" data-name="Path 990449" d="M237.366,352.164v-1.816h-3.585v1.816a1.711,1.711,0,0,0,1.706,1.706h2.037a1.69,1.69,0,0,0,.774-.188A1.71,1.71,0,0,1,237.366,352.164Zm0,0" transform="translate(-204.93 -306.673)" fill="#314dca"/>
          <path id="Path_990450" data-name="Path 990450" d="M226.827,322.645h-5.543a1.711,1.711,0,0,0-1.706,1.706v.255a1.711,1.711,0,0,0,1.706,1.706h5.543a1.71,1.71,0,0,0,1.705-1.706v-.255A1.71,1.71,0,0,0,226.827,322.645Zm0,0" transform="translate(-192.48 -282.388)" fill="#d9edff"/>
          <path id="Path_990451" data-name="Path 990451" d="M226.827,329.065h-5.543a1.7,1.7,0,0,1-1.377-.706,1.693,1.693,0,0,0-.328,1v.255a1.711,1.711,0,0,0,1.706,1.706h5.543a1.71,1.71,0,0,0,1.705-1.706v-.255a1.693,1.693,0,0,0-.328-1,1.7,1.7,0,0,1-1.377.706Zm0,0" transform="translate(-192.48 -287.397)" fill="#b4dbff"/>
          <path id="Path_990452" data-name="Path 990452" d="M226.827,293.941h-5.543a1.711,1.711,0,0,0-1.706,1.706v.255a1.711,1.711,0,0,0,1.706,1.706h5.543a1.71,1.71,0,0,0,1.705-1.706v-.255A1.71,1.71,0,0,0,226.827,293.941Zm0,0" transform="translate(-192.48 -257.227)" fill="#d9edff"/>
          <path id="Path_990453" data-name="Path 990453" d="M226.827,300.362h-5.543a1.7,1.7,0,0,1-1.377-.706,1.692,1.692,0,0,0-.328,1v.255a1.711,1.711,0,0,0,1.706,1.706h5.543a1.71,1.71,0,0,0,1.705-1.706v-.255a1.692,1.692,0,0,0-.328-1,1.7,1.7,0,0,1-1.377.706Zm0,0" transform="translate(-192.48 -262.237)" fill="#b4dbff"/>
          <path id="Path_990454" data-name="Path 990454" d="M56.429,17.44A10.156,10.156,0,0,0,46.493,5.434a8.282,8.282,0,0,0-4.905-4.5.926.926,0,1,0-.6,1.753,7.025,7.025,0,0,1,4.532,6.753.926.926,0,1,0,1.852,0,9.427,9.427,0,0,0-.262-2.128,8.3,8.3,0,0,1,7.577,9.223,9.893,9.893,0,0,0-2.317-.724,4.428,4.428,0,0,0-2.121-2.977.926.926,0,0,0-.928,1.6,2.558,2.558,0,0,1,0,4.43.926.926,0,1,0,.928,1.6,4.426,4.426,0,0,0,2.077-2.785c3.156.674,9.017,4.528,9.017,11.5a11.76,11.76,0,0,1-5.832,10.133,12,12,0,0,1-3.185,1.357,4.426,4.426,0,0,0-2.077-2.785.926.926,0,1,0-.928,1.6,2.561,2.561,0,0,1,0,4.43.926.926,0,1,0,.928,1.6,4.425,4.425,0,0,0,2.121-2.976,9.934,9.934,0,0,0,2.316-.723,8.3,8.3,0,0,1-7.578,9.23,9.452,9.452,0,0,0,.263-2.136.926.926,0,1,0-1.852,0c0,3.7-2.63,7.047-6.5,7.1a6.534,6.534,0,0,1-6.5-6.553V48.158h.092a2.635,2.635,0,0,0,2.632-2.632v-.794A2.645,2.645,0,0,0,37,42.252v-.131a2.659,2.659,0,0,0-.629-1.706A2.666,2.666,0,0,0,37,38.71v-.131a2.66,2.66,0,0,0-.43-1.441,2.584,2.584,0,0,0,.857-1.919V33.657a.74.74,0,0,1,.356-.625,11.764,11.764,0,0,0,5.21-7.318.926.926,0,1,0-1.806-.41A9.9,9.9,0,0,1,36.8,31.46h0a2.6,2.6,0,0,0-1.031,1.213c0,.007-.006.014-.009.021-.231.573-.186.849-.186,2.524a.729.729,0,0,1-.728.728H32.519V31.455a3.761,3.761,0,0,0,2.938-3.664V26.454a.926.926,0,0,0-.287-1.806h-7.2a.926.926,0,0,0-.24,1.82v1.323a3.761,3.761,0,0,0,2.938,3.664v4.492H28.344a.729.729,0,0,1-.728-.728,17.986,17.986,0,0,0-.021-1.9,2.578,2.578,0,0,0-1.2-1.862,9.828,9.828,0,1,1,14.876-10.11.926.926,0,1,0,1.823-.33,11.685,11.685,0,0,0-10.572-9.549V8.9a6.575,6.575,0,0,1,4.706-6.31.926.926,0,1,0-.513-1.78,8.371,8.371,0,0,0-5.123,4.262,8.215,8.215,0,0,0-14.9.36A10.156,10.156,0,0,0,6.756,17.44a13.586,13.586,0,0,0,0,23.49,10.157,10.157,0,0,0,9.937,12.006,8.215,8.215,0,0,0,14.9.351,8.215,8.215,0,0,0,14.9-.351A10.156,10.156,0,0,0,56.43,40.93a13.586,13.586,0,0,0,0-23.49ZM29.581,27.791V26.5H33.6v1.291a1.905,1.905,0,0,1-1.9,1.9h-.218a1.905,1.905,0,0,1-1.9-1.9Zm3.81,17.736a.78.78,0,0,1-.78.78H30.575a.78.78,0,0,1-.78-.78v-.643h3.6Zm.974-7.728a.781.781,0,0,1,.78.78v.131a.78.78,0,0,1-.78.78H28.821a.78.78,0,0,1-.779-.78v-.131a.78.78,0,0,1,.779-.78Zm0,3.542a.781.781,0,0,1,.78.78v.132a.782.782,0,0,1-.827.78H28.869a.783.783,0,0,1-.827-.78v-.132a.78.78,0,0,1,.78-.78ZM24.166,56.02c-3.877-.054-6.5-3.41-6.5-7.1a.926.926,0,1,0-1.852,0,9.459,9.459,0,0,0,.263,2.136A8.3,8.3,0,0,1,8.5,41.825a9.911,9.911,0,0,0,2.316.723,4.426,4.426,0,0,0,2.121,2.977.926.926,0,0,0,.928-1.6,2.561,2.561,0,0,1,0-4.43.926.926,0,1,0-.928-1.6,4.428,4.428,0,0,0-2.077,2.785c-3.093-.66-9.017-4.414-9.017-11.49,0-7.139,6.04-10.861,9.017-11.5a4.428,4.428,0,0,0,2.077,2.785.926.926,0,1,0,.928-1.6,2.561,2.561,0,0,1,0-4.43.926.926,0,0,0-.928-1.6,4.426,4.426,0,0,0-2.121,2.977,9.9,9.9,0,0,0-2.317.724,8.3,8.3,0,0,1,7.578-9.223,9.427,9.427,0,0,0-.262,2.128.926.926,0,1,0,1.852,0,8.83,8.83,0,0,1,.7-3.2l0-.008.005-.011A6.42,6.42,0,0,1,24.252,2.35,6.539,6.539,0,0,1,30.667,8.9V11.47a11.684,11.684,0,0,0-5.256,21.563.734.734,0,0,1,.352.623V35.22a2.583,2.583,0,0,0,.857,1.919,2.653,2.653,0,0,0-.43,1.441v.131a2.666,2.666,0,0,0,.629,1.706,2.678,2.678,0,0,0-.629,1.706v.131a2.645,2.645,0,0,0,1.753,2.481v.794a2.635,2.635,0,0,0,2.632,2.632h.092v1.308a6.534,6.534,0,0,1-6.5,6.553Zm0,0"/>
        </g>
      </g>
    </g>
  </g>
</svg>
