<svg xmlns="http://www.w3.org/2000/svg" xmlns:xlink="http://www.w3.org/1999/xlink" width="110" height="110" viewBox="0 0 110 110">
  <defs>
    <filter id="Path_982547" x="0" y="0" width="110" height="110" filterUnits="userSpaceOnUse">
      <feOffset dy="3" input="SourceAlpha"/>
      <feGaussianBlur stdDeviation="3" result="blur"/>
      <feFlood flood-opacity="0.161"/>
      <feComposite operator="in" in2="blur"/>
      <feComposite in="SourceGraphic"/>
    </filter>
  </defs>
  <g id="Group_1154785" data-name="Group 1154785" transform="translate(-4035 -898)">
    <g id="Group_1154702" data-name="Group 1154702">
      <g id="Group_1154215" data-name="Group 1154215" transform="translate(3001 -5809)">
        <g id="Group_1152583" data-name="Group 1152583" transform="translate(1043 6713)">
          <g id="Group_1146973" data-name="Group 1146973" transform="translate(0 0)">
            <g id="Group_1146954" data-name="Group 1146954">
              <g transform="matrix(1, 0, 0, 1, -9, -6)" filter="url(#Path_982547)">
                <g id="Path_982547-2" data-name="Path 982547" transform="translate(9 6)" fill="#fff6f9">
                  <path d="M 46 90.49987030029297 C 39.99187850952148 90.49987030029297 34.16426849365234 89.32350921630859 28.67905426025391 87.00345611572266 C 23.38019943237305 84.76224517822266 18.62104034423828 81.55341339111328 14.53374671936035 77.46613311767578 C 10.44646644592285 73.37885284423828 7.237639904022217 68.61969757080078 4.996413230895996 63.32085418701172 C 2.676359891891479 57.83565521240234 1.5 52.008056640625 1.5 45.99993515014648 C 1.5 39.99181365966797 2.676359891891479 34.16421508789062 4.996413230895996 28.67901420593262 C 7.237639904022217 23.38017463684082 10.44646644592285 18.62101554870605 14.53374671936035 14.53373527526855 C 18.62104034423828 10.44645500183105 23.38019943237305 7.23762845993042 28.67905426025391 4.996415138244629 C 34.16426849365234 2.676361799240112 39.99187850952148 1.500001788139343 46 1.500001788139343 C 52.00812149047852 1.500001788139343 57.83573150634766 2.676361799240112 63.32094573974609 4.996415138244629 C 68.61979675292969 7.23762845993042 73.37895965576172 10.44645500183105 77.46625518798828 14.53373527526855 C 81.55353546142578 18.62101554870605 84.76235961914062 23.38017463684082 87.00358581542969 28.67901420593262 C 89.32363891601562 34.16421508789062 90.5 39.99181365966797 90.5 45.99993515014648 C 90.5 52.008056640625 89.32363891601562 57.83565521240234 87.00358581542969 63.32085418701172 C 84.76235961914062 68.61969757080078 81.55353546142578 73.37885284423828 77.46625518798828 77.46613311767578 C 73.37895965576172 81.55341339111328 68.61979675292969 84.76224517822266 63.32094573974609 87.00345611572266 C 57.83573150634766 89.32350921630859 52.00812149047852 90.49987030029297 46 90.49987030029297 Z" stroke="none"/>
                  <path d="M 46 2.999992370605469 C 40.1937141418457 2.999992370605469 34.56269836425781 4.136489868164062 29.26337051391602 6.377906799316406 C 24.14332580566406 8.543502807617188 19.54441070556641 11.64437866210938 15.59439849853516 15.59437561035156 C 11.64440155029297 19.54439544677734 8.54351806640625 24.14329528808594 6.377914428710938 29.26333618164062 C 4.136497497558594 34.56264877319336 3 40.19366455078125 3 45.99993515014648 C 3 51.80620574951172 4.136497497558594 57.43720626831055 6.377914428710938 62.73651885986328 C 8.54351806640625 67.8565673828125 11.64440155029297 72.45545959472656 15.59439849853516 76.40547943115234 C 19.54441070556641 80.35547637939453 24.14332580566406 83.45635223388672 29.26337051391602 85.6219482421875 C 34.56269836425781 87.86336517333984 40.1937141418457 88.99986267089844 46 88.99986267089844 C 51.8062858581543 88.99986267089844 57.43730163574219 87.86336517333984 62.73661422729492 85.6219482421875 C 67.85667419433594 83.45635223388672 72.45557403564453 80.35547637939453 76.40558624267578 76.40547943115234 C 80.35559844970703 72.45545959472656 83.45647430419922 67.8565673828125 85.6220703125 62.73651885986328 C 87.86350250244141 57.43720626831055 89 51.80620574951172 89 45.99993515014648 C 89 40.19366455078125 87.86350250244141 34.56264877319336 85.6220703125 29.26333618164062 C 83.45647430419922 24.14329528808594 80.35559844970703 19.54439544677734 76.40558624267578 15.59437561035156 C 72.45557403564453 11.64437866210938 67.85667419433594 8.543502807617188 62.73661422729492 6.377906799316406 C 57.43730163574219 4.136489868164062 51.8062858581543 2.999992370605469 46 2.999992370605469 M 46 -7.62939453125e-06 C 71.40509033203125 -7.62939453125e-06 92 20.59486389160156 92 45.99993515014648 C 92 71.40499114990234 71.40509033203125 91.99986267089844 46 91.99986267089844 C 20.59490203857422 91.99986267089844 0 71.40499114990234 0 45.99993515014648 C 0 20.59486389160156 20.59490203857422 -7.62939453125e-06 46 -7.62939453125e-06 Z" stroke="none" fill="#ffaece"/>
                </g>
              </g>
            </g>
          </g>
        </g>
      </g>
      <g id="aprendizaje-automatico" transform="translate(4058 918)">
        <path id="Path_990547" data-name="Path 990547" d="M38,58v4H12V58H38Z" fill="#969faa"/>
        <g id="Group_1154701" data-name="Group 1154701">
          <path id="Path_990548" data-name="Path 990548" d="M36.55,55.11,38,58H30V54h4.76a2,2,0,0,1,1.79,1.11Z" fill="#aab2bd"/>
          <path id="Path_990549" data-name="Path 990549" d="M30,54v4H20V50H30Z" fill="#aab2bd"/>
          <path id="Path_990550" data-name="Path 990550" d="M13.45,55.11A2,2,0,0,1,15.24,54H20v4H12Z" fill="#aab2bd"/>
        </g>
        <path id="Path_990551" data-name="Path 990551" d="M48,42v4a4,4,0,0,1-4,4H6a4,4,0,0,1-4-4V42H16v2a2.006,2.006,0,0,0,2,2H32a2.006,2.006,0,0,0,2-2V42Z" fill="#ccd1d9"/>
        <path id="Path_990552" data-name="Path 990552" d="M16,42v2a2.006,2.006,0,0,0,2,2H32a2.006,2.006,0,0,0,2-2V42Z" fill="#ff826e"/>
        <path id="Path_990553" data-name="Path 990553" d="M44,26a6,6,0,0,1,4-5.651V18H6a4,4,0,0,0-4,4V42H48V31.651A6,6,0,0,1,44,26Z" fill="#69d6f4"/>
        <path id="Path_990554" data-name="Path 990554" d="M59,2V18l-.01.02-2.63-2.63-2.38,1.44c-.1-.05-.2-.08-.3-.12L53,14H47l-.68,2.71c-.1.04-.2.07-.3.12l-2.38-1.44L41.03,18H33V2Z" fill="#e6e9ed"/>
        <path id="Path_990555" data-name="Path 990555" d="M22,26v3a5,5,0,0,1-10,0V26H22Z" fill="#aab2bd"/>
        <path id="Path_990556" data-name="Path 990556" d="M17,2A11.984,11.984,0,0,0,5,14v.03a12.1,12.1,0,0,0,.68,3.98,11.968,11.968,0,0,0,2.83,4.5L12,26H22l3.49-3.49A12.048,12.048,0,0,0,29,14.03V14A12,12,0,0,0,17,2Z" fill="#ffeaa7"/>
        <path id="Path_990557" data-name="Path 990557" d="M15,13v3H12a3,3,0,1,1,3-3Z" fill="#fcd770"/>
        <path id="Path_990558" data-name="Path 990558" d="M24.12,10.88A3,3,0,0,1,22,16H19V13a3,3,0,0,1,5.12-2.12Z" fill="#fcd770"/>
        <path id="Path_990559" data-name="Path 990559" d="M38,28h6.34a6,6,0,1,0,.01-4.03l-6.33.02,2.69-1.67c.04-.1.07-.2.12-.3l-1.44-2.38L41.03,18l2.61-2.61,2.38,1.44c.1-.05.2-.08.3-.12L47,14h6l.68,2.71c.1.04.2.07.3.12l2.38-1.44,2.63,2.63,1.62,1.62-1.44,2.38c.05.1.08.2.12.3L62,23v6l-2.71.68c-.04.1-.07.2-.12.3l1.44,2.38-4.25,4.25-2.38-1.44c-.1.05-.2.08-.3.12L53,38H47l-.68-2.71c-.1-.04-.2-.07-.3-.12l-2.38,1.44-4.25-4.25,1.44-2.38c-.05-.1-.08-.2-.12-.3Z" fill="#ffc729"/>
        <path id="Path_990560" data-name="Path 990560" d="M63,22.219l-2.416-.6,1.281-2.134L60,17.616V1H32V17H29.644A13.211,13.211,0,0,0,30,14,13,13,0,1,0,4.422,17.274,5.019,5.019,0,0,0,1,22V46a5.006,5.006,0,0,0,5,5H19v2H15.236a2.986,2.986,0,0,0-2.684,1.658L11,57.764V63H39V57.764l-1.553-3.1A2.984,2.984,0,0,0,34.764,53H31V51H44a5.006,5.006,0,0,0,5-5V39h4.781l.6-2.415,2.136,1.28,5.346-5.347-1.28-2.135,2.414-.6ZM34,3H58V15.615l-1.48-1.481-2.136,1.281L53.781,13H46.219l-.6,2.416L43.48,14.135,40.616,17H34Zm4.616,16-.481.481,1.426,2.376-1.825,1.13L32,23l0,2,13.053-.028.237-.661a5,5,0,1,1-.007,3.356L45.049,27H35a3,3,0,0,0-3,3v6a1,1,0,0,1-2,0V34a3,3,0,0,0-6,0v2a1,1,0,0,1-1,1H19a1,1,0,0,1-1-1V34.91A6,6,0,0,0,23,29V26.414l3.192-3.192A12.988,12.988,0,0,0,29.018,19ZM13,27h8v2a4,4,0,0,1-8,0Zm1-12H12a2,2,0,1,1,2-2Zm4,10H16V17h2ZM17,3a11.02,11.02,0,0,1,7.778,18.807L21.586,25H20V17h2a4,4,0,1,0-4-4v2H16V13a4,4,0,1,0-4,4h2v8H12.414L9.222,21.808A11.021,11.021,0,0,1,17,3Zm3,12V13a2,2,0,1,1,2,2ZM15.236,55H19v2H13.618l.724-1.447A.993.993,0,0,1,15.236,55ZM13,61V59H37v2Zm21.764-6a.994.994,0,0,1,.9.553L36.382,57H31V55ZM29,57H21V51h8Zm15-8H6a3,3,0,0,1-3-3V43H15v1a3,3,0,0,0,3,3H32a3,3,0,0,0,3-3V43H47v3A3,3,0,0,1,44,49ZM33,43v1a1,1,0,0,1-1,1H29V43Zm-6,2H23V43h4Zm-6,0H18a1,1,0,0,1-1-1V43h4Zm26-4H3V22a3.012,3.012,0,0,1,2.057-2.837,13,13,0,0,0,2.75,4.059L11,26.414V29a6.006,6.006,0,0,0,5,5.91V36a3,3,0,0,0,3,3h4a3,3,0,0,0,3-3V34a1,1,0,0,1,2,0v2a3,3,0,0,0,6,0V30a1,1,0,0,1,1-1h2.716l1.845,1.142-1.426,2.376,5.346,5.347,2.136-1.28.6,2.415H47ZM61,28.219l-1.949.487-.534.2-.465,1.142,1.3,2.16-3.139,3.139-2.159-1.3-1.219.5L52.219,37H47.781l-.486-1.949-.2-.534-1.143-.465-2.159,1.3-3.139-3.139,1.3-2.16L41.517,29l0,0h2.159a7,7,0,1,0,.011-6.025l-2.21,0,.075-.06.4-.97-1.3-2.158,3.139-3.138,2.159,1.3,1.22-.5L47.781,15h4.438l.611,2.446,1.22.5,2.159-1.3,3.139,3.138-1.3,2.158.5,1.22L61,23.781Z"/>
        <path id="Path_990561" data-name="Path 990561" d="M28,23h2v2H28Z"/>
        <path id="Path_990562" data-name="Path 990562" d="M36,5h2V7H36Z"/>
        <path id="Path_990563" data-name="Path 990563" d="M40,5H56V7H40Z"/>
        <path id="Path_990564" data-name="Path 990564" d="M36,9H56v2H36Z"/>
        <path id="Path_990565" data-name="Path 990565" d="M36,13h2v2H36Z"/>
        <path id="Path_990566" data-name="Path 990566" d="M40,13h2v2H40Z"/>
        <path id="Path_990567" data-name="Path 990567" d="M5,33H7v2H5Z"/>
        <path id="Path_990568" data-name="Path 990568" d="M5,37H7v2H5Z"/>
        <path id="Path_990569" data-name="Path 990569" d="M5,29H7v2H5Z"/>
      </g>
    </g>
  </g>
</svg>
