<svg xmlns="http://www.w3.org/2000/svg" xmlns:xlink="http://www.w3.org/1999/xlink" width="110" height="110" viewBox="0 0 110 110">
  <defs>
    <filter id="Path_982547" x="0" y="0" width="110" height="110" filterUnits="userSpaceOnUse">
      <feOffset dy="3" input="SourceAlpha"/>
      <feGaussianBlur stdDeviation="3" result="blur"/>
      <feFlood flood-opacity="0.161"/>
      <feComposite operator="in" in2="blur"/>
      <feComposite in="SourceGraphic"/>
    </filter>
  </defs>
  <g id="Group_1154740" data-name="Group 1154740" transform="translate(-4381 -1825)">
    <g id="Group_1154220" data-name="Group 1154220" transform="translate(3347 -4882)">
      <g id="Group_1152583" data-name="Group 1152583" transform="translate(1043 6713)">
        <g id="Group_1146973" data-name="Group 1146973" transform="translate(0 0)">
          <g id="Group_1146954" data-name="Group 1146954">
            <g transform="matrix(1, 0, 0, 1, -9, -6)" filter="url(#Path_982547)">
              <g id="Path_982547-2" data-name="Path 982547" transform="translate(9 6)" fill="#fff6f9">
                <path d="M 46 90.49987030029297 C 39.99187850952148 90.49987030029297 34.16426849365234 89.32350921630859 28.67905426025391 87.00345611572266 C 23.38019943237305 84.76224517822266 18.62104034423828 81.55341339111328 14.53374671936035 77.46613311767578 C 10.44646644592285 73.37885284423828 7.237639904022217 68.61969757080078 4.996413230895996 63.32085418701172 C 2.676359891891479 57.83565521240234 1.5 52.008056640625 1.5 45.99993515014648 C 1.5 39.99181365966797 2.676359891891479 34.16421508789062 4.996413230895996 28.67901420593262 C 7.237639904022217 23.38017463684082 10.44646644592285 18.62101554870605 14.53374671936035 14.53373527526855 C 18.62104034423828 10.44645500183105 23.38019943237305 7.23762845993042 28.67905426025391 4.996415138244629 C 34.16426849365234 2.676361799240112 39.99187850952148 1.500001788139343 46 1.500001788139343 C 52.00812149047852 1.500001788139343 57.83573150634766 2.676361799240112 63.32094573974609 4.996415138244629 C 68.61979675292969 7.23762845993042 73.37895965576172 10.44645500183105 77.46625518798828 14.53373527526855 C 81.55353546142578 18.62101554870605 84.76235961914062 23.38017463684082 87.00358581542969 28.67901420593262 C 89.32363891601562 34.16421508789062 90.5 39.99181365966797 90.5 45.99993515014648 C 90.5 52.008056640625 89.32363891601562 57.83565521240234 87.00358581542969 63.32085418701172 C 84.76235961914062 68.61969757080078 81.55353546142578 73.37885284423828 77.46625518798828 77.46613311767578 C 73.37895965576172 81.55341339111328 68.61979675292969 84.76224517822266 63.32094573974609 87.00345611572266 C 57.83573150634766 89.32350921630859 52.00812149047852 90.49987030029297 46 90.49987030029297 Z" stroke="none"/>
                <path d="M 46 2.999992370605469 C 40.1937141418457 2.999992370605469 34.56269836425781 4.136489868164062 29.26337051391602 6.377906799316406 C 24.14332580566406 8.543502807617188 19.54441070556641 11.64437866210938 15.59439849853516 15.59437561035156 C 11.64440155029297 19.54439544677734 8.54351806640625 24.14329528808594 6.377914428710938 29.26333618164062 C 4.136497497558594 34.56264877319336 3 40.19366455078125 3 45.99993515014648 C 3 51.80620574951172 4.136497497558594 57.43720626831055 6.377914428710938 62.73651885986328 C 8.54351806640625 67.8565673828125 11.64440155029297 72.45545959472656 15.59439849853516 76.40547943115234 C 19.54441070556641 80.35547637939453 24.14332580566406 83.45635223388672 29.26337051391602 85.6219482421875 C 34.56269836425781 87.86336517333984 40.1937141418457 88.99986267089844 46 88.99986267089844 C 51.8062858581543 88.99986267089844 57.43730163574219 87.86336517333984 62.73661422729492 85.6219482421875 C 67.85667419433594 83.45635223388672 72.45557403564453 80.35547637939453 76.40558624267578 76.40547943115234 C 80.35559844970703 72.45545959472656 83.45647430419922 67.8565673828125 85.6220703125 62.73651885986328 C 87.86350250244141 57.43720626831055 89 51.80620574951172 89 45.99993515014648 C 89 40.19366455078125 87.86350250244141 34.56264877319336 85.6220703125 29.26333618164062 C 83.45647430419922 24.14329528808594 80.35559844970703 19.54439544677734 76.40558624267578 15.59437561035156 C 72.45557403564453 11.64437866210938 67.85667419433594 8.543502807617188 62.73661422729492 6.377906799316406 C 57.43730163574219 4.136489868164062 51.8062858581543 2.999992370605469 46 2.999992370605469 M 46 -7.62939453125e-06 C 71.40509033203125 -7.62939453125e-06 92 20.59486389160156 92 45.99993515014648 C 92 71.40499114990234 71.40509033203125 91.99986267089844 46 91.99986267089844 C 20.59490203857422 91.99986267089844 0 71.40499114990234 0 45.99993515014648 C 0 20.59486389160156 20.59490203857422 -7.62939453125e-06 46 -7.62939453125e-06 Z" stroke="none" fill="#ffaece"/>
              </g>
            </g>
          </g>
        </g>
      </g>
    </g>
    <g id="servicios" transform="translate(4404 1846)">
      <path id="Path_990653" data-name="Path 990653" d="M85.224,302.916,72.471,311.45l-3.8-.213-.149-1.5a4.857,4.857,0,0,0-4.152-4.327l-10.183-1.172a18.244,18.244,0,0,1-6.658-2.317,18.255,18.255,0,0,0-9.216-2.5H30.972v16.758l19.4,7.348a5.277,5.277,0,0,0,2.256.15l.014,0,19.535-2.816a8.638,8.638,0,0,0,4.1-1.837l12.626-11.355a3.015,3.015,0,0,0-3.683-4.756Zm0,0" transform="translate(-27.118 -262.165)" fill="#ffe8c2"/>
      <path id="Path_990654" data-name="Path 990654" d="M89.12,331.137,76.281,340.2a8.642,8.642,0,0,1-4.1,1.837l-19.535,2.816-.014,0a5.284,5.284,0,0,1-2.256-.15l-19.4-7.348v6.59l19.4,7.348a5.276,5.276,0,0,0,2.256.15l.014,0,19.535-2.816a8.638,8.638,0,0,0,4.1-1.837l12.626-11.355a3.014,3.014,0,0,0,.49-3.95A3.079,3.079,0,0,0,89.12,331.137Zm0,0" transform="translate(-27.118 -289.93)" fill="#efd5af"/>
      <path id="Path_990655" data-name="Path 990655" d="M14.046,298.447H8.383a1.027,1.027,0,0,1-1.027-1.027V274.566a1.027,1.027,0,0,1,1.027-1.027h5.663a1.027,1.027,0,0,1,1.027,1.027V297.42A1.027,1.027,0,0,1,14.046,298.447Zm0,0" transform="translate(-6.44 -239.499)" fill="#ff9248"/>
      <path id="Path_990656" data-name="Path 990656" d="M7.355,426.3a1.027,1.027,0,0,0,1.027,1.027h5.663a1.027,1.027,0,0,0,1.027-1.027v-5.563H7.355Zm0,0" transform="translate(-6.44 -368.384)" fill="#f97c28"/>
      <path id="Path_990657" data-name="Path 990657" d="M143.732,25.345a17.99,17.99,0,1,1-17.99-17.99,17.99,17.99,0,0,1,17.99,17.99Zm0,0" transform="translate(-94.344 -6.44)" fill="#88dbfd"/>
      <path id="Path_990658" data-name="Path 990658" d="M229.134,7.355a18.075,18.075,0,0,0-3.295.3,17.992,17.992,0,0,1,0,35.375,17.991,17.991,0,1,0,3.295-35.677Zm0,0" transform="translate(-197.736 -6.44)" fill="#5abfe9"/>
      <path id="Path_990659" data-name="Path 990659" d="M119.3,37.81a18.9,18.9,0,1,0-18.9-18.9A18.926,18.926,0,0,0,119.3,37.81ZM103.544,25.476h7.314a27.337,27.337,0,0,0,1.9,6.524,14.394,14.394,0,0,0,2.05,3.379,17.153,17.153,0,0,1-11.267-9.9ZM119.3,1.831c1.748,0,3.523,1.723,4.871,4.728a25.154,25.154,0,0,1,1.717,5.775H112.715a25.155,25.155,0,0,1,1.717-5.775c1.348-3,3.123-4.728,4.871-4.728Zm6.866,12.334a39.12,39.12,0,0,1,0,9.481H112.436a39.191,39.191,0,0,1,0-9.481Zm10.208,4.74a17.018,17.018,0,0,1-.669,4.74h-7.695a40.9,40.9,0,0,0,0-9.48h7.695A17.014,17.014,0,0,1,136.377,18.9ZM119.3,35.979c-1.748,0-3.523-1.724-4.871-4.728a25.155,25.155,0,0,1-1.717-5.775h13.176a25.156,25.156,0,0,1-1.717,5.775C122.826,34.256,121.051,35.979,119.3,35.979Zm-8.71-12.334H102.9a17.119,17.119,0,0,1,0-9.48h7.695a40.9,40.9,0,0,0,0,9.48Zm13.2,11.734A14.375,14.375,0,0,0,125.844,32a27.335,27.335,0,0,0,1.9-6.524h7.314a17.151,17.151,0,0,1-11.267,9.9Zm11.267-23.046h-7.314a27.342,27.342,0,0,0-1.9-6.524A14.375,14.375,0,0,0,123.8,2.431a17.152,17.152,0,0,1,11.267,9.9Zm-20.251-9.9a14.386,14.386,0,0,0-2.049,3.379,27.343,27.343,0,0,0-1.9,6.524h-7.313a17.151,17.151,0,0,1,11.267-9.9Zm0,0" transform="translate(-87.904)"/>
      <path id="Path_990660" data-name="Path 990660" d="M7.606,266.184H1.942A1.944,1.944,0,0,0,0,268.126V290.98a1.945,1.945,0,0,0,1.942,1.943H7.606a1.944,1.944,0,0,0,1.942-1.943V268.126A1.944,1.944,0,0,0,7.606,266.184Zm.112,24.8a.112.112,0,0,1-.112.111H1.942a.112.112,0,0,1-.112-.111V268.126a.112.112,0,0,1,.112-.111H7.606a.112.112,0,0,1,.112.111Zm0,0" transform="translate(0 -233.06)"/>
      <path id="Path_990661" data-name="Path 990661" d="M143.212,297.007a3.939,3.939,0,0,0-5.439-1.052l-12.5,8.364-2.713-.152-.071-.717a5.757,5.757,0,0,0-4.934-5.143l-.023,0-10.171-1.171a17.25,17.25,0,0,1-6.313-2.2,19.266,19.266,0,0,0-8.507-2.587.916.916,0,0,0-.112,1.828,17.42,17.42,0,0,1,7.694,2.34,19.078,19.078,0,0,0,6.992,2.434l.024,0,10.17,1.171a3.931,3.931,0,0,1,3.358,3.51l.064.639-14.42,2.334-6.259-1.536a.915.915,0,0,0-.436,1.778l6.44,1.58a.92.92,0,0,0,.364.015l15.355-2.485,3.7.208a.913.913,0,0,0,.56-.153l12.754-8.535a2.1,2.1,0,0,1,2.56,3.316l-12.609,11.34a7.734,7.734,0,0,1-3.643,1.628l-19.527,2.815h-.013l-.014,0a4.317,4.317,0,0,1-1.828-.117l-10.274-3.89a.915.915,0,1,0-.648,1.712l10.313,3.905a.688.688,0,0,0,.076.025,6.349,6.349,0,0,0,1.728.245,5.92,5.92,0,0,0,.919-.072h.007l19.529-2.815.014,0a9.572,9.572,0,0,0,4.535-2.032l.034-.029,12.622-11.351a3.94,3.94,0,0,0,.639-5.149Zm0,0" transform="translate(-80.176 -255.965)"/>
    </g>
  </g>
</svg>
