<svg xmlns="http://www.w3.org/2000/svg" xmlns:xlink="http://www.w3.org/1999/xlink" width="110" height="110" viewBox="0 0 110 110">
  <defs>
    <filter id="Path_982547" x="0" y="0" width="110" height="110" filterUnits="userSpaceOnUse">
      <feOffset dy="3" input="SourceAlpha"/>
      <feGaussianBlur stdDeviation="3" result="blur"/>
      <feFlood flood-opacity="0.161"/>
      <feComposite operator="in" in2="blur"/>
      <feComposite in="SourceGraphic"/>
    </filter>
  </defs>
  <g id="Group_1154787" data-name="Group 1154787" transform="translate(-4035 -1370)">
    <g id="Group_1154727" data-name="Group 1154727">
      <g id="Group_1154217" data-name="Group 1154217" transform="translate(3001 -5337)">
        <g id="Group_1152583" data-name="Group 1152583" transform="translate(1043 6713)">
          <g id="Group_1146973" data-name="Group 1146973" transform="translate(0 0)">
            <g id="Group_1146954" data-name="Group 1146954">
              <g transform="matrix(1, 0, 0, 1, -9, -6)" filter="url(#Path_982547)">
                <g id="Path_982547-2" data-name="Path 982547" transform="translate(9 6)" fill="#fff6f9">
                  <path d="M 46 90.49987030029297 C 39.99187850952148 90.49987030029297 34.16426849365234 89.32350921630859 28.67905426025391 87.00345611572266 C 23.38019943237305 84.76224517822266 18.62104034423828 81.55341339111328 14.53374671936035 77.46613311767578 C 10.44646644592285 73.37885284423828 7.237639904022217 68.61969757080078 4.996413230895996 63.32085418701172 C 2.676359891891479 57.83565521240234 1.5 52.008056640625 1.5 45.99993515014648 C 1.5 39.99181365966797 2.676359891891479 34.16421508789062 4.996413230895996 28.67901420593262 C 7.237639904022217 23.38017463684082 10.44646644592285 18.62101554870605 14.53374671936035 14.53373527526855 C 18.62104034423828 10.44645500183105 23.38019943237305 7.23762845993042 28.67905426025391 4.996415138244629 C 34.16426849365234 2.676361799240112 39.99187850952148 1.500001788139343 46 1.500001788139343 C 52.00812149047852 1.500001788139343 57.83573150634766 2.676361799240112 63.32094573974609 4.996415138244629 C 68.61979675292969 7.23762845993042 73.37895965576172 10.44645500183105 77.46625518798828 14.53373527526855 C 81.55353546142578 18.62101554870605 84.76235961914062 23.38017463684082 87.00358581542969 28.67901420593262 C 89.32363891601562 34.16421508789062 90.5 39.99181365966797 90.5 45.99993515014648 C 90.5 52.008056640625 89.32363891601562 57.83565521240234 87.00358581542969 63.32085418701172 C 84.76235961914062 68.61969757080078 81.55353546142578 73.37885284423828 77.46625518798828 77.46613311767578 C 73.37895965576172 81.55341339111328 68.61979675292969 84.76224517822266 63.32094573974609 87.00345611572266 C 57.83573150634766 89.32350921630859 52.00812149047852 90.49987030029297 46 90.49987030029297 Z" stroke="none"/>
                  <path d="M 46 2.999992370605469 C 40.1937141418457 2.999992370605469 34.56269836425781 4.136489868164062 29.26337051391602 6.377906799316406 C 24.14332580566406 8.543502807617188 19.54441070556641 11.64437866210938 15.59439849853516 15.59437561035156 C 11.64440155029297 19.54439544677734 8.54351806640625 24.14329528808594 6.377914428710938 29.26333618164062 C 4.136497497558594 34.56264877319336 3 40.19366455078125 3 45.99993515014648 C 3 51.80620574951172 4.136497497558594 57.43720626831055 6.377914428710938 62.73651885986328 C 8.54351806640625 67.8565673828125 11.64440155029297 72.45545959472656 15.59439849853516 76.40547943115234 C 19.54441070556641 80.35547637939453 24.14332580566406 83.45635223388672 29.26337051391602 85.6219482421875 C 34.56269836425781 87.86336517333984 40.1937141418457 88.99986267089844 46 88.99986267089844 C 51.8062858581543 88.99986267089844 57.43730163574219 87.86336517333984 62.73661422729492 85.6219482421875 C 67.85667419433594 83.45635223388672 72.45557403564453 80.35547637939453 76.40558624267578 76.40547943115234 C 80.35559844970703 72.45545959472656 83.45647430419922 67.8565673828125 85.6220703125 62.73651885986328 C 87.86350250244141 57.43720626831055 89 51.80620574951172 89 45.99993515014648 C 89 40.19366455078125 87.86350250244141 34.56264877319336 85.6220703125 29.26333618164062 C 83.45647430419922 24.14329528808594 80.35559844970703 19.54439544677734 76.40558624267578 15.59437561035156 C 72.45557403564453 11.64437866210938 67.85667419433594 8.543502807617188 62.73661422729492 6.377906799316406 C 57.43730163574219 4.136489868164062 51.8062858581543 2.999992370605469 46 2.999992370605469 M 46 -7.62939453125e-06 C 71.40509033203125 -7.62939453125e-06 92 20.59486389160156 92 45.99993515014648 C 92 71.40499114990234 71.40509033203125 91.99986267089844 46 91.99986267089844 C 20.59490203857422 91.99986267089844 0 71.40499114990234 0 45.99993515014648 C 0 20.59486389160156 20.59490203857422 -7.62939453125e-06 46 -7.62939453125e-06 Z" stroke="none" fill="#ffaece"/>
                </g>
              </g>
            </g>
          </g>
        </g>
      </g>
      <g id="lapiz" transform="translate(4049.253 1392)">
        <g id="Group_1154706" data-name="Group 1154706" transform="translate(24.034 31.346)">
          <path id="Path_990584" data-name="Path 990584" d="M129.282,284.553l4.016-4.016a6.949,6.949,0,0,1-1.512-1.146l-11-11-3.832,3.832Z" transform="translate(-116.95 -268.389)" fill="#ffb09e"/>
        </g>
        <g id="Group_1154707" data-name="Group 1154707" transform="translate(24.034 31.346)">
          <path id="Path_990585" data-name="Path 990585" d="M123.248,274.608l7.99,7.99,2.06-2.06a6.949,6.949,0,0,1-1.512-1.146l-11-11-3.832,3.832L120,275.276l.668-.668A1.821,1.821,0,0,1,123.248,274.608Z" transform="translate(-116.951 -268.39)" fill="#f89580"/>
        </g>
        <g id="Group_1154708" data-name="Group 1154708" transform="translate(12.622 33.979)">
          <path id="Path_990586" data-name="Path 990586" d="M19.58,301.493l14.043,14.043a1.172,1.172,0,0,0,1.657,0l8.556-8.557a1.171,1.171,0,0,0,0-1.657L29.794,291.279a1.171,1.171,0,0,0-1.657,0l-8.556,8.556a1.171,1.171,0,0,0,0,1.657Z" transform="translate(-19.237 -290.936)" fill="#01d0fb"/>
        </g>
        <g id="Group_1154709" data-name="Group 1154709" transform="translate(12.622 33.979)">
          <path id="Path_990587" data-name="Path 990587" d="M21.7,303.613l4.631-4.631a3.723,3.723,0,0,1,5.265,0L41.716,309.1l2.121-2.121a1.171,1.171,0,0,0,0-1.657L29.794,291.279a1.171,1.171,0,0,0-1.657,0l-8.556,8.556a1.171,1.171,0,0,0,0,1.657Z" transform="translate(-19.237 -290.936)" fill="#01c0fa"/>
        </g>
        <path id="Path_990588" data-name="Path 990588" d="M163.924,199.978l-.112.112.078.083a6.655,6.655,0,0,1,1.841,4.6q0,.154-.007.306a5.294,5.294,0,0,1-1.793,3.778,5.758,5.758,0,0,1-3.753,1.4,5.508,5.508,0,0,1-3.915-1.636l-.078.087,10.253,10.253a6.949,6.949,0,0,0,9.827,0l3.326-3.326Z" transform="translate(-127.568 -176.622)" fill="#ffb09e"/>
        <g id="Group_1154720" data-name="Group 1154720" transform="translate(20.219 0.876)">
          <g id="Group_1154717" data-name="Group 1154717" transform="translate(0)">
            <g id="Group_1154711" data-name="Group 1154711" transform="translate(7.774 7.774)">
              <g id="Group_1154710" data-name="Group 1154710">
                <path id="Path_990589" data-name="Path 990589" d="M157.184,74.06,150.841,80.4l29.531,29.532,4.787,1.868,3.424-3.424-1.868-4.787Z" transform="translate(-150.841 -74.06)" fill="#ffcebf"/>
              </g>
            </g>
            <g id="Group_1154712" data-name="Group 1154712" transform="translate(7.77 7.778)">
              <path id="Path_990590" data-name="Path 990590" d="M0,0H8.97V41.764H0Z" transform="translate(0 6.342) rotate(-45)" fill="#ffd15b"/>
            </g>
            <g id="Group_1154713" data-name="Group 1154713" transform="translate(7.774 7.774)">
              <path id="Path_990591" data-name="Path 990591" d="M154.335,81.879a5.992,5.992,0,0,1,1.091-.862l-.614-.614,4.358-4.358-1.985-1.985L150.842,80.4l2.485,2.485Z" transform="translate(-150.842 -74.06)" fill="#ffc344"/>
              <path id="Path_990592" data-name="Path 990592" d="M232.411,198.481a4.2,4.2,0,0,1-3.217-1.228l-5.048-5.048-.99.99,21.085,21.085,1.985-1.985Z" transform="translate(-214.71 -178.406)" fill="#ffc344"/>
            </g>
            <g id="Group_1154714" data-name="Group 1154714" transform="translate(0 0)">
              <path id="Path_990593" data-name="Path 990593" d="M95.742,12.617,89.4,18.96l-4.414-4.414a2.4,2.4,0,0,1,0-3.4L87.93,8.2a2.4,2.4,0,0,1,3.4,0Z" transform="translate(-84.282 -7.5)" fill="#fd6930"/>
            </g>
            <g id="Group_1154715" data-name="Group 1154715">
              <path id="Path_990594" data-name="Path 990594" d="M88.923,14.546a2.4,2.4,0,0,1,0-3.4L91.6,8.473l-.27-.27a2.4,2.4,0,0,0-3.4,0l-2.945,2.945a2.4,2.4,0,0,0,0,3.4L89.4,18.96l1.969-1.969Z" transform="translate(-84.282 -7.499)" fill="#ef4424"/>
            </g>
            <g id="Group_1154716" data-name="Group 1154716" transform="translate(42.093 42.093)">
              <path id="Path_990595" data-name="Path 990595" d="M444.684,371.327l5.614,2.191-2.19-5.614Z" transform="translate(-444.684 -367.903)" fill="#5b5555"/>
            </g>
          </g>
          <g id="Group_1154718" data-name="Group 1154718" transform="translate(5.115 5.119)">
            <path id="Path_990596" data-name="Path 990596" d="M0,0H8.97V3.757H0Z" transform="translate(0 6.342) rotate(-45)" fill="#e1d3ce"/>
          </g>
          <g id="Group_1154719" data-name="Group 1154719" transform="translate(5.114 9.476)">
            <path id="Path_990597" data-name="Path 990597" d="M0,0H2.807V3.757H0Z" transform="translate(0 1.985) rotate(-45)" fill="#cdbfba"/>
          </g>
        </g>
        <path id="Path_990598" data-name="Path 990598" d="M232.074,90.411l2.689,2.689,3.495-3.495a3.447,3.447,0,0,0-4.875-4.875L229.314,88.8l-.033.035A5.954,5.954,0,0,1,232.074,90.411Z" transform="translate(-192.127 -73.943)" fill="#ffb09e"/>
        <path id="Path_990599" data-name="Path 990599" d="M232.074,90.411l1.162,1.162a3.439,3.439,0,0,1,.992-2.774l4.049-4.049-.019-.02a3.447,3.447,0,0,0-4.875,0L229.314,88.8l-.033.035A5.954,5.954,0,0,1,232.074,90.411Z" transform="translate(-192.127 -73.943)" fill="#f89580"/>
        <path id="Path_990600" data-name="Path 990600" d="M285.984,117.519a3.447,3.447,0,0,0-4.875,0l-4.068,4.068a3.461,3.461,0,0,0-.426.518l4.783,4.783a3.471,3.471,0,0,0,.518-.426l4.069-4.068A3.447,3.447,0,0,0,285.984,117.519Z" transform="translate(-233.932 -102.902)" fill="#ffb09e"/>
        <g id="Group_1154721" data-name="Group 1154721" transform="translate(42.682 13.608)">
          <path id="Path_990601" data-name="Path 990601" d="M281.108,117.524l-4.068,4.068a3.461,3.461,0,0,0-.426.518l4.152,4.152a3.447,3.447,0,0,1,.188-4.67l4.068-4.068a3.464,3.464,0,0,1,.481-.4,3.448,3.448,0,0,0-4.394.4Z" transform="translate(-276.614 -116.515)" fill="#f89580"/>
        </g>
        <path id="Path_990602" data-name="Path 990602" d="M327.727,159.261a3.447,3.447,0,0,0-4.875,0l-4.069,4.068a3.46,3.46,0,0,0-.426.518l1.127,1.127a1.422,1.422,0,0,1,.117,1.877,4.272,4.272,0,0,1-1.118,1.011,3.442,3.442,0,0,0,5.174.343l4.068-4.068A3.447,3.447,0,0,0,327.727,159.261Z" transform="translate(-270.8 -139.769)" fill="#ffb09e"/>
        <path id="Path_990603" data-name="Path 990603" d="M326.8,159.265a3.466,3.466,0,0,1,.466-.39,3.447,3.447,0,0,0-4.41.39l-4.069,4.068a3.46,3.46,0,0,0-.426.518l1.127,1.127a1.422,1.422,0,0,1,.117,1.877,4.272,4.272,0,0,1-1.118,1.011,3.441,3.441,0,0,0,4.709.732,3.444,3.444,0,0,1-.466-5.265Z" transform="translate(-270.8 -139.773)" fill="#f89580"/>
        <g id="Group_1154722" data-name="Group 1154722" transform="translate(50.803 24.404)">
          <path id="Path_990604" data-name="Path 990604" d="M347.158,218.9a3.447,3.447,0,0,1,0-4.875l4.068-4.068a3.447,3.447,0,0,1,4.875,4.875l-4.069,4.068A3.447,3.447,0,0,1,347.158,218.9Z" transform="translate(-346.149 -208.949)" fill="#ffb09e"/>
        </g>
        <g id="Group_1154723" data-name="Group 1154723" transform="translate(50.803 24.404)">
          <path id="Path_990605" data-name="Path 990605" d="M350.893,219.03a3.447,3.447,0,0,1,0-4.875l4.068-4.068a3.451,3.451,0,0,1,.665-.519,3.448,3.448,0,0,0-4.4.4l-4.068,4.068a3.447,3.447,0,0,0,4.211,5.394A3.471,3.471,0,0,1,350.893,219.03Z" transform="translate(-346.149 -208.954)" fill="#f89580"/>
        </g>
        <g id="Group_1154724" data-name="Group 1154724" transform="translate(24.715 14.716)">
          <path id="Path_990606" data-name="Path 990606" d="M146.751,136.493l-8.738-8.738a5.982,5.982,0,0,0-8.46,0l-5.018,5.018a5.982,5.982,0,0,0,0,8.46l2.145,2.145a5.655,5.655,0,0,0,9.661-3.625q.007-.155.007-.311a6.777,6.777,0,0,0-1.873-4.685l1.022-1.022,5.048,5.048a4.217,4.217,0,0,0,6.325-.413A1.422,1.422,0,0,0,146.751,136.493Z" transform="translate(-122.782 -126.003)" fill="#ffcebf"/>
        </g>
        <g id="Group_1154726" data-name="Group 1154726" transform="translate(24.716 14.716)">
          <g id="Group_1154725" data-name="Group 1154725" transform="translate(0)">
            <path id="Path_990607" data-name="Path 990607" d="M125.175,137.086l6.051-6.051a4.522,4.522,0,0,1,6.4,0l8.263,8.263a4.285,4.285,0,0,0,.991-.929,1.422,1.422,0,0,0-.117-1.877l-8.738-8.738a5.982,5.982,0,0,0-8.461,0l-5.018,5.018a5.984,5.984,0,0,0-.964,7.2A5.953,5.953,0,0,1,125.175,137.086Z" transform="translate(-122.79 -126.003)" fill="#ffb09e"/>
          </g>
        </g>
        <path id="Path_990608" data-name="Path 990608" d="M68.741,48.264l-4.058-10.4a.875.875,0,0,0-.2-.3L59.6,32.68l1.772-1.772A4.323,4.323,0,0,0,58.5,23.533a4.318,4.318,0,0,0-4.608-5.88,4.383,4.383,0,0,0,.041-.6A4.325,4.325,0,0,0,48.01,13.04a4.321,4.321,0,0,0-7.374-2.871L38.864,11.94,31.029,4.105A.876.876,0,0,0,29.79,5.344l.65.65L27.888,8.546,25.336,11.1,21.542,7.3a1.528,1.528,0,0,1,0-2.159L24.487,2.2a1.527,1.527,0,0,1,2.159,0l.254.254a.876.876,0,0,0,1.239-1.239L27.885.96a3.279,3.279,0,0,0-4.637,0L20.3,3.905a3.283,3.283,0,0,0,0,4.637l8.935,8.935-3.39,3.39a6.858,6.858,0,0,0,0,9.7l.779.779L24.034,33.94,23.8,33.7a2.05,2.05,0,0,0-2.9,0L12.346,42.26a2.05,2.05,0,0,0,0,2.9l9.387,9.387A.876.876,0,0,0,22.972,53.3l-9.387-9.387a.3.3,0,0,1,0-.418l8.556-8.556a.3.3,0,0,1,.418,0L36.6,48.985a.3.3,0,0,1,0,.418L28.046,57.96a.3.3,0,0,1-.418,0l-1.766-1.766a.876.876,0,0,0-1.239,1.239L26.389,59.2a2.047,2.047,0,0,0,2.9,0l8.557-8.557a2.05,2.05,0,0,0,0-2.9L37.6,47.51l2.949-2.949a7.84,7.84,0,0,0,8.763-1.593l2.706-2.706L56.9,45.143a.876.876,0,0,0,.3.2l10.4,4.058a.876.876,0,0,0,1.134-1.134ZM62.628,38.181,60.7,40.114,56.3,35.723a4.307,4.307,0,0,0,1-.746l1.058-1.058Zm-4.309-12.9a2.571,2.571,0,0,1,1.818,4.39l-4.068,4.068A2.571,2.571,0,1,1,52.432,30.1l1.046-1.046L56.5,26.033A2.554,2.554,0,0,1,58.319,25.28Zm-2.011-5.168a2.574,2.574,0,0,1,0,3.636l-4.068,4.068a2.576,2.576,0,0,1-3.223.335,5.158,5.158,0,0,0,.478-.532,2.3,2.3,0,0,0-.19-3.033l-.554-.554,3.921-3.921a2.574,2.574,0,0,1,3.637,0Zm-9.557-3.83L47.8,15.237a2.571,2.571,0,1,1,3.636,3.636l-3.921,3.921-3.636-3.636Zm-4.875-4.875a2.571,2.571,0,0,1,3.637,3.636l-2.875,2.876-2.07-2.07a6.815,6.815,0,0,0-1.829-1.3Zm-4.249,1.772-.764.764a6.922,6.922,0,0,0-2.332.006L32.4,11.821l1.933-1.933Zm-11.051-.842,2.552-2.552,2.552-2.552L33.1,8.65l-5.1,5.1Zm2.656,2.656,1.933-1.933,1.5,1.5a6.822,6.822,0,0,0-1.8,1.29l-.389.39Zm9.774,28.639-2.639,2.639L25.273,35.178l2.594-2.594.126.126h0L38.25,42.968c.111.111.224.216.34.319l.088.075q.14.121.285.235Zm9.072-1.9a6.08,6.08,0,0,1-8.589,0l-7.1-7.1c.074,0,.148.005.223.005a6.705,6.705,0,0,0,2.273-.4.876.876,0,1,0-.593-1.648,4.8,4.8,0,0,1-5.063-1.117l-2.145-2.145a5.106,5.106,0,0,1,0-7.222l5.018-5.018a5.106,5.106,0,0,1,7.222,0l8.738,8.738a.547.547,0,0,1,.045.72,3.341,3.341,0,0,1-5.013.33l-5.048-5.048a.876.876,0,0,0-1.239,0l-1.022,1.022a.876.876,0,0,0-.015,1.223A5.9,5.9,0,0,1,37.4,28.155c0,.091,0,.182-.006.272a4.619,4.619,0,0,1-.491,1.9.876.876,0,1,0,1.561.8,6.356,6.356,0,0,0,.681-2.62c.005-.117.008-.235.008-.351a7.735,7.735,0,0,0-.043-.8l11.67,11.67ZM43.418,29.18a5.058,5.058,0,0,0,3.926.06l2.585,2.585c0,.031,0,.063,0,.094a4.3,4.3,0,0,0,1.266,3.057h0a4.31,4.31,0,0,0,3.057,1.264l.092,0,5.114,5.114-1.933,1.933ZM59.091,44.2l2.223-2.223h0l2.223-2.223,1.173,3.005L62.1,45.368Zm4.787,1.868.272-.272,1.255-1.255.977,2.5Z" transform="translate(0)"/>
      </g>
    </g>
  </g>
</svg>
