<svg xmlns="http://www.w3.org/2000/svg" width="30.516" height="33.965" viewBox="0 0 30.516 33.965">
  <g id="Group_1154767" data-name="Group 1154767" transform="translate(-212.333 -3004.345)">
    <g id="brain_883039" transform="translate(186.333 3004.345)">
      <g id="Group_1154146" data-name="Group 1154146" transform="translate(43.911 5.506)">
        <g id="Group_1154145" data-name="Group 1154145">
          <path id="Path_989600" data-name="Path 989600" d="M296.663,83a.663.663,0,1,0,.663.663A.664.664,0,0,0,296.663,83Z" transform="translate(-296 -83)"/>
        </g>
      </g>
      <g id="Group_1154148" data-name="Group 1154148" transform="translate(37.278 5.506)">
        <g id="Group_1154147" data-name="Group 1154147">
          <path id="Path_989601" data-name="Path 989601" d="M196.663,83a.663.663,0,1,0,.663.663A.664.664,0,0,0,196.663,83Z" transform="translate(-196 -83)"/>
        </g>
      </g>
      <g id="Group_1154150" data-name="Group 1154150" transform="translate(26)">
        <g id="Group_1154149" data-name="Group 1154149">
          <path id="Path_989602" data-name="Path 989602" d="M55.661,19.827a5.305,5.305,0,0,0,.854-2.845,4.608,4.608,0,0,0-1.68-3.564,4.485,4.485,0,0,0,.354-1.743A4.945,4.945,0,0,0,52.507,7.3a3.976,3.976,0,0,0-3.02-4.339A4.779,4.779,0,0,0,45.238,0a4.662,4.662,0,0,0-3.98,2.389A4.662,4.662,0,0,0,37.278,0a4.779,4.779,0,0,0-4.249,2.964A3.976,3.976,0,0,0,30.009,7.3a4.945,4.945,0,0,0-2.682,4.373,4.485,4.485,0,0,0,.354,1.743A4.608,4.608,0,0,0,26,16.983a5.3,5.3,0,0,0,.854,2.845,4.58,4.58,0,0,0,.532,5.946,4.815,4.815,0,0,0,4.584,5.538h.061a5.23,5.23,0,0,0,9.227-.231,5.23,5.23,0,0,0,9.227.231h.061a4.81,4.81,0,0,0,4.644-4.843,4.246,4.246,0,0,0-.06-.7,4.58,4.58,0,0,0,.532-5.946ZM40.594,10.042a2.636,2.636,0,0,0-1.327-.357.663.663,0,0,0,0,1.327,1.328,1.328,0,0,1,1.327,1.327V24.955a5.3,5.3,0,0,0-3.98-1.8.663.663,0,0,0,0,1.327,3.985,3.985,0,0,1,3.98,3.98,4.138,4.138,0,0,1-3.98,4.179,3.991,3.991,0,0,1-3.6-2.314.664.664,0,0,0-.677-.38l-.14.018a3.462,3.462,0,0,1-3.439-4.271.663.663,0,0,0-.221-.665,3.3,3.3,0,0,1-1.209-2.538,3.264,3.264,0,0,1,.487-1.707,4.476,4.476,0,0,0,2.83,1.044.663.663,0,0,0,0-1.327,3.487,3.487,0,0,1-3.317-3.516,3.3,3.3,0,0,1,1.549-2.8A.663.663,0,0,0,29.1,13.3a3.264,3.264,0,0,1-.444-1.624A3.5,3.5,0,0,1,31.97,8.16a3.51,3.51,0,0,1,3.317,3.516.663.663,0,1,0,1.327,0A4.81,4.81,0,0,0,31.97,6.833a4.3,4.3,0,0,0-.662.052c0-.017,0-.034,0-.052a2.654,2.654,0,0,1,4.53-1.876.663.663,0,1,0,.938-.939,3.953,3.953,0,0,0-2.2-1.118,3.351,3.351,0,0,1,2.7-1.573,3.51,3.51,0,0,1,3.317,3.516ZM51.872,21.825a4.477,4.477,0,0,0,2.83-1.043,3.264,3.264,0,0,1,.487,1.707,3.3,3.3,0,0,1-1.209,2.538.663.663,0,0,0-.221.665,3.273,3.273,0,0,1,.1.778,3.456,3.456,0,0,1-3.542,3.494l-.14-.018a.663.663,0,0,0-.677.38,3.992,3.992,0,0,1-3.6,2.314,4.138,4.138,0,0,1-3.98-4.179,3.985,3.985,0,0,1,3.98-3.98.663.663,0,0,0,0-1.327,5.3,5.3,0,0,0-3.98,1.8V12.339a1.328,1.328,0,0,1,1.327-1.327.663.663,0,0,0,0-1.327,2.636,2.636,0,0,0-1.327.357v-5.2a3.51,3.51,0,0,1,3.317-3.516,3.351,3.351,0,0,1,2.7,1.573,3.954,3.954,0,0,0-2.2,1.118.663.663,0,1,0,.938.939,2.654,2.654,0,0,1,4.531,1.876c0,.018,0,.035,0,.052a4.3,4.3,0,0,0-.662-.052A4.81,4.81,0,0,0,45.9,11.676a.663.663,0,1,0,1.327,0,3.323,3.323,0,1,1,6.634,0,3.264,3.264,0,0,1-.444,1.624.663.663,0,0,0,.222.888,3.3,3.3,0,0,1,1.549,2.8A3.486,3.486,0,0,1,51.872,20.5a.663.663,0,0,0,0,1.327Z" transform="translate(-26)"/>
        </g>
      </g>
      <g id="Group_1154152" data-name="Group 1154152" transform="translate(31.307 11.012)">
        <g id="Group_1154151" data-name="Group 1154151">
          <path id="Path_989603" data-name="Path 989603" d="M113.792,169.188a.663.663,0,0,0-.937-.052,3.323,3.323,0,0,1-5.528-2.472.663.663,0,1,0-1.327,0,4.651,4.651,0,0,0,3.887,4.581,1.994,1.994,0,0,1-1.9,1.389.663.663,0,0,0,0,1.327,3.322,3.322,0,0,0,3.257-2.693,4.636,4.636,0,0,0,2.492-1.143A.663.663,0,0,0,113.792,169.188Z" transform="translate(-106 -166)"/>
        </g>
      </g>
      <g id="Group_1154154" data-name="Group 1154154" transform="translate(31.307 25.806)">
        <g id="Group_1154153" data-name="Group 1154153">
          <path id="Path_989604" data-name="Path 989604" d="M106.663,389a.663.663,0,0,0,0,1.327,3.51,3.51,0,0,1,3.317,3.516.663.663,0,1,0,1.327,0A4.81,4.81,0,0,0,106.663,389Z" transform="translate(-106 -389)"/>
        </g>
      </g>
      <g id="Group_1154156" data-name="Group 1154156" transform="translate(31.997 20.499)">
        <g id="Group_1154155" data-name="Group 1154155">
          <path id="Path_989605" data-name="Path 989605" d="M121.679,309a5.958,5.958,0,0,0-5.194,3.026.663.663,0,0,0,1.154.654,4.633,4.633,0,0,1,4.04-2.353.663.663,0,0,0,0-1.327Z" transform="translate(-116.398 -309)"/>
        </g>
      </g>
      <g id="Group_1154158" data-name="Group 1154158" transform="translate(43.248 11.012)">
        <g id="Group_1154157" data-name="Group 1154157">
          <path id="Path_989606" data-name="Path 989606" d="M291.97,172.634a1.994,1.994,0,0,1-1.9-1.389,4.651,4.651,0,0,0,3.887-4.581.663.663,0,1,0-1.327,0,3.317,3.317,0,0,1-5.528,2.472.663.663,0,1,0-.885.989,4.636,4.636,0,0,0,2.492,1.143,3.322,3.322,0,0,0,3.257,2.693.663.663,0,1,0,0-1.327Z" transform="translate(-286 -166)"/>
        </g>
      </g>
      <g id="Group_1154160" data-name="Group 1154160" transform="translate(45.902 25.806)">
        <g id="Group_1154159" data-name="Group 1154159">
          <path id="Path_989607" data-name="Path 989607" d="M330.644,389A4.81,4.81,0,0,0,326,393.843a.663.663,0,0,0,1.327,0,3.51,3.51,0,0,1,3.317-3.516.663.663,0,0,0,0-1.327Z" transform="translate(-326 -389)"/>
        </g>
      </g>
      <g id="Group_1154162" data-name="Group 1154162" transform="translate(44.575 20.499)">
        <g id="Group_1154161" data-name="Group 1154161">
          <path id="Path_989608" data-name="Path 989608" d="M311.858,312.026A5.957,5.957,0,0,0,306.663,309a.663.663,0,0,0,0,1.327,4.634,4.634,0,0,1,4.04,2.353.663.663,0,0,0,1.154-.654Z" transform="translate(-306 -309)"/>
        </g>
      </g>
    </g>
  </g>
</svg>
