<svg xmlns="http://www.w3.org/2000/svg" xmlns:xlink="http://www.w3.org/1999/xlink" width="108" height="108" viewBox="0 0 108 108">
  <defs>
    <filter id="Path_982547" x="0" y="0" width="108" height="108" filterUnits="userSpaceOnUse">
      <feOffset dy="3" input="SourceAlpha"/>
      <feGaussianBlur stdDeviation="3" result="blur"/>
      <feFlood flood-opacity="0.161"/>
      <feComposite operator="in" in2="blur"/>
      <feComposite in="SourceGraphic"/>
    </filter>
  </defs>
  <g id="Group_1154756" data-name="Group 1154756" transform="translate(-195 -726)">
    <g id="Group_1154238" data-name="Group 1154238">
      <g id="Group_1153117" data-name="Group 1153117" transform="translate(0 -116)">
        <g id="Group_1149598" data-name="Group 1149598" transform="translate(21 644)">
          <g id="Group_1148770" data-name="Group 1148770" transform="translate(-27 -2583)">
            <g id="Group_1146954" data-name="Group 1146954" transform="translate(-415 -1202)">
              <g transform="matrix(1, 0, 0, 1, 616, 3983)" filter="url(#Path_982547)">
                <g id="Path_982547-2" data-name="Path 982547" transform="translate(9 6)" fill="#f2f8fa">
                  <path d="M 45 88.5 C 39.12687683105469 88.5 33.43022537231445 87.35007476806641 28.06830024719238 85.08217620849609 C 22.88852500915527 82.89131164550781 18.23629951477051 79.75458526611328 14.2408504486084 75.75914764404297 C 10.24541282653809 71.76370239257812 7.108687400817871 67.11147308349609 4.917825222015381 61.93170166015625 C 2.649924993515015 56.56977462768555 1.5 50.87312316894531 1.5 45 C 1.5 39.12687683105469 2.649924993515015 33.43022537231445 4.917825222015381 28.06830024719238 C 7.108687400817871 22.88852500915527 10.24541282653809 18.23629951477051 14.2408504486084 14.2408504486084 C 18.23629951477051 10.24541282653809 22.88852500915527 7.108687400817871 28.06830024719238 4.917825222015381 C 33.43022537231445 2.649924993515015 39.12687683105469 1.5 45 1.5 C 50.87312316894531 1.5 56.56977462768555 2.649924993515015 61.93170166015625 4.917825222015381 C 67.11147308349609 7.108687400817871 71.76370239257812 10.24541282653809 75.75914764404297 14.2408504486084 C 79.75458526611328 18.23629951477051 82.89131164550781 22.88852500915527 85.08217620849609 28.06830024719238 C 87.35007476806641 33.43022537231445 88.5 39.12687683105469 88.5 45 C 88.5 50.87312316894531 87.35007476806641 56.56977462768555 85.08217620849609 61.93170166015625 C 82.89131164550781 67.11147308349609 79.75458526611328 71.76370239257812 75.75914764404297 75.75914764404297 C 71.76370239257812 79.75458526611328 67.11147308349609 82.89131164550781 61.93170166015625 85.08217620849609 C 56.56977462768555 87.35007476806641 50.87312316894531 88.5 45 88.5 Z" stroke="none"/>
                  <path d="M 45 3 C 39.32871246337891 3 33.82865524291992 4.110054016113281 28.65262985229492 6.299339294433594 C 23.65165710449219 8.414573669433594 19.15968322753906 11.44334411621094 15.301513671875 15.301513671875 C 11.44334411621094 19.15968322753906 8.414573669433594 23.65165710449219 6.299339294433594 28.65262985229492 C 4.110054016113281 33.82865524291992 3 39.32871246337891 3 45 C 3 50.67128753662109 4.110054016113281 56.17134475708008 6.299339294433594 61.34737396240234 C 8.414573669433594 66.34834289550781 11.44334411621094 70.84031677246094 15.301513671875 74.698486328125 C 19.15968322753906 78.55665588378906 23.65165710449219 81.58542633056641 28.65262985229492 83.70066070556641 C 33.82865524291992 85.88994598388672 39.32871246337891 87 45 87 C 50.67128753662109 87 56.17134475708008 85.88994598388672 61.34737396240234 83.70066070556641 C 66.34834289550781 81.58542633056641 70.84031677246094 78.55665588378906 74.698486328125 74.698486328125 C 78.55665588378906 70.84031677246094 81.58542633056641 66.34834289550781 83.70066070556641 61.34737396240234 C 85.88994598388672 56.17134475708008 87 50.67128753662109 87 45 C 87 39.32871246337891 85.88994598388672 33.82865524291992 83.70066070556641 28.65262985229492 C 81.58542633056641 23.65165710449219 78.55665588378906 19.15968322753906 74.698486328125 15.301513671875 C 70.84031677246094 11.44334411621094 66.34834289550781 8.414573669433594 61.34737396240234 6.299339294433594 C 56.17134475708008 4.110054016113281 50.67128753662109 3 45 3 M 45 0 C 69.85281372070312 0 90 20.14718627929688 90 45 C 90 69.85281372070312 69.85281372070312 90 45 90 C 20.14718627929688 90 0 69.85281372070312 0 45 C 0 20.14718627929688 20.14718627929688 0 45 0 Z" stroke="none" fill="#6a7b7e"/>
                </g>
              </g>
            </g>
          </g>
        </g>
      </g>
      <g id="desarrollo" transform="translate(219 740.577)">
        <path id="Path_989655" data-name="Path 989655" d="M275.712,17A16.028,16.028,0,0,0,263.2,23a18.878,18.878,0,0,1,3.928,1.834l1.7-1.7a.68.68,0,0,1,.961,0l1.677,1.677a.672.672,0,0,0,.74.146q.128-.055.258-.107a.672.672,0,0,0,.42-.627V21.85a.679.679,0,0,1,.679-.679h4.3a.679.679,0,0,1,.679.679v2.371a.672.672,0,0,0,.42.627q.13.051.258.107a.672.672,0,0,0,.74-.146l1.677-1.677a.68.68,0,0,1,.961,0l3.043,3.043a.68.68,0,0,1,0,.961l-1.677,1.677a.672.672,0,0,0-.146.74q.055.128.107.258a.672.672,0,0,0,.627.42h2.371a.679.679,0,0,1,.679.679v4.3a.679.679,0,0,1-.679.679h-2.371a.672.672,0,0,0-.627.42q-.051.13-.107.258a.672.672,0,0,0,.146.74l1.677,1.677a.68.68,0,0,1,0,.961L282.6,42.988a.68.68,0,0,1-.961,0l-1.677-1.677a.672.672,0,0,0-.74-.146q-.128.055-.258.107a.672.672,0,0,0-.42.627V44.27a.679.679,0,0,1-.679.679H275.71a18.865,18.865,0,0,1-1.376,4.11c.454.039.913.059,1.378.059a16.059,16.059,0,1,0,0-32.118Z" transform="translate(-232.027 -8.444)" fill="#ffe177"/>
        <g id="Group_1154233" data-name="Group 1154233" transform="translate(1.081 12.727)">
          <g id="Group_1154227" data-name="Group 1154227" transform="translate(0 0.851)">
            <g id="Group_1154224" data-name="Group 1154224" transform="translate(17.032 32.446)">
              <path id="Path_989656" data-name="Path 989656" d="M165.329,338.135a1.794,1.794,0,0,0-1.132,1.01l-1.777,4.089a4.11,4.11,0,0,1-3.769,2.472h-5.7v5.878a1.184,1.184,0,0,0,1.184,1.184h18.018a1.184,1.184,0,0,0,1.184-1.184v-18.2A18.977,18.977,0,0,1,165.329,338.135Z" transform="translate(-152.951 -333.382)" fill="#ffcebf"/>
            </g>
            <g id="Group_1154226" data-name="Group 1154226" transform="translate(17.032 44.769)">
              <g id="Group_1154225" data-name="Group 1154225">
                <path id="Path_989657" data-name="Path 989657" d="M157.931,443.324v-5.878h-4.98v5.878a1.184,1.184,0,0,0,1.184,1.184h4.98A1.184,1.184,0,0,1,157.931,443.324Z" transform="translate(-152.951 -437.446)" fill="#ffb09e"/>
              </g>
            </g>
            <path id="Path_989658" data-name="Path 989658" d="M49.584,82.328a.679.679,0,0,1-.679-.679V79.278a.672.672,0,0,0-.42-.627q-.13-.051-.258-.107a.672.672,0,0,0-.74.146L45.81,80.367a.68.68,0,0,1-.961,0l-3.043-3.043a.679.679,0,0,1,0-.961l1.677-1.677a.672.672,0,0,0,.146-.74q-.055-.128-.107-.258a.672.672,0,0,0-.627-.42H40.525a.679.679,0,0,1-.679-.679v-4.3a.679.679,0,0,1,.679-.679H42.9a.672.672,0,0,0,.627-.42q.051-.13.107-.258a.672.672,0,0,0-.146-.74l-1.677-1.677a.679.679,0,0,1,0-.961l1.341-1.341A19.024,19.024,0,0,0,14.172,78.225a.589.589,0,0,1-.084.3L9.614,85.943a3.321,3.321,0,0,0,2.844,5.036h3.785a.907.907,0,0,1,.907.907v8.174a4.11,4.11,0,0,0,4.11,4.11h10.6a4.11,4.11,0,0,0,3.769-2.472l1.777-4.089a1.794,1.794,0,0,1,1.132-1.01A19.017,19.017,0,0,0,51.735,82.329H49.584Z" transform="translate(-9.132 -59.4)" fill="#ffdfcf"/>
          </g>
          <g id="Group_1154228" data-name="Group 1154228" transform="translate(18.535 14.312)">
            <circle id="Ellipse_11738" data-name="Ellipse 11738" cx="5.44" cy="5.44" r="5.44" fill="#ffd15b"/>
          </g>
          <g id="Group_1154229" data-name="Group 1154229" transform="translate(18.535 14.312)">
            <path id="Path_989659" data-name="Path 989659" d="M169.609,178.5a5.441,5.441,0,0,1,3.457-5.066,5.44,5.44,0,1,0,0,10.131A5.44,5.44,0,0,1,169.609,178.5Z" transform="translate(-165.644 -173.065)" fill="#ffc344"/>
          </g>
          <g id="Group_1154232" data-name="Group 1154232" transform="translate(30.714)">
            <g id="Group_1154230" data-name="Group 1154230">
              <path id="Path_989660" data-name="Path 989660" d="M292.27,66.252v-4.3a.679.679,0,0,0-.679-.679H289.22a.672.672,0,0,1-.627-.42q-.051-.13-.107-.258a.672.672,0,0,1,.147-.74l1.677-1.677a.679.679,0,0,0,0-.961l-3.043-3.043a.679.679,0,0,0-.961,0l-1.677,1.677a.672.672,0,0,1-.74.146q-.128-.055-.258-.107a.672.672,0,0,1-.42-.627V52.89a.679.679,0,0,0-.679-.679h-4.3a.679.679,0,0,0-.679.679v2.371a.672.672,0,0,1-.42.627q-.13.051-.258.107a.672.672,0,0,1-.74-.146l-1.677-1.677a.679.679,0,0,0-.961,0l-3.043,3.043a.679.679,0,0,0,0,.961l1.677,1.677a.672.672,0,0,1,.146.74q-.055.128-.107.258a.672.672,0,0,1-.627.42H269.17a.679.679,0,0,0-.679.679v4.3a.679.679,0,0,0,.679.679h2.371a.672.672,0,0,1,.627.42q.051.13.107.258a.672.672,0,0,1-.146.74l-1.677,1.677a.679.679,0,0,0,0,.961l3.043,3.043a.679.679,0,0,0,.961,0l1.677-1.677a.672.672,0,0,1,.74-.146q.128.055.258.107a.672.672,0,0,1,.42.627v2.371a.679.679,0,0,0,.679.679h4.3a.679.679,0,0,0,.679-.679V72.94a.672.672,0,0,1,.42-.627q.13-.051.258-.107a.672.672,0,0,1,.74.146l1.677,1.677a.679.679,0,0,0,.961,0l3.043-3.043a.679.679,0,0,0,0-.961l-1.677-1.677a.672.672,0,0,1-.147-.74q.055-.128.107-.258a.672.672,0,0,1,.627-.42h2.371A.679.679,0,0,0,292.27,66.252Z" transform="translate(-268.491 -52.211)" fill="#e1d3ce"/>
            </g>
            <g id="Group_1154231" data-name="Group 1154231" transform="translate(6.222 6.223)">
              <circle id="Ellipse_11739" data-name="Ellipse 11739" cx="5.667" cy="5.667" r="5.667" fill="#b9acac"/>
            </g>
            <path id="Path_989661" data-name="Path 989661" d="M349.863,136.141a2.556,2.556,0,1,1,2.556-2.556A2.559,2.559,0,0,1,349.863,136.141Z" transform="translate(-337.973 -121.695)" fill="#fff"/>
          </g>
        </g>
        <g id="Group_1154236" data-name="Group 1154236" transform="translate(41.804 43.492)">
          <g id="Group_1154234" data-name="Group 1154234">
            <path id="Path_989662" data-name="Path 989662" d="M368.4,321.091v-2.786a.44.44,0,0,0-.44-.44h-1.535a.435.435,0,0,1-.406-.272q-.033-.084-.069-.167a.435.435,0,0,1,.095-.479l1.085-1.085a.44.44,0,0,0,0-.622l-1.97-1.97a.44.44,0,0,0-.622,0l-1.085,1.085a.435.435,0,0,1-.479.095q-.083-.036-.167-.069a.435.435,0,0,1-.272-.406v-1.535a.44.44,0,0,0-.44-.44h-2.786a.44.44,0,0,0-.44.44v1.535a.435.435,0,0,1-.272.406q-.084.033-.167.069a.435.435,0,0,1-.479-.095l-1.085-1.085a.44.44,0,0,0-.622,0l-1.97,1.97a.44.44,0,0,0,0,.622l1.085,1.085a.435.435,0,0,1,.095.479q-.036.083-.069.167a.435.435,0,0,1-.406.272h-1.535a.44.44,0,0,0-.44.44v2.786a.44.44,0,0,0,.44.44h1.535a.435.435,0,0,1,.406.272q.033.084.069.167a.435.435,0,0,1-.095.479l-1.085,1.085a.44.44,0,0,0,0,.622l1.97,1.97a.44.44,0,0,0,.622,0l1.085-1.085a.435.435,0,0,1,.479-.095q.083.036.167.069a.435.435,0,0,1,.272.406v1.535a.44.44,0,0,0,.44.44h2.786a.44.44,0,0,0,.44-.44v-1.535a.435.435,0,0,1,.272-.406q.084-.033.167-.069a.435.435,0,0,1,.479.095l1.085,1.085a.44.44,0,0,0,.622,0l1.97-1.97a.44.44,0,0,0,0-.622l-1.085-1.085a.435.435,0,0,1-.095-.479q.036-.083.069-.167a.435.435,0,0,1,.406-.272h1.535A.439.439,0,0,0,368.4,321.091Z" transform="translate(-353.002 -312.001)" fill="#e1d3ce"/>
          </g>
          <g id="Group_1154235" data-name="Group 1154235" transform="translate(5.267 5.267)">
            <circle id="Ellipse_11740" data-name="Ellipse 11740" cx="2.431" cy="2.431" r="2.431" fill="#b9acac"/>
          </g>
        </g>
        <g id="Group_1154237" data-name="Group 1154237" transform="translate(0 7.423)">
          <path id="Path_989663" data-name="Path 989663" d="M199.3,9.208c.57-.016,1.143-.011,1.712.015h.04a.888.888,0,0,0,.039-1.775c-.611-.027-1.227-.033-1.84-.016a.888.888,0,0,0,.049,1.776Z" transform="translate(-174.89 -7.423)"/>
          <path id="Path_989664" data-name="Path 989664" d="M.888,200.073a.888.888,0,0,0,.888-.888c0-.569.021-1.144.062-1.71a.888.888,0,1,0-1.772-.128c-.044.608-.066,1.226-.066,1.838A.888.888,0,0,0,.888,200.073Z" transform="translate(0 -174.129)"/>
          <path id="Path_989665" data-name="Path 989665" d="M243.863,12.916c.557.108,1.118.239,1.666.387a.888.888,0,1,0,.466-1.714c-.59-.16-1.194-.3-1.794-.417a.888.888,0,1,0-.338,1.744Z" transform="translate(-214.35 -10.714)"/>
          <path id="Path_989666" data-name="Path 989666" d="M19.977,114.343a.887.887,0,0,0,1.183-.423c.243-.513.508-1.024.788-1.519a.888.888,0,1,0-1.546-.875c-.3.533-.587,1.083-.848,1.636A.888.888,0,0,0,19.977,114.343Z" transform="translate(-17.163 -98.799)"/>
          <path id="Path_989667" data-name="Path 989667" d="M5.586,155.846a.887.887,0,0,0,1.06-.673c.124-.554.27-1.11.434-1.654A.888.888,0,1,0,5.38,153c-.177.585-.334,1.184-.467,1.781A.888.888,0,0,0,5.586,155.846Z" transform="translate(-4.312 -135.208)"/>
          <path id="Path_989668" data-name="Path 989668" d="M154.8,12.647a.9.9,0,0,0,.218-.027c.55-.139,1.112-.259,1.672-.357a.888.888,0,0,0-.307-1.75c-.6.106-1.208.235-1.8.385a.888.888,0,0,0,.217,1.75Z" transform="translate(-135.683 -10.135)"/>
          <path id="Path_989669" data-name="Path 989669" d="M112.771,25.625a.886.886,0,0,0,.4-.1c.507-.257,1.028-.5,1.551-.716a.888.888,0,0,0-.684-1.639c-.563.235-1.125.494-1.67.771a.888.888,0,0,0,.4,1.68Z" transform="translate(-98.633 -21.247)"/>
          <path id="Path_989670" data-name="Path 989670" d="M43.365,77.614a.888.888,0,0,0,1.247-.155c.349-.448.719-.888,1.1-1.31a.888.888,0,0,0-1.318-1.191c-.41.454-.809.928-1.184,1.41a.888.888,0,0,0,.155,1.247Z" transform="translate(-37.928 -66.703)"/>
          <path id="Path_989671" data-name="Path 989671" d="M75.223,47.714a.885.885,0,0,0,.565-.2c.438-.361.9-.711,1.358-1.039a.888.888,0,1,0-1.027-1.449c-.5.353-.99.729-1.462,1.118a.888.888,0,0,0,.566,1.573Z" transform="translate(-65.531 -40.426)"/>
          <path id="Path_989672" data-name="Path 989672" d="M39.918,58.765a.888.888,0,0,0,.888-.888V48.233a19.882,19.882,0,0,0,3.458-4.859c.283.014.564.022.84.022A16.948,16.948,0,1,0,32.288,15.362a20.051,20.051,0,0,0-5.2-.833A19.876,19.876,0,0,0,6.653,34.147L2.222,41.494a4.209,4.209,0,0,0,3.6,6.383H9.611a.018.018,0,0,1,.018.018v8.175a5,5,0,0,0,5,5h4.016v4.989a2.075,2.075,0,0,0,2.072,2.072H38.734a2.075,2.075,0,0,0,2.072-2.072V62.021a.888.888,0,1,0-1.776,0v4.036a.3.3,0,0,1-.3.3H20.716a.3.3,0,0,1-.3-.3V61.068h4.811a5,5,0,0,0,4.584-3.006l1.777-4.089a.9.9,0,0,1,.569-.512,19.821,19.821,0,0,0,6.869-3.606v8.021A.888.888,0,0,0,39.918,58.765Zm2.261-24.93c-.078-.031-.155-.063-.232-.1a1.551,1.551,0,0,0-1.72.334L38.7,35.6l-2.747-2.747,1.529-1.529a1.55,1.55,0,0,0,.334-1.72q-.05-.115-.1-.232a1.551,1.551,0,0,0-1.453-.982H34.1V24.506h2.162a1.551,1.551,0,0,0,1.453-.983q.046-.117.1-.231a1.551,1.551,0,0,0-.334-1.72l-1.529-1.529L38.7,17.3l1.529,1.529a1.551,1.551,0,0,0,1.72.333q.115-.05.231-.1a1.55,1.55,0,0,0,.982-1.453V15.447h3.885V17.61a1.55,1.55,0,0,0,.982,1.453q.117.046.232.1a1.551,1.551,0,0,0,1.72-.334L51.51,17.3l2.747,2.747-1.529,1.529a1.55,1.55,0,0,0-.334,1.72q.05.115.1.232a1.551,1.551,0,0,0,1.453.982h2.162v3.886H53.943a1.551,1.551,0,0,0-1.453.982c-.031.078-.063.155-.1.231a1.551,1.551,0,0,0,.334,1.72l1.529,1.529L51.509,35.6,49.98,34.073a1.551,1.551,0,0,0-1.72-.333q-.115.05-.232.1a1.55,1.55,0,0,0-.982,1.453V37.45H43.161V35.288A1.55,1.55,0,0,0,42.179,33.835ZM45.1,11.277a15.171,15.171,0,1,1,0,30.343h-.057a19.863,19.863,0,0,0,.759-2.392h1.45a1.569,1.569,0,0,0,1.568-1.568V35.43h0L50.4,37.005a1.57,1.57,0,0,0,2.217,0l3.043-3.043a1.57,1.57,0,0,0,0-2.217l-1.576-1.576v0h2.229A1.569,1.569,0,0,0,57.882,28.6V24.3a1.569,1.569,0,0,0-1.568-1.568H54.085v0l1.576-1.576a1.567,1.567,0,0,0,0-2.217l-3.043-3.043a1.569,1.569,0,0,0-2.217,0l-1.576,1.576h0V15.238a1.569,1.569,0,0,0-1.568-1.568h-4.3a1.569,1.569,0,0,0-1.568,1.568v2.229h0l-1.576-1.576a1.57,1.57,0,0,0-2.217,0l-1.216,1.216A19.744,19.744,0,0,0,34.1,16a15.1,15.1,0,0,1,11-4.727ZM31.658,51.757a2.674,2.674,0,0,0-1.695,1.508l-1.777,4.089a3.221,3.221,0,0,1-2.955,1.938h-10.6a3.226,3.226,0,0,1-3.222-3.222V47.895A1.8,1.8,0,0,0,9.611,46.1H5.826a2.433,2.433,0,0,1-2.083-3.689l4.474-7.417a1.48,1.48,0,0,0,.212-.752A18.1,18.1,0,0,1,26.524,16.3q.258,0,.518.007a18.136,18.136,0,0,1,8.025,2.111l-.519.519a1.567,1.567,0,0,0,0,2.217l1.576,1.576v0H33.893a1.567,1.567,0,0,0-1.3.692A12.488,12.488,0,0,0,13.982,34.311a.888.888,0,1,0,1.776,0,10.708,10.708,0,0,1,16.568-8.971V28.6a1.569,1.569,0,0,0,1.568,1.568h2.229v0l-1.576,1.576a1.568,1.568,0,0,0,0,2.217L36.985,36.4a10.733,10.733,0,0,1-10.51,8.627.888.888,0,0,0,0,1.776,12.513,12.513,0,0,0,12.088-9.347,1.564,1.564,0,0,0,1.243-.452l1.576-1.576h0v2.229a1.569,1.569,0,0,0,1.568,1.568h1.016A18.063,18.063,0,0,1,31.658,51.757Z" transform="translate(-1.419 -9.255)"/>
          <path id="Path_989673" data-name="Path 989673" d="M170.5,173.82a.888.888,0,0,0-1.692-.541,4.553,4.553,0,1,1-.288-3.468A.888.888,0,0,0,170.1,169a6.327,6.327,0,1,0,.4,4.822Z" transform="translate(-139.416 -146.836)"/>
          <path id="Path_989674" data-name="Path 989674" d="M326.25,106.058a.888.888,0,1,0-1.669-.608,4.779,4.779,0,1,1-.087-3.495.888.888,0,0,0,1.636-.691,6.555,6.555,0,1,0,.12,4.794Z" transform="translate(-276.404 -86.619)"/>
          <path id="Path_989675" data-name="Path 989675" d="M343.251,123.529a3.444,3.444,0,1,0,3.444,3.444A3.448,3.448,0,0,0,343.251,123.529Zm0,5.112a1.668,1.668,0,1,1,1.668-1.668A1.67,1.67,0,0,1,343.251,128.641Z" transform="translate(-299.566 -109.779)"/>
          <path id="Path_989676" data-name="Path 989676" d="M361.344,310.364h-.689l.487-.487a1.328,1.328,0,0,0,0-1.878l-1.97-1.97a1.33,1.33,0,0,0-1.878,0l-.487.487v-.689a1.329,1.329,0,0,0-1.328-1.328h-2.786a1.329,1.329,0,0,0-1.328,1.328v.689l-.487-.487a1.33,1.33,0,0,0-1.878,0l-1.97,1.97a1.328,1.328,0,0,0,0,1.878l.487.487h-.689a1.33,1.33,0,0,0-1.328,1.328v2.786a1.33,1.33,0,0,0,1.328,1.328h.689l-.487.487a1.328,1.328,0,0,0,0,1.878l1.97,1.97a1.33,1.33,0,0,0,1.878,0l.487-.487v.689a1.329,1.329,0,0,0,1.328,1.328h2.786a1.329,1.329,0,0,0,1.328-1.328v-.689l.487.487a1.33,1.33,0,0,0,1.878,0l1.97-1.97a1.328,1.328,0,0,0,0-1.878l-.487-.487h.689a1.33,1.33,0,0,0,1.328-1.328v-2.786A1.33,1.33,0,0,0,361.344,310.364Zm-.448,3.666h-1.087a1.316,1.316,0,0,0-1.232.834c-.019.047-.038.094-.058.141a1.315,1.315,0,0,0,.282,1.459l.768.768-1.336,1.336-.768-.768a1.316,1.316,0,0,0-1.459-.282l-.141.058a1.315,1.315,0,0,0-.834,1.232v1.087h-1.889v-1.087a1.315,1.315,0,0,0-.833-1.232l-.142-.059a1.315,1.315,0,0,0-1.459.282l-.768.768-1.336-1.336.768-.768a1.315,1.315,0,0,0,.282-1.459c-.02-.047-.04-.094-.058-.141a1.315,1.315,0,0,0-1.232-.834h-1.087V312.14h1.087a1.315,1.315,0,0,0,1.232-.833c.019-.048.038-.095.059-.141a1.315,1.315,0,0,0-.282-1.459l-.768-.768,1.336-1.336.768.768a1.315,1.315,0,0,0,1.459.283l.141-.058a1.315,1.315,0,0,0,.834-1.232v-1.087h1.889v1.087a1.315,1.315,0,0,0,.833,1.232l.142.059a1.316,1.316,0,0,0,1.459-.282l.768-.768,1.336,1.336-.768.768a1.316,1.316,0,0,0-.282,1.46c.02.046.039.093.058.14a1.315,1.315,0,0,0,1.232.834H360.9v1.889Z" transform="translate(-304.586 -269.318)"/>
          <path id="Path_989677" data-name="Path 989677" d="M393.293,348.973a3.319,3.319,0,1,0,3.319,3.319A3.323,3.323,0,0,0,393.293,348.973Zm0,4.862a1.543,1.543,0,1,1,1.543-1.543A1.544,1.544,0,0,1,393.293,353.835Z" transform="translate(-343.792 -308.526)"/>
          <circle id="Ellipse_11741" data-name="Ellipse 11741" cx="0.888" cy="0.888" r="0.888" transform="translate(13.063 27.551)"/>
          <circle id="Ellipse_11742" data-name="Ellipse 11742" cx="0.888" cy="0.888" r="0.888" transform="translate(14.277 30.241)"/>
          <circle id="Ellipse_11743" data-name="Ellipse 11743" cx="0.888" cy="0.888" r="0.888" transform="translate(16.13 32.539)"/>
          <circle id="Ellipse_11744" data-name="Ellipse 11744" cx="0.888" cy="0.888" r="0.888" transform="translate(18.501 34.297)"/>
          <circle id="Ellipse_11745" data-name="Ellipse 11745" cx="0.888" cy="0.888" r="0.888" transform="translate(21.24 35.4)"/>
        </g>
      </g>
    </g>
  </g>
</svg>
