<svg xmlns="http://www.w3.org/2000/svg" xmlns:xlink="http://www.w3.org/1999/xlink" width="110" height="110" viewBox="0 0 110 110">
  <defs>
    <filter id="Path_982547" x="0" y="0" width="110" height="110" filterUnits="userSpaceOnUse">
      <feOffset dy="3" input="SourceAlpha"/>
      <feGaussianBlur stdDeviation="3" result="blur"/>
      <feFlood flood-opacity="0.161"/>
      <feComposite operator="in" in2="blur"/>
      <feComposite in="SourceGraphic"/>
    </filter>
  </defs>
  <g id="Group_1154788" data-name="Group 1154788" transform="translate(-4380 -1370)">
    <g id="Group_1154729" data-name="Group 1154729">
      <g id="Group_1154218" data-name="Group 1154218" transform="translate(3346 -5337)">
        <g id="Group_1152583" data-name="Group 1152583" transform="translate(1043 6713)">
          <g id="Group_1146973" data-name="Group 1146973" transform="translate(0 0)">
            <g id="Group_1146954" data-name="Group 1146954">
              <g transform="matrix(1, 0, 0, 1, -9, -6)" filter="url(#Path_982547)">
                <g id="Path_982547-2" data-name="Path 982547" transform="translate(9 6)" fill="#fff6f9">
                  <path d="M 46 90.49987030029297 C 39.99187850952148 90.49987030029297 34.16426849365234 89.32350921630859 28.67905426025391 87.00345611572266 C 23.38019943237305 84.76224517822266 18.62104034423828 81.55341339111328 14.53374671936035 77.46613311767578 C 10.44646644592285 73.37885284423828 7.237639904022217 68.61969757080078 4.996413230895996 63.32085418701172 C 2.676359891891479 57.83565521240234 1.5 52.008056640625 1.5 45.99993515014648 C 1.5 39.99181365966797 2.676359891891479 34.16421508789062 4.996413230895996 28.67901420593262 C 7.237639904022217 23.38017463684082 10.44646644592285 18.62101554870605 14.53374671936035 14.53373527526855 C 18.62104034423828 10.44645500183105 23.38019943237305 7.23762845993042 28.67905426025391 4.996415138244629 C 34.16426849365234 2.676361799240112 39.99187850952148 1.500001788139343 46 1.500001788139343 C 52.00812149047852 1.500001788139343 57.83573150634766 2.676361799240112 63.32094573974609 4.996415138244629 C 68.61979675292969 7.23762845993042 73.37895965576172 10.44645500183105 77.46625518798828 14.53373527526855 C 81.55353546142578 18.62101554870605 84.76235961914062 23.38017463684082 87.00358581542969 28.67901420593262 C 89.32363891601562 34.16421508789062 90.5 39.99181365966797 90.5 45.99993515014648 C 90.5 52.008056640625 89.32363891601562 57.83565521240234 87.00358581542969 63.32085418701172 C 84.76235961914062 68.61969757080078 81.55353546142578 73.37885284423828 77.46625518798828 77.46613311767578 C 73.37895965576172 81.55341339111328 68.61979675292969 84.76224517822266 63.32094573974609 87.00345611572266 C 57.83573150634766 89.32350921630859 52.00812149047852 90.49987030029297 46 90.49987030029297 Z" stroke="none"/>
                  <path d="M 46 2.999992370605469 C 40.1937141418457 2.999992370605469 34.56269836425781 4.136489868164062 29.26337051391602 6.377906799316406 C 24.14332580566406 8.543502807617188 19.54441070556641 11.64437866210938 15.59439849853516 15.59437561035156 C 11.64440155029297 19.54439544677734 8.54351806640625 24.14329528808594 6.377914428710938 29.26333618164062 C 4.136497497558594 34.56264877319336 3 40.19366455078125 3 45.99993515014648 C 3 51.80620574951172 4.136497497558594 57.43720626831055 6.377914428710938 62.73651885986328 C 8.54351806640625 67.8565673828125 11.64440155029297 72.45545959472656 15.59439849853516 76.40547943115234 C 19.54441070556641 80.35547637939453 24.14332580566406 83.45635223388672 29.26337051391602 85.6219482421875 C 34.56269836425781 87.86336517333984 40.1937141418457 88.99986267089844 46 88.99986267089844 C 51.8062858581543 88.99986267089844 57.43730163574219 87.86336517333984 62.73661422729492 85.6219482421875 C 67.85667419433594 83.45635223388672 72.45557403564453 80.35547637939453 76.40558624267578 76.40547943115234 C 80.35559844970703 72.45545959472656 83.45647430419922 67.8565673828125 85.6220703125 62.73651885986328 C 87.86350250244141 57.43720626831055 89 51.80620574951172 89 45.99993515014648 C 89 40.19366455078125 87.86350250244141 34.56264877319336 85.6220703125 29.26333618164062 C 83.45647430419922 24.14329528808594 80.35559844970703 19.54439544677734 76.40558624267578 15.59437561035156 C 72.45557403564453 11.64437866210938 67.85667419433594 8.543502807617188 62.73661422729492 6.377906799316406 C 57.43730163574219 4.136489868164062 51.8062858581543 2.999992370605469 46 2.999992370605469 M 46 -7.62939453125e-06 C 71.40509033203125 -7.62939453125e-06 92 20.59486389160156 92 45.99993515014648 C 92 71.40499114990234 71.40509033203125 91.99986267089844 46 91.99986267089844 C 20.59490203857422 91.99986267089844 0 71.40499114990234 0 45.99993515014648 C 0 20.59486389160156 20.59490203857422 -7.62939453125e-06 46 -7.62939453125e-06 Z" stroke="none" fill="#ffaece"/>
                </g>
              </g>
            </g>
          </g>
        </g>
      </g>
      <g id="imaginacion" transform="translate(4406 1393)">
        <path id="Path_990609" data-name="Path 990609" d="M19.7,119.85a4.381,4.381,0,0,0-7.942-1.71,1.753,1.753,0,0,0-2.506,1.582q0,.074.006.147a2.629,2.629,0,0,0,.87,5.109h8.76a2.629,2.629,0,0,0,.812-5.128Z" transform="translate(-6.654 -103.108)" fill="#c8effe"/>
        <path id="Path_990610" data-name="Path 990610" d="M29.1,240.274H27.638A6.768,6.768,0,0,1,21,234.833l-.917-4.585a4.435,4.435,0,0,1,5.752-5.078l3.261,1.087v14.016Z" transform="translate(-17.739 -199.563)" fill="#ffbd86"/>
        <path id="Path_990611" data-name="Path 990611" d="M411.312,240.274h1.459a6.768,6.768,0,0,0,6.637-5.441l.917-4.585a4.435,4.435,0,0,0-5.752-5.078l-3.261,1.087v14.016Z" transform="translate(-364.913 -199.563)" fill="#f6a96c"/>
        <path id="Path_990612" data-name="Path 990612" d="M155.835,54.094c-6.815,0-12.494,7.239-12.736,14.016l2.224,1.752,1.283-1.752a9.241,9.241,0,0,1,18.458,0l1.284,1.752,2.224-1.752C168.329,61.333,162.65,54.094,155.835,54.094Z" transform="translate(-126.956 -47.992)" fill="#46cc8d"/>
        <path id="Path_990613" data-name="Path 990613" d="M334.649,160.6l1.283,1.752,2.224-1.752a13.661,13.661,0,0,0-.274-2.256h-3.635A9.04,9.04,0,0,1,334.649,160.6Z" transform="translate(-296.542 -140.482)" fill="#00c27a"/>
        <path id="Path_990614" data-name="Path 990614" d="M143.374,158.344a13.653,13.653,0,0,0-.274,2.256l2.224,1.752,1.283-1.752a9.038,9.038,0,0,1,.4-2.256Z" transform="translate(-126.957 -140.482)" fill="#00c27a"/>
        <path id="Path_990615" data-name="Path 990615" d="M128.264,23.031c-8.73,0-16,8.818-16.242,17.52l2.225,1.752,1.28-1.752a12.745,12.745,0,0,1,25.472,0l1.28,1.752,2.225-1.752c-.243-8.7-7.512-17.52-16.242-17.52Z" transform="translate(-99.385 -20.433)" fill="#fee903"/>
        <g id="Group_1154728" data-name="Group 1154728" transform="translate(12.637 7.74)">
          <path id="Path_990616" data-name="Path 990616" d="M352.622,72.734a19.865,19.865,0,0,0-2.969-4.123,2.628,2.628,0,0,0,2.162,4.123h.807Z" transform="translate(-322.433 -68.611)" fill="#f4d902"/>
          <path id="Path_990617" data-name="Path 990617" d="M366.641,160.6l1.28,1.752,2.225-1.752a16.863,16.863,0,0,0-.217-2.256h-3.576A12.5,12.5,0,0,1,366.641,160.6Z" transform="translate(-337.664 -148.221)" fill="#f4d902"/>
          <path id="Path_990618" data-name="Path 990618" d="M112.239,158.344a16.881,16.881,0,0,0-.217,2.256l2.225,1.752,1.28-1.752a12.494,12.494,0,0,1,.287-2.256Z" transform="translate(-112.022 -148.221)" fill="#f4d902"/>
        </g>
        <path id="Path_990619" data-name="Path 990619" d="M100.7,11a16.331,16.331,0,0,1,16.242,15.768l1.279,1.752,2.227-1.752a19.753,19.753,0,0,0-39.494,0l2.227,1.752,1.279-1.752A16.332,16.332,0,0,1,100.7,11Z" transform="translate(-71.817 -6.654)" fill="#e53950"/>
        <path id="Path_990620" data-name="Path 990620" d="M350.462,51.325a16.523,16.523,0,0,1,3.018,3.488h4.046a19.861,19.861,0,0,0-5.03-6.4,1.746,1.746,0,0,0-.426,1.145c0,.05,0,.1.006.147A2.635,2.635,0,0,0,350.462,51.325Z" transform="translate(-310.927 -42.95)" fill="#ca2e43"/>
        <path id="Path_990621" data-name="Path 990621" d="M398.219,160.6l1.279,1.752,2.227-1.752a19.759,19.759,0,0,0-.181-2.256h-3.548A15.991,15.991,0,0,1,398.219,160.6Z" transform="translate(-353.098 -140.482)" fill="#ca2e43"/>
        <path id="Path_990622" data-name="Path 990622" d="M81.131,158.344a19.738,19.738,0,0,0-.181,2.256l2.227,1.752,1.279-1.752a15.96,15.96,0,0,1,.224-2.256Z" transform="translate(-71.818 -140.482)" fill="#ca2e43"/>
        <path id="Path_990623" data-name="Path 990623" d="M52.362,10.573a9,9,0,0,0-3.071,3.072,9.015,9.015,0,0,0-3.073-3.072A9.05,9.05,0,0,0,49.29,7.5,9.03,9.03,0,0,0,52.362,10.573Z" transform="translate(-41.003 -6.654)" fill="#fee903"/>
        <path id="Path_990624" data-name="Path 990624" d="M463.163,118.848a7.7,7.7,0,0,0-2.627,2.627,7.714,7.714,0,0,0-2.629-2.627,7.742,7.742,0,0,0,2.629-2.629A7.725,7.725,0,0,0,463.163,118.848Z" transform="translate(-406.252 -103.109)" fill="#fee903"/>
        <path id="Path_990625" data-name="Path 990625" d="M80.908,178.344q-.019.848.034,1.711l1.1,17.6a18.649,18.649,0,0,0,37.226,0l1.1-17.6q.054-.863.034-1.711Z" transform="translate(-71.776 -158.226)" fill="#fed2a4"/>
        <path id="Path_990626" data-name="Path 990626" d="M193.077,178.344H188.5l-1.066,17.05a18.66,18.66,0,0,1-24.612,16.5,18.651,18.651,0,0,0,29.125-14.243l1.1-17.6Q193.1,179.192,193.077,178.344Z" transform="translate(-144.451 -158.226)" fill="#ffbd86"/>
        <path id="Path_990627" data-name="Path 990627" d="M361.388,11.132a4.381,4.381,0,0,0-7.942-1.71A1.753,1.753,0,0,0,350.94,11c0,.05,0,.1.006.147a2.628,2.628,0,0,0,.87,5.109h8.76a2.628,2.628,0,0,0,.812-5.128Z" transform="translate(-309.797 -6.654)" fill="#c8effe"/>
        <path id="Path_990628" data-name="Path 990628" d="M244.651,288.263a3.67,3.67,0,0,0,3.666-3.666v-4.188a.846.846,0,0,0-1.692,0V284.6a1.976,1.976,0,0,1-1.974,1.974h-1.368a.846.846,0,1,0,0,1.692Z" transform="translate(-215.088 -248.026)"/>
        <path id="Path_990629" data-name="Path 990629" d="M182.854,392.3a.846.846,0,0,0,0,1.2,11.358,11.358,0,0,0,16.063,0,.846.846,0,0,0-1.2-1.2,9.666,9.666,0,0,1-13.67,0A.846.846,0,0,0,182.854,392.3Z" transform="translate(-162.007 -347.824)"/>
        <path id="Path_990630" data-name="Path 990630" d="M39.128,4.644a8.19,8.19,0,0,1,2.784,2.783.846.846,0,0,0,1.449,0,8.169,8.169,0,0,1,2.782-2.782.846.846,0,0,0,0-1.45A8.206,8.206,0,0,1,43.362.41a.846.846,0,0,0-1.449,0,8.229,8.229,0,0,1-2.786,2.786.846.846,0,0,0,0,1.45Zm3.508-2.319a9.941,9.941,0,0,0,1.592,1.592,9.9,9.9,0,0,0-1.592,1.592,9.911,9.911,0,0,0-1.592-1.592A9.963,9.963,0,0,0,42.637,2.326Z" transform="translate(-34.35 0)"/>
        <path id="Path_990631" data-name="Path 990631" d="M456.945,111.469a6.9,6.9,0,0,1-2.339-2.341.846.846,0,0,0-1.449,0,6.917,6.917,0,0,1-2.341,2.341.846.846,0,0,0,0,1.45,6.885,6.885,0,0,1,2.34,2.339.846.846,0,0,0,1.449,0,6.864,6.864,0,0,1,2.338-2.338.846.846,0,0,0,0-1.45Zm-3.065,1.891a8.6,8.6,0,0,0-1.168-1.168,8.642,8.642,0,0,0,1.168-1.168,8.625,8.625,0,0,0,1.167,1.168A8.583,8.583,0,0,0,453.88,113.361Z" transform="translate(-399.597 -96.455)"/>
        <path id="Path_990632" data-name="Path 990632" d="M54.558,25.856a5.229,5.229,0,0,0-5.165-1.051l-.143.047.186-2.97c.037-.583.049-1.174.036-1.755,0-.009,0-.019,0-.028a20.472,20.472,0,0,0-2.664-9.647h3.971a3.475,3.475,0,0,0,1.543-6.588,5.228,5.228,0,0,0-8.985-2.075,2.6,2.6,0,0,0-2.911,1.749A20.616,20.616,0,0,0,17.2,3.63a.846.846,0,0,0,.961,1.393,18.926,18.926,0,0,1,21.14-.2,3.477,3.477,0,0,0-.729,1.743A16.949,16.949,0,0,0,28.879,3.5,17.211,17.211,0,0,0,11.834,19.272H10.017A18.832,18.832,0,0,1,15.251,7.494a.846.846,0,0,0-1.22-1.173,20.626,20.626,0,0,0-4.061,6.09,5.236,5.236,0,0,0-5.177,1.641,2.6,2.6,0,0,0-3.009,2.153,3.475,3.475,0,0,0,1.69,6.51h4.9l.134,2.136-.143-.047a5.281,5.281,0,0,0-6.849,6.046l.917,4.585a7.636,7.636,0,0,0,7.229,6.117,19.381,19.381,0,0,0,1.24,4.262.846.846,0,0,0,1.56-.656,17.765,17.765,0,0,1-1.352-5.788C10,21.585,9.993,21.766,9.977,20.964h37.8c-.012.58.071-.853-1.133,18.408a17.805,17.805,0,0,1-32.329,9.137.846.846,0,1,0-1.383.975A19.5,19.5,0,0,0,48.1,41.554a7.623,7.623,0,0,0,1.636-.229.846.846,0,1,0-.416-1.64,5.912,5.912,0,0,1-1.006.164c.022-.272-.027.481.591-9.4l2.135-.712a.3.3,0,0,1,.038-.01.137.137,0,0,1,.064.046.163.163,0,0,1,.013.018.139.139,0,0,1,0,.044l-.607,3.037A.846.846,0,0,0,52.2,33.2l.607-3.036a1.735,1.735,0,0,0-.359-1.466,1.747,1.747,0,0,0-1.946-.569l-1.486.5.122-1.951.792-.264a3.589,3.589,0,0,1,4.655,4.109L53.666,35.1a5.917,5.917,0,0,1-1.439,2.838.846.846,0,1,0,1.247,1.143,7.609,7.609,0,0,0,1.851-3.65l.917-4.585a5.229,5.229,0,0,0-1.684-5ZM47.74,19.272H45.923a16.912,16.912,0,0,0-3.329-8.82h2.24A18.781,18.781,0,0,1,47.74,19.272ZM41.992,4.427a.907.907,0,0,1,.9-.983.9.9,0,0,1,.389.088.846.846,0,0,0,1.065-.288,3.535,3.535,0,0,1,6.409,1.378.846.846,0,0,0,.572.661,1.782,1.782,0,0,1-.551,3.477h-8.76a1.782,1.782,0,0,1-.59-3.464.846.846,0,0,0,.563-.869ZM28.879,5.2A15.508,15.508,0,0,1,44.225,19.272H42.406a13.6,13.6,0,0,0-27.055,0H13.532A15.508,15.508,0,0,1,28.879,5.2Zm10,14.076a10.093,10.093,0,0,0-20,0H17.053a11.9,11.9,0,0,1,23.652,0Zm-1.711,0H20.588a8.4,8.4,0,0,1,16.581,0Zm-35.477-.03A1.785,1.785,0,0,1,2.884,17.56a.846.846,0,0,0,.563-.869.907.907,0,0,1,.9-.983.9.9,0,0,1,.39.088A.846.846,0,0,0,5.8,15.508a3.543,3.543,0,0,1,3.551-1.5A20.5,20.5,0,0,0,8.285,20.1c0,.01,0,.02,0,.03-.006.3-.006.6,0,.9H3.474a1.784,1.784,0,0,1-1.782-1.782ZM4.092,35.1l-.917-4.585A3.589,3.589,0,0,1,7.829,26.41l.792.264.122,1.951-1.487-.5a1.747,1.747,0,0,0-1.946.569,1.735,1.735,0,0,0-.359,1.466L5.559,33.2a.846.846,0,0,0,1.659-.332l-.607-3.037a.171.171,0,0,1,0-.042.1.1,0,0,1,.013-.019.156.156,0,0,1,.06-.046.171.171,0,0,1,.042.01l2.135.712c.617,9.868.569,9.132.591,9.4A5.94,5.94,0,0,1,4.092,35.1Z" transform="translate(0 0)"/>
      </g>
    </g>
  </g>
</svg>
