<svg xmlns="http://www.w3.org/2000/svg" xmlns:xlink="http://www.w3.org/1999/xlink" width="110" height="110" viewBox="0 0 110 110">
  <defs>
    <filter id="Path_982547" x="0" y="0" width="110" height="110" filterUnits="userSpaceOnUse">
      <feOffset dy="3" input="SourceAlpha"/>
      <feGaussianBlur stdDeviation="3" result="blur"/>
      <feFlood flood-opacity="0.161"/>
      <feComposite operator="in" in2="blur"/>
      <feComposite in="SourceGraphic"/>
    </filter>
  </defs>
  <g id="Group_1154784" data-name="Group 1154784" transform="translate(-1113 -898)">
    <g id="Group_1154700" data-name="Group 1154700">
      <g id="Group_1154214" data-name="Group 1154214" transform="translate(79 -5809)">
        <g id="Group_1152583" data-name="Group 1152583" transform="translate(1043 6713)">
          <g id="Group_1146973" data-name="Group 1146973" transform="translate(0 0)">
            <g id="Group_1146954" data-name="Group 1146954">
              <g transform="matrix(1, 0, 0, 1, -9, -6)" filter="url(#Path_982547)">
                <g id="Path_982547-2" data-name="Path 982547" transform="translate(9 6)" fill="#fff6f9">
                  <path d="M 46 90.49987030029297 C 39.99187850952148 90.49987030029297 34.16426849365234 89.32350921630859 28.67905426025391 87.00345611572266 C 23.38019943237305 84.76224517822266 18.62104034423828 81.55341339111328 14.53374671936035 77.46613311767578 C 10.44646644592285 73.37885284423828 7.237639904022217 68.61969757080078 4.996413230895996 63.32085418701172 C 2.676359891891479 57.83565521240234 1.5 52.008056640625 1.5 45.99993515014648 C 1.5 39.99181365966797 2.676359891891479 34.16421508789062 4.996413230895996 28.67901420593262 C 7.237639904022217 23.38017463684082 10.44646644592285 18.62101554870605 14.53374671936035 14.53373527526855 C 18.62104034423828 10.44645500183105 23.38019943237305 7.23762845993042 28.67905426025391 4.996415138244629 C 34.16426849365234 2.676361799240112 39.99187850952148 1.500001788139343 46 1.500001788139343 C 52.00812149047852 1.500001788139343 57.83573150634766 2.676361799240112 63.32094573974609 4.996415138244629 C 68.61979675292969 7.23762845993042 73.37895965576172 10.44645500183105 77.46625518798828 14.53373527526855 C 81.55353546142578 18.62101554870605 84.76235961914062 23.38017463684082 87.00358581542969 28.67901420593262 C 89.32363891601562 34.16421508789062 90.5 39.99181365966797 90.5 45.99993515014648 C 90.5 52.008056640625 89.32363891601562 57.83565521240234 87.00358581542969 63.32085418701172 C 84.76235961914062 68.61969757080078 81.55353546142578 73.37885284423828 77.46625518798828 77.46613311767578 C 73.37895965576172 81.55341339111328 68.61979675292969 84.76224517822266 63.32094573974609 87.00345611572266 C 57.83573150634766 89.32350921630859 52.00812149047852 90.49987030029297 46 90.49987030029297 Z" stroke="none"/>
                  <path d="M 46 2.999992370605469 C 40.1937141418457 2.999992370605469 34.56269836425781 4.136489868164062 29.26337051391602 6.377906799316406 C 24.14332580566406 8.543502807617188 19.54441070556641 11.64437866210938 15.59439849853516 15.59437561035156 C 11.64440155029297 19.54439544677734 8.54351806640625 24.14329528808594 6.377914428710938 29.26333618164062 C 4.136497497558594 34.56264877319336 3 40.19366455078125 3 45.99993515014648 C 3 51.80620574951172 4.136497497558594 57.43720626831055 6.377914428710938 62.73651885986328 C 8.54351806640625 67.8565673828125 11.64440155029297 72.45545959472656 15.59439849853516 76.40547943115234 C 19.54441070556641 80.35547637939453 24.14332580566406 83.45635223388672 29.26337051391602 85.6219482421875 C 34.56269836425781 87.86336517333984 40.1937141418457 88.99986267089844 46 88.99986267089844 C 51.8062858581543 88.99986267089844 57.43730163574219 87.86336517333984 62.73661422729492 85.6219482421875 C 67.85667419433594 83.45635223388672 72.45557403564453 80.35547637939453 76.40558624267578 76.40547943115234 C 80.35559844970703 72.45545959472656 83.45647430419922 67.8565673828125 85.6220703125 62.73651885986328 C 87.86350250244141 57.43720626831055 89 51.80620574951172 89 45.99993515014648 C 89 40.19366455078125 87.86350250244141 34.56264877319336 85.6220703125 29.26333618164062 C 83.45647430419922 24.14329528808594 80.35559844970703 19.54439544677734 76.40558624267578 15.59437561035156 C 72.45557403564453 11.64437866210938 67.85667419433594 8.543502807617188 62.73661422729492 6.377906799316406 C 57.43730163574219 4.136489868164062 51.8062858581543 2.999992370605469 46 2.999992370605469 M 46 -7.62939453125e-06 C 71.40509033203125 -7.62939453125e-06 92 20.59486389160156 92 45.99993515014648 C 92 71.40499114990234 71.40509033203125 91.99986267089844 46 91.99986267089844 C 20.59490203857422 91.99986267089844 0 71.40499114990234 0 45.99993515014648 C 0 20.59486389160156 20.59490203857422 -7.62939453125e-06 46 -7.62939453125e-06 Z" stroke="none" fill="#ffaece"/>
                </g>
              </g>
            </g>
          </g>
        </g>
      </g>
      <g id="conocimiento" transform="translate(1133 915)">
        <g id="Group_1154697" data-name="Group 1154697" transform="translate(0 0)">
          <g id="Group_1154693" data-name="Group 1154693">
            <g id="Group_1154692" data-name="Group 1154692">
              <g id="Group_1154690" data-name="Group 1154690">
                <path id="Path_990529" data-name="Path 990529" fill="#7c7b80"/>
                <path id="Path_990530" data-name="Path 990530" d="M185.072,453.26v3.418a2.977,2.977,0,0,1-2.977,2.977H142.5a2.977,2.977,0,0,1-2.977-2.977V453.26Z" transform="translate(-122.113 -396.696)" fill="#686380"/>
                <path id="Path_990531" data-name="Path 990531" d="M443.624,453.26v3.418a2.977,2.977,0,0,1-2.977,2.977h4.992a2.977,2.977,0,0,0,2.977-2.977V453.26Z" transform="translate(-385.657 -396.696)" fill="#5f5a78"/>
                <g id="Group_1154687" data-name="Group 1154687" transform="translate(40.185 26.132)">
                  <path id="Path_990532" data-name="Path 990532" d="M344.786,241.506H326.739a4.726,4.726,0,0,0-4.726,4.726v-32.1a4.726,4.726,0,0,1,4.726-4.726h15.07a2.977,2.977,0,0,1,2.977,2.977v29.123Z" transform="translate(-322.013 -209.406)" fill="#f7fafa"/>
                </g>
                <g id="Group_1154688" data-name="Group 1154688" transform="translate(54.99 26.132)">
                  <path id="Path_990533" data-name="Path 990533" d="M445.639,209.406h-4.992a2.977,2.977,0,0,1,2.977,2.977v29.123h4.992V212.383A2.977,2.977,0,0,0,445.639,209.406Z" transform="translate(-440.647 -209.406)" fill="#f2f5f5"/>
                </g>
                <g id="Group_1154689" data-name="Group 1154689" transform="translate(17.412 26.132)">
                  <path id="Path_990534" data-name="Path 990534" d="M139.525,241.506h18.047a4.726,4.726,0,0,1,4.726,4.726v-32.1a4.726,4.726,0,0,0-4.726-4.726H142.5a2.977,2.977,0,0,0-2.977,2.977Z" transform="translate(-139.525 -209.406)" fill="#edf0f0"/>
                </g>
              </g>
              <g id="Group_1154691" data-name="Group 1154691" transform="translate(24.24 34.295)">
                <path id="Path_990535" data-name="Path 990535" d="M194.24,274.814h9.117" transform="translate(-194.24 -274.814)" fill="#c9fcff"/>
              </g>
            </g>
          </g>
          <g id="Group_1154696" data-name="Group 1154696" transform="translate(0.936 0.936)">
            <g id="Group_1154694" data-name="Group 1154694" transform="translate(0 11.282)">
              <path id="Path_990536" data-name="Path 990536" d="M24.5,102a4.088,4.088,0,1,0-8.176,0c0,.357-.006,1.024-.006,1.024s-.093-.005-.21-.005a4.3,4.3,0,0,0-4.3,4.3V110.1a4.3,4.3,0,0,0-4.3,4.3v2.809a4.3,4.3,0,0,0,4.3,4.3v2.779a4.3,4.3,0,0,0,4.3,4.3,1.586,1.586,0,0,0,.209-.009s.007.671.007,1.028a4.088,4.088,0,0,0,8.176,0Z" transform="translate(-7.502 -97.911)" fill="#f7b7de"/>
              <path id="Path_990537" data-name="Path 990537" d="M143.716,129.616a4.088,4.088,0,1,0,8.176,0c0-.357.006-1.024.006-1.024s.093.005.21.005a4.3,4.3,0,0,0,4.3-4.3v-2.779a4.3,4.3,0,0,0,4.3-4.3V114.4a4.3,4.3,0,0,0-4.3-4.3v-2.779a4.3,4.3,0,0,0-4.3-4.3,1.583,1.583,0,0,0-.209.009s-.007-.671-.007-1.028a4.088,4.088,0,1,0-8.176,0Z" transform="translate(-126.717 -97.911)" fill="#ffc9ea"/>
            </g>
            <g id="Group_1154695" data-name="Group 1154695" transform="translate(23.724)">
              <path id="Path_990538" data-name="Path 990538" d="M263.14,197.037h-1.363a1.81,1.81,0,0,1-1.81-1.81v-4.382h4.983v4.382A1.81,1.81,0,0,1,263.14,197.037Z" transform="translate(-252.186 -167.965)" fill="#686380"/>
              <path id="Path_990539" data-name="Path 990539" d="M218.158,17.775a10.273,10.273,0,1,0-14.722,9.262v2.325A2.268,2.268,0,0,0,205.7,31.63h4.363a2.268,2.268,0,0,0,2.268-2.268V27.037a10.274,10.274,0,0,0,5.823-9.262Z" transform="translate(-197.612 -7.503)" fill="#fee438"/>
              <path id="Path_990540" data-name="Path 990540" d="M261.683,7.529a10.111,10.111,0,0,0-1.75.28,10.276,10.276,0,0,1,1.95,19.228v2.325a2.267,2.267,0,0,1-1.954,2.244,2.268,2.268,0,0,0,.314.024h4.363a2.268,2.268,0,0,0,2.268-2.268V27.037a10.275,10.275,0,0,0-5.192-19.508Z" transform="translate(-252.153 -7.503)" fill="#f2d935"/>
            </g>
          </g>
        </g>
        <g id="Group_1154699" data-name="Group 1154699" transform="translate(0 0)">
          <g id="Group_1154698" data-name="Group 1154698" transform="translate(23.332 33.359)">
            <path id="Path_990541" data-name="Path 990541" d="M379.48,267.314h-9.117a.936.936,0,0,0,0,1.872h9.117A.936.936,0,0,0,379.48,267.314Z" transform="translate(-346.682 -267.314)" fill="#060606"/>
            <path id="Path_990542" data-name="Path 990542" d="M379.48,311.443h-9.117a.936.936,0,0,0,0,1.872h9.117A.936.936,0,0,0,379.48,311.443Z" transform="translate(-346.682 -305.936)" fill="#060606"/>
            <path id="Path_990543" data-name="Path 990543" d="M379.48,355.573h-9.117a.936.936,0,0,0,0,1.872h9.117A.936.936,0,0,0,379.48,355.573Z" transform="translate(-346.682 -344.559)" fill="#060606"/>
            <path id="Path_990544" data-name="Path 990544" d="M379.48,399.7h-9.117a.936.936,0,0,0,0,1.872h9.117A.936.936,0,0,0,379.48,399.7Z" transform="translate(-346.682 -383.181)" fill="#060606"/>
            <path id="Path_990545" data-name="Path 990545" d="M196.992,399.7h-9.117a.936.936,0,0,0,0,1.872h9.117A.936.936,0,0,0,196.992,399.7Z" transform="translate(-186.967 -383.181)" fill="#060606"/>
          </g>
          <path id="Path_990546" data-name="Path 990546" d="M59.982,25.2H44.912a5.661,5.661,0,0,0-4.727,2.55A5.67,5.67,0,0,0,38.361,26v-.248A3.209,3.209,0,0,0,40.32,22.8V21.041A11.21,11.21,0,0,0,42.575,3.008,11.121,11.121,0,0,0,34.126.028a11,11,0,0,0-4.8,1.48.936.936,0,0,0,.941,1.618A9.146,9.146,0,0,1,34.257,1.9,9.268,9.268,0,0,1,41.3,4.377a9.339,9.339,0,0,1-2.321,15.249.936.936,0,0,0-.53.843V22.8a1.333,1.333,0,0,1-1.332,1.332H35.87V14.894a5.583,5.583,0,0,0,3.04-1.569A.936.936,0,0,0,37.587,12a3.748,3.748,0,0,1-5.3,0,.936.936,0,0,0-1.324,1.324A5.583,5.583,0,0,0,34,14.894v9.233H32.753A1.333,1.333,0,0,1,31.421,22.8V20.47a.936.936,0,0,0-.53-.843,9.325,9.325,0,0,1-3.781-13.5A.936.936,0,0,0,25.544,5.1a11.137,11.137,0,0,0-1.79,5.308,11.491,11.491,0,0,0-.021,1.175,5.016,5.016,0,0,0-5.8,1.809,5.021,5.021,0,0,0-9.112,2.915c0,.041,0,.085,0,.132a5.247,5.247,0,0,0-4.519,5.19v1.926A5.248,5.248,0,0,0,0,28.711v2.809a5.248,5.248,0,0,0,4.3,5.156V38.6a5.247,5.247,0,0,0,4.519,5.19c0,.047,0,.092,0,.132A5.021,5.021,0,0,0,16.477,48.2V59.981a3.917,3.917,0,0,0,3.913,3.913h30.9a.936.936,0,0,0,0-1.872H41.239a3.8,3.8,0,0,1,3.673-2.854H62.023v.814a2.043,2.043,0,0,1-2.041,2.041H56.189a.936.936,0,0,0,0,1.872h3.794A3.917,3.917,0,0,0,63.9,59.981V29.109A3.917,3.917,0,0,0,59.982,25.2ZM17,43.924a3.152,3.152,0,1,1-6.3,0c0-.342-.007-2.724-.007-2.724a.936.936,0,0,0-1.872,0v.689A3.373,3.373,0,0,1,6.177,38.6V35.268a2.979,2.979,0,0,1,5.958,0v1.825a.936.936,0,0,0,1.872,0V35.268a4.851,4.851,0,0,0-9.675-.507,3.373,3.373,0,0,1-2.458-3.242V28.711a3.371,3.371,0,0,1,3.368-3.368c1.376,0,2.8.029,4.191.029A4.581,4.581,0,0,0,14.007,20.8a.936.936,0,0,0-1.872,0,2.707,2.707,0,0,1-2.508,2.7.941.941,0,0,0-.2-.021H6.177V21.628a3.371,3.371,0,0,1,3.368-3.368c.854,0,1.709.009,2.563.009a.936.936,0,0,0,0-1.872H10.7c0-.032,0-.063,0-.092a3.152,3.152,0,1,1,6.3,0ZM33.379,26H36.49v2.2a.875.875,0,0,1-.874.874H34.253a.875.875,0,0,1-.874-.874ZM18.872,16.306a3.152,3.152,0,0,1,5.177-2.415,11.158,11.158,0,0,0,.943,2.507H23.768a.936.936,0,0,0,0,1.872h2.35a.958.958,0,0,0,.1,0,11.206,11.206,0,0,0,3.333,2.776,11.816,11.816,0,0,0,.072,2.43H26.44a2.7,2.7,0,0,1-2.7-2.675.936.936,0,0,0-1.872,0,4.581,4.581,0,0,0,4.576,4.576,26.453,26.453,0,0,0,4.353-.044,3.209,3.209,0,0,0,.714.42V28.2A2.749,2.749,0,0,0,34,30.931v.588a3.373,3.373,0,0,1-2.458,3.242,4.851,4.851,0,0,0-9.676.507v1.825a.936.936,0,0,0,1.872,0V35.268a2.979,2.979,0,0,1,5.958,0V38.6a3.373,3.373,0,0,1-2.648,3.289v-.676a.936.936,0,1,0-1.872,0s0,2.349,0,2.709a3.152,3.152,0,1,1-6.3,0V16.306Zm1.518,45.716a2.043,2.043,0,0,1-2.041-2.041v-.814H35.46a3.8,3.8,0,0,1,3.673,2.854H20.389Zm18.86-3.267A5.641,5.641,0,0,0,35.46,57.3H18.349V47.344a5.017,5.017,0,0,0,8.129-1.1h6.88a.936.936,0,0,0,0-1.872H27.027c.013-.148.021-.3.021-.449,0-.04,0-.085,0-.132a5.253,5.253,0,0,0,4.063-3.054h2.247a.936.936,0,0,0,0-1.872h-1.8c0-.088.007-.176.007-.264V36.675a5.248,5.248,0,0,0,4.3-5.156v-.588a2.749,2.749,0,0,0,2.482-2.518,3.8,3.8,0,0,1,.9,2.445ZM62.023,57.3H44.912a5.641,5.641,0,0,0-3.79,1.459v-27.9a3.8,3.8,0,0,1,3.79-3.79h15.07a2.043,2.043,0,0,1,2.041,2.041V57.3Z" transform="translate(-0.001 0)" fill="#060606"/>
        </g>
      </g>
    </g>
  </g>
</svg>
