<svg xmlns="http://www.w3.org/2000/svg" xmlns:xlink="http://www.w3.org/1999/xlink" width="108" height="108" viewBox="0 0 108 108">
  <defs>
    <filter id="Path_982547" x="0" y="0" width="108" height="108" filterUnits="userSpaceOnUse">
      <feOffset dy="3" input="SourceAlpha"/>
      <feGaussianBlur stdDeviation="3" result="blur"/>
      <feFlood flood-opacity="0.161"/>
      <feComposite operator="in" in2="blur"/>
      <feComposite in="SourceGraphic"/>
    </filter>
  </defs>
  <g id="Group_1154765" data-name="Group 1154765" transform="translate(-201 -3486)">
    <g id="Group_1154764" data-name="Group 1154764">
      <g id="Group_1154246" data-name="Group 1154246">
        <g id="Group_1151821" data-name="Group 1151821" transform="translate(210 3492)">
          <g id="Group_1146954" data-name="Group 1146954">
            <g transform="matrix(1, 0, 0, 1, -9, -6)" filter="url(#Path_982547)">
              <g id="Path_982547-2" data-name="Path 982547" transform="translate(9 6)" fill="#fff6f9">
                <path d="M 45 88.5 C 39.12687683105469 88.5 33.43022537231445 87.35007476806641 28.06830024719238 85.08217620849609 C 22.88852500915527 82.89131164550781 18.23629951477051 79.75458526611328 14.2408504486084 75.75914764404297 C 10.24541282653809 71.76370239257812 7.108687400817871 67.11147308349609 4.917825222015381 61.93170166015625 C 2.649924993515015 56.56977462768555 1.5 50.87312316894531 1.5 45 C 1.5 39.12687683105469 2.649924993515015 33.43022537231445 4.917825222015381 28.06830024719238 C 7.108687400817871 22.88852500915527 10.24541282653809 18.23629951477051 14.2408504486084 14.2408504486084 C 18.23629951477051 10.24541282653809 22.88852500915527 7.108687400817871 28.06830024719238 4.917825222015381 C 33.43022537231445 2.649924993515015 39.12687683105469 1.5 45 1.5 C 50.87312316894531 1.5 56.56977462768555 2.649924993515015 61.93170166015625 4.917825222015381 C 67.11147308349609 7.108687400817871 71.76370239257812 10.24541282653809 75.75914764404297 14.2408504486084 C 79.75458526611328 18.23629951477051 82.89131164550781 22.88852500915527 85.08217620849609 28.06830024719238 C 87.35007476806641 33.43022537231445 88.5 39.12687683105469 88.5 45 C 88.5 50.87312316894531 87.35007476806641 56.56977462768555 85.08217620849609 61.93170166015625 C 82.89131164550781 67.11147308349609 79.75458526611328 71.76370239257812 75.75914764404297 75.75914764404297 C 71.76370239257812 79.75458526611328 67.11147308349609 82.89131164550781 61.93170166015625 85.08217620849609 C 56.56977462768555 87.35007476806641 50.87312316894531 88.5 45 88.5 Z" stroke="none"/>
                <path d="M 45 3 C 39.32871246337891 3 33.82865524291992 4.110054016113281 28.65262985229492 6.299339294433594 C 23.65165710449219 8.414573669433594 19.15968322753906 11.44334411621094 15.301513671875 15.301513671875 C 11.44334411621094 19.15968322753906 8.414573669433594 23.65165710449219 6.299339294433594 28.65262985229492 C 4.110054016113281 33.82865524291992 3 39.32871246337891 3 45 C 3 50.67128753662109 4.110054016113281 56.17134475708008 6.299339294433594 61.34737396240234 C 8.414573669433594 66.34834289550781 11.44334411621094 70.84031677246094 15.301513671875 74.698486328125 C 19.15968322753906 78.55665588378906 23.65165710449219 81.58542633056641 28.65262985229492 83.70066070556641 C 33.82865524291992 85.88994598388672 39.32871246337891 87 45 87 C 50.67128753662109 87 56.17134475708008 85.88994598388672 61.34737396240234 83.70066070556641 C 66.34834289550781 81.58542633056641 70.84031677246094 78.55665588378906 74.698486328125 74.698486328125 C 78.55665588378906 70.84031677246094 81.58542633056641 66.34834289550781 83.70066070556641 61.34737396240234 C 85.88994598388672 56.17134475708008 87 50.67128753662109 87 45 C 87 39.32871246337891 85.88994598388672 33.82865524291992 83.70066070556641 28.65262985229492 C 81.58542633056641 23.65165710449219 78.55665588378906 19.15968322753906 74.698486328125 15.301513671875 C 70.84031677246094 11.44334411621094 66.34834289550781 8.414573669433594 61.34737396240234 6.299339294433594 C 56.17134475708008 4.110054016113281 50.67128753662109 3 45 3 M 45 0 C 69.85281372070312 0 90 20.14718627929688 90 45 C 90 69.85281372070312 69.85281372070312 90 45 90 C 20.14718627929688 90 0 69.85281372070312 0 45 C 0 20.14718627929688 20.14718627929688 0 45 0 Z" stroke="none" fill="#ffaece"/>
              </g>
            </g>
          </g>
        </g>
        <g id="lluvia-de-ideas_1_" data-name="lluvia-de-ideas (1)" transform="translate(228 3506)">
          <path id="Path_989692" data-name="Path 989692" d="M215.121,136.879v2.455a.882.882,0,0,0,.882.882h1.986a.882.882,0,0,0,.882-.882v-2.455a.882.882,0,0,0-.882-.882H216A.882.882,0,0,0,215.121,136.879Zm0,0" transform="translate(-188.862 -119.395)" fill="#86919e"/>
          <path id="Path_989693" data-name="Path 989693" d="M25.549,99.355l-9.63-15.97a2.3,2.3,0,0,0-3.158-.78L8.577,85.137A2.305,2.305,0,0,0,7.8,88.3l9.895,16.409Zm0,0" transform="translate(-6.554 -72.23)" fill="#84eaf5"/>
          <path id="Path_989694" data-name="Path 989694" d="M186.1,14.639a7.167,7.167,0,1,0-10.034,6.569v1.7a1.571,1.571,0,0,0,1.571,1.571h2.593a1.571,1.571,0,0,0,1.571-1.571v-1.7a7.168,7.168,0,0,0,4.3-6.569Zm0,0" transform="translate(-150.8 -6.559)" fill="#feda5f"/>
          <path id="Path_989695" data-name="Path 989695" d="M339.77,98.907l4.469-7.41-.061-9.224-8.189,4.255-4.411,7.314Zm0,0" transform="translate(-291.103 -72.23)" fill="#fce49d"/>
          <path id="Path_989696" data-name="Path 989696" d="M310.609,120.754h0l-3.437-3.627-8.418,13.983,3.1,4.2,4.927,1.156,8.638-14.367Zm0,0" transform="translate(-262.286 -102.831)" fill="#f4c84e"/>
          <path id="Path_989697" data-name="Path 989697" d="M340.035,162.539l8.638-14.367-4.813-1.344-7.232,11.939Zm0,0" transform="translate(-295.537 -128.905)" fill="#feda5f"/>
          <path id="Path_989698" data-name="Path 989698" d="M413.764,82.273l-2.924,1.52,2.947,1.813Zm0,0" transform="translate(-360.689 -72.23)" fill="#86919e"/>
          <path id="Path_989699" data-name="Path 989699" d="M68.062,220h11.89a7.026,7.026,0,0,0,.486-14.035,7.026,7.026,0,0,0-10.267-7.682,7.028,7.028,0,0,0-12.983,0,7.025,7.025,0,0,0-10.262,7.7A7.027,7.027,0,0,0,47.655,220Zm0,0" transform="translate(-35.67 -170.277)" fill="#f0a8d0"/>
          <path id="Path_989700" data-name="Path 989700" d="M298.207,230.792a7.027,7.027,0,0,0-6.855-8.566,6.988,6.988,0,0,0-2.676.53,7.024,7.024,0,0,1,4.178,8.036,7.026,7.026,0,0,1-.486,14.035h5.353a7.026,7.026,0,0,0,.486-14.035Zm0,0" transform="translate(-253.438 -195.099)" fill="#ea89bf"/>
          <path id="Path_989701" data-name="Path 989701" d="M177.945,293.324l6.646.083-3.671,9.487,6.072.159-12.939,16.064,4.5-11.873-5.609-.07Zm0,0" transform="translate(-151.834 -257.518)" fill="#feda5f"/>
          <path id="Path_989702" data-name="Path 989702" d="M296.758,110.222l1.946,1.217a.913.913,0,0,0,.967-1.548l-1.947-1.216A.913.913,0,0,0,296.758,110.222Zm0,0" transform="translate(-260.165 -95.281)"/>
          <path id="Path_989703" data-name="Path 989703" d="M299.287,3.936a.91.91,0,0,0,.483-.139l1.946-1.217a.913.913,0,0,0-.967-1.548L298.8,2.25a.92.92,0,0,0,.484,1.687Zm0,0" transform="translate(-261.966 -0.779)"/>
          <path id="Path_989704" data-name="Path 989704" d="M310.219,60.662a.912.912,0,0,0,.912.913h2.433a.913.913,0,0,0,0-1.825h-2.433A.912.912,0,0,0,310.219,60.662Zm0,0" transform="translate(-272.351 -52.456)"/>
          <path id="Path_989705" data-name="Path 989705" d="M136.254,108.676l-1.947,1.216a.913.913,0,0,0,.967,1.548l1.947-1.217A.913.913,0,0,0,136.254,108.676Zm0,0" transform="translate(-117.546 -95.283)"/>
          <path id="Path_989706" data-name="Path 989706" d="M132.3,2.58,134.251,3.8a.913.913,0,0,0,.967-1.547l-1.947-1.217A.913.913,0,0,0,132.3,2.58Zm0,0" transform="translate(-115.786 -0.778)"/>
          <path id="Path_989707" data-name="Path 989707" d="M116.99,61.575h2.433a.913.913,0,0,0,0-1.825H116.99A.913.913,0,0,0,116.99,61.575Zm0,0" transform="translate(-101.934 -52.456)"/>
          <path id="Path_989708" data-name="Path 989708" d="M168.588,15.222v1.131a2.479,2.479,0,0,0,.992,1.981v2.487a.913.913,0,0,0,.913.912h3.75a.912.912,0,0,0,.912-.912V18.333a2.477,2.477,0,0,0,.992-1.981V15.222A8.088,8.088,0,0,0,180.4,7.194a.913.913,0,0,0-1.814.2,6.263,6.263,0,0,1-3.716,6.42.913.913,0,0,0-.547.836v1.7a.659.659,0,0,1-.658.659h-2.593a.66.66,0,0,1-.659-.659v-1.7a.911.911,0,0,0-.547-.836,6.255,6.255,0,1,1,6-10.916.913.913,0,0,0,1.023-1.511,8.08,8.08,0,1,0-8.306,13.835Zm2.817,4.686V18.835h1.925v1.072Zm0,0" transform="translate(-144.233 0)"/>
          <path id="Path_989709" data-name="Path 989709" d="M49.445,92.816l0-.006,4.469-7.41a.928.928,0,0,0,.131-.477L53.988,75.7a.921.921,0,0,0-1.333-.8L44.465,79.15c-.529.275-.8,1.067-1.083,1.536L36.561,92a7.947,7.947,0,0,0-1.636.465,7.942,7.942,0,0,0-13.829,0,7.972,7.972,0,0,0-1.5-.442l-9.45-15.673a3.211,3.211,0,0,0-4.412-1.089L1.551,77.787A3.222,3.222,0,0,0,.461,82.2L10.283,98.49a7.947,7.947,0,0,0-.072,2.132,7.94,7.94,0,0,0,1.775,15.68h2.766a.913.913,0,0,0,0-1.825H11.986a6.115,6.115,0,0,1-.635-12.2.921.921,0,0,0,.8-1.109A6.111,6.111,0,0,1,18.108,93.7a6.27,6.27,0,0,1,5.016,2.6A.913.913,0,0,0,24.57,95.19,9.716,9.716,0,0,0,22.7,93.342a6.115,6.115,0,0,1,10.964.681.921.921,0,0,0,1.286.447,6.114,6.114,0,0,1,9.081,5.346,6.018,6.018,0,0,1-.043.71,6.547,6.547,0,0,0-3.634,1.521.913.913,0,0,0,1.291,1.29A5.157,5.157,0,0,1,44.8,102.3c3.118,0,5.6,3.1,5.6,6.061a6.121,6.121,0,0,1-6.114,6.114h-10.6l2.181-2.707a.926.926,0,0,0-.687-1.484L30.4,110.16l3.2-8.28a.921.921,0,0,0-.84-1.242l-6.646-.083a.907.907,0,0,0-.87.6l-4.992,13.828a.927.927,0,0,0,.817,1.316H25.4l-4.033,10.635a.919.919,0,0,0,1.564.9l9.3-11.546a.918.918,0,0,0,.163.015h11.89a7.939,7.939,0,0,0,1.533-15.728c.047-.49-.178-1.447.06-1.841ZM11.039,96.21,2.024,81.259a1.394,1.394,0,0,1,.472-1.91L6.68,76.818a1.384,1.384,0,0,1,1.9.47l.947,1.571L7.817,79.9a.913.913,0,0,0,.945,1.562l1.711-1.035,1.85,3.068L9.581,85.149a.913.913,0,0,0,.945,1.562l2.74-1.657,1.85,3.068L13.4,89.157a.913.913,0,1,0,.945,1.562l1.711-1.035L17.4,91.91a7.951,7.951,0,0,0-6.361,4.3Zm16.535,19.5a.913.913,0,0,0-.842-1.236l-4.327-.054,4.344-12.032,4.683.059-3.2,8.262a.913.913,0,0,0,.827,1.242l4.228.111L25.1,122.223ZM38.738,91.919l2.513-4.167.005-.008,3.791-6.288,2.133,2.251-5.535,9.1a7.887,7.887,0,0,0-2.909-.892ZM48.81,82.773l-2.428-2.562,3.7-1.924,2.1,1.267.028,4.17Zm3.365-5.359-.191-.114.189-.1ZM43.148,93.854l5.6-9.2,2.991.835L45.11,96.469a7.982,7.982,0,0,0-1.962-2.614Zm0,0" transform="translate(0 -65.662)"/>
        </g>
      </g>
    </g>
  </g>
</svg>
