<svg xmlns="http://www.w3.org/2000/svg" xmlns:xlink="http://www.w3.org/1999/xlink" width="110" height="110" viewBox="0 0 110 110">
  <defs>
    <filter id="Path_982547" x="0" y="0" width="110" height="110" filterUnits="userSpaceOnUse">
      <feOffset dy="3" input="SourceAlpha"/>
      <feGaussianBlur stdDeviation="3" result="blur"/>
      <feFlood flood-opacity="0.161"/>
      <feComposite operator="in" in2="blur"/>
      <feComposite in="SourceGraphic"/>
    </filter>
  </defs>
  <g id="Group_1154786" data-name="Group 1154786" transform="translate(-4380 -898)">
    <g id="Group_1154705" data-name="Group 1154705">
      <g id="Group_1154216" data-name="Group 1154216" transform="translate(3346 -5809)">
        <g id="Group_1152583" data-name="Group 1152583" transform="translate(1043 6713)">
          <g id="Group_1146973" data-name="Group 1146973" transform="translate(0 0)">
            <g id="Group_1146954" data-name="Group 1146954">
              <g transform="matrix(1, 0, 0, 1, -9, -6)" filter="url(#Path_982547)">
                <g id="Path_982547-2" data-name="Path 982547" transform="translate(9 6)" fill="#fff6f9">
                  <path d="M 46 90.49987030029297 C 39.99187850952148 90.49987030029297 34.16426849365234 89.32350921630859 28.67905426025391 87.00345611572266 C 23.38019943237305 84.76224517822266 18.62104034423828 81.55341339111328 14.53374671936035 77.46613311767578 C 10.44646644592285 73.37885284423828 7.237639904022217 68.61969757080078 4.996413230895996 63.32085418701172 C 2.676359891891479 57.83565521240234 1.5 52.008056640625 1.5 45.99993515014648 C 1.5 39.99181365966797 2.676359891891479 34.16421508789062 4.996413230895996 28.67901420593262 C 7.237639904022217 23.38017463684082 10.44646644592285 18.62101554870605 14.53374671936035 14.53373527526855 C 18.62104034423828 10.44645500183105 23.38019943237305 7.23762845993042 28.67905426025391 4.996415138244629 C 34.16426849365234 2.676361799240112 39.99187850952148 1.500001788139343 46 1.500001788139343 C 52.00812149047852 1.500001788139343 57.83573150634766 2.676361799240112 63.32094573974609 4.996415138244629 C 68.61979675292969 7.23762845993042 73.37895965576172 10.44645500183105 77.46625518798828 14.53373527526855 C 81.55353546142578 18.62101554870605 84.76235961914062 23.38017463684082 87.00358581542969 28.67901420593262 C 89.32363891601562 34.16421508789062 90.5 39.99181365966797 90.5 45.99993515014648 C 90.5 52.008056640625 89.32363891601562 57.83565521240234 87.00358581542969 63.32085418701172 C 84.76235961914062 68.61969757080078 81.55353546142578 73.37885284423828 77.46625518798828 77.46613311767578 C 73.37895965576172 81.55341339111328 68.61979675292969 84.76224517822266 63.32094573974609 87.00345611572266 C 57.83573150634766 89.32350921630859 52.00812149047852 90.49987030029297 46 90.49987030029297 Z" stroke="none"/>
                  <path d="M 46 2.999992370605469 C 40.1937141418457 2.999992370605469 34.56269836425781 4.136489868164062 29.26337051391602 6.377906799316406 C 24.14332580566406 8.543502807617188 19.54441070556641 11.64437866210938 15.59439849853516 15.59437561035156 C 11.64440155029297 19.54439544677734 8.54351806640625 24.14329528808594 6.377914428710938 29.26333618164062 C 4.136497497558594 34.56264877319336 3 40.19366455078125 3 45.99993515014648 C 3 51.80620574951172 4.136497497558594 57.43720626831055 6.377914428710938 62.73651885986328 C 8.54351806640625 67.8565673828125 11.64440155029297 72.45545959472656 15.59439849853516 76.40547943115234 C 19.54441070556641 80.35547637939453 24.14332580566406 83.45635223388672 29.26337051391602 85.6219482421875 C 34.56269836425781 87.86336517333984 40.1937141418457 88.99986267089844 46 88.99986267089844 C 51.8062858581543 88.99986267089844 57.43730163574219 87.86336517333984 62.73661422729492 85.6219482421875 C 67.85667419433594 83.45635223388672 72.45557403564453 80.35547637939453 76.40558624267578 76.40547943115234 C 80.35559844970703 72.45545959472656 83.45647430419922 67.8565673828125 85.6220703125 62.73651885986328 C 87.86350250244141 57.43720626831055 89 51.80620574951172 89 45.99993515014648 C 89 40.19366455078125 87.86350250244141 34.56264877319336 85.6220703125 29.26333618164062 C 83.45647430419922 24.14329528808594 80.35559844970703 19.54439544677734 76.40558624267578 15.59437561035156 C 72.45557403564453 11.64437866210938 67.85667419433594 8.543502807617188 62.73661422729492 6.377906799316406 C 57.43730163574219 4.136489868164062 51.8062858581543 2.999992370605469 46 2.999992370605469 M 46 -7.62939453125e-06 C 71.40509033203125 -7.62939453125e-06 92 20.59486389160156 92 45.99993515014648 C 92 71.40499114990234 71.40509033203125 91.99986267089844 46 91.99986267089844 C 20.59490203857422 91.99986267089844 0 71.40499114990234 0 45.99993515014648 C 0 20.59486389160156 20.59490203857422 -7.62939453125e-06 46 -7.62939453125e-06 Z" stroke="none" fill="#ffaece"/>
                </g>
              </g>
            </g>
          </g>
        </g>
      </g>
      <g id="cerebro-humano" transform="translate(4397.844 919)">
        <g id="Group_1154703" data-name="Group 1154703" transform="translate(8.055 0.899)">
          <path id="Path_990570" data-name="Path 990570" d="M60.285,87.046A14.951,14.951,0,0,0,72.516,93.4a8.345,8.345,0,0,0,8.345-8.345v-41.9a10.935,10.935,0,0,0-8.505-4.063,8.7,8.7,0,0,0-8.085,5.486L57.338,62.007a26.505,26.505,0,0,0,2.947,25.039Z" transform="translate(-50.57 -35.301)" fill="#fe646f"/>
          <path id="Path_990571" data-name="Path 990571" d="M187.284,49.049v41.9a8.345,8.345,0,0,1-8.346,8.344,14.882,14.882,0,0,1-2.559-.221,8.159,8.159,0,0,0,4.067-2.435,9.441,9.441,0,0,0,2.444-6.41V45.79c.2.083.4.17.6.265A10.922,10.922,0,0,1,187.284,49.049Z" transform="translate(-156.993 -41.2)" fill="#fd4755"/>
          <path id="Path_990572" data-name="Path 990572" d="M287.921,87.046A14.951,14.951,0,0,1,275.69,93.4a8.345,8.345,0,0,1-8.345-8.345v-41.9a10.935,10.935,0,0,1,8.505-4.063,8.7,8.7,0,0,1,8.085,5.486l6.932,17.433A26.5,26.5,0,0,1,287.921,87.046Z" transform="translate(-237.054 -35.301)" fill="#fe646f"/>
          <path id="Path_990573" data-name="Path 990573" d="M333.33,87.048A14.948,14.948,0,0,1,321.1,93.4a8.376,8.376,0,0,1-1.881-.212,14.95,14.95,0,0,0,9.717-6.139,26.505,26.505,0,0,0,2.948-25.039l-6.932-17.433a8.711,8.711,0,0,0-6.013-5.236,10.922,10.922,0,0,1,2.321-.249,8.7,8.7,0,0,1,8.085,5.485l6.932,17.433A26.5,26.5,0,0,1,333.33,87.048Z" transform="translate(-282.463 -35.303)" fill="#fd4755"/>
          <path id="Path_990574" data-name="Path 990574" d="M37.275,19.6V18.02a1.424,1.424,0,0,0-1.049-1.374L34.972,16.3a1.422,1.422,0,0,1-.939-.828l-.005-.013a1.423,1.423,0,0,1,.077-1.252l.644-1.129a1.424,1.424,0,0,0-.23-1.713L33.4,10.254a1.424,1.424,0,0,0-1.713-.23l-1.129.644a1.422,1.422,0,0,1-1.252.077l-.013-.005A1.422,1.422,0,0,1,28.47,9.8l-.342-1.254A1.424,1.424,0,0,0,26.753,7.5H25.176A1.424,1.424,0,0,0,23.8,8.548L23.46,9.8a1.422,1.422,0,0,1-.828.939l-.013.005a1.422,1.422,0,0,1-1.252-.077l-1.129-.644a1.424,1.424,0,0,0-1.713.23L17.41,11.369a1.424,1.424,0,0,0-.23,1.713l.644,1.129a1.422,1.422,0,0,1,.077,1.252l-.005.013a1.422,1.422,0,0,1-.939.828l-1.254.342a1.424,1.424,0,0,0-1.049,1.374V19.6A1.424,1.424,0,0,0,15.7,20.971l1.254.342a1.422,1.422,0,0,1,.939.828l.005.013a1.423,1.423,0,0,1-.077,1.252l-.644,1.129a1.424,1.424,0,0,0,.23,1.713l1.115,1.115a1.424,1.424,0,0,0,1.713.23l1.129-.644a1.422,1.422,0,0,1,1.252-.077l.013.005a1.422,1.422,0,0,1,.828.939L23.8,29.07a1.424,1.424,0,0,0,1.374,1.049h1.577a1.424,1.424,0,0,0,1.374-1.049l.342-1.254a1.422,1.422,0,0,1,.828-.939l.013-.005a1.423,1.423,0,0,1,1.252.077l1.129.644a1.424,1.424,0,0,0,1.713-.23l1.115-1.115a1.424,1.424,0,0,0,.23-1.713L34.1,23.406a1.422,1.422,0,0,1-.077-1.252l.005-.013a1.422,1.422,0,0,1,.939-.828l1.254-.342A1.424,1.424,0,0,0,37.275,19.6Z" transform="translate(-14.655 -7.499)" fill="#cbe2ff"/>
          <circle id="Ellipse_11750" data-name="Ellipse 11750" cx="3.967" cy="3.967" r="3.967" transform="translate(7.343 7.343)" fill="#5a5a5a"/>
          <path id="Path_990575" data-name="Path 990575" d="M100.258,72.718a3.969,3.969,0,0,1-5.7,3.57,3.969,3.969,0,0,0,0-7.14,3.967,3.967,0,0,1,5.7,3.57Z" transform="translate(-84.981 -61.408)" fill="#444"/>
          <path id="Path_990576" data-name="Path 990576" d="M342.133,345.553a.938.938,0,0,1-.277.669l-2.789,2.789a.945.945,0,0,1-1.338,0l-2.938-2.938-1.6-2.937-8.014-8.014,2.789-2.789,8.013,8.014,2.938,1.6,2.938,2.938A.942.942,0,0,1,342.133,345.553Z" transform="translate(-287.955 -293.395)" fill="#aa6a51"/>
          <path id="Path_990577" data-name="Path 990577" d="M351.9,345.55a.939.939,0,0,1-.277.669l-1.459,1.459a.946.946,0,0,0,0-1.338l-2.938-2.938-2.938-1.6-8.012-8.014,1.459-1.459,8.012,8.015,2.938,1.6,2.938,2.938A.943.943,0,0,1,351.9,345.55Z" transform="translate(-297.725 -293.391)" fill="#935b44"/>
          <path id="Path_990578" data-name="Path 990578" d="M448.431,458.379a3.3,3.3,0,0,0,1.026.7l4.329,1.869-1.869-4.329a3.3,3.3,0,0,0-.7-1.026,1.972,1.972,0,0,0-2.789,2.789Z" transform="translate(-395.924 -401.368)" fill="#fff9df"/>
        </g>
        <g id="Group_1154704" data-name="Group 1154704" transform="translate(7.156 0)">
          <path id="Path_990579" data-name="Path 990579" d="M78.142,66.119a4.866,4.866,0,1,0-4.866,4.866A4.872,4.872,0,0,0,78.142,66.119Zm-7.934,0a3.068,3.068,0,1,1,3.068,3.068A3.072,3.072,0,0,1,70.207,66.119Z" transform="translate(-61.066 -53.91)"/>
          <path id="Path_990580" data-name="Path 990580" d="M66.741,60.12l-1.869-4.329a3.546,3.546,0,0,0-1.909-1.964,1.863,1.863,0,0,0-.372-2.074L61.319,50.48A27.4,27.4,0,0,0,62.7,27.272L60.584,21.94a.9.9,0,1,0-1.671.664l2.121,5.332a25.458,25.458,0,0,1,.849,16.45,20.48,20.48,0,0,1-4.644-.162,6.031,6.031,0,0,1-4.589-5.807.9.9,0,1,0-1.8,0,7.718,7.718,0,0,0,1.187,4.119L48.7,39.2a.9.9,0,0,0-1.271,0l-2.789,2.789a.9.9,0,0,0,0,1.272l7.922,7.922L54.1,54.008a.9.9,0,0,0,.154.206l.984.984a14.043,14.043,0,0,1-2.253,1.409,6.1,6.1,0,0,1-3.679-1.366.9.9,0,1,0-1.131,1.4,7.94,7.94,0,0,0,1.761,1.077,14.057,14.057,0,0,1-3.247.381,7.455,7.455,0,0,1-7.446-7.446V45.285a4.96,4.96,0,0,1,3.875-4.819.9.9,0,0,0-.384-1.757,6.7,6.7,0,0,0-3.491,2.012V20.682a2.383,2.383,0,0,1,2.38-2.378h1.114a.9.9,0,1,0,0-1.8H41.625a4.154,4.154,0,0,0-2.38.747V9.074a9.99,9.99,0,0,1,7.606-3.489,7.757,7.757,0,0,1,6.973,4.3H52.336a6.262,6.262,0,0,0-4.9,2.352.9.9,0,0,0,1.4,1.126,4.473,4.473,0,0,1,3.5-1.681h2.235L56.9,17.539H51.637a6.431,6.431,0,0,0-6.423,6.423.9.9,0,1,0,1.8,0,4.631,4.631,0,0,1,4.625-4.625h6.587a.91.91,0,0,0,.828-1.25l-3.041-7.647a11.018,11.018,0,0,0-3.1-4.511,9.64,9.64,0,0,0-6.062-2.143,11.774,11.774,0,0,0-8.506,3.607,11.868,11.868,0,0,0-6.1-3.36.9.9,0,1,0-.365,1.761,10.062,10.062,0,0,1,5.567,3.283v8.175a4.154,4.154,0,0,0-2.38-.747H33.952a.9.9,0,1,0,0,1.8h1.114a2.383,2.383,0,0,1,2.38,2.38V40.712a6.713,6.713,0,0,0-4.933-2.158H32.12a.9.9,0,1,0,0,1.8h.393a4.939,4.939,0,0,1,4.933,4.933v5.364A7.455,7.455,0,0,1,30,58.1a14.021,14.021,0,0,1-3.246-.382,7.983,7.983,0,0,0,4.724-7.278v-.278a.9.9,0,0,0-1.8,0v.278a6.182,6.182,0,0,1-5.97,6.17,14.049,14.049,0,0,1-5.2-4.479A25.708,25.708,0,0,1,15.4,46.185h2.678a7.775,7.775,0,0,0,7.766-7.766.9.9,0,0,0-1.8,0,5.975,5.975,0,0,1-5.968,5.968H14.811a25.533,25.533,0,0,1,.847-16.45l1.572-3.953a2.317,2.317,0,0,0,1.346.434h1.577a2.328,2.328,0,0,0,2.241-1.711l.342-1.254a.542.542,0,0,1,.78-.323l1.129.644A2.329,2.329,0,0,0,27.44,21.4l.794-.794a4.62,4.62,0,0,1,1.446,3.357.9.9,0,0,0,1.8,0A6.416,6.416,0,0,0,29.2,19.055a2.321,2.321,0,0,0-.266-1.565l-.644-1.129a.542.542,0,0,1,.323-.78l1.254-.342A2.329,2.329,0,0,0,31.573,13V11.42a2.328,2.328,0,0,0-1.711-2.241l-1.254-.342a.542.542,0,0,1-.323-.78l.644-1.129a2.328,2.328,0,0,0-.375-2.795L27.44,3.018a2.329,2.329,0,0,0-2.795-.375l-1.129.644a.543.543,0,0,1-.78-.323l-.342-1.254A2.328,2.328,0,0,0,20.153,0H18.576a2.328,2.328,0,0,0-2.241,1.711l-.342,1.254a.542.542,0,0,1-.78.323l-1.129-.644a2.328,2.328,0,0,0-2.795.375L10.174,4.133A2.328,2.328,0,0,0,9.8,6.928l.644,1.129a.543.543,0,0,1-.323.78l-1.254.342A2.329,2.329,0,0,0,7.156,11.42V13a2.329,2.329,0,0,0,1.711,2.241l1.254.342a.542.542,0,0,1,.323.78L9.8,17.489a2.328,2.328,0,0,0,.375,2.795L11.289,21.4a2.329,2.329,0,0,0,2.795.375l1.129-.645c.588-.335.8.379.905.783l-2.131,5.359a27.32,27.32,0,0,0,3.047,25.889A15.985,15.985,0,0,0,30,59.894a9.256,9.256,0,0,0,8.345-5.271,9.256,9.256,0,0,0,8.345,5.271,15.84,15.84,0,0,0,9.828-3.416l.673.673a1.86,1.86,0,0,0,2.074.372,3.545,3.545,0,0,0,1.964,1.909L65.559,61.3a.907.907,0,0,0,1.182-1.182ZM15.474,19.265a2.329,2.329,0,0,0-1.152.3l-1.129.645a.527.527,0,0,1-.632-.085l-1.115-1.115a.526.526,0,0,1-.085-.632l.644-1.129a2.357,2.357,0,0,0-1.411-3.406L9.341,13.5A.527.527,0,0,1,8.954,13V11.42a.526.526,0,0,1,.387-.507l1.254-.342a2.358,2.358,0,0,0,1.411-3.406l-.644-1.129a.526.526,0,0,1,.085-.632L12.561,4.29a.526.526,0,0,1,.632-.085l1.129.644a2.359,2.359,0,0,0,3.406-1.411l.342-1.254a.527.527,0,0,1,.507-.387h1.577a.526.526,0,0,1,.507.387L21,3.439a2.357,2.357,0,0,0,3.406,1.411l1.129-.644a.527.527,0,0,1,.632.085L27.284,5.4a.526.526,0,0,1,.085.632l-.644,1.129a2.358,2.358,0,0,0,1.411,3.406l1.254.342a.526.526,0,0,1,.387.507V13a.526.526,0,0,1-.387.507l-1.254.342a2.357,2.357,0,0,0-1.411,3.406l.644,1.129a.526.526,0,0,1-.085.632l-1.115,1.115a.526.526,0,0,1-.632.085l-1.129-.644A2.359,2.359,0,0,0,21,20.979l-.342,1.254a.526.526,0,0,1-.507.387H18.576a.526.526,0,0,1-.507-.387l-.342-1.254a2.352,2.352,0,0,0-2.253-1.715ZM58.617,46.185H61.3a25.821,25.821,0,0,1-1.309,2.964,2.619,2.619,0,0,0-.541-.489l-2.824-1.536L54.5,45a7.719,7.719,0,0,0,4.12,1.187Zm-.086,9.695a.044.044,0,0,1-.033.014.045.045,0,0,1-.033-.014l-2.846-2.846-1.536-2.823a.9.9,0,0,0-.154-.206L46.55,42.627l1.518-1.518,7.377,7.378a.9.9,0,0,0,.206.154l2.824,1.536,2.846,2.846a.043.043,0,0,1,.014.033.04.04,0,0,1-.014.033Zm3.412,1.9a2.391,2.391,0,0,1-.746-.507c-.126,0-.275-.454-.294-.548a1.076,1.076,0,0,1,1.811-.97,2.391,2.391,0,0,1,.507.746l.971,2.249Z" transform="translate(-7.156 0)"/>
          <path id="Path_990581" data-name="Path 990581" d="M318.208,206.061a.9.9,0,0,0,.9-.9v-2.149a5.983,5.983,0,0,0-4.266-5.723,7.235,7.235,0,0,0,1.2-3.992.9.9,0,0,0-1.8,0,5.486,5.486,0,0,1-5.48,5.48h-3.721a.9.9,0,0,0,0,1.8c2.95,0,5.992.33,8.417-1.724a4.18,4.18,0,0,1,3.852,4.161v2.149A.9.9,0,0,0,318.208,206.061Z" transform="translate(-268.54 -169.336)"/>
          <path id="Path_990582" data-name="Path 990582" d="M325.538,410.917a.9.9,0,0,0-.9.9v.278a7.958,7.958,0,0,0,.42,2.559.9.9,0,1,0,1.7-.577,6.165,6.165,0,0,1-.325-1.982v-.278A.9.9,0,0,0,325.538,410.917Z" transform="translate(-286.581 -361.659)"/>
          <path id="Path_990583" data-name="Path 990583" d="M105.7,212.691v2.149a.9.9,0,0,0,1.8,0v-2.149a4.18,4.18,0,0,1,3.858-4.162,7.275,7.275,0,0,0,4.69,1.725h3.721a.9.9,0,1,0,0-1.8h-3.721a5.5,5.5,0,0,1-5.363-4.347.9.9,0,1,0-1.76.37,7.191,7.191,0,0,0,1.042,2.489A5.983,5.983,0,0,0,105.7,212.691Z" transform="translate(-93.885 -179.013)"/>
        </g>
      </g>
    </g>
  </g>
</svg>
