<svg xmlns="http://www.w3.org/2000/svg" xmlns:xlink="http://www.w3.org/1999/xlink" width="108" height="108" viewBox="0 0 108 108">
  <defs>
    <filter id="Path_982547" x="0" y="0" width="108" height="108" filterUnits="userSpaceOnUse">
      <feOffset dy="3" input="SourceAlpha"/>
      <feGaussianBlur stdDeviation="3" result="blur"/>
      <feFlood flood-opacity="0.161"/>
      <feComposite operator="in" in2="blur"/>
      <feComposite in="SourceGraphic"/>
    </filter>
  </defs>
  <g id="Group_1154779" data-name="Group 1154779" transform="translate(-201 -6266)">
    <g id="Group_1154680" data-name="Group 1154680" transform="translate(0 190)">
      <g id="Group_1154185" data-name="Group 1154185" transform="translate(210 6082)">
        <g id="Group_1146954" data-name="Group 1146954">
          <g transform="matrix(1, 0, 0, 1, -9, -6)" filter="url(#Path_982547)">
            <g id="Path_982547-2" data-name="Path 982547" transform="translate(9 6)" fill="#fff6f9">
              <path d="M 45 88.5 C 39.12687683105469 88.5 33.43022537231445 87.35007476806641 28.06830024719238 85.08217620849609 C 22.88852500915527 82.89131164550781 18.23629951477051 79.75458526611328 14.2408504486084 75.75914764404297 C 10.24541282653809 71.76370239257812 7.108687400817871 67.11147308349609 4.917825222015381 61.93170166015625 C 2.649924993515015 56.56977462768555 1.5 50.87312316894531 1.5 45 C 1.5 39.12687683105469 2.649924993515015 33.43022537231445 4.917825222015381 28.06830024719238 C 7.108687400817871 22.88852500915527 10.24541282653809 18.23629951477051 14.2408504486084 14.2408504486084 C 18.23629951477051 10.24541282653809 22.88852500915527 7.108687400817871 28.06830024719238 4.917825222015381 C 33.43022537231445 2.649924993515015 39.12687683105469 1.5 45 1.5 C 50.87312316894531 1.5 56.56977462768555 2.649924993515015 61.93170166015625 4.917825222015381 C 67.11147308349609 7.108687400817871 71.76370239257812 10.24541282653809 75.75914764404297 14.2408504486084 C 79.75458526611328 18.23629951477051 82.89131164550781 22.88852500915527 85.08217620849609 28.06830024719238 C 87.35007476806641 33.43022537231445 88.5 39.12687683105469 88.5 45 C 88.5 50.87312316894531 87.35007476806641 56.56977462768555 85.08217620849609 61.93170166015625 C 82.89131164550781 67.11147308349609 79.75458526611328 71.76370239257812 75.75914764404297 75.75914764404297 C 71.76370239257812 79.75458526611328 67.11147308349609 82.89131164550781 61.93170166015625 85.08217620849609 C 56.56977462768555 87.35007476806641 50.87312316894531 88.5 45 88.5 Z" stroke="none"/>
              <path d="M 45 3 C 39.32871246337891 3 33.82865524291992 4.110054016113281 28.65262985229492 6.299339294433594 C 23.65165710449219 8.414573669433594 19.15968322753906 11.44334411621094 15.301513671875 15.301513671875 C 11.44334411621094 19.15968322753906 8.414573669433594 23.65165710449219 6.299339294433594 28.65262985229492 C 4.110054016113281 33.82865524291992 3 39.32871246337891 3 45 C 3 50.67128753662109 4.110054016113281 56.17134475708008 6.299339294433594 61.34737396240234 C 8.414573669433594 66.34834289550781 11.44334411621094 70.84031677246094 15.301513671875 74.698486328125 C 19.15968322753906 78.55665588378906 23.65165710449219 81.58542633056641 28.65262985229492 83.70066070556641 C 33.82865524291992 85.88994598388672 39.32871246337891 87 45 87 C 50.67128753662109 87 56.17134475708008 85.88994598388672 61.34737396240234 83.70066070556641 C 66.34834289550781 81.58542633056641 70.84031677246094 78.55665588378906 74.698486328125 74.698486328125 C 78.55665588378906 70.84031677246094 81.58542633056641 66.34834289550781 83.70066070556641 61.34737396240234 C 85.88994598388672 56.17134475708008 87 50.67128753662109 87 45 C 87 39.32871246337891 85.88994598388672 33.82865524291992 83.70066070556641 28.65262985229492 C 81.58542633056641 23.65165710449219 78.55665588378906 19.15968322753906 74.698486328125 15.301513671875 C 70.84031677246094 11.44334411621094 66.34834289550781 8.414573669433594 61.34737396240234 6.299339294433594 C 56.17134475708008 4.110054016113281 50.67128753662109 3 45 3 M 45 0 C 69.85281372070312 0 90 20.14718627929688 90 45 C 90 69.85281372070312 69.85281372070312 90 45 90 C 20.14718627929688 90 0 69.85281372070312 0 45 C 0 20.14718627929688 20.14718627929688 0 45 0 Z" stroke="none" fill="#cbc9f9"/>
            </g>
          </g>
        </g>
      </g>
      <g id="cerebro_1_" data-name="cerebro (1)" transform="translate(225 6097)">
        <path id="Path_990455" data-name="Path 990455" d="M65.126,90.751a6.381,6.381,0,0,1,.507,2.484A6.459,6.459,0,0,1,53.3,95.908c-2.683,1.282-3.567,4.064-3.567,7.155v4.581H44.766V99.694A5.962,5.962,0,0,0,38.8,93.732H26.88a5.962,5.962,0,0,1-5.962-5.8,5.606,5.606,0,0,1,.874-3.14H15.949a7.949,7.949,0,1,1,0-15.9,8.428,8.428,0,0,1,1.133.08v-.08a7.355,7.355,0,0,1-.139-1.491A7.453,7.453,0,0,1,24.4,59.947a7.116,7.116,0,0,1,3.18.725,7.949,7.949,0,0,1,14.815.785,8.446,8.446,0,1,1,12.739,11,.188.188,0,0,1,0,.07,6.877,6.877,0,0,1,4.541-1.65,6.955,6.955,0,0,1,6.956,6.956,6.848,6.848,0,0,1-1.808,4.67,5.961,5.961,0,0,1,1.808,4.273,5.893,5.893,0,0,1-1.5,3.975Zm0,0" transform="translate(-7.006 -49.017)" fill="#ff9ab3"/>
        <path id="Path_990456" data-name="Path 990456" d="M59.114,75.631a7.949,7.949,0,0,0-6.449-12.59,7.743,7.743,0,0,0-1.729.2,9.555,9.555,0,0,0,.736-3.677,9.42,9.42,0,0,0-16-6.767,8.943,8.943,0,0,0-15.551-.229,8.085,8.085,0,0,0-2.733-.457,8.456,8.456,0,0,0-8.446,8.446v.5a8.943,8.943,0,0,0,0,17.886h4.3a6.459,6.459,0,0,0-.328,2.176,6.956,6.956,0,0,0,6.956,6.767H31.8a4.969,4.969,0,0,1,4.968,4.968V100.8a.994.994,0,0,0,.994.994h4.968a.994.994,0,0,0,.994-.994V96.22c0-2.733.745-4.67,2.206-5.764A7.452,7.452,0,0,0,59.62,86.393a7.3,7.3,0,0,0-.377-2.325,6.956,6.956,0,0,0,1.371-4.134,7.027,7.027,0,0,0-1.5-4.3ZM52.168,91.858a5.435,5.435,0,0,1-4.968-3.21,5.334,5.334,0,0,1-.5-2.256H44.715a7.36,7.36,0,0,0,.348,2.236c-1.659,1.093-3.329,3.229-3.329,7.592v3.587H38.753V92.852A6.955,6.955,0,0,0,31.8,85.9H19.873a4.968,4.968,0,0,1-4.968-4.839,4.681,4.681,0,0,1,.725-2.593,5.325,5.325,0,0,1,2.107-1.928,6.075,6.075,0,0,0,.586-.239,5.111,5.111,0,0,1,1.8-.338h8.695A5.962,5.962,0,0,0,34.779,70H32.791a3.975,3.975,0,0,1-3.975,3.975H20.122a7.368,7.368,0,0,0-3.17.736,4.853,4.853,0,0,1-1.57.258,4.97,4.97,0,0,1-3.7-1.659l-1.491,1.331a6.958,6.958,0,0,0,4.154,2.226l-.06.089H8.943A6.956,6.956,0,1,1,12.8,64.224a7.354,7.354,0,0,0,.8,6.31l1.669-1.073a5.486,5.486,0,0,1,0-5.882l-1.113-.716.059-.079A8.611,8.611,0,0,0,10.98,61.3a6.168,6.168,0,0,1-.049-.745A6.469,6.469,0,0,1,17.389,54.1a6.115,6.115,0,0,1,2.782.646h.07a6.272,6.272,0,0,1,2.742,2.564l1.729-.994a8.371,8.371,0,0,0-2.852-2.872,6.956,6.956,0,0,1,12.371,1.073A9.08,9.08,0,0,0,32.9,57.894l1.987.358A7.453,7.453,0,1,1,47.428,64.9l.149.149-.686.686a5.248,5.248,0,0,1,.447.487l.06.089A5.784,5.784,0,0,1,48.69,70a5.962,5.962,0,0,1-5.962,5.962v1.987a7.949,7.949,0,0,0,6.816-12.024,5.884,5.884,0,0,1,3.12-.894,5.962,5.962,0,0,1,5.962,5.962,5.842,5.842,0,0,1-.994,3.249,6.877,6.877,0,0,0-3.975-1.262v1.987a4.889,4.889,0,0,1,3.458,1.411A4.968,4.968,0,0,1,53.658,84.9V86.89a6.955,6.955,0,0,0,3.905-1.212,5.809,5.809,0,0,1,.069.716,5.475,5.475,0,0,1-5.465,5.465Zm0,0" transform="translate(0 -42.174)" fill="#eb7f9a"/>
        <path id="Path_990457" data-name="Path 990457" d="M171.924,304H160v1.987h11.924a9.936,9.936,0,0,1,8.754,5.237l1.749-.934a11.923,11.923,0,0,0-10.5-6.29Zm0,0" transform="translate(-140.127 -266.241)" fill="#eb7f9a"/>
        <path id="Path_990458" data-name="Path 990458" d="M396.968,288A4.969,4.969,0,0,0,392,292.968h1.987a2.981,2.981,0,0,1,2.981-2.981Zm0,0" transform="translate(-343.31 -252.228)" fill="#eb7f9a"/>
        <path id="Path_990459" data-name="Path 990459" d="M173.848,58.82a10.93,10.93,0,0,1-6.409,9.937H158.4a10.93,10.93,0,1,1,15.451-9.937Zm0,0" transform="translate(-133.108 -41.928)" fill="#fce013"/>
        <path id="Path_990460" data-name="Path 990460" d="M193.937,125.911h-1.987v-7.949h-1.987v7.949h-1.987v-7.949h-.994a2.981,2.981,0,1,1,2.981-2.981v.994h1.987v-.994a2.981,2.981,0,1,1,2.981,2.981h-.994Zm0-9.937h.994a.994.994,0,1,0-.994-.994Zm-6.956-1.987a.994.994,0,0,0,0,1.987h.994v-.994A.994.994,0,0,0,186.981,113.987Zm0,0" transform="translate(-161.146 -98.089)" fill="#f95925"/>
        <path id="Path_990461" data-name="Path 990461" d="M212.643,216a5.348,5.348,0,0,1-.546.239v4.73h-7.949v-4.73A5.352,5.352,0,0,1,203.6,216Zm0,0" transform="translate(-178.312 -189.171)" fill="#3dcde7"/>
        <g id="Group_1154679" data-name="Group 1154679" transform="translate(10.93)">
          <path id="Path_990462" data-name="Path 990462" d="M216,256h5.962v.994a2.981,2.981,0,0,1-5.962,0Zm0,0" transform="translate(-200.101 -224.203)" fill="#f95925"/>
          <path id="Path_990463" data-name="Path 990463" d="M332.98,186.811l.994-1.721,2.582,1.49-.993,1.721Zm0,0" transform="translate(-302.551 -162.1)" fill="#f95925"/>
          <path id="Path_990464" data-name="Path 990464" d="M118.273,186.572l2.582-1.49.993,1.721-2.582,1.49Zm0,0" transform="translate(-114.513 -162.093)" fill="#f95925"/>
          <path id="Path_990465" data-name="Path 990465" d="M332.984,62.568l2.582-1.49.993,1.721-2.582,1.49Zm0,0" transform="translate(-302.555 -53.492)" fill="#f95925"/>
          <path id="Path_990466" data-name="Path 990466" d="M232,0h1.987V2.981H232Zm0,0" transform="translate(-214.114)" fill="#f95925"/>
          <path id="Path_990467" data-name="Path 990467" d="M118.254,62.721,119.248,61l2.582,1.49-.993,1.721Zm0,0" transform="translate(-114.496 -53.423)" fill="#f95925"/>
          <path id="Path_990468" data-name="Path 990468" d="M289.063,4.69l2.483-4.3,1.721.993-2.484,4.3Zm0,0" transform="translate(-264.089 -0.339)" fill="#f95925"/>
          <path id="Path_990469" data-name="Path 990469" d="M157.109,233.3l2.483-4.3,1.721.994-2.484,4.3Zm0,0" transform="translate(-148.525 -200.553)" fill="#f95925"/>
          <path id="Path_990470" data-name="Path 990470" d="M157.1,1.384l1.721-.994,2.484,4.3-1.721.994Zm0,0" transform="translate(-148.515 -0.342)" fill="#f95925"/>
          <path id="Path_990471" data-name="Path 990471" d="M289.094,230.033l1.721-.994,2.484,4.3-1.721.994Zm0,0" transform="translate(-264.116 -200.59)" fill="#f95925"/>
          <path id="Path_990472" data-name="Path 990472" d="M88,128h4.968v1.987H88Zm0,0" transform="translate(-88 -112.101)" fill="#f95925"/>
          <path id="Path_990473" data-name="Path 990473" d="M352,128h4.968v1.987H352Zm0,0" transform="translate(-319.209 -112.101)" fill="#f95925"/>
        </g>
        <path id="Path_990474" data-name="Path 990474" d="M52.664,87.006a7.743,7.743,0,0,0-1.729.2,9.555,9.555,0,0,0,.736-3.677,9.4,9.4,0,0,0-4.442-8.009l-1.053,1.689a7.443,7.443,0,0,1,1.917,10.93,8.25,8.25,0,0,0-1.272-.994l-.994,1.709a5.962,5.962,0,0,1-3.1,11.07v1.987a7.949,7.949,0,0,0,6.827-12.024,5.765,5.765,0,0,1,3.11-.894,5.962,5.962,0,0,1,5.962,5.962,5.842,5.842,0,0,1-.994,3.249,6.877,6.877,0,0,0-3.975-1.262V98.93a4.889,4.889,0,0,1,3.458,1.411,4.968,4.968,0,0,1-3.458,8.526v1.987a6.955,6.955,0,0,0,3.905-1.212,5.809,5.809,0,0,1,.069.716,5.465,5.465,0,1,1-10.93,0H44.715a7.24,7.24,0,0,0,.348,2.236c-1.67,1.1-3.329,3.279-3.329,7.592v3.587H38.753v-6.956a6.955,6.955,0,0,0-6.956-6.956H19.873a4.968,4.968,0,0,1-4.968-4.829,5.067,5.067,0,0,1,3.339-4.76l-.069-.179.209-.109-.745-1.292-.109-.268-.1-.179a4.968,4.968,0,0,1-6.191-.994L9.758,98.583a7.016,7.016,0,0,0,4.571,2.286H8.943a6.956,6.956,0,1,1,0-13.911A6.864,6.864,0,0,1,13.037,88.3l1.172-1.609a8.789,8.789,0,0,0-3.229-1.461,6.35,6.35,0,0,1-.049-.705v-.5H15.9V82.038H11.437a6.353,6.353,0,0,1,2.077-2.683l-1.193-1.589a8.376,8.376,0,0,0-3.378,6.757v.5a8.943,8.943,0,1,0,0,17.886h4.292a6.647,6.647,0,0,0-.318,2.176,6.956,6.956,0,0,0,6.956,6.767H31.8a4.969,4.969,0,0,1,4.968,4.968v7.949a.994.994,0,0,0,.994.994h4.968a.994.994,0,0,0,.994-.994v-4.581c0-2.743.745-4.67,2.206-5.764a7.452,7.452,0,0,0,13.693-4.064,7.3,7.3,0,0,0-.377-2.325,6.956,6.956,0,0,0,1.371-4.134,7.027,7.027,0,0,0-1.5-4.3,7.949,7.949,0,0,0-6.449-12.59Zm0,0" transform="translate(0 -66.139)"/>
        <path id="Path_990475" data-name="Path 990475" d="M180.678,311.233l1.749-.994a11.924,11.924,0,0,0-10.5-6.24H160v1.987h11.924A9.938,9.938,0,0,1,180.678,311.233Zm0,0" transform="translate(-140.126 -266.24)"/>
        <path id="Path_990476" data-name="Path 990476" d="M396.968,289.987V288A4.969,4.969,0,0,0,392,292.968h1.987A2.981,2.981,0,0,1,396.968,289.987Zm0,0" transform="translate(-343.31 -252.228)"/>
        <path id="Path_990477" data-name="Path 990477" d="M150.947,62.693v4.074a.994.994,0,0,0,.994.994,3.975,3.975,0,0,0,7.949,0,.994.994,0,0,0,.994-.994V62.693a11.924,11.924,0,1,0-9.937,0Zm3.975.1H158.9v2.981h-5.962V62.793Zm-1.987-9.937h-.994a.994.994,0,1,1,.994-.994Zm3.975,7.949h-1.987V54.843h1.987Zm-.994,8.943a1.987,1.987,0,0,1-1.987-1.987H157.9A1.987,1.987,0,0,1,155.916,69.749Zm0-27.823a9.937,9.937,0,0,1,3.975,19.029v-.149H158.9V54.843h.994a2.981,2.981,0,1,0-2.981-2.981v.994h-1.987v-.994a2.981,2.981,0,1,0-2.981,2.981h.994v5.962h-.994v.149a9.937,9.937,0,0,1,3.975-19.029Zm2.981,10.93v-.994a.994.994,0,1,1,.994.994Zm0,0" transform="translate(-126.106 -34.97)"/>
        <path id="Path_990478" data-name="Path 990478" d="M118.215,186.534l2.582-1.491.994,1.721-2.582,1.491Zm0,0" transform="translate(-103.532 -162.059)"/>
        <path id="Path_990479" data-name="Path 990479" d="M332.984,62.568l2.582-1.49.993,1.721-2.582,1.49Zm0,0" transform="translate(-291.625 -53.492)"/>
        <path id="Path_990480" data-name="Path 990480" d="M232,0h1.987V2.981H232Zm0,0" transform="translate(-203.184)"/>
        <path id="Path_990481" data-name="Path 990481" d="M333.016,186.8l.994-1.721,2.582,1.491-.994,1.721Zm0,0" transform="translate(-291.653 -162.087)"/>
        <path id="Path_990482" data-name="Path 990482" d="M118.254,62.721,119.248,61l2.582,1.49-.993,1.721Zm0,0" transform="translate(-103.566 -53.423)"/>
        <path id="Path_990483" data-name="Path 990483" d="M289.105,4.643l2.484-4.3,1.721.994-2.484,4.3Zm0,0" transform="translate(-253.196 -0.298)"/>
        <path id="Path_990484" data-name="Path 990484" d="M157.109,233.3l2.483-4.3,1.721.994-2.484,4.3Zm0,0" transform="translate(-137.595 -200.553)"/>
        <path id="Path_990485" data-name="Path 990485" d="M157.1,1.384l1.721-.994,2.484,4.3-1.721.994Zm0,0" transform="translate(-137.585 -0.342)"/>
        <path id="Path_990486" data-name="Path 990486" d="M289.094,230.033l1.721-.994,2.484,4.3-1.721.994Zm0,0" transform="translate(-253.186 -200.59)"/>
        <path id="Path_990487" data-name="Path 990487" d="M352,128h4.968v1.987H352Zm0,0" transform="translate(-308.279 -112.101)"/>
      </g>
    </g>
  </g>
</svg>
