<svg xmlns="http://www.w3.org/2000/svg" xmlns:xlink="http://www.w3.org/1999/xlink" width="110" height="110" viewBox="0 0 110 110">
  <defs>
    <filter id="Path_982547" x="0" y="0" width="110" height="110" filterUnits="userSpaceOnUse">
      <feOffset dy="3" input="SourceAlpha"/>
      <feGaussianBlur stdDeviation="3" result="blur"/>
      <feFlood flood-opacity="0.161"/>
      <feComposite operator="in" in2="blur"/>
      <feComposite in="SourceGraphic"/>
    </filter>
  </defs>
  <g id="Group_1154789" data-name="Group 1154789" transform="translate(-4035 -1825)">
    <g id="Group_1154739" data-name="Group 1154739">
      <g id="Group_1154219" data-name="Group 1154219" transform="translate(3001 -4882)">
        <g id="Group_1152583" data-name="Group 1152583" transform="translate(1043 6713)">
          <g id="Group_1146973" data-name="Group 1146973" transform="translate(0 0)">
            <g id="Group_1146954" data-name="Group 1146954">
              <g transform="matrix(1, 0, 0, 1, -9, -6)" filter="url(#Path_982547)">
                <g id="Path_982547-2" data-name="Path 982547" transform="translate(9 6)" fill="#fff6f9">
                  <path d="M 46 90.49987030029297 C 39.99187850952148 90.49987030029297 34.16426849365234 89.32350921630859 28.67905426025391 87.00345611572266 C 23.38019943237305 84.76224517822266 18.62104034423828 81.55341339111328 14.53374671936035 77.46613311767578 C 10.44646644592285 73.37885284423828 7.237639904022217 68.61969757080078 4.996413230895996 63.32085418701172 C 2.676359891891479 57.83565521240234 1.5 52.008056640625 1.5 45.99993515014648 C 1.5 39.99181365966797 2.676359891891479 34.16421508789062 4.996413230895996 28.67901420593262 C 7.237639904022217 23.38017463684082 10.44646644592285 18.62101554870605 14.53374671936035 14.53373527526855 C 18.62104034423828 10.44645500183105 23.38019943237305 7.23762845993042 28.67905426025391 4.996415138244629 C 34.16426849365234 2.676361799240112 39.99187850952148 1.500001788139343 46 1.500001788139343 C 52.00812149047852 1.500001788139343 57.83573150634766 2.676361799240112 63.32094573974609 4.996415138244629 C 68.61979675292969 7.23762845993042 73.37895965576172 10.44645500183105 77.46625518798828 14.53373527526855 C 81.55353546142578 18.62101554870605 84.76235961914062 23.38017463684082 87.00358581542969 28.67901420593262 C 89.32363891601562 34.16421508789062 90.5 39.99181365966797 90.5 45.99993515014648 C 90.5 52.008056640625 89.32363891601562 57.83565521240234 87.00358581542969 63.32085418701172 C 84.76235961914062 68.61969757080078 81.55353546142578 73.37885284423828 77.46625518798828 77.46613311767578 C 73.37895965576172 81.55341339111328 68.61979675292969 84.76224517822266 63.32094573974609 87.00345611572266 C 57.83573150634766 89.32350921630859 52.00812149047852 90.49987030029297 46 90.49987030029297 Z" stroke="none"/>
                  <path d="M 46 2.999992370605469 C 40.1937141418457 2.999992370605469 34.56269836425781 4.136489868164062 29.26337051391602 6.377906799316406 C 24.14332580566406 8.543502807617188 19.54441070556641 11.64437866210938 15.59439849853516 15.59437561035156 C 11.64440155029297 19.54439544677734 8.54351806640625 24.14329528808594 6.377914428710938 29.26333618164062 C 4.136497497558594 34.56264877319336 3 40.19366455078125 3 45.99993515014648 C 3 51.80620574951172 4.136497497558594 57.43720626831055 6.377914428710938 62.73651885986328 C 8.54351806640625 67.8565673828125 11.64440155029297 72.45545959472656 15.59439849853516 76.40547943115234 C 19.54441070556641 80.35547637939453 24.14332580566406 83.45635223388672 29.26337051391602 85.6219482421875 C 34.56269836425781 87.86336517333984 40.1937141418457 88.99986267089844 46 88.99986267089844 C 51.8062858581543 88.99986267089844 57.43730163574219 87.86336517333984 62.73661422729492 85.6219482421875 C 67.85667419433594 83.45635223388672 72.45557403564453 80.35547637939453 76.40558624267578 76.40547943115234 C 80.35559844970703 72.45545959472656 83.45647430419922 67.8565673828125 85.6220703125 62.73651885986328 C 87.86350250244141 57.43720626831055 89 51.80620574951172 89 45.99993515014648 C 89 40.19366455078125 87.86350250244141 34.56264877319336 85.6220703125 29.26333618164062 C 83.45647430419922 24.14329528808594 80.35559844970703 19.54439544677734 76.40558624267578 15.59437561035156 C 72.45557403564453 11.64437866210938 67.85667419433594 8.543502807617188 62.73661422729492 6.377906799316406 C 57.43730163574219 4.136489868164062 51.8062858581543 2.999992370605469 46 2.999992370605469 M 46 -7.62939453125e-06 C 71.40509033203125 -7.62939453125e-06 92 20.59486389160156 92 45.99993515014648 C 92 71.40499114990234 71.40509033203125 91.99986267089844 46 91.99986267089844 C 20.59490203857422 91.99986267089844 0 71.40499114990234 0 45.99993515014648 C 0 20.59486389160156 20.59490203857422 -7.62939453125e-06 46 -7.62939453125e-06 Z" stroke="none" fill="#ffaece"/>
                </g>
              </g>
            </g>
          </g>
        </g>
      </g>
      <g id="emocional" transform="translate(4036.905 1846.001)">
        <g id="Group_1154737" data-name="Group 1154737" transform="translate(26.139 0.918)">
          <g id="Group_1154732" data-name="Group 1154732">
            <g id="Group_1154730" data-name="Group 1154730">
              <path id="Path_990633" data-name="Path 990633" d="M80.731,66.885a40.811,40.811,0,0,1-2.446-11.71,9.243,9.243,0,0,1,2.169-6.659c9.06-10.594,9.076-23.845,1.144-32.265-3.689-3.916-6.792-6.593-11.314-7.716-.33-.082-.832-.335-1.164-.4a35.125,35.125,0,0,0-14.892.319,21.521,21.521,0,0,0-13.452,8.937c-1.4,2.086-2.222,4.039-2.5,8.338-.138,2.157-1.023,2.634-1.364,4.342a3.63,3.63,0,0,0,.53,2.567,2.8,2.8,0,0,1,.3,2.145c-.089.346-.2.722-.337,1.118a16.767,16.767,0,0,1-3.278,5.811,2.152,2.152,0,0,0,.406,3.2,3.688,3.688,0,0,0,1.539.6l2.062.3a.122.122,0,0,1,.1.086c.1.351.472,1.843-.458,2.654a1.139,1.139,0,0,0-.124,1.737,3.231,3.231,0,0,0,.764.7.123.123,0,0,1,0,.2,1.38,1.38,0,0,0,.23,2.469,6.853,6.853,0,0,1,.848.425,1.578,1.578,0,0,1,.02,1.905,3.309,3.309,0,0,0-.62,2.853c.722,2.649,3.69,3.313,6.45,2.853,2.233-.372,3.969-1.613,5.582-.372,1.144.88,2.488,2.377,2.71,6.727a.492.492,0,0,0,.49.468H78.626l1.644-.978A.49.49,0,0,0,80.731,66.885Z" transform="translate(-33.595 -7.477)" fill="#f4aa73"/>
            </g>
            <g id="Group_1154731" data-name="Group 1154731" transform="translate(35.525 0.654)">
              <path id="Path_990634" data-name="Path 990634" d="M335.9,72.533a.49.49,0,0,1-.462.658h-3.106c-1.431-3.993-3.175-10.179-3.475-14.475a9.4,9.4,0,0,1,2.238-6.739c8.991-10.581,9.034-24.459,1.123-32.858A25.2,25.2,0,0,0,322.83,12.8,25.522,25.522,0,0,1,336.4,20.347c7.911,8.4,7.868,22.277-1.123,32.858a9.4,9.4,0,0,0-2.238,6.739A47.241,47.241,0,0,0,335.9,72.533Z" transform="translate(-322.83 -12.801)" fill="#ea9f6c"/>
            </g>
          </g>
          <g id="Group_1154736" data-name="Group 1154736" transform="translate(12.884 8.997)">
            <g id="Group_1154733" data-name="Group 1154733" transform="translate(7.492 15.292)">
              <path id="Path_990635" data-name="Path 990635" d="M217.231,214.438c0,5.088-3.443,8.782-8.53,8.782a9.1,9.1,0,0,1-8.636-5.57,8.709,8.709,0,0,1-.576-3.212,9.211,9.211,0,0,1,16.375-5.792s.2.382.316.552C217.233,210.7,217.231,212.467,217.231,214.438Z" transform="translate(-199.489 -205.226)" fill="#ffe077"/>
              <path id="Path_990636" data-name="Path 990636" d="M222.027,238.863a9.213,9.213,0,0,1-17.848,3.212,9.214,9.214,0,0,0,15.8-9A9.167,9.167,0,0,1,222.027,238.863Z" transform="translate(-203.603 -229.651)" fill="#ffd05b"/>
            </g>
            <g id="Group_1154734" data-name="Group 1154734" transform="translate(15.844 4.36)">
              <path id="Path_990637" data-name="Path 990637" d="M285.231,125.438c0,5.088-3.443,8.782-8.53,8.782a9.1,9.1,0,0,1-8.636-5.57,8.71,8.71,0,0,1-.576-3.212,9.211,9.211,0,0,1,16.375-5.792s.2.382.316.552c1.054,1.5,1.052,3.269,1.052,5.24Z" transform="translate(-267.489 -116.226)" fill="#bbf39b"/>
              <path id="Path_990638" data-name="Path 990638" d="M290.027,149.863a9.213,9.213,0,0,1-17.848,3.212,9.214,9.214,0,0,0,15.8-9A9.167,9.167,0,0,1,290.027,149.863Z" transform="translate(-271.603 -140.651)" fill="#9ae59c"/>
            </g>
            <g id="Group_1154735" data-name="Group 1154735">
              <path id="Path_990639" data-name="Path 990639" d="M156.231,89.938c0,5.088-3.443,8.782-8.53,8.782a9.1,9.1,0,0,1-8.636-5.57,8.71,8.71,0,0,1-.576-3.212,9.211,9.211,0,0,1,16.375-5.792s.2.382.316.552c1.054,1.5,1.052,3.269,1.052,5.24Z" transform="translate(-138.489 -80.726)" fill="#fe8991"/>
              <path id="Path_990640" data-name="Path 990640" d="M161.027,114.363a9.213,9.213,0,0,1-17.848,3.212,9.214,9.214,0,0,0,15.8-9,9.167,9.167,0,0,1,2.049,5.792Z" transform="translate(-142.603 -105.151)" fill="#fe646f"/>
            </g>
          </g>
        </g>
        <g id="Group_1154738" data-name="Group 1154738" transform="translate(25.095 -0.001)">
          <path id="Path_990641" data-name="Path 990641" d="M43.914,102.973c-1.513-1.164-3.061-.7-4.559-.248a14.111,14.111,0,0,1-1.736.442c-2.226.371-4.816-.009-5.41-2.187a2.56,2.56,0,0,1,.531-2.154,2.4,2.4,0,0,0-.294-3.118,6.058,6.058,0,0,0-.948-.486c-.148-.077-.4-.242-.4-.48a.562.562,0,0,1,.34-.458.921.921,0,0,0,.016-1.619,2.434,2.434,0,0,1-.641-.554c-.225-.3-.183-.336-.007-.49a3.54,3.54,0,0,0,.7-3.724.921.921,0,0,0-.738-.611l-2.139-.312a2.783,2.783,0,0,1-1.155-.449,1.231,1.231,0,0,1-.234-1.831,17.824,17.824,0,0,0,3.459-6.12c.134-.389.255-.788.358-1.188a3.749,3.749,0,0,0-.406-2.851,2.739,2.739,0,0,1-.416-1.912,5.874,5.874,0,0,1,.553-1.505,7.159,7.159,0,0,0,.828-2.958c.262-4.086,1.026-5.923,2.343-7.883a19.561,19.561,0,0,1,2.4-2.917.921.921,0,1,0-1.3-1.3,21.415,21.415,0,0,0-2.631,3.193c-1.462,2.176-2.365,4.312-2.652,8.793a5.37,5.37,0,0,1-.65,2.279,7.666,7.666,0,0,0-.7,1.941,4.544,4.544,0,0,0,.643,3.221,1.9,1.9,0,0,1,.2,1.442c-.091.352-.2.7-.315,1.046a16.026,16.026,0,0,1-3.1,5.5,3.073,3.073,0,0,0,.579,4.576,4.638,4.638,0,0,0,1.924.747l1.511.22a1.413,1.413,0,0,1-.279,1.215,2.044,2.044,0,0,0-.256,2.984,3.433,3.433,0,0,0,.273.32,2.246,2.246,0,0,0-.357,1.212,2.409,2.409,0,0,0,1.387,2.108c.153.08.367.189.652.305a1.068,1.068,0,0,1-.157.751,4.235,4.235,0,0,0-.709,3.552c.756,2.77,3.7,4.152,7.491,3.519a15.743,15.743,0,0,0,1.964-.495c1.407-.423,2.175-.618,2.905-.056,1.1.845,2.239,2.277,2.37,6.493a.921.921,0,0,0,.92.893h.029a.921.921,0,0,0,.892-.949c-.155-4.984-1.648-6.789-3.088-7.9Z" transform="translate(-25.095 -48.935)"/>
          <path id="Path_990642" data-name="Path 990642" d="M132.806,5.822a22.3,22.3,0,0,1,7.279-3.033C146.55,1.315,158.73.26,167.669,9.75c7.454,7.912,7.324,20.776-.308,30.588a.921.921,0,1,0,1.454,1.131,28.573,28.573,0,0,0,6.229-17.325A22.649,22.649,0,0,0,169.01,8.486,26.408,26.408,0,0,0,154.683.613a36.193,36.193,0,0,0-15.007.379A24.139,24.139,0,0,0,131.8,4.279a.921.921,0,0,0,1.008,1.542Z" transform="translate(-118.326 0.001)"/>
          <path id="Path_990643" data-name="Path 990643" d="M399.107,359.362a8.42,8.42,0,0,1,.652-3.862.921.921,0,1,0-1.7-.72,10.272,10.272,0,0,0-.794,4.711A49.232,49.232,0,0,0,400.439,373a.921.921,0,0,0,1.723-.654A47.37,47.37,0,0,1,399.107,359.362Z" transform="translate(-351.535 -310.711)"/>
          <path id="Path_990644" data-name="Path 990644" d="M242.91,245.226a.921.921,0,0,0-.921.921V248.6a.921.921,0,1,0,1.842,0v-2.457a.921.921,0,0,0-.921-.921Z" transform="translate(-215.349 -215.106)"/>
          <path id="Path_990645" data-name="Path 990645" d="M247.268,298.691a.921.921,0,0,0,1.3,0,2.554,2.554,0,0,1,3.608,0,.921.921,0,0,0,1.3-1.3,4.4,4.4,0,0,0-6.213,0A.921.921,0,0,0,247.268,298.691Z" transform="translate(-219.743 -259.734)"/>
          <path id="Path_990646" data-name="Path 990646" d="M167.1,87.721a10.174,10.174,0,0,0-6.62-9.507.921.921,0,0,0-.639,1.728,8.292,8.292,0,1,1-10.9,9.859,10.128,10.128,0,0,0,2.2-7.976,8.271,8.271,0,0,1,4.923-2.346.921.921,0,1,0-.2-1.832,10.1,10.1,0,0,0-5.245,2.178,10.132,10.132,0,1,0-10.682,13.6,10.148,10.148,0,0,0-.716,9.033.921.921,0,1,0,1.708-.692,8.3,8.3,0,0,1,1.241-8.324,10.084,10.084,0,0,0,5.3-2.188,10.139,10.139,0,0,0,3.3,4.47v2.01a.921.921,0,1,0,1.842,0V96.86a10.074,10.074,0,0,0,4.26.992c.025.266.039.533.039.8a8.291,8.291,0,0,1-13.747,6.242.921.921,0,1,0-1.213,1.387,10.133,10.133,0,0,0,16.8-7.629c0-.317-.015-.635-.044-.95A10.148,10.148,0,0,0,167.1,87.721Zm-25.978,3.93a8.291,8.291,0,1,1,8.291-8.291A8.3,8.3,0,0,1,141.121,91.652Z" transform="translate(-117.982 -64.234)"/>
          <path id="Path_990647" data-name="Path 990647" d="M311.831,159.6v-2.457a.921.921,0,1,0-1.842,0V159.6a.921.921,0,1,0,1.842,0Z" transform="translate(-274.997 -137.037)"/>
          <path id="Path_990648" data-name="Path 990648" d="M361.831,159.6v-2.457a.921.921,0,0,0-1.842,0V159.6a.921.921,0,0,0,1.842,0Z" transform="translate(-318.855 -137.037)"/>
          <path id="Path_990649" data-name="Path 990649" d="M318.376,211.943a4.38,4.38,0,0,0,3.107-1.285.921.921,0,0,0-1.3-1.3,2.554,2.554,0,0,1-3.608,0,.921.921,0,0,0-1.3,1.3A4.38,4.38,0,0,0,318.376,211.943Z" transform="translate(-279.392 -183.405)"/>
          <path id="Path_990650" data-name="Path 990650" d="M179.036,125.273a.921.921,0,0,0,0-1.3l-1.474-1.474a.921.921,0,0,0-1.3,1.3l.823.823-.823.823a.921.921,0,1,0,1.3,1.3Z" transform="translate(-157.456 -107.214)"/>
          <path id="Path_990651" data-name="Path 990651" d="M227.036,122.5a.921.921,0,0,0-1.3,0l-1.474,1.474a.921.921,0,0,0,0,1.3l1.474,1.474a.921.921,0,0,0,1.3-1.3l-.823-.823.823-.823A.921.921,0,0,0,227.036,122.5Z" transform="translate(-199.56 -107.214)"/>
          <path id="Path_990652" data-name="Path 990652" d="M186.268,174.888a.921.921,0,0,0,1.3,1.3,2.554,2.554,0,0,1,3.608,0,.921.921,0,0,0,1.3-1.3A4.4,4.4,0,0,0,186.268,174.888Z" transform="translate(-166.235 -152.28)"/>
        </g>
      </g>
    </g>
  </g>
</svg>
